999
"DXF R12 Output" (www.mydxf.blogspot.com)
 0 
SECTION
 2 
HEADER
 9 
$ACADVER
 1 
AC1009
 9 
$EXTMIN
 10 
 0 
 20 
 0 
 9 
$EXTMAX
 10 
 8.5 
 20 
 11 
 0 
ENDSEC
 0 
SECTION
 2 
ENTITIES
0
POLYLINE
8
Layer 1
62
7
70
1
10
0.000000
20
0.000000
66
1
0
VERTEX
8
Layer 1
10
75.273864
20
29.626937
70
0
0
VERTEX
8
Layer 1
10
75.141572
20
28.105664
70
0
0
VERTEX
8
Layer 1
10
74.843916
20
25.922854
70
0
0
VERTEX
8
Layer 1
10
74.413969
20
23.508534
70
0
0
VERTEX
8
Layer 1
10
73.984021
20
21.259579
70
0
0
VERTEX
8
Layer 1
10
73.620220
20
19.539789
70
0
0
VERTEX
8
Layer 1
10
73.454855
20
18.779113
70
0
0
VERTEX
8
Layer 1
10
73.091054
20
18.646822
70
0
0
VERTEX
8
Layer 1
10
72.462669
20
18.712967
70
0
0
VERTEX
8
Layer 1
10
71.834285
20
18.911405
70
0
0
VERTEX
8
Layer 1
10
71.503556
20
19.242133
70
0
0
VERTEX
8
Layer 1
10
71.470483
20
20.168174
70
0
0
VERTEX
8
Layer 1
10
71.536629
20
22.053328
70
0
0
VERTEX
8
Layer 1
10
71.668920
20
24.434575
70
0
0
VERTEX
8
Layer 1
10
71.801212
20
26.815822
70
0
0
VERTEX
8
Layer 1
10
71.933503
20
28.734048
70
0
0
VERTEX
8
Layer 1
10
71.999649
20
29.693082
70
0
0
VERTEX
8
Layer 1
10
71.867357
20
30.817560
70
0
0
VERTEX
8
Layer 1
10
71.602774
20
31.776674
70
0
0
VERTEX
8
Layer 1
10
71.205900
20
32.371985
70
0
0
VERTEX
8
Layer 1
10
70.842098
20
32.537350
70
0
0
VERTEX
8
Layer 1
10
70.114495
20
32.305840
70
0
0
VERTEX
8
Layer 1
10
69.618402
20
32.008184
70
0
0
VERTEX
8
Layer 1
10
69.254600
20
31.545163
70
0
0
VERTEX
8
Layer 1
10
69.122309
20
31.148289
70
0
0
VERTEX
8
Layer 1
10
69.056163
20
30.387613
70
0
0
VERTEX
8
Layer 1
10
69.056163
20
29.428499
70
0
0
VERTEX
8
Layer 1
10
69.023090
20
27.510352
70
0
0
VERTEX
8
Layer 1
10
68.990017
20
25.062959
70
0
0
VERTEX
8
Layer 1
10
68.956944
20
22.648639
70
0
0
VERTEX
8
Layer 1
10
68.923872
20
20.763486
70
0
0
VERTEX
8
Layer 1
10
68.857726
20
19.870518
70
0
0
VERTEX
8
Layer 1
10
68.526997
20
19.308279
70
0
0
VERTEX
8
Layer 1
10
67.931685
20
18.679894
70
0
0
VERTEX
8
Layer 1
10
67.303301
20
18.216874
70
0
0
VERTEX
8
Layer 1
10
67.055254
20
18.167199
70
0
0
VERTEX
8
Layer 1
10
66.906426
20
18.283020
70
0
0
VERTEX
8
Layer 1
10
66.707989
20
19.242133
70
0
0
VERTEX
8
Layer 1
10
66.476479
20
21.391870
70
0
0
VERTEX
8
Layer 1
10
66.244969
20
24.169992
70
0
0
VERTEX
8
Layer 1
10
66.013458
20
27.080405
70
0
0
VERTEX
8
Layer 1
10
65.848094
20
29.593864
70
0
0
VERTEX
8
Layer 1
10
65.748875
20
31.214435
70
0
0
VERTEX
8
Layer 1
10
65.682730
20
32.768860
70
0
0
VERTEX
8
Layer 1
10
65.616584
20
34.422504
70
0
0
VERTEX
8
Layer 1
10
65.616584
20
35.778491
70
0
0
VERTEX
8
Layer 1
10
65.748875
20
36.506095
70
0
0
VERTEX
8
Layer 1
10
66.178823
20
36.572240
70
0
0
VERTEX
8
Layer 1
10
67.005645
20
36.307657
70
0
0
VERTEX
8
Layer 1
10
67.865539
20
35.877710
70
0
0
VERTEX
8
Layer 1
10
68.394706
20
35.414690
70
0
0
VERTEX
8
Layer 1
10
68.560070
20
34.951670
70
0
0
VERTEX
8
Layer 1
10
68.725434
20
34.157921
70
0
0
VERTEX
8
Layer 1
10
69.949131
20
34.753232
70
0
0
VERTEX
8
Layer 1
10
71.238973
20
35.183180
70
0
0
VERTEX
8
Layer 1
10
72.495742
20
35.282398
70
0
0
VERTEX
8
Layer 1
10
73.554074
20
34.951670
70
0
0
VERTEX
8
Layer 1
10
74.149386
20
34.157921
70
0
0
VERTEX
8
Layer 1
10
74.711625
20
32.835006
70
0
0
VERTEX
8
Layer 1
10
75.108499
20
31.214435
70
0
0
VERTEX
8
Layer 1
10
75.273864
20
29.626937
70
0
0
VERTEX
8
Layer 1
10
75.273864
20
29.626937
70
0
0
SEQEND
8
Layer 1
0
POLYLINE
8
Layer 1
62
7
70
1
10
0.000000
20
0.000000
66
1
0
VERTEX
8
Layer 1
10
62.603248
20
37.037615
70
0
0
VERTEX
8
Layer 1
10
62.948000
20
36.528108
70
0
0
VERTEX
8
Layer 1
10
63.220256
20
35.855855
70
0
0
VERTEX
8
Layer 1
10
63.378476
20
34.790750
70
0
0
VERTEX
8
Layer 1
10
63.412608
20
33.068447
70
0
0
VERTEX
8
Layer 1
10
63.184272
20
29.668132
70
0
0
VERTEX
8
Layer 1
10
62.939269
20
26.698611
70
0
0
VERTEX
8
Layer 1
10
62.791896
20
24.553108
70
0
0
VERTEX
8
Layer 1
10
62.659340
20
22.803950
70
0
0
VERTEX
8
Layer 1
10
62.516465
20
21.650897
70
0
0
VERTEX
8
Layer 1
10
62.432857
20
21.190787
70
0
0
VERTEX
8
Layer 1
10
62.005555
20
21.273072
70
0
0
VERTEX
8
Layer 1
10
61.429558
20
21.791390
70
0
0
VERTEX
8
Layer 1
10
60.891396
20
22.440677
70
0
0
VERTEX
8
Layer 1
10
60.581040
20
22.982014
70
0
0
VERTEX
8
Layer 1
10
60.518334
20
23.944302
70
0
0
VERTEX
8
Layer 1
10
59.668791
20
23.579145
70
0
0
VERTEX
8
Layer 1
10
58.741659
20
23.349520
70
0
0
VERTEX
8
Layer 1
10
56.819728
20
23.289989
70
0
0
VERTEX
8
Layer 1
10
55.115020
20
23.718613
70
0
0
VERTEX
8
Layer 1
10
54.434083
20
24.092105
70
0
0
VERTEX
8
Layer 1
10
53.955353
20
24.557077
70
0
0
VERTEX
8
Layer 1
10
53.680451
20
25.163236
70
0
0
VERTEX
8
Layer 1
10
53.515880
20
26.063083
70
0
0
VERTEX
8
Layer 1
10
53.424864
20
27.158721
70
0
0
VERTEX
8
Layer 1
10
53.367185
20
28.253036
70
0
0
VERTEX
8
Layer 1
10
53.462236
20
29.449160
70
0
0
VERTEX
8
Layer 1
10
53.781522
20
30.454764
70
0
0
VERTEX
8
Layer 1
10
54.375048
20
31.267966
70
0
0
VERTEX
8
Layer 1
10
55.289645
20
31.820779
70
0
0
VERTEX
8
Layer 1
10
56.519956
20
31.972730
70
0
0
VERTEX
8
Layer 1
10
58.070677
20
31.847741
70
0
0
VERTEX
8
Layer 1
10
59.484344
20
31.595593
70
0
0
VERTEX
8
Layer 1
10
60.271214
20
31.400278
70
0
0
VERTEX
8
Layer 1
10
60.183108
20
34.316115
70
0
0
VERTEX
8
Layer 1
10
59.980172
20
35.945549
70
0
0
VERTEX
8
Layer 1
10
59.601025
20
36.423280
70
0
0
VERTEX
8
Layer 1
10
59.086146
20
36.806846
70
0
0
VERTEX
8
Layer 1
10
58.304304
20
37.134373
70
0
0
VERTEX
8
Layer 1
10
57.955649
20
37.106195
70
0
0
VERTEX
8
Layer 1
10
57.631998
20
36.861959
70
0
0
VERTEX
8
Layer 1
10
57.091191
20
35.690994
70
0
0
VERTEX
8
Layer 1
10
56.763372
20
33.154966
70
0
0
VERTEX
8
Layer 1
10
54.978760
20
33.222620
70
0
0
VERTEX
8
Layer 1
10
54.091349
20
33.388619
70
0
0
VERTEX
8
Layer 1
10
53.668016
20
33.570149
70
0
0
VERTEX
8
Layer 1
10
53.770409
20
34.526088
70
0
0
VERTEX
8
Layer 1
10
54.204061
20
36.363061
70
0
0
VERTEX
8
Layer 1
10
54.870281
20
38.224297
70
0
0
VERTEX
8
Layer 1
10
55.269768
20
38.937298
70
0
0
VERTEX
8
Layer 1
10
55.673026
20
39.319168
70
0
0
VERTEX
8
Layer 1
10
56.552533
20
39.600257
70
0
0
VERTEX
8
Layer 1
10
57.569557
20
39.578274
70
0
0
VERTEX
8
Layer 1
10
58.668701
20
39.329751
70
0
0
VERTEX
8
Layer 1
10
59.729348
20
38.933749
70
0
0
VERTEX
8
Layer 1
10
61.576931
20
37.903940
70
0
0
VERTEX
8
Layer 1
10
62.603248
20
37.037615
70
0
0
VERTEX
8
Layer 1
10
62.603248
20
37.037615
70
0
0
SEQEND
8
Layer 1
0
POLYLINE
8
Layer 1
62
7
70
1
10
0.000000
20
0.000000
66
1
0
VERTEX
8
Layer 1
10
60.188399
20
27.464844
70
0
0
VERTEX
8
Layer 1
10
60.237612
20
27.893204
70
0
0
VERTEX
8
Layer 1
10
60.293174
20
28.486928
70
0
0
VERTEX
8
Layer 1
10
60.281532
20
29.049960
70
0
0
VERTEX
8
Layer 1
10
60.230468
20
29.449137
70
0
0
VERTEX
8
Layer 1
10
59.648121
20
29.802170
70
0
0
VERTEX
8
Layer 1
10
58.596668
20
30.007513
70
0
0
VERTEX
8
Layer 1
10
57.474307
20
30.083131
70
0
0
VERTEX
8
Layer 1
10
56.742206
20
29.978488
70
0
0
VERTEX
8
Layer 1
10
56.328133
20
29.530840
70
0
0
VERTEX
8
Layer 1
10
56.160917
20
28.610488
70
0
0
VERTEX
8
Layer 1
10
56.170177
20
27.981310
70
0
0
VERTEX
8
Layer 1
10
56.211188
20
27.317736
70
0
0
VERTEX
8
Layer 1
10
56.323371
20
26.784072
70
0
0
VERTEX
8
Layer 1
10
56.510431
20
26.479007
70
0
0
VERTEX
8
Layer 1
10
57.292274
20
26.151454
70
0
0
VERTEX
8
Layer 1
10
58.479458
20
26.040329
70
0
0
VERTEX
8
Layer 1
10
59.585150
20
26.395664
70
0
0
VERTEX
8
Layer 1
10
59.990160
20
26.818732
70
0
0
VERTEX
8
Layer 1
10
60.188399
20
27.464844
70
0
0
VERTEX
8
Layer 1
10
60.188399
20
27.464844
70
0
0
SEQEND
8
Layer 1
0
POLYLINE
8
Layer 1
62
7
70
1
10
0.000000
20
0.000000
66
1
0
VERTEX
8
Layer 1
10
49.203971
20
38.819132
70
0
0
VERTEX
8
Layer 1
10
49.509829
20
37.998607
70
0
0
VERTEX
8
Layer 1
10
49.953535
20
35.960392
70
0
0
VERTEX
8
Layer 1
10
50.496459
20
33.133931
70
0
0
VERTEX
8
Layer 1
10
51.050761
20
29.839926
70
0
0
VERTEX
8
Layer 1
10
51.583631
20
26.475303
70
0
0
VERTEX
8
Layer 1
10
52.023368
20
23.463820
70
0
0
VERTEX
8
Layer 1
10
52.309911
20
21.164329
70
0
0
VERTEX
8
Layer 1
10
52.415215
20
19.941162
70
0
0
VERTEX
8
Layer 1
10
52.122586
20
19.288171
70
0
0
VERTEX
8
Layer 1
10
51.547912
20
18.319268
70
0
0
VERTEX
8
Layer 1
10
50.793586
20
17.421008
70
0
0
VERTEX
8
Layer 1
10
50.153031
20
16.843688
70
0
0
VERTEX
8
Layer 1
10
49.546937
20
16.657819
70
0
0
VERTEX
8
Layer 1
10
48.837259
20
16.689436
70
0
0
VERTEX
8
Layer 1
10
47.352155
20
17.143725
70
0
0
VERTEX
8
Layer 1
10
46.089565
20
17.870270
70
0
0
VERTEX
8
Layer 1
10
45.425462
20
18.429070
70
0
0
VERTEX
8
Layer 1
10
45.130981
20
18.983371
70
0
0
VERTEX
8
Layer 1
10
44.912435
20
19.684251
70
0
0
VERTEX
8
Layer 1
10
44.802633
20
20.336713
70
0
0
VERTEX
8
Layer 1
10
44.981491
20
20.668500
70
0
0
VERTEX
8
Layer 1
10
45.715709
20
20.490171
70
0
0
VERTEX
8
Layer 1
10
47.059262
20
20.079274
70
0
0
VERTEX
8
Layer 1
10
48.348575
20
19.793260
70
0
0
VERTEX
8
Layer 1
10
48.812091
20
19.779005
70
0
0
VERTEX
8
Layer 1
10
49.027759
20
19.941162
70
0
0
VERTEX
8
Layer 1
10
49.052630
20
21.387372
70
0
0
VERTEX
8
Layer 1
10
48.835936
20
24.268681
70
0
0
VERTEX
8
Layer 1
10
46.836483
20
23.395557
70
0
0
VERTEX
8
Layer 1
10
45.991206
20
23.286781
70
0
0
VERTEX
8
Layer 1
10
45.248720
20
23.463555
70
0
0
VERTEX
8
Layer 1
10
44.513973
20
24.044315
70
0
0
VERTEX
8
Layer 1
10
43.772876
20
25.059784
70
0
0
VERTEX
8
Layer 1
10
43.150841
20
26.363649
70
0
0
VERTEX
8
Layer 1
10
42.751586
20
27.738687
70
0
0
VERTEX
8
Layer 1
10
42.629878
20
29.059750
70
0
0
VERTEX
8
Layer 1
10
42.643107
20
30.973611
70
0
0
VERTEX
8
Layer 1
10
42.683323
20
33.126788
70
0
0
VERTEX
8
Layer 1
10
42.777779
20
35.155002
70
0
0
VERTEX
8
Layer 1
10
42.889433
20
36.683021
70
0
0
VERTEX
8
Layer 1
10
42.969867
20
37.400861
70
0
0
VERTEX
8
Layer 1
10
43.279693
20
37.553605
70
0
0
VERTEX
8
Layer 1
10
43.839551
20
37.614301
70
0
0
VERTEX
8
Layer 1
10
44.421369
20
37.544556
70
0
0
VERTEX
8
Layer 1
10
44.797077
20
37.305929
70
0
0
VERTEX
8
Layer 1
10
44.934131
20
36.490590
70
0
0
VERTEX
8
Layer 1
10
45.110872
20
34.843402
70
0
0
VERTEX
8
Layer 1
10
45.293699
20
32.761266
70
0
0
VERTEX
8
Layer 1
10
45.476526
20
30.679130
70
0
0
VERTEX
8
Layer 1
10
45.620459
20
29.026413
70
0
0
VERTEX
8
Layer 1
10
45.692426
20
28.200120
70
0
0
VERTEX
8
Layer 1
10
45.960448
20
27.205552
70
0
0
VERTEX
8
Layer 1
10
46.391189
20
26.439585
70
0
0
VERTEX
8
Layer 1
10
46.870349
20
25.983708
70
0
0
VERTEX
8
Layer 1
10
47.251084
20
25.913594
70
0
0
VERTEX
8
Layer 1
10
48.218400
20
26.344599
70
0
0
VERTEX
8
Layer 1
10
48.609453
20
26.611828
70
0
0
VERTEX
8
Layer 1
10
48.255970
20
29.906098
70
0
0
VERTEX
8
Layer 1
10
47.897725
20
33.031882
70
0
0
VERTEX
8
Layer 1
10
47.594778
20
35.429189
70
0
0
VERTEX
8
Layer 1
10
47.451374
20
36.679502
70
0
0
VERTEX
8
Layer 1
10
47.602450
20
37.375700
70
0
0
VERTEX
8
Layer 1
10
48.074202
20
38.159394
70
0
0
VERTEX
8
Layer 1
10
48.655226
20
38.693191
70
0
0
VERTEX
8
Layer 1
10
49.203971
20
38.819132
70
0
0
VERTEX
8
Layer 1
10
49.203971
20
38.819132
70
0
0
SEQEND
8
Layer 1
0
POLYLINE
8
Layer 1
62
7
70
1
10
0.000000
20
0.000000
66
1
0
VERTEX
8
Layer 1
10
40.956125
20
31.877136
70
0
0
VERTEX
8
Layer 1
10
41.269921
20
31.112200
70
0
0
VERTEX
8
Layer 1
10
41.443752
20
29.939462
70
0
0
VERTEX
8
Layer 1
10
41.471798
20
28.599640
70
0
0
VERTEX
8
Layer 1
10
41.403535
20
27.284663
70
0
0
VERTEX
8
Layer 1
10
41.305904
20
26.250672
70
0
0
VERTEX
8
Layer 1
10
41.181021
20
25.770454
70
0
0
VERTEX
8
Layer 1
10
40.730436
20
25.614350
70
0
0
VERTEX
8
Layer 1
10
39.791431
20
25.550586
70
0
0
VERTEX
8
Layer 1
10
38.099423
20
25.614350
70
0
0
VERTEX
8
Layer 1
10
38.533339
20
28.337703
70
0
0
VERTEX
8
Layer 1
10
38.458197
20
29.758143
70
0
0
VERTEX
8
Layer 1
10
38.281390
20
30.162853
70
0
0
VERTEX
8
Layer 1
10
38.030367
20
30.347634
70
0
0
VERTEX
8
Layer 1
10
37.435055
20
30.160548
70
0
0
VERTEX
8
Layer 1
10
36.959335
20
29.908215
70
0
0
VERTEX
8
Layer 1
10
36.482556
20
29.519489
70
0
0
VERTEX
8
Layer 1
10
36.238081
20
29.104597
70
0
0
VERTEX
8
Layer 1
10
35.835651
20
28.081587
70
0
0
VERTEX
8
Layer 1
10
35.562601
20
27.161367
70
0
0
VERTEX
8
Layer 1
10
35.106725
20
25.537357
70
0
0
VERTEX
8
Layer 1
10
34.567504
20
23.592936
70
0
0
VERTEX
8
Layer 1
10
34.036486
20
21.680530
70
0
0
VERTEX
8
Layer 1
10
33.622149
20
20.216328
70
0
0
VERTEX
8
Layer 1
10
33.407308
20
19.520475
70
0
0
VERTEX
8
Layer 1
10
32.970746
20
19.155350
70
0
0
VERTEX
8
Layer 1
10
32.253197
20
18.760857
70
0
0
VERTEX
8
Layer 1
10
31.545173
20
18.534638
70
0
0
VERTEX
8
Layer 1
10
31.290545
20
18.541021
70
0
0
VERTEX
8
Layer 1
10
31.169465
20
18.666665
70
0
0
VERTEX
8
Layer 1
10
31.193542
20
19.548785
70
0
0
VERTEX
8
Layer 1
10
31.435106
20
21.399543
70
0
0
VERTEX
8
Layer 1
10
31.826160
20
23.826563
70
0
0
VERTEX
8
Layer 1
10
32.242349
20
26.349626
70
0
0
VERTEX
8
Layer 1
10
32.631021
20
28.503861
70
0
0
VERTEX
8
Layer 1
10
32.892429
20
29.905225
70
0
0
VERTEX
8
Layer 1
10
33.177650
20
31.266319
70
0
0
VERTEX
8
Layer 1
10
33.471072
20
32.659402
70
0
0
VERTEX
8
Layer 1
10
33.770316
20
33.811793
70
0
0
VERTEX
8
Layer 1
10
34.056330
20
34.386732
70
0
0
VERTEX
8
Layer 1
10
34.480721
20
34.310664
70
0
0
VERTEX
8
Layer 1
10
35.231079
20
33.910747
70
0
0
VERTEX
8
Layer 1
10
35.971911
20
33.342476
70
0
0
VERTEX
8
Layer 1
10
36.376194
20
32.793307
70
0
0
VERTEX
8
Layer 1
10
36.443398
20
32.263268
70
0
0
VERTEX
8
Layer 1
10
37.745411
20
32.540154
70
0
0
VERTEX
8
Layer 1
10
38.941855
20
32.673636
70
0
0
VERTEX
8
Layer 1
10
40.015004
20
32.463293
70
0
0
VERTEX
8
Layer 1
10
40.956125
20
31.877136
70
0
0
VERTEX
8
Layer 1
10
40.956125
20
31.877136
70
0
0
SEQEND
8
Layer 1
0
POLYLINE
8
Layer 1
62
7
70
1
10
0.000000
20
0.000000
66
1
0
VERTEX
8
Layer 1
10
31.190102
20
27.251854
70
0
0
VERTEX
8
Layer 1
10
31.151738
20
26.538803
70
0
0
VERTEX
8
Layer 1
10
30.882657
20
25.219857
70
0
0
VERTEX
8
Layer 1
10
30.537112
20
23.865192
70
0
0
VERTEX
8
Layer 1
10
30.268031
20
23.152141
70
0
0
VERTEX
8
Layer 1
10
29.883856
20
23.152141
70
0
0
VERTEX
8
Layer 1
10
29.653404
20
23.187860
70
0
0
VERTEX
8
Layer 1
10
29.960850
20
20.443075
70
0
0
VERTEX
8
Layer 1
10
30.075943
20
19.302194
70
0
0
VERTEX
8
Layer 1
10
29.807127
20
18.589142
70
0
0
VERTEX
8
Layer 1
10
29.269230
20
17.733746
70
0
0
VERTEX
8
Layer 1
10
28.616239
20
17.127586
70
0
0
VERTEX
8
Layer 1
10
28.356948
20
16.993938
70
0
0
VERTEX
8
Layer 1
10
28.193700
20
17.091867
70
0
0
VERTEX
8
Layer 1
10
27.386986
20
19.016973
70
0
0
VERTEX
8
Layer 1
10
26.004037
20
23.401643
70
0
0
VERTEX
8
Layer 1
10
24.390610
20
23.544253
70
0
0
VERTEX
8
Layer 1
10
22.738766
20
23.686863
70
0
0
VERTEX
8
Layer 1
10
21.048504
20
23.865192
70
0
0
VERTEX
8
Layer 1
10
19.473494
20
24.114694
70
0
0
VERTEX
8
Layer 1
10
18.705198
20
21.155862
70
0
0
VERTEX
8
Layer 1
10
18.013737
20
18.731753
70
0
0
VERTEX
8
Layer 1
10
17.475919
20
17.091867
70
0
0
VERTEX
8
Layer 1
10
17.130188
20
16.485972
70
0
0
VERTEX
8
Layer 1
10
16.822875
20
16.575070
70
0
0
VERTEX
8
Layer 1
10
16.515562
20
16.842365
70
0
0
VERTEX
8
Layer 1
10
15.939327
20
17.698027
70
0
0
VERTEX
8
Layer 1
10
15.555179
20
18.731753
70
0
0
VERTEX
8
Layer 1
10
15.401509
20
19.623133
70
0
0
VERTEX
8
Layer 1
10
15.593596
20
21.334191
70
0
0
VERTEX
8
Layer 1
10
15.824074
20
22.974076
70
0
0
VERTEX
8
Layer 1
10
16.054579
20
24.720853
70
0
0
VERTEX
8
Layer 1
10
15.900909
20
24.720853
70
0
0
VERTEX
8
Layer 1
10
15.478344
20
25.041528
70
0
0
VERTEX
8
Layer 1
10
14.940526
20
25.540796
70
0
0
VERTEX
8
Layer 1
10
14.479569
20
26.075518
70
0
0
VERTEX
8
Layer 1
10
14.287482
20
26.503085
70
0
0
VERTEX
8
Layer 1
10
14.825300
20
26.645695
70
0
0
VERTEX
8
Layer 1
10
16.323475
20
26.788305
70
0
0
VERTEX
8
Layer 1
10
16.976518
20
31.244412
70
0
0
VERTEX
8
Layer 1
10
17.668006
20
35.593521
70
0
0
VERTEX
8
Layer 1
10
18.321050
20
39.122688
70
0
0
VERTEX
8
Layer 1
10
18.897285
20
41.225964
70
0
0
VERTEX
8
Layer 1
10
19.425482
20
42.134989
70
0
0
VERTEX
8
Layer 1
10
20.241790
20
42.937075
70
0
0
VERTEX
8
Layer 1
10
22.239365
20
44.220409
70
0
0
VERTEX
8
Layer 1
10
24.275358
20
45.040325
70
0
0
VERTEX
8
Layer 1
10
25.696724
20
45.325519
70
0
0
VERTEX
8
Layer 1
10
25.898403
20
45.120537
70
0
0
VERTEX
8
Layer 1
10
26.119290
20
44.505603
70
0
0
VERTEX
8
Layer 1
10
26.657002
20
42.366714
70
0
0
VERTEX
8
Layer 1
10
27.271628
20
39.193993
70
0
0
VERTEX
8
Layer 1
10
27.924884
20
35.415272
70
0
0
VERTEX
8
Layer 1
10
28.501145
20
31.315691
70
0
0
VERTEX
8
Layer 1
10
29.077143
20
27.358746
70
0
0
VERTEX
8
Layer 1
10
31.190102
20
27.251854
70
0
0
VERTEX
8
Layer 1
10
31.190102
20
27.251854
70
0
0
SEQEND
8
Layer 1
0
POLYLINE
8
Layer 1
62
7
70
1
10
0.000000
20
0.000000
66
1
0
VERTEX
8
Layer 1
10
20.203373
20
27.037807
70
0
0
VERTEX
8
Layer 1
10
22.661931
20
27.144963
70
0
0
VERTEX
8
Layer 1
10
25.082072
20
27.251854
70
0
0
VERTEX
8
Layer 1
10
24.390610
20
30.353191
70
0
0
VERTEX
8
Layer 1
10
23.660732
20
33.775439
70
0
0
VERTEX
8
Layer 1
10
22.815601
20
38.088910
70
0
0
VERTEX
8
Layer 1
10
21.893635
20
33.989328
70
0
0
VERTEX
8
Layer 1
10
21.048504
20
30.460135
70
0
0
VERTEX
8
Layer 1
10
20.203373
20
27.037807
70
0
0
VERTEX
8
Layer 1
10
20.203373
20
27.037807
70
0
0
SEQEND
8
Layer 1
0
POLYLINE
8
Layer 1
62
7
70
1
10
0.000000
20
0.000000
66
1
0
VERTEX
8
Layer 1
10
75.273864
20
29.362433
70
0
0
VERTEX
8
Layer 1
10
75.108499
20
30.949931
70
0
0
VERTEX
8
Layer 1
10
74.775654
20
32.378785
70
0
0
VERTEX
8
Layer 1
10
74.711625
20
32.570502
70
0
0
VERTEX
8
Layer 1
10
74.230613
20
33.749748
70
0
0
VERTEX
8
Layer 1
10
74.149386
20
33.893417
70
0
0
VERTEX
8
Layer 1
10
73.554074
20
34.687166
70
0
0
VERTEX
8
Layer 1
10
72.495742
20
35.017895
70
0
0
VERTEX
8
Layer 1
10
71.238973
20
34.918676
70
0
0
VERTEX
8
Layer 1
10
69.949131
20
34.488729
70
0
0
VERTEX
8
Layer 1
10
68.725434
20
33.893417
70
0
0
VERTEX
8
Layer 1
10
68.560070
20
34.687166
70
0
0
VERTEX
8
Layer 1
10
68.394706
20
35.150186
70
0
0
VERTEX
8
Layer 1
10
67.960525
20
35.555316
70
0
0
VERTEX
8
Layer 1
10
67.865539
20
35.613206
70
0
0
VERTEX
8
Layer 1
10
67.005645
20
36.043154
70
0
0
VERTEX
8
Layer 1
10
66.278571
20
36.289137
70
0
0
VERTEX
8
Layer 1
10
66.178823
20
36.307737
70
0
0
VERTEX
8
Layer 1
10
65.748875
20
36.241591
70
0
0
VERTEX
8
Layer 1
10
65.616584
20
35.513988
70
0
0
VERTEX
8
Layer 1
10
65.616584
20
34.158000
70
0
0
VERTEX
8
Layer 1
10
65.682730
20
32.504356
70
0
0
VERTEX
8
Layer 1
10
65.748875
20
30.949931
70
0
0
VERTEX
8
Layer 1
10
65.790150
20
30.296728
70
0
0
VERTEX
8
Layer 1
10
65.848094
20
29.329360
70
0
0
VERTEX
8
Layer 1
10
66.013458
20
26.815822
70
0
0
VERTEX
8
Layer 1
10
66.244969
20
23.905409
70
0
0
VERTEX
8
Layer 1
10
66.476479
20
21.127287
70
0
0
VERTEX
8
Layer 1
10
66.707989
20
18.977550
70
0
0
VERTEX
8
Layer 1
10
66.906426
20
18.018437
70
0
0
VERTEX
8
Layer 1
10
67.231863
20
17.924510
70
0
0
VERTEX
8
Layer 1
10
67.303301
20
17.952291
70
0
0
VERTEX
8
Layer 1
10
67.849400
20
18.343080
70
0
0
VERTEX
8
Layer 1
10
67.931685
20
18.415311
70
0
0
VERTEX
8
Layer 1
10
68.459793
20
18.961411
70
0
0
VERTEX
8
Layer 1
10
68.526997
20
19.043696
70
0
0
VERTEX
8
Layer 1
10
68.838147
20
19.553812
70
0
0
VERTEX
8
Layer 1
10
68.857726
20
19.605935
70
0
0
VERTEX
8
Layer 1
10
68.907467
20
20.145420
70
0
0
VERTEX
8
Layer 1
10
68.923872
20
20.498903
70
0
0
VERTEX
8
Layer 1
10
68.954828
20
21.857007
70
0
0
VERTEX
8
Layer 1
10
68.956944
20
22.384056
70
0
0
VERTEX
8
Layer 1
10
68.987901
20
24.163906
70
0
0
VERTEX
8
Layer 1
10
68.990017
20
24.798376
70
0
0
VERTEX
8
Layer 1
10
69.020973
20
26.671095
70
0
0
VERTEX
8
Layer 1
10
69.023090
20
27.245769
70
0
0
VERTEX
8
Layer 1
10
69.054046
20
28.746484
70
0
0
VERTEX
8
Layer 1
10
69.056163
20
29.163996
70
0
0
VERTEX
8
Layer 1
10
69.056163
20
30.123109
70
0
0
VERTEX
8
Layer 1
10
69.122309
20
30.883785
70
0
0
VERTEX
8
Layer 1
10
69.254600
20
31.280660
70
0
0
VERTEX
8
Layer 1
10
69.618402
20
31.743680
70
0
0
VERTEX
8
Layer 1
10
70.041735
20
32.007734
70
0
0
VERTEX
8
Layer 1
10
70.114495
20
32.041336
70
0
0
VERTEX
8
Layer 1
10
70.736794
20
32.254749
70
0
0
VERTEX
8
Layer 1
10
70.842098
20
32.272846
70
0
0
VERTEX
8
Layer 1
10
71.205900
20
32.107482
70
0
0
VERTEX
8
Layer 1
10
71.262785
20
32.054777
70
0
0
VERTEX
8
Layer 1
10
71.602774
20
31.512170
70
0
0
VERTEX
8
Layer 1
10
71.867357
20
30.553057
70
0
0
VERTEX
8
Layer 1
10
71.999649
20
29.428579
70
0
0
VERTEX
8
Layer 1
10
71.995416
20
29.306632
70
0
0
VERTEX
8
Layer 1
10
71.933503
20
28.469465
70
0
0
VERTEX
8
Layer 1
10
71.912866
20
28.051953
70
0
0
VERTEX
8
Layer 1
10
71.801212
20
26.551239
70
0
0
VERTEX
8
Layer 1
10
71.735066
20
25.410092
70
0
0
VERTEX
8
Layer 1
10
71.668920
20
24.169992
70
0
0
VERTEX
8
Layer 1
10
71.536629
20
21.788745
70
0
0
VERTEX
8
Layer 1
10
71.503556
20
20.771688
70
0
0
VERTEX
8
Layer 1
10
71.470483
20
19.903591
70
0
0
VERTEX
8
Layer 1
10
71.503556
20
18.977550
70
0
0
VERTEX
8
Layer 1
10
71.834285
20
18.646822
70
0
0
VERTEX
8
Layer 1
10
72.462669
20
18.448384
70
0
0
VERTEX
8
Layer 1
10
72.952677
20
18.386472
70
0
0
VERTEX
8
Layer 1
10
73.091054
20
18.382239
70
0
0
VERTEX
8
Layer 1
10
73.434747
20
18.490718
70
0
0
VERTEX
8
Layer 1
10
73.454855
20
18.514530
70
0
0
VERTEX
8
Layer 1
10
73.620220
20
19.275206
70
0
0
VERTEX
8
Layer 1
10
73.984021
20
20.994996
70
0
0
VERTEX
8
Layer 1
10
74.413969
20
23.243951
70
0
0
VERTEX
8
Layer 1
10
74.637277
20
24.475850
70
0
0
VERTEX
8
Layer 1
10
74.843916
20
25.658271
70
0
0
VERTEX
8
Layer 1
10
75.141572
20
27.841081
70
0
0
VERTEX
8
Layer 1
10
75.271747
20
29.222918
70
0
0
VERTEX
8
Layer 1
10
75.273864
20
29.362433
70
0
0
VERTEX
8
Layer 1
10
75.273864
20
29.362433
70
0
0
SEQEND
8
Layer 1
0
POLYLINE
8
Layer 1
62
7
70
1
10
0.000000
20
0.000000
66
1
0
VERTEX
8
Layer 1
10
49.204236
20
38.554629
70
0
0
VERTEX
8
Layer 1
10
48.655226
20
38.428528
70
0
0
VERTEX
8
Layer 1
10
48.579291
20
38.379713
70
0
0
VERTEX
8
Layer 1
10
48.074202
20
37.894706
70
0
0
VERTEX
8
Layer 1
10
48.006204
20
37.806361
70
0
0
VERTEX
8
Layer 1
10
47.602450
20
37.111037
70
0
0
VERTEX
8
Layer 1
10
47.451374
20
36.414972
70
0
0
VERTEX
8
Layer 1
10
47.594778
20
35.164659
70
0
0
VERTEX
8
Layer 1
10
47.663305
20
34.645812
70
0
0
VERTEX
8
Layer 1
10
47.897460
20
32.767378
70
0
0
VERTEX
8
Layer 1
10
48.256235
20
29.641489
70
0
0
VERTEX
8
Layer 1
10
48.609453
20
26.347245
70
0
0
VERTEX
8
Layer 1
10
48.218135
20
26.080281
70
0
0
VERTEX
8
Layer 1
10
47.251084
20
25.649011
70
0
0
VERTEX
8
Layer 1
10
47.232034
20
25.638427
70
0
0
VERTEX
8
Layer 1
10
46.926441
20
25.682348
70
0
0
VERTEX
8
Layer 1
10
46.870349
20
25.718861
70
0
0
VERTEX
8
Layer 1
10
46.391189
20
26.175002
70
0
0
VERTEX
8
Layer 1
10
45.960448
20
26.940969
70
0
0
VERTEX
8
Layer 1
10
45.715709
20
27.805891
70
0
0
VERTEX
8
Layer 1
10
45.692426
20
27.935537
70
0
0
VERTEX
8
Layer 1
10
45.620459
20
28.761830
70
0
0
VERTEX
8
Layer 1
10
45.476526
20
30.414574
70
0
0
VERTEX
8
Layer 1
10
45.293435
20
32.496604
70
0
0
VERTEX
8
Layer 1
10
45.110872
20
34.578899
70
0
0
VERTEX
8
Layer 1
10
44.934131
20
36.226086
70
0
0
VERTEX
8
Layer 1
10
44.811100
20
37.001235
70
0
0
VERTEX
8
Layer 1
10
44.797077
20
37.041293
70
0
0
VERTEX
8
Layer 1
10
44.489102
20
37.257299
70
0
0
VERTEX
8
Layer 1
10
44.421634
20
37.280026
70
0
0
VERTEX
8
Layer 1
10
43.839551
20
37.349797
70
0
0
VERTEX
8
Layer 1
10
43.764145
20
37.352125
70
0
0
VERTEX
8
Layer 1
10
43.279693
20
37.289075
70
0
0
VERTEX
8
Layer 1
10
42.969867
20
37.136358
70
0
0
VERTEX
8
Layer 1
10
42.889698
20
36.418332
70
0
0
VERTEX
8
Layer 1
10
42.870648
20
36.094562
70
0
0
VERTEX
8
Layer 1
10
42.777779
20
34.890524
70
0
0
VERTEX
8
Layer 1
10
42.683059
20
32.862205
70
0
0
VERTEX
8
Layer 1
10
42.643107
20
30.709108
70
0
0
VERTEX
8
Layer 1
10
42.629878
20
28.794902
70
0
0
VERTEX
8
Layer 1
10
42.751586
20
27.474104
70
0
0
VERTEX
8
Layer 1
10
43.150841
20
26.099066
70
0
0
VERTEX
8
Layer 1
10
43.222543
20
25.927881
70
0
0
VERTEX
8
Layer 1
10
43.772612
20
24.795201
70
0
0
VERTEX
8
Layer 1
10
44.513709
20
23.779467
70
0
0
VERTEX
8
Layer 1
10
45.248985
20
23.198972
70
0
0
VERTEX
8
Layer 1
10
45.941928
20
23.024909
70
0
0
VERTEX
8
Layer 1
10
46.725358
20
23.101870
70
0
0
VERTEX
8
Layer 1
10
46.836747
20
23.130974
70
0
0
VERTEX
8
Layer 1
10
48.835936
20
24.004098
70
0
0
VERTEX
8
Layer 1
10
49.052630
20
21.122789
70
0
0
VERTEX
8
Layer 1
10
49.028024
20
19.676579
70
0
0
VERTEX
8
Layer 1
10
48.811992
20
19.514422
70
0
0
VERTEX
8
Layer 1
10
48.348310
20
19.528677
70
0
0
VERTEX
8
Layer 1
10
47.059262
20
19.814691
70
0
0
VERTEX
8
Layer 1
10
45.715709
20
20.225853
70
0
0
VERTEX
8
Layer 1
10
44.981491
20
20.404182
70
0
0
VERTEX
8
Layer 1
10
44.802633
20
20.072130
70
0
0
VERTEX
8
Layer 1
10
44.912435
20
19.419668
70
0
0
VERTEX
8
Layer 1
10
45.130981
20
18.718524
70
0
0
VERTEX
8
Layer 1
10
45.425462
20
18.164751
70
0
0
VERTEX
8
Layer 1
10
46.089565
20
17.605423
70
0
0
VERTEX
8
Layer 1
10
47.352420
20
16.878878
70
0
0
VERTEX
8
Layer 1
10
48.837259
20
16.424853
70
0
0
VERTEX
8
Layer 1
10
49.505629
20
16.388837
70
0
0
VERTEX
8
Layer 1
10
50.082916
20
16.543916
70
0
0
VERTEX
8
Layer 1
10
50.153031
20
16.579105
70
0
0
VERTEX
8
Layer 1
10
50.793586
20
17.156425
70
0
0
VERTEX
8
Layer 1
10
51.459012
20
17.932447
70
0
0
VERTEX
8
Layer 1
10
51.547912
20
18.054949
70
0
0
VERTEX
8
Layer 1
10
52.122586
20
19.023588
70
0
0
VERTEX
8
Layer 1
10
52.403574
20
19.621281
70
0
0
VERTEX
8
Layer 1
10
52.414951
20
19.676579
70
0
0
VERTEX
8
Layer 1
10
52.309911
20
20.899746
70
0
0
VERTEX
8
Layer 1
10
52.023368
20
23.198972
70
0
0
VERTEX
8
Layer 1
10
51.583631
20
26.210720
70
0
0
VERTEX
8
Layer 1
10
51.050761
20
29.575343
70
0
0
VERTEX
8
Layer 1
10
50.496459
20
32.869454
70
0
0
VERTEX
8
Layer 1
10
49.953535
20
35.695889
70
0
0
VERTEX
8
Layer 1
10
49.559835
20
37.533232
70
0
0
VERTEX
8
Layer 1
10
49.509829
20
37.733998
70
0
0
VERTEX
8
Layer 1
10
49.204236
20
38.554629
70
0
0
VERTEX
8
Layer 1
10
49.204236
20
38.554629
70
0
0
SEQEND
8
Layer 1
0
POLYLINE
8
Layer 1
62
7
70
1
10
0.000000
20
0.000000
66
1
0
VERTEX
8
Layer 1
10
34.480721
20
34.046108
70
0
0
VERTEX
8
Layer 1
10
34.056330
20
34.122096
70
0
0
VERTEX
8
Layer 1
10
33.770316
20
33.547184
70
0
0
VERTEX
8
Layer 1
10
33.471072
20
32.394792
70
0
0
VERTEX
8
Layer 1
10
33.330579
20
31.722222
70
0
0
VERTEX
8
Layer 1
10
33.177650
20
31.001604
70
0
0
VERTEX
8
Layer 1
10
33.026573
20
30.289241
70
0
0
VERTEX
8
Layer 1
10
32.892165
20
29.640721
70
0
0
VERTEX
8
Layer 1
10
32.630757
20
28.239278
70
0
0
VERTEX
8
Layer 1
10
32.242084
20
26.084779
70
0
0
VERTEX
8
Layer 1
10
31.826160
20
23.561980
70
0
0
VERTEX
8
Layer 1
10
31.435106
20
21.134960
70
0
0
VERTEX
8
Layer 1
10
31.193277
20
19.283937
70
0
0
VERTEX
8
Layer 1
10
31.169465
20
18.401818
70
0
0
VERTEX
8
Layer 1
10
31.468973
20
18.260530
70
0
0
VERTEX
8
Layer 1
10
31.545437
20
18.270055
70
0
0
VERTEX
8
Layer 1
10
32.066930
20
18.429334
70
0
0
VERTEX
8
Layer 1
10
32.253197
20
18.496538
70
0
0
VERTEX
8
Layer 1
10
32.887138
20
18.836263
70
0
0
VERTEX
8
Layer 1
10
32.970746
20
18.891032
70
0
0
VERTEX
8
Layer 1
10
33.377145
20
19.218850
70
0
0
VERTEX
8
Layer 1
10
33.407308
20
19.255892
70
0
0
VERTEX
8
Layer 1
10
33.622149
20
19.952009
70
0
0
VERTEX
8
Layer 1
10
34.036751
20
21.415947
70
0
0
VERTEX
8
Layer 1
10
34.567240
20
23.328353
70
0
0
VERTEX
8
Layer 1
10
35.106725
20
25.272774
70
0
0
VERTEX
8
Layer 1
10
35.562601
20
26.897049
70
0
0
VERTEX
8
Layer 1
10
35.835651
20
27.816739
70
0
0
VERTEX
8
Layer 1
10
36.154473
20
28.650440
70
0
0
VERTEX
8
Layer 1
10
36.238081
20
28.839882
70
0
0
VERTEX
8
Layer 1
10
36.482556
20
29.254933
70
0
0
VERTEX
8
Layer 1
10
36.835774
20
29.553885
70
0
0
VERTEX
8
Layer 1
10
36.959335
20
29.643552
70
0
0
VERTEX
8
Layer 1
10
37.434790
20
29.895991
70
0
0
VERTEX
8
Layer 1
10
38.030102
20
30.083051
70
0
0
VERTEX
8
Layer 1
10
38.281258
20
29.898306
70
0
0
VERTEX
8
Layer 1
10
38.458197
20
29.493693
70
0
0
VERTEX
8
Layer 1
10
38.533339
20
28.073120
70
0
0
VERTEX
8
Layer 1
10
38.099423
20
25.349767
70
0
0
VERTEX
8
Layer 1
10
39.629771
20
25.284680
70
0
0
VERTEX
8
Layer 1
10
39.791431
20
25.286003
70
0
0
VERTEX
8
Layer 1
10
40.730436
20
25.349767
70
0
0
VERTEX
8
Layer 1
10
41.152711
20
25.479148
70
0
0
VERTEX
8
Layer 1
10
41.181286
20
25.506136
70
0
0
VERTEX
8
Layer 1
10
41.305904
20
25.986089
70
0
0
VERTEX
8
Layer 1
10
41.403535
20
27.019815
70
0
0
VERTEX
8
Layer 1
10
41.471533
20
28.335057
70
0
0
VERTEX
8
Layer 1
10
41.444017
20
29.674826
70
0
0
VERTEX
8
Layer 1
10
41.269921
20
30.847617
70
0
0
VERTEX
8
Layer 1
10
40.956125
20
31.612685
70
0
0
VERTEX
8
Layer 1
10
40.014739
20
32.198683
70
0
0
VERTEX
8
Layer 1
10
38.942120
20
32.409000
70
0
0
VERTEX
8
Layer 1
10
37.745411
20
32.275677
70
0
0
VERTEX
8
Layer 1
10
36.443398
20
31.998712
70
0
0
VERTEX
8
Layer 1
10
36.375929
20
32.528645
70
0
0
VERTEX
8
Layer 1
10
35.971911
20
33.077972
70
0
0
VERTEX
8
Layer 1
10
35.231079
20
33.646138
70
0
0
VERTEX
8
Layer 1
10
34.480721
20
34.046108
70
0
0
VERTEX
8
Layer 1
10
34.480721
20
34.046108
70
0
0
SEQEND
8
Layer 1
0
POLYLINE
8
Layer 1
62
7
70
1
10
0.000000
20
0.000000
66
1
0
VERTEX
8
Layer 1
10
57.569557
20
39.313744
70
0
0
VERTEX
8
Layer 1
10
56.552632
20
39.335711
70
0
0
VERTEX
8
Layer 1
10
55.673026
20
39.054585
70
0
0
VERTEX
8
Layer 1
10
55.269801
20
38.672709
70
0
0
VERTEX
8
Layer 1
10
54.870545
20
37.959819
70
0
0
VERTEX
8
Layer 1
10
54.780323
20
37.738125
70
0
0
VERTEX
8
Layer 1
10
54.204061
20
36.098452
70
0
0
VERTEX
8
Layer 1
10
54.138444
20
35.854797
70
0
0
VERTEX
8
Layer 1
10
53.770674
20
34.261611
70
0
0
VERTEX
8
Layer 1
10
53.668016
20
33.305593
70
0
0
VERTEX
8
Layer 1
10
54.091349
20
33.123957
70
0
0
VERTEX
8
Layer 1
10
54.978760
20
32.958063
70
0
0
VERTEX
8
Layer 1
10
56.763372
20
32.890383
70
0
0
VERTEX
8
Layer 1
10
57.090926
20
35.426384
70
0
0
VERTEX
8
Layer 1
10
57.631998
20
36.597376
70
0
0
VERTEX
8
Layer 1
10
57.955616
20
36.841543
70
0
0
VERTEX
8
Layer 1
10
58.304039
20
36.869711
70
0
0
VERTEX
8
Layer 1
10
59.086146
20
36.542343
70
0
0
VERTEX
8
Layer 1
10
59.601289
20
36.158644
70
0
0
VERTEX
8
Layer 1
10
59.980172
20
35.680913
70
0
0
VERTEX
8
Layer 1
10
60.183372
20
34.051558
70
0
0
VERTEX
8
Layer 1
10
60.271214
20
31.135695
70
0
0
VERTEX
8
Layer 1
10
59.484344
20
31.331036
70
0
0
VERTEX
8
Layer 1
10
58.070677
20
31.583237
70
0
0
VERTEX
8
Layer 1
10
56.519956
20
31.708014
70
0
0
VERTEX
8
Layer 1
10
55.289645
20
31.556091
70
0
0
VERTEX
8
Layer 1
10
54.375081
20
31.003364
70
0
0
VERTEX
8
Layer 1
10
53.781786
20
30.190287
70
0
0
VERTEX
8
Layer 1
10
53.462269
20
29.184640
70
0
0
VERTEX
8
Layer 1
10
53.367185
20
27.988453
70
0
0
VERTEX
8
Layer 1
10
53.376181
20
27.733660
70
0
0
VERTEX
8
Layer 1
10
53.425129
20
26.894138
70
0
0
VERTEX
8
Layer 1
10
53.470108
20
26.337985
70
0
0
VERTEX
8
Layer 1
10
53.515880
20
25.798235
70
0
0
VERTEX
8
Layer 1
10
53.680451
20
24.898653
70
0
0
VERTEX
8
Layer 1
10
53.710349
20
24.801287
70
0
0
VERTEX
8
Layer 1
10
53.955353
20
24.292494
70
0
0
VERTEX
8
Layer 1
10
54.434083
20
23.827423
70
0
0
VERTEX
8
Layer 1
10
55.115020
20
23.454030
70
0
0
VERTEX
8
Layer 1
10
56.819728
20
23.025406
70
0
0
VERTEX
8
Layer 1
10
58.741659
20
23.084937
70
0
0
VERTEX
8
Layer 1
10
59.668659
20
23.314628
70
0
0
VERTEX
8
Layer 1
10
60.518070
20
23.679455
70
0
0
VERTEX
8
Layer 1
10
60.581040
20
22.717431
70
0
0
VERTEX
8
Layer 1
10
60.891661
20
22.176094
70
0
0
VERTEX
8
Layer 1
10
61.429558
20
21.527072
70
0
0
VERTEX
8
Layer 1
10
62.005820
20
21.008754
70
0
0
VERTEX
8
Layer 1
10
62.415130
20
20.915356
70
0
0
VERTEX
8
Layer 1
10
62.432857
20
20.926204
70
0
0
VERTEX
8
Layer 1
10
62.516465
20
21.386314
70
0
0
VERTEX
8
Layer 1
10
62.627590
20
22.195144
70
0
0
VERTEX
8
Layer 1
10
62.659340
20
22.539367
70
0
0
VERTEX
8
Layer 1
10
62.723369
20
23.356134
70
0
0
VERTEX
8
Layer 1
10
62.791896
20
24.288260
70
0
0
VERTEX
8
Layer 1
10
62.939533
20
26.434293
70
0
0
VERTEX
8
Layer 1
10
63.184537
20
29.403523
70
0
0
VERTEX
8
Layer 1
10
63.395145
20
32.382145
70
0
0
VERTEX
8
Layer 1
10
63.412608
20
32.803811
70
0
0
VERTEX
8
Layer 1
10
63.378476
20
34.526194
70
0
0
VERTEX
8
Layer 1
10
63.220256
20
35.591246
70
0
0
VERTEX
8
Layer 1
10
62.947735
20
36.263551
70
0
0
VERTEX
8
Layer 1
10
62.602984
20
36.773085
70
0
0
VERTEX
8
Layer 1
10
61.576666
20
37.639436
70
0
0
VERTEX
8
Layer 1
10
59.985993
20
38.550236
70
0
0
VERTEX
8
Layer 1
10
59.729348
20
38.669087
70
0
0
VERTEX
8
Layer 1
10
57.708992
20
39.290751
70
0
0
VERTEX
8
Layer 1
10
57.569557
20
39.313744
70
0
0
VERTEX
8
Layer 1
10
57.569557
20
39.313744
70
0
0
SEQEND
8
Layer 1
0
POLYLINE
8
Layer 1
62
7
70
1
10
0.000000
20
0.000000
66
1
0
VERTEX
8
Layer 1
10
57.474571
20
29.818468
70
0
0
VERTEX
8
Layer 1
10
58.596932
20
29.743036
70
0
0
VERTEX
8
Layer 1
10
59.647856
20
29.537613
70
0
0
VERTEX
8
Layer 1
10
60.230468
20
29.184660
70
0
0
VERTEX
8
Layer 1
10
60.281532
20
28.785377
70
0
0
VERTEX
8
Layer 1
10
60.293174
20
28.222345
70
0
0
VERTEX
8
Layer 1
10
60.237612
20
27.628621
70
0
0
VERTEX
8
Layer 1
10
60.188135
20
27.200261
70
0
0
VERTEX
8
Layer 1
10
59.990028
20
26.554149
70
0
0
VERTEX
8
Layer 1
10
59.585150
20
26.131081
70
0
0
VERTEX
8
Layer 1
10
59.521385
20
26.093245
70
0
0
VERTEX
8
Layer 1
10
58.479458
20
25.775746
70
0
0
VERTEX
8
Layer 1
10
57.292274
20
25.886871
70
0
0
VERTEX
8
Layer 1
10
56.571550
20
26.171033
70
0
0
VERTEX
8
Layer 1
10
56.510431
20
26.214689
70
0
0
VERTEX
8
Layer 1
10
56.323371
20
26.519489
70
0
0
VERTEX
8
Layer 1
10
56.211188
20
27.053153
70
0
0
VERTEX
8
Layer 1
10
56.170177
20
27.716727
70
0
0
VERTEX
8
Layer 1
10
56.160917
20
28.345905
70
0
0
VERTEX
8
Layer 1
10
56.328133
20
29.266310
70
0
0
VERTEX
8
Layer 1
10
56.676589
20
29.673001
70
0
0
VERTEX
8
Layer 1
10
56.742206
20
29.713826
70
0
0
VERTEX
8
Layer 1
10
57.474571
20
29.818468
70
0
0
VERTEX
8
Layer 1
10
57.474571
20
29.818468
70
0
0
SEQEND
8
Layer 1
0
POLYLINE
8
Layer 1
62
7
70
1
10
0.000000
20
0.000000
66
1
0
VERTEX
8
Layer 1
10
22.815627
20
37.824432
70
0
0
VERTEX
8
Layer 1
10
23.660811
20
33.510750
70
0
0
VERTEX
8
Layer 1
10
24.390716
20
30.088475
70
0
0
VERTEX
8
Layer 1
10
25.082151
20
26.987007
70
0
0
VERTEX
8
Layer 1
10
22.661904
20
26.880115
70
0
0
VERTEX
8
Layer 1
10
22.047199
20
26.860272
70
0
0
VERTEX
8
Layer 1
10
20.203399
20
26.773224
70
0
0
VERTEX
8
Layer 1
10
21.048557
20
30.195446
70
0
0
VERTEX
8
Layer 1
10
21.893714
20
33.724692
70
0
0
VERTEX
8
Layer 1
10
22.815627
20
37.824432
70
0
0
VERTEX
8
Layer 1
10
22.815627
20
37.824432
70
0
0
SEQEND
8
Layer 1
0
POLYLINE
8
Layer 1
62
7
70
1
10
0.000000
20
0.000000
66
1
0
VERTEX
8
Layer 1
10
57.508173
20
28.496453
70
0
0
VERTEX
8
Layer 1
10
57.481980
20
28.263091
70
0
0
VERTEX
8
Layer 1
10
57.490446
20
27.798483
70
0
0
VERTEX
8
Layer 1
10
57.510819
20
27.466696
70
0
0
VERTEX
8
Layer 1
10
57.526165
20
27.220898
70
0
0
VERTEX
8
Layer 1
10
57.530928
20
27.195234
70
0
0
VERTEX
8
Layer 1
10
57.601042
20
27.174596
70
0
0
VERTEX
8
Layer 1
10
58.414635
20
27.098396
70
0
0
VERTEX
8
Layer 1
10
58.848551
20
27.233069
70
0
0
VERTEX
8
Layer 1
10
58.871570
20
27.341019
70
0
0
VERTEX
8
Layer 1
10
58.931630
20
27.841081
70
0
0
VERTEX
8
Layer 1
10
58.971317
20
28.272616
70
0
0
VERTEX
8
Layer 1
10
58.973169
20
28.350668
70
0
0
VERTEX
8
Layer 1
10
58.473372
20
28.425809
70
0
0
VERTEX
8
Layer 1
10
58.437124
20
28.429249
70
0
0
VERTEX
8
Layer 1
10
58.401141
20
28.434540
70
0
0
VERTEX
8
Layer 1
10
57.508173
20
28.496453
70
0
0
VERTEX
8
Layer 1
10
57.508173
20
28.496453
70
0
0
SEQEND
8
Layer 1
0
POLYLINE
8
Layer 1
62
7
70
1
10
0.000000
20
0.000000
66
1
0
VERTEX
8
Layer 1
10
46.728797
20
31.380910
70
0
0
VERTEX
8
Layer 1
10
46.794414
20
30.528503
70
0
0
VERTEX
8
Layer 1
10
46.939935
20
28.856815
70
0
0
VERTEX
8
Layer 1
10
46.981210
20
28.322093
70
0
0
VERTEX
8
Layer 1
10
46.995232
20
28.176572
70
0
0
VERTEX
8
Layer 1
10
46.997085
20
28.155141
70
0
0
VERTEX
8
Layer 1
10
47.150543
20
27.541308
70
0
0
VERTEX
8
Layer 1
10
46.940728
20
29.498852
70
0
0
VERTEX
8
Layer 1
10
46.728797
20
31.380910
70
0
0
VERTEX
8
Layer 1
10
46.728797
20
31.380910
70
0
0
SEQEND
8
Layer 1
0
POLYLINE
8
Layer 1
62
7
70
1
10
0.000000
20
0.000000
66
1
0
VERTEX
8
Layer 1
10
22.732442
20
31.530003
70
0
0
VERTEX
8
Layer 1
10
22.333504
20
29.880751
70
0
0
VERTEX
8
Layer 1
10
21.926020
20
28.179218
70
0
0
VERTEX
8
Layer 1
10
22.623646
20
28.202501
70
0
0
VERTEX
8
Layer 1
10
23.450468
20
28.231605
70
0
0
VERTEX
8
Layer 1
10
23.099842
20
29.798836
70
0
0
VERTEX
8
Layer 1
10
23.097778
20
29.807620
70
0
0
VERTEX
8
Layer 1
10
23.095979
20
29.816405
70
0
0
VERTEX
8
Layer 1
10
22.732442
20
31.530003
70
0
0
VERTEX
8
Layer 1
10
22.732442
20
31.530003
70
0
0
SEQEND
8
Layer 1
0
POLYLINE
8
Layer 1
62
7
70
1
10
0.000000
20
0.000000
66
1
0
VERTEX
8
Layer 1
10
58.466758
20
35.364631
70
0
0
VERTEX
8
Layer 1
10
58.360660
20
35.053799
70
0
0
VERTEX
8
Layer 1
10
58.090785
20
32.919566
70
0
0
VERTEX
8
Layer 1
10
58.258266
20
32.892949
70
0
0
VERTEX
8
Layer 1
10
58.889032
20
32.802277
70
0
0
VERTEX
8
Layer 1
10
58.860457
20
34.030100
70
0
0
VERTEX
8
Layer 1
10
58.860457
20
34.032164
70
0
0
VERTEX
8
Layer 1
10
58.810451
20
34.924629
70
0
0
VERTEX
8
Layer 1
10
58.786903
20
35.075759
70
0
0
VERTEX
8
Layer 1
10
58.673397
20
35.211675
70
0
0
VERTEX
8
Layer 1
10
58.466758
20
35.364631
70
0
0
VERTEX
8
Layer 1
10
58.466758
20
35.364631
70
0
0
SEQEND
8
Layer 1
0
POLYLINE
8
Layer 1
62
7
70
1
10
0.000000
20
0.000000
66
1
0
VERTEX
8
Layer 1
10
15.401615
20
19.358285
70
0
0
VERTEX
8
Layer 1
10
15.555099
20
18.467170
70
0
0
VERTEX
8
Layer 1
10
15.939327
20
17.433444
70
0
0
VERTEX
8
Layer 1
10
16.515509
20
16.578047
70
0
0
VERTEX
8
Layer 1
10
17.091691
20
16.222712
70
0
0
VERTEX
8
Layer 1
10
17.130188
20
16.221389
70
0
0
VERTEX
8
Layer 1
10
17.420092
20
16.685468
70
0
0
VERTEX
8
Layer 1
10
17.475919
20
16.827284
70
0
0
VERTEX
8
Layer 1
10
18.013604
20
18.467170
70
0
0
VERTEX
8
Layer 1
10
18.705304
20
20.891279
70
0
0
VERTEX
8
Layer 1
10
19.473468
20
23.850111
70
0
0
VERTEX
8
Layer 1
10
21.048557
20
23.600609
70
0
0
VERTEX
8
Layer 1
10
22.738898
20
23.422545
70
0
0
VERTEX
8
Layer 1
10
24.390716
20
23.279934
70
0
0
VERTEX
8
Layer 1
10
26.004064
20
23.137324
70
0
0
VERTEX
8
Layer 1
10
27.386986
20
18.752390
70
0
0
VERTEX
8
Layer 1
10
28.193700
20
16.827284
70
0
0
VERTEX
8
Layer 1
10
28.356948
20
16.729256
70
0
0
VERTEX
8
Layer 1
10
28.616239
20
16.863003
70
0
0
VERTEX
8
Layer 1
10
29.269230
20
17.469163
70
0
0
VERTEX
8
Layer 1
10
29.807127
20
18.324559
70
0
0
VERTEX
8
Layer 1
10
30.075943
20
19.037611
70
0
0
VERTEX
8
Layer 1
10
30.047104
20
19.376277
70
0
0
VERTEX
8
Layer 1
10
29.960585
20
20.178228
70
0
0
VERTEX
8
Layer 1
10
29.653404
20
22.923277
70
0
0
VERTEX
8
Layer 1
10
29.883856
20
22.887558
70
0
0
VERTEX
8
Layer 1
10
30.268031
20
22.887558
70
0
0
VERTEX
8
Layer 1
10
30.537112
20
23.600609
70
0
0
VERTEX
8
Layer 1
10
30.882922
20
24.955274
70
0
0
VERTEX
8
Layer 1
10
31.151473
20
26.274220
70
0
0
VERTEX
8
Layer 1
10
31.190102
20
26.987007
70
0
0
VERTEX
8
Layer 1
10
29.077143
20
27.094163
70
0
0
VERTEX
8
Layer 1
10
28.501145
20
31.051213
70
0
0
VERTEX
8
Layer 1
10
28.075960
20
34.145856
70
0
0
VERTEX
8
Layer 1
10
27.924884
20
35.150715
70
0
0
VERTEX
8
Layer 1
10
27.271628
20
38.929543
70
0
0
VERTEX
8
Layer 1
10
26.657002
20
42.102210
70
0
0
VERTEX
8
Layer 1
10
26.119316
20
44.241099
70
0
0
VERTEX
8
Layer 1
10
25.898482
20
44.855845
70
0
0
VERTEX
8
Layer 1
10
25.696857
20
45.060936
70
0
0
VERTEX
8
Layer 1
10
24.275490
20
44.775689
70
0
0
VERTEX
8
Layer 1
10
24.033397
20
44.700495
70
0
0
VERTEX
8
Layer 1
10
22.239445
20
43.955826
70
0
0
VERTEX
8
Layer 1
10
22.109984
20
43.892273
70
0
0
VERTEX
8
Layer 1
10
20.241896
20
42.672466
70
0
0
VERTEX
8
Layer 1
10
19.425535
20
41.870422
70
0
0
VERTEX
8
Layer 1
10
18.897285
20
40.961461
70
0
0
VERTEX
8
Layer 1
10
18.321076
20
38.858211
70
0
0
VERTEX
8
Layer 1
10
18.243553
20
38.475571
70
0
0
VERTEX
8
Layer 1
10
17.667900
20
35.328991
70
0
0
VERTEX
8
Layer 1
10
16.976465
20
30.979908
70
0
0
VERTEX
8
Layer 1
10
16.323528
20
26.523722
70
0
0
VERTEX
8
Layer 1
10
14.825168
20
26.381112
70
0
0
VERTEX
8
Layer 1
10
14.287482
20
26.238502
70
0
0
VERTEX
8
Layer 1
10
14.479463
20
25.810671
70
0
0
VERTEX
8
Layer 1
10
14.940420
20
25.276213
70
0
0
VERTEX
8
Layer 1
10
15.478370
20
24.776945
70
0
0
VERTEX
8
Layer 1
10
15.900830
20
24.456270
70
0
0
VERTEX
8
Layer 1
10
16.054552
20
24.456270
70
0
0
VERTEX
8
Layer 1
10
15.824074
20
22.709229
70
0
0
VERTEX
8
Layer 1
10
15.780921
20
22.326113
70
0
0
VERTEX
8
Layer 1
10
15.593596
20
21.069608
70
0
0
VERTEX
8
Layer 1
10
15.538298
20
20.628284
70
0
0
VERTEX
8
Layer 1
10
15.401615
20
19.358285
70
0
0
VERTEX
8
Layer 1
10
15.401615
20
19.358285
70
0
0
SEQEND
8
Layer 1
0
POLYLINE
8
Layer 1
62
7
70
1
10
0.000000
20
0.000000
66
1
0
VERTEX
8
Layer 1
10
76.596778
20
29.362433
70
0
0
VERTEX
8
Layer 1
10
76.456550
20
27.693973
70
0
0
VERTEX
8
Layer 1
10
76.148839
20
25.440784
70
0
0
VERTEX
8
Layer 1
10
76.148310
20
25.437609
70
0
0
VERTEX
8
Layer 1
10
76.147781
20
25.434698
70
0
0
VERTEX
8
Layer 1
10
75.719421
20
23.028845
70
0
0
VERTEX
8
Layer 1
10
75.280743
20
20.733058
70
0
0
VERTEX
8
Layer 1
10
74.915089
20
19.002686
70
0
0
VERTEX
8
Layer 1
10
74.805287
20
18.456586
70
0
0
VERTEX
8
Layer 1
10
74.758191
20
18.254974
70
0
0
VERTEX
8
Layer 1
10
74.638071
20
17.922922
70
0
0
VERTEX
8
Layer 1
10
74.601294
20
17.849104
70
0
0
VERTEX
8
Layer 1
10
74.555521
20
17.780841
70
0
0
VERTEX
8
Layer 1
10
74.141151
20
17.368257
70
0
0
VERTEX
8
Layer 1
10
73.782938
20
17.188440
70
0
0
VERTEX
8
Layer 1
10
73.237104
20
17.067261
70
0
0
VERTEX
8
Layer 1
10
73.164343
20
17.059324
70
0
0
VERTEX
8
Layer 1
10
73.091054
20
17.059324
70
0
0
VERTEX
8
Layer 1
10
72.225867
20
17.146636
70
0
0
VERTEX
8
Layer 1
10
72.214755
20
17.148753
70
0
0
VERTEX
8
Layer 1
10
72.203378
20
17.151134
70
0
0
VERTEX
8
Layer 1
10
71.297181
20
17.437942
70
0
0
VERTEX
8
Layer 1
10
71.269400
20
17.450113
70
0
0
VERTEX
8
Layer 1
10
71.242677
20
17.463342
70
0
0
VERTEX
8
Layer 1
10
70.683944
20
17.860084
70
0
0
VERTEX
8
Layer 1
10
70.248639
20
18.559245
70
0
0
VERTEX
8
Layer 1
10
70.232499
20
18.607399
70
0
0
VERTEX
8
Layer 1
10
70.220064
20
18.656611
70
0
0
VERTEX
8
Layer 1
10
70.156564
20
19.227846
70
0
0
VERTEX
8
Layer 1
10
70.153653
20
19.341616
70
0
0
VERTEX
8
Layer 1
10
70.112643
20
19.187629
70
0
0
VERTEX
8
Layer 1
10
69.596971
20
18.265557
70
0
0
VERTEX
8
Layer 1
10
69.579244
20
18.240951
70
0
0
VERTEX
8
Layer 1
10
69.559929
20
18.217139
70
0
0
VERTEX
8
Layer 1
10
68.816715
20
17.431856
70
0
0
VERTEX
8
Layer 1
10
67.945708
20
16.795799
70
0
0
VERTEX
8
Layer 1
10
67.894114
20
16.767224
70
0
0
VERTEX
8
Layer 1
10
67.840404
20
16.743411
70
0
0
VERTEX
8
Layer 1
10
67.426233
20
16.609499
70
0
0
VERTEX
8
Layer 1
10
66.837635
20
16.597626
70
0
0
VERTEX
8
Layer 1
10
66.224000
20
16.845772
70
0
0
VERTEX
8
Layer 1
10
65.801263
20
17.288982
70
0
0
VERTEX
8
Layer 1
10
65.605472
20
17.686385
70
0
0
VERTEX
8
Layer 1
10
65.511809
20
18.039604
70
0
0
VERTEX
8
Layer 1
10
65.393805
20
18.825944
70
0
0
VERTEX
8
Layer 1
10
65.393541
20
18.828590
70
0
0
VERTEX
8
Layer 1
10
65.393011
20
18.831236
70
0
0
VERTEX
8
Layer 1
10
65.160707
20
20.988910
70
0
0
VERTEX
8
Layer 1
10
65.159120
20
21.007166
70
0
0
VERTEX
8
Layer 1
10
65.157532
20
21.025687
70
0
0
VERTEX
8
Layer 1
10
64.927345
20
23.788198
70
0
0
VERTEX
8
Layer 1
10
64.927081
20
23.790580
70
0
0
VERTEX
8
Layer 1
10
64.693983
20
26.721630
70
0
0
VERTEX
8
Layer 1
10
64.527560
20
29.251599
70
0
0
VERTEX
8
Layer 1
10
64.516183
20
29.440988
70
0
0
VERTEX
8
Layer 1
10
64.502160
20
29.289302
70
0
0
VERTEX
8
Layer 1
10
64.258479
20
26.334016
70
0
0
VERTEX
8
Layer 1
10
64.111636
20
24.194333
70
0
0
VERTEX
8
Layer 1
10
63.978021
20
22.431946
70
0
0
VERTEX
8
Layer 1
10
63.977757
20
22.429300
70
0
0
VERTEX
8
Layer 1
10
63.824299
20
21.184437
70
0
0
VERTEX
8
Layer 1
10
63.772440
20
20.820635
70
0
0
VERTEX
8
Layer 1
10
63.721111
20
20.597592
70
0
0
VERTEX
8
Layer 1
10
63.650203
20
20.402859
70
0
0
VERTEX
8
Layer 1
10
63.332174
20
19.955978
70
0
0
VERTEX
8
Layer 1
10
63.263118
20
19.892214
70
0
0
VERTEX
8
Layer 1
10
63.185860
20
19.838503
70
0
0
VERTEX
8
Layer 1
10
62.553275
20
19.588009
70
0
0
VERTEX
8
Layer 1
10
62.007407
20
19.600643
70
0
0
VERTEX
8
Layer 1
10
61.320021
20
19.877132
70
0
0
VERTEX
8
Layer 1
10
61.242498
20
19.924228
70
0
0
VERTEX
8
Layer 1
10
61.172383
20
19.981114
70
0
0
VERTEX
8
Layer 1
10
60.507751
20
20.577748
70
0
0
VERTEX
8
Layer 1
10
60.483145
20
20.602090
70
0
0
VERTEX
8
Layer 1
10
60.459332
20
20.627490
70
0
0
VERTEX
8
Layer 1
10
59.827773
20
21.389224
70
0
0
VERTEX
8
Layer 1
10
59.503394
20
21.892197
70
0
0
VERTEX
8
Layer 1
10
58.960469
20
21.780278
70
0
0
VERTEX
8
Layer 1
10
58.938774
20
21.776574
70
0
0
VERTEX
8
Layer 1
10
58.916813
20
21.773663
70
0
0
VERTEX
8
Layer 1
10
56.724214
20
21.705930
70
0
0
VERTEX
8
Layer 1
10
56.699872
20
21.707782
70
0
0
VERTEX
8
Layer 1
10
56.675531
20
21.710428
70
0
0
VERTEX
8
Layer 1
10
55.609526
20
21.900200
70
0
0
VERTEX
8
Layer 1
10
54.603846
20
22.234038
70
0
0
VERTEX
8
Layer 1
10
53.391262
20
22.968256
70
0
0
VERTEX
8
Layer 1
10
53.625418
20
21.040504
70
0
0
VERTEX
8
Layer 1
10
53.734161
20
19.573127
70
0
0
VERTEX
8
Layer 1
10
53.729928
20
19.522591
70
0
0
VERTEX
8
Layer 1
10
53.722255
20
19.472320
70
0
0
VERTEX
8
Layer 1
10
53.292043
20
18.403934
70
0
0
VERTEX
8
Layer 1
10
52.625559
20
17.287659
70
0
0
VERTEX
8
Layer 1
10
51.764606
20
16.257637
70
0
0
VERTEX
8
Layer 1
10
50.773742
20
15.410971
70
0
0
VERTEX
8
Layer 1
10
49.701189
20
15.079416
70
0
0
VERTEX
8
Layer 1
10
48.598076
20
15.123899
70
0
0
VERTEX
8
Layer 1
10
46.825635
20
15.665500
70
0
0
VERTEX
8
Layer 1
10
46.811083
20
15.671850
70
0
0
VERTEX
8
Layer 1
10
46.796795
20
15.678200
70
0
0
VERTEX
8
Layer 1
10
45.322539
20
16.527776
70
0
0
VERTEX
8
Layer 1
10
44.805279
20
16.922799
70
0
0
VERTEX
8
Layer 1
10
44.356811
20
17.384496
70
0
0
VERTEX
8
Layer 1
10
43.918661
20
18.189358
70
0
0
VERTEX
8
Layer 1
10
43.901463
20
18.228780
70
0
0
VERTEX
8
Layer 1
10
43.886647
20
18.269262
70
0
0
VERTEX
8
Layer 1
10
43.632912
20
19.082854
70
0
0
VERTEX
8
Layer 1
10
43.631589
20
19.087617
70
0
0
VERTEX
8
Layer 1
10
43.630530
20
19.092644
70
0
0
VERTEX
8
Layer 1
10
43.480776
20
20.016039
70
0
0
VERTEX
8
Layer 1
10
43.478131
20
20.078216
70
0
0
VERTEX
8
Layer 1
10
43.481570
20
20.140657
70
0
0
VERTEX
8
Layer 1
10
43.690591
20
20.934671
70
0
0
VERTEX
8
Layer 1
10
44.104597
20
21.423124
70
0
0
VERTEX
8
Layer 1
10
44.761887
20
21.708576
70
0
0
VERTEX
8
Layer 1
10
45.253218
20
21.712016
70
0
0
VERTEX
8
Layer 1
10
45.542407
20
21.655924
70
0
0
VERTEX
8
Layer 1
10
46.110996
20
21.488443
70
0
0
VERTEX
8
Layer 1
10
47.416184
20
21.088923
70
0
0
VERTEX
8
Layer 1
10
47.733419
20
21.009283
70
0
0
VERTEX
8
Layer 1
10
47.731567
20
21.052675
70
0
0
VERTEX
8
Layer 1
10
47.668861
20
22.017344
70
0
0
VERTEX
8
Layer 1
10
47.232563
20
21.868649
70
0
0
VERTEX
8
Layer 1
10
47.212984
20
21.862563
70
0
0
VERTEX
8
Layer 1
10
47.193934
20
21.857272
70
0
0
VERTEX
8
Layer 1
10
45.934519
20
21.700473
70
0
0
VERTEX
8
Layer 1
10
44.693360
20
21.998294
70
0
0
VERTEX
8
Layer 1
10
44.693360
20
21.998824
70
0
0
VERTEX
8
Layer 1
10
44.075526
20
22.384586
70
0
0
VERTEX
8
Layer 1
10
43.550362
20
22.873535
70
0
0
VERTEX
8
Layer 1
10
43.528666
20
22.896289
70
0
0
VERTEX
8
Layer 1
10
43.508029
20
22.920102
70
0
0
VERTEX
8
Layer 1
10
42.655807
20
24.086648
70
0
0
VERTEX
8
Layer 1
10
42.633846
20
24.121044
70
0
0
VERTEX
8
Layer 1
10
42.614003
20
24.157027
70
0
0
VERTEX
8
Layer 1
10
42.289888
20
24.784883
70
0
0
VERTEX
8
Layer 1
10
42.239618
20
24.706566
70
0
0
VERTEX
8
Layer 1
10
42.177705
20
24.635922
70
0
0
VERTEX
8
Layer 1
10
41.786850
20
24.313991
70
0
0
VERTEX
8
Layer 1
10
41.453542
20
24.161525
70
0
0
VERTEX
8
Layer 1
10
40.946336
20
24.044579
70
0
0
VERTEX
8
Layer 1
10
40.946600
20
24.044315
70
0
0
VERTEX
8
Layer 1
10
39.813656
20
23.963352
70
0
0
VERTEX
8
Layer 1
10
38.008406
20
24.030027
70
0
0
VERTEX
8
Layer 1
10
36.475677
20
24.135331
70
0
0
VERTEX
8
Layer 1
10
36.807729
20
25.635517
70
0
0
VERTEX
8
Layer 1
10
37.164122
20
27.597400
70
0
0
VERTEX
8
Layer 1
10
37.096653
20
27.413515
70
0
0
VERTEX
8
Layer 1
10
36.834452
20
26.532189
70
0
0
VERTEX
8
Layer 1
10
36.383337
20
24.925376
70
0
0
VERTEX
8
Layer 1
10
35.845176
20
22.984924
70
0
0
VERTEX
8
Layer 1
10
35.310718
20
21.060348
70
0
0
VERTEX
8
Layer 1
10
34.893471
20
19.585562
70
0
0
VERTEX
8
Layer 1
10
34.753506
20
19.083383
70
0
0
VERTEX
8
Layer 1
10
34.679688
20
18.865102
70
0
0
VERTEX
8
Layer 1
10
34.516704
20
18.535432
70
0
0
VERTEX
8
Layer 1
10
34.495538
20
18.502888
70
0
0
VERTEX
8
Layer 1
10
34.472519
20
18.471668
70
0
0
VERTEX
8
Layer 1
10
33.706816
20
17.791689
70
0
0
VERTEX
8
Layer 1
10
32.793211
20
17.288717
70
0
0
VERTEX
8
Layer 1
10
32.754846
20
17.271519
70
0
0
VERTEX
8
Layer 1
10
32.714894
20
17.256702
70
0
0
VERTEX
8
Layer 1
10
31.876431
20
16.989209
70
0
0
VERTEX
8
Layer 1
10
31.819545
20
16.974657
70
0
0
VERTEX
8
Layer 1
10
31.761337
20
16.965132
70
0
0
VERTEX
8
Layer 1
10
31.368266
20
16.935896
70
0
0
VERTEX
8
Layer 1
10
30.852759
20
17.028103
70
0
0
VERTEX
8
Layer 1
10
30.642151
20
17.120707
70
0
0
VERTEX
8
Layer 1
10
30.310628
20
16.653189
70
0
0
VERTEX
8
Layer 1
10
29.380355
20
15.781652
70
0
0
VERTEX
8
Layer 1
10
29.014536
20
15.559138
70
0
0
VERTEX
8
Layer 1
10
28.468337
20
15.411236
70
0
0
VERTEX
8
Layer 1
10
28.030055
20
15.438521
70
0
0
VERTEX
8
Layer 1
10
27.582249
20
15.615229
70
0
0
VERTEX
8
Layer 1
10
27.058639
20
16.148364
70
0
0
VERTEX
8
Layer 1
10
26.675787
20
16.957724
70
0
0
VERTEX
8
Layer 1
10
26.151595
20
18.279051
70
0
0
VERTEX
8
Layer 1
10
24.978037
20
21.901457
70
0
0
VERTEX
8
Layer 1
10
24.279353
20
21.961517
70
0
0
VERTEX
8
Layer 1
10
24.274194
20
21.962046
70
0
0
VERTEX
8
Layer 1
10
22.627535
20
22.104128
70
0
0
VERTEX
8
Layer 1
10
20.882425
20
22.288277
70
0
0
VERTEX
8
Layer 1
10
20.850119
20
22.292246
70
0
0
VERTEX
8
Layer 1
10
20.818343
20
22.297802
70
0
0
VERTEX
8
Layer 1
10
20.463061
20
22.358921
70
0
0
VERTEX
8
Layer 1
10
19.983240
20
20.549173
70
0
0
VERTEX
8
Layer 1
10
19.276062
20
18.071089
70
0
0
VERTEX
8
Layer 1
10
18.712527
20
16.357120
70
0
0
VERTEX
8
Layer 1
10
18.423391
20
15.717359
70
0
0
VERTEX
8
Layer 1
10
18.153648
20
15.347736
70
0
0
VERTEX
8
Layer 1
10
17.828152
20
15.088676
70
0
0
VERTEX
8
Layer 1
10
17.130188
20
14.898474
70
0
0
VERTEX
8
Layer 1
10
16.603906
20
14.973392
70
0
0
VERTEX
8
Layer 1
10
16.159119
20
15.166232
70
0
0
VERTEX
8
Layer 1
10
15.513507
20
15.714184
70
0
0
VERTEX
8
Layer 1
10
14.774791
20
16.805853
70
0
0
VERTEX
8
Layer 1
10
14.755423
20
16.841836
70
0
0
VERTEX
8
Layer 1
10
14.738358
20
16.878613
70
0
0
VERTEX
8
Layer 1
10
14.283619
20
18.101781
70
0
0
VERTEX
8
Layer 1
10
14.078700
20
19.358285
70
0
0
VERTEX
8
Layer 1
10
14.078700
20
19.420462
70
0
0
VERTEX
8
Layer 1
10
14.084388
20
19.481845
70
0
0
VERTEX
8
Layer 1
10
14.281529
20
21.239206
70
0
0
VERTEX
8
Layer 1
10
14.285154
20
21.266722
70
0
0
VERTEX
8
Layer 1
10
14.289810
20
21.294504
70
0
0
VERTEX
8
Layer 1
10
14.508144
20
22.844431
70
0
0
VERTEX
8
Layer 1
10
14.509943
20
22.861893
70
0
0
VERTEX
8
Layer 1
10
14.512007
20
22.879091
70
0
0
VERTEX
8
Layer 1
10
14.627259
20
23.762534
70
0
0
VERTEX
8
Layer 1
10
14.578417
20
23.807248
70
0
0
VERTEX
8
Layer 1
10
14.309442
20
24.056750
70
0
0
VERTEX
8
Layer 1
10
14.040732
20
24.306516
70
0
0
VERTEX
8
Layer 1
10
14.008426
20
24.336414
70
0
0
VERTEX
8
Layer 1
10
13.977946
20
24.368429
70
0
0
VERTEX
8
Layer 1
10
13.431212
20
25.003693
70
0
0
VERTEX
8
Layer 1
10
13.405627
20
25.037030
70
0
0
VERTEX
8
Layer 1
10
13.382370
20
25.071690
70
0
0
VERTEX
8
Layer 1
10
13.128635
20
25.518571
70
0
0
VERTEX
8
Layer 1
10
12.964567
20
26.238502
70
0
0
VERTEX
8
Layer 1
10
13.092939
20
26.811555
70
0
0
VERTEX
8
Layer 1
10
13.333290
20
27.163748
70
0
0
VERTEX
8
Layer 1
10
13.701219
20
27.442883
70
0
0
VERTEX
8
Layer 1
10
14.082854
20
27.588669
70
0
0
VERTEX
8
Layer 1
10
14.651548
20
27.692385
70
0
0
VERTEX
8
Layer 1
10
14.662899
20
27.693973
70
0
0
VERTEX
8
Layer 1
10
15.164442
20
27.749535
70
0
0
VERTEX
8
Layer 1
10
15.668023
20
31.174985
70
0
0
VERTEX
8
Layer 1
10
16.363850
20
35.550924
70
0
0
VERTEX
8
Layer 1
10
17.025043
20
39.124091
70
0
0
VERTEX
8
Layer 1
10
17.027609
20
39.136764
70
0
0
VERTEX
8
Layer 1
10
17.030467
20
39.149173
70
0
0
VERTEX
8
Layer 1
10
17.670731
20
41.457025
70
0
0
VERTEX
8
Layer 1
10
18.378259
20
42.678621
70
0
0
VERTEX
8
Layer 1
10
19.404993
20
43.697196
70
0
0
VERTEX
8
Layer 1
10
20.506340
20
44.498535
70
0
0
VERTEX
8
Layer 1
10
21.665829
20
45.148010
70
0
0
VERTEX
8
Layer 1
10
23.898777
20
46.043809
70
0
0
VERTEX
8
Layer 1
10
25.696857
20
46.383851
70
0
0
VERTEX
8
Layer 1
10
25.794011
20
46.380756
70
0
0
VERTEX
8
Layer 1
10
26.388338
20
46.204338
70
0
0
VERTEX
8
Layer 1
10
26.738229
20
45.937632
70
0
0
VERTEX
8
Layer 1
10
27.074249
20
45.461938
70
0
0
VERTEX
8
Layer 1
10
27.382224
20
44.634349
70
0
0
VERTEX
8
Layer 1
10
27.947373
20
42.394707
70
0
0
VERTEX
8
Layer 1
10
28.026483
20
42.037864
70
0
0
VERTEX
8
Layer 1
10
28.573377
20
39.165180
70
0
0
VERTEX
8
Layer 1
10
29.232188
20
35.351984
70
0
0
VERTEX
8
Layer 1
10
29.810302
20
31.241131
70
0
0
VERTEX
8
Layer 1
10
30.225168
20
28.403584
70
0
0
VERTEX
8
Layer 1
10
30.632626
20
28.388503
70
0
0
VERTEX
8
Layer 1
10
31.154648
20
28.346170
70
0
0
VERTEX
8
Layer 1
10
31.301227
20
28.323680
70
0
0
VERTEX
8
Layer 1
10
31.330596
20
28.482959
70
0
0
VERTEX
8
Layer 1
10
31.331125
20
28.485870
70
0
0
VERTEX
8
Layer 1
10
31.590152
20
29.874031
70
0
0
VERTEX
8
Layer 1
10
31.593062
20
29.889800
70
0
0
VERTEX
8
Layer 1
10
31.596237
20
29.905543
70
0
0
VERTEX
8
Layer 1
10
31.883839
20
31.278331
70
0
0
VERTEX
8
Layer 1
10
32.175409
20
32.663000
70
0
0
VERTEX
8
Layer 1
10
32.182289
20
32.695306
70
0
0
VERTEX
8
Layer 1
10
32.190491
20
32.727347
70
0
0
VERTEX
8
Layer 1
10
32.489999
20
33.879711
70
0
0
VERTEX
8
Layer 1
10
32.500317
20
33.919769
70
0
0
VERTEX
8
Layer 1
10
32.513282
20
33.959033
70
0
0
VERTEX
8
Layer 1
10
32.739765
20
34.532147
70
0
0
VERTEX
8
Layer 1
10
32.927619
20
34.844011
70
0
0
VERTEX
8
Layer 1
10
33.255437
20
35.175242
70
0
0
VERTEX
8
Layer 1
10
33.972160
20
35.462001
70
0
0
VERTEX
8
Layer 1
10
34.440240
20
35.445011
70
0
0
VERTEX
8
Layer 1
10
34.980783
20
35.271101
70
0
0
VERTEX
8
Layer 1
10
35.952067
20
34.755905
70
0
0
VERTEX
8
Layer 1
10
36.904301
20
34.016395
70
0
0
VERTEX
8
Layer 1
10
37.317580
20
33.540199
70
0
0
VERTEX
8
Layer 1
10
37.501201
20
33.575864
70
0
0
VERTEX
8
Layer 1
10
38.954026
20
33.731915
70
0
0
VERTEX
8
Layer 1
10
38.963286
20
33.731915
70
0
0
VERTEX
8
Layer 1
10
38.972547
20
33.731677
70
0
0
VERTEX
8
Layer 1
10
40.468499
20
33.441774
70
0
0
VERTEX
8
Layer 1
10
41.364377
20
32.984945
70
0
0
VERTEX
8
Layer 1
10
41.456717
20
34.958972
70
0
0
VERTEX
8
Layer 1
10
41.457775
20
34.982229
70
0
0
VERTEX
8
Layer 1
10
41.459892
20
35.005221
70
0
0
VERTEX
8
Layer 1
10
41.568371
20
36.487045
70
0
0
VERTEX
8
Layer 1
10
41.569693
20
36.512630
70
0
0
VERTEX
8
Layer 1
10
41.572075
20
36.538215
70
0
0
VERTEX
8
Layer 1
10
41.624198
20
37.068677
70
0
0
VERTEX
8
Layer 1
10
41.647216
20
37.253409
70
0
0
VERTEX
8
Layer 1
10
41.704895
20
37.523152
70
0
0
VERTEX
8
Layer 1
10
41.728972
20
37.601971
70
0
0
VERTEX
8
Layer 1
10
41.762839
20
37.677165
70
0
0
VERTEX
8
Layer 1
10
42.117413
20
38.165252
70
0
0
VERTEX
8
Layer 1
10
42.486474
20
38.415352
70
0
0
VERTEX
8
Layer 1
10
42.978333
20
38.577885
70
0
0
VERTEX
8
Layer 1
10
43.840080
20
38.673215
70
0
0
VERTEX
8
Layer 1
10
44.808189
20
38.545077
70
0
0
VERTEX
8
Layer 1
10
45.328293
20
38.317099
70
0
0
VERTEX
8
Layer 1
10
45.866257
20
37.822104
70
0
0
VERTEX
8
Layer 1
10
45.926582
20
37.729606
70
0
0
VERTEX
8
Layer 1
10
45.973413
20
37.653141
70
0
0
VERTEX
8
Layer 1
10
46.009396
20
37.570697
70
0
0
VERTEX
8
Layer 1
10
46.163119
20
36.994515
70
0
0
VERTEX
8
Layer 1
10
46.164706
20
36.982900
70
0
0
VERTEX
8
Layer 1
10
46.406800
20
37.677165
70
0
0
VERTEX
8
Layer 1
10
47.038095
20
38.717665
70
0
0
VERTEX
8
Layer 1
10
47.939000
20
39.540862
70
0
0
VERTEX
8
Layer 1
10
48.654036
20
39.859234
70
0
0
VERTEX
8
Layer 1
10
49.136321
20
39.907700
70
0
0
VERTEX
8
Layer 1
10
49.671490
20
39.792798
70
0
0
VERTEX
8
Layer 1
10
49.745044
20
39.761788
70
0
0
VERTEX
8
Layer 1
10
49.836325
20
39.716571
70
0
0
VERTEX
8
Layer 1
10
50.235051
20
39.394362
70
0
0
VERTEX
8
Layer 1
10
50.413116
20
39.140124
70
0
0
VERTEX
8
Layer 1
10
50.574511
20
38.786906
70
0
0
VERTEX
8
Layer 1
10
50.791734
20
38.061128
70
0
0
VERTEX
8
Layer 1
10
51.246552
20
35.976743
70
0
0
VERTEX
8
Layer 1
10
51.800853
20
33.088820
70
0
0
VERTEX
8
Layer 1
10
52.313086
20
30.046115
70
0
0
VERTEX
8
Layer 1
10
52.583490
20
30.750965
70
0
0
VERTEX
8
Layer 1
10
53.434654
20
31.935661
70
0
0
VERTEX
8
Layer 1
10
53.283841
20
31.993526
70
0
0
VERTEX
8
Layer 1
10
52.957610
20
32.173439
70
0
0
VERTEX
8
Layer 1
10
52.540098
20
32.613920
70
0
0
VERTEX
8
Layer 1
10
52.497236
20
32.684193
70
0
0
VERTEX
8
Layer 1
10
52.463105
20
32.759123
70
0
0
VERTEX
8
Layer 1
10
52.328697
20
33.394493
70
0
0
VERTEX
8
Layer 1
10
52.347747
20
33.752844
70
0
0
VERTEX
8
Layer 1
10
52.471571
20
34.512488
70
0
0
VERTEX
8
Layer 1
10
52.928242
20
36.447781
70
0
0
VERTEX
8
Layer 1
10
52.933533
20
36.467677
70
0
0
VERTEX
8
Layer 1
10
52.939619
20
36.487574
70
0
0
VERTEX
8
Layer 1
10
53.648172
20
38.465729
70
0
0
VERTEX
8
Layer 1
10
53.656374
20
38.485625
70
0
0
VERTEX
8
Layer 1
10
53.665105
20
38.505019
70
0
0
VERTEX
8
Layer 1
10
54.202969
20
39.454985
70
0
0
VERTEX
8
Layer 1
10
55.050197
20
40.221713
70
0
0
VERTEX
8
Layer 1
10
55.129572
20
40.262776
70
0
0
VERTEX
8
Layer 1
10
56.416537
20
40.652061
70
0
0
VERTEX
8
Layer 1
10
57.778313
20
40.620122
70
0
0
VERTEX
8
Layer 1
10
59.049237
20
40.332190
70
0
0
VERTEX
8
Layer 1
10
60.273330
20
39.874951
70
0
0
VERTEX
8
Layer 1
10
62.331786
20
38.725681
70
0
0
VERTEX
8
Layer 1
10
63.060878
20
38.177621
70
0
0
VERTEX
8
Layer 1
10
63.639355
20
37.595251
70
0
0
VERTEX
8
Layer 1
10
63.762651
20
37.433776
70
0
0
VERTEX
8
Layer 1
10
64.071155
20
36.962209
70
0
0
VERTEX
8
Layer 1
10
64.381246
20
36.311864
70
0
0
VERTEX
8
Layer 1
10
64.618577
20
36.929401
70
0
0
VERTEX
8
Layer 1
10
65.165536
20
37.455485
70
0
0
VERTEX
8
Layer 1
10
65.688286
20
37.631684
70
0
0
VERTEX
8
Layer 1
10
66.396046
20
37.612316
70
0
0
VERTEX
8
Layer 1
10
66.396310
20
37.612554
70
0
0
VERTEX
8
Layer 1
10
66.407952
20
37.610491
70
0
0
VERTEX
8
Layer 1
10
66.415625
20
37.609194
70
0
0
VERTEX
8
Layer 1
10
67.507030
20
37.267882
70
0
0
VERTEX
8
Layer 1
10
68.569595
20
36.733027
70
0
0
VERTEX
8
Layer 1
10
69.086888
20
36.359539
70
0
0
VERTEX
8
Layer 1
10
69.543260
20
35.806484
70
0
0
VERTEX
8
Layer 1
10
69.566808
20
35.765395
70
0
0
VERTEX
8
Layer 1
10
70.931263
20
36.205423
70
0
0
VERTEX
8
Layer 1
10
71.766915
20
36.343766
70
0
0
VERTEX
8
Layer 1
10
72.603163
20
36.336418
70
0
0
VERTEX
8
Layer 1
10
73.415201
20
36.192587
70
0
0
VERTEX
8
Layer 1
10
74.171875
20
35.860221
70
0
0
VERTEX
8
Layer 1
10
74.269506
20
35.800028
70
0
0
VERTEX
8
Layer 1
10
74.319513
20
35.767723
70
0
0
VERTEX
8
Layer 1
10
74.366079
20
35.731290
70
0
0
VERTEX
8
Layer 1
10
74.900471
20
35.178794
70
0
0
VERTEX
8
Layer 1
10
75.304291
20
34.538073
70
0
0
VERTEX
8
Layer 1
10
75.965748
20
32.991401
70
0
0
VERTEX
8
Layer 1
10
76.409189
20
31.191257
70
0
0
VERTEX
8
Layer 1
10
76.596778
20
29.362433
70
0
0
VERTEX
8
Layer 1
10
76.596778
20
29.362433
70
0
0
SEQEND
8
Layer 1
0
POLYLINE
8
Layer 1
62
7
70
1
10
0.000000
20
0.000000
66
1
0
VERTEX
8
Layer 1
10
70.379078
20
29.163996
70
0
0
VERTEX
8
Layer 1
10
70.346005
20
27.229365
70
0
0
VERTEX
8
Layer 1
10
70.312932
20
24.791762
70
0
0
VERTEX
8
Layer 1
10
70.302349
20
23.397938
70
0
0
VERTEX
8
Layer 1
10
70.347857
20
24.239577
70
0
0
VERTEX
8
Layer 1
10
70.480678
20
26.631143
70
0
0
VERTEX
8
Layer 1
10
70.482001
20
26.649399
70
0
0
VERTEX
8
Layer 1
10
70.483588
20
26.667391
70
0
0
VERTEX
8
Layer 1
10
70.611646
20
28.524499
70
0
0
VERTEX
8
Layer 1
10
70.612969
20
28.552015
70
0
0
VERTEX
8
Layer 1
10
70.615351
20
28.579267
70
0
0
VERTEX
8
Layer 1
10
70.663240
20
29.197069
70
0
0
VERTEX
8
Layer 1
10
70.674353
20
29.374313
70
0
0
VERTEX
8
Layer 1
10
70.676734
20
29.428579
70
0
0
VERTEX
8
Layer 1
10
70.583865
20
30.232144
70
0
0
VERTEX
8
Layer 1
10
70.572488
20
30.277361
70
0
0
VERTEX
8
Layer 1
10
70.564551
20
30.323107
70
0
0
VERTEX
8
Layer 1
10
70.472740
20
30.732894
70
0
0
VERTEX
8
Layer 1
10
70.455013
20
30.714532
70
0
0
VERTEX
8
Layer 1
10
70.410563
20
30.572186
70
0
0
VERTEX
8
Layer 1
10
70.379078
20
30.123109
70
0
0
VERTEX
8
Layer 1
10
70.379078
20
29.163996
70
0
0
VERTEX
8
Layer 1
10
70.379078
20
29.163996
70
0
0
SEQEND
8
Layer 1
 0 
ENDSEC
 0 
EOF