<svg width="461" height="258" viewBox="0 0 461 258" fill="none" xmlns="http://www.w3.org/2000/svg">
<g clip-path="url(#clip0_2001_5)">
<path d="M416.759 107.317L432.028 145.627L435.098 130.364L429.804 128.184L433.361 110.497L461 115.793L457.444 133.48L451.717 133.455L446.581 158.998L451.892 161.088L448.291 179L415.087 172.638L399.637 135.225L396.775 149.456L402.141 151.509L398.53 169.466L370.845 164.162L374.447 146.25L380.173 146.275L385.309 120.732L379.998 118.642L383.555 100.955L416.759 107.317ZM385.699 115.623L391.01 117.714L384.283 151.172L378.557 151.148L376.713 160.312L394.587 163.737L396.432 154.566L391.066 152.513L397.975 118.151L418.709 168.359L444.348 173.271L446.191 164.105L440.88 162.016L447.608 128.558L453.334 128.582L455.132 119.641L437.303 116.225L435.492 125.231L440.785 127.411L433.616 163.068L413.096 111.587L387.497 106.682L385.699 115.623ZM178.861 100.529C182.474 102.341 185.926 104.226 189.216 106.184C192.506 108.142 195.346 110.253 197.738 112.516C200.131 114.778 201.808 117.231 202.771 119.874C203.761 122.53 203.749 125.456 202.735 128.65C202.214 130.308 201.475 132.047 200.518 133.864C198.905 136.93 197.085 139.155 195.057 140.538C193.057 141.935 190.861 142.772 188.468 143.046L187.56 143.136C185.419 143.314 183.108 143.277 180.629 143.024C180.605 146.406 181.069 149.965 182.019 153.698C182.984 157.405 183.869 160.831 184.672 163.977L179.725 173.377L154.795 160.877C154.727 156.934 154.772 152.876 154.931 148.704C155.131 144.519 155.773 140.263 156.855 135.938L155.48 135.247L144.665 155.797L114.566 140.704L123.111 124.469L128.606 126.041L140.791 102.887L136.281 99.4419L144.719 83.4095L178.861 100.529ZM18.445 137.99C20.4549 138.06 22.2898 138.833 23.7069 140.072C23.9522 140.287 24.23 140.465 24.5328 140.585C24.8364 140.707 25.1597 140.768 25.4864 140.781C27.4945 140.863 29.4808 141.657 31.0334 143.167C32.586 144.678 33.4307 146.64 33.5631 148.641C33.5847 148.966 33.6552 149.287 33.7844 149.586C33.9131 149.885 34.0981 150.157 34.3192 150.396C35.6823 151.871 36.5257 153.833 36.5537 155.996C36.5818 158.159 35.7896 160.142 34.4652 161.649C34.2503 161.894 34.0724 162.171 33.9515 162.473L33.8715 162.703C33.8024 162.937 33.7647 163.179 33.7548 163.424C33.6744 165.427 32.8808 167.409 31.3679 168.957C29.8549 170.506 27.8898 171.349 25.8845 171.48C25.5583 171.501 25.2367 171.571 24.9363 171.699C24.6367 171.828 24.3636 172.012 24.1239 172.232C22.6472 173.592 20.6813 174.432 18.5137 174.459L18.4505 169.579C19.3034 169.569 20.0845 169.244 20.6954 168.681C21.2936 168.131 22.0359 167.612 22.9264 167.231L22.9283 167.23C23.8236 166.847 24.722 166.664 25.5509 166.61L25.8463 166.578C26.5341 166.472 27.202 166.151 27.7503 165.59C28.3812 164.944 28.7245 164.11 28.7597 163.233C28.7916 162.438 28.9456 161.57 29.2961 160.695C29.6454 159.823 30.1358 159.082 30.6704 158.473L30.8684 158.226C31.3056 157.63 31.5657 156.884 31.555 156.058C31.5487 155.569 31.4456 155.112 31.2708 154.698C31.0956 154.937 30.9028 155.168 30.689 155.387L20.1618 166.161C18.8533 167.5 17.0867 168.144 15.3367 168.091C15.6439 168.295 15.9262 168.513 16.1829 168.737L16.1839 168.738C16.8091 169.285 17.5977 169.59 18.4505 169.579L18.5137 174.459L18.1094 174.454C16.0995 174.384 14.2646 173.611 12.8476 172.372C12.6023 172.157 12.3245 171.98 12.0217 171.859C11.794 171.768 11.5553 171.71 11.3124 171.682L11.068 171.663C9.18555 171.586 7.32241 170.883 5.81755 169.552L5.52105 169.277C3.96862 167.766 3.12381 165.805 2.99135 163.805C2.96981 163.479 2.89925 163.158 2.77011 162.858C2.67341 162.634 2.5454 162.424 2.39387 162.233L2.23524 162.048C0.957356 160.666 0.136437 158.854 0.0157118 156.851L0.000720892 156.448C-0.0273297 154.285 0.76492 152.302 2.0893 150.795C2.25057 150.611 2.39116 150.41 2.50236 150.193L2.60299 149.971C2.69395 149.744 2.75178 149.506 2.78032 149.264L2.79961 149.02C2.8751 147.142 3.57715 145.283 4.91115 143.782L5.1866 143.487C6.6995 141.938 8.66466 141.096 10.6699 140.965C10.9145 140.949 11.1565 140.906 11.3888 140.831L11.6182 140.745C11.8428 140.649 12.0524 140.521 12.2441 140.37L12.4305 140.212C13.9073 138.853 15.8731 138.012 18.0407 137.985L18.445 137.99ZM290.672 101.057L284.646 104.816L277.894 136.147L283.641 135.121L291.295 151.675L252.42 168.799L244.768 152.244L249.315 148.735L220.781 132.947L213.864 134.89L206.269 118.46L240.572 103.351L248.167 119.78L244.576 122.466L258.306 130.923L260.851 115.297L256.412 116.148L248.816 99.7184L283.077 84.6279L290.672 101.057ZM112.791 143.54L118.57 144.612L118.869 167.668L92.2039 167.997L89.5202 156.226L69.9315 156.468L67.6009 168.301L40.9359 168.631L40.6369 145.575L46.3862 144.361L59.6134 98.1255L98.3221 97.6472L112.791 143.54ZM142.615 98.0835L147.126 101.529L131.165 131.858L125.669 130.285L121.297 138.593L142.502 149.226L153.317 128.677L162.647 133.355L161.711 137.095C160.704 141.122 160.112 145.055 159.926 148.897C159.81 151.959 159.756 154.954 159.764 157.882L177.561 166.806L179.364 163.381C178.687 160.741 177.958 157.914 177.174 154.9L177.168 154.875C176.13 150.799 175.603 146.832 175.63 142.99L175.669 137.611L181.149 138.171C183.68 138.429 185.918 138.425 187.885 138.199C189.42 138.023 190.82 137.498 192.148 136.57L192.17 136.554L192.193 136.538C193.329 135.763 194.682 134.276 196.072 131.635C196.916 130.029 197.535 128.558 197.956 127.218L197.96 127.207C198.712 124.837 198.625 123.023 198.073 121.542L198.066 121.525L198.06 121.508C197.393 119.678 196.187 117.844 194.26 116.02C192.171 114.045 189.635 112.149 186.613 110.35C183.432 108.457 180.087 106.63 176.577 104.87L146.881 89.9786L142.615 98.0835ZM7.97993 163.489L8.0154 163.815C8.13285 164.568 8.48342 165.27 9.0501 165.821L9.17264 165.934C9.79235 166.483 10.5337 166.757 11.2753 166.787C11.4021 166.792 11.5305 166.801 11.6604 166.812C11.441 166.648 11.2287 166.47 11.0275 166.274L7.96174 163.291L7.97993 163.489ZM368.217 97.8961L357.327 140.619L361.404 144.218L350.261 162.446L328.729 149.905L332.408 139.422L316.592 130.209L308.888 138.348L287.356 125.807L298.499 107.578L303.72 109.394L336.987 79.705L368.217 97.8961ZM255.429 102.16L259.338 110.614L266.913 109.162L262.052 139L235.838 122.854L241.535 118.592L241.979 118.259L238.07 109.805L212.881 120.9L216.64 129.032L221.418 127.69L258.244 148.067L250.93 153.71L254.92 162.343L284.682 149.234L280.693 140.608L271.469 142.254L280.185 101.807L284.337 99.2166L280.576 91.0821L255.429 102.16ZM50.3898 148.507L45.6873 149.5L45.8713 163.689L63.4615 163.472L65.7922 151.639L93.5174 151.297L96.2011 163.067L113.807 162.85L113.623 148.661L108.899 147.785L94.6451 102.573L63.4218 102.959L50.3898 148.507ZM26.5671 149.571C26.0117 149.03 25.1205 149.041 24.5793 149.595L15.4996 158.887L11.8781 155.364C11.3227 154.824 10.4315 154.835 9.8903 155.389L9.42387 155.865C8.88267 156.419 8.89421 157.309 9.4496 157.85L14.5565 162.817C15.1119 163.358 16.0031 163.347 16.5443 162.793L27.0715 152.02C27.5788 151.5 27.6005 150.686 27.1438 150.141L27.0457 150.035L26.5671 149.571ZM304.874 114.976L300.688 113.52L294.209 124.116L307.967 132.13L315.672 123.991L338.452 137.259L334.772 147.742L348.528 155.756L355.01 145.153L351.754 142.276L362.47 100.231L337.616 85.7545L304.874 114.976ZM18.104 142.865C17.3577 142.874 16.667 143.124 16.0967 143.563L15.86 143.762C15.2605 144.314 14.5172 144.832 13.6271 145.213C12.7308 145.597 11.832 145.78 11.0036 145.834C10.2136 145.886 9.4307 146.213 8.80413 146.854C8.1733 147.5 7.82996 148.335 7.79477 149.212C7.77151 149.79 7.68172 150.408 7.50014 151.04C9.96038 149.529 13.2508 149.81 15.4071 151.907L15.4091 151.909L20.9618 146.227L21.199 145.997C21.607 145.62 22.0531 145.305 22.5255 145.053C21.7873 144.744 21.1476 144.343 20.6075 143.905L20.3706 143.706C19.7453 143.159 18.9568 142.854 18.104 142.865ZM84.0551 113.097L91.522 145.389L67.6493 145.684L74.2764 113.218L84.0551 113.097ZM73.7583 140.728L85.2865 140.586L79.1789 114.171L73.7583 140.728ZM350.129 102.092L340.457 132.959L318.607 120.232L341.786 97.2419L350.129 102.092ZM171.362 105.067C174.864 106.822 177.897 108.967 179.831 111.704C179.838 111.712 179.845 111.721 179.851 111.73C182.71 115.767 181.601 120.42 179.653 124.122C177.723 127.789 174.503 131.438 169.45 131.477C166.07 131.504 162.519 130.325 158.999 128.56L154.552 126.331L166.916 102.837L171.362 105.067ZM326.635 119.225L337.542 125.578L345.349 100.665L326.635 119.225ZM161.284 124.22C164.28 125.722 166.848 126.513 168.988 126.592L169.41 126.598C171.493 126.582 173.322 125.202 174.895 122.459L175.206 121.892C176.797 118.87 177.01 116.46 175.846 114.663L175.729 114.491C174.464 112.691 172.246 110.997 169.078 109.408L161.284 124.22ZM207.191 44.1262C222.111 42.6792 235.464 53.84 237.013 69.0526C238.561 84.2651 227.719 97.7719 212.799 99.2189C197.879 100.666 184.527 89.505 182.979 74.2925C181.43 59.0802 192.272 45.5734 207.191 44.1262ZM232.51 69.4895C231.22 56.8112 220.094 47.5116 207.659 48.7175C195.225 49.9234 186.191 61.1775 187.481 73.8556C188.772 86.5339 199.898 95.8345 212.332 94.6285C224.767 93.4226 233.8 82.1676 232.51 69.4895ZM210.231 73.9682C214.734 73.5315 222.094 73.6519 221.839 76.3191C221.324 81.6662 217.032 86.0581 211.516 86.593C205.998 87.128 200.908 83.6462 199.325 78.5027C198.501 75.8249 204.851 74.5657 209.358 74.059L210.231 73.9682ZM215.552 81.5658C215.552 81.5658 213.301 79.4655 210.816 79.7066C208.347 79.946 206.574 82.401 206.547 82.4386C206.567 82.4475 208.69 83.3899 211.166 83.1498C213.647 82.9092 215.546 81.5704 215.552 81.5658ZM196.911 65.9871C198.778 65.8061 200.446 67.202 200.639 69.1026C200.832 71.0033 199.479 72.6924 197.613 72.8735C195.805 73.0489 194.183 71.744 193.907 69.9341L193.885 69.758C193.692 67.8574 195.045 66.1683 196.911 65.9871ZM197.118 68.0176C196.033 68.1229 195.606 69.008 195.664 69.5854C195.72 70.1266 196.248 70.8503 197.208 70.8521L197.406 70.843C198.491 70.7378 198.919 69.8526 198.86 69.2752L198.842 69.1649C198.724 68.6033 198.136 67.919 197.118 68.0176ZM221.678 63.5851C223.544 63.4043 225.212 64.8001 225.405 66.7006C225.599 68.6013 224.245 70.2905 222.378 70.4715C220.57 70.6469 218.949 69.3425 218.674 67.533L218.651 67.356C218.457 65.4553 219.811 63.7661 221.678 63.5851ZM223.608 66.7629C223.49 66.2012 222.901 65.517 221.884 65.6156C220.799 65.721 220.371 66.6051 220.43 67.1825L220.431 67.1834C220.489 67.7607 221.086 68.5461 222.171 68.441C223.256 68.3358 223.684 67.4506 223.625 66.8732L223.608 66.7629Z" fill="white"/>
</g>
<defs>
<clipPath id="clip0_2001_5">
<rect width="457.853" height="251.548" fill="white" transform="translate(0 5.79539) rotate(-0.725255)"/>
</clipPath>
</defs>
</svg>
