999
"DXF R12 Output" (www.mydxf.blogspot.com)
 0 
SECTION
 2 
HEADER
 9 
$ACADVER
 1 
AC1009
 9 
$EXTMIN
 10 
 0 
 20 
 0 
 9 
$EXTMAX
 10 
 8.5 
 20 
 11 
 0 
ENDSEC
 0 
SECTION
 2 
ENTITIES
0
POLYLINE
8
Layer 1
62
7
70
1
10
0.000000
20
0.000000
66
1
0
VERTEX
8
Layer 1
10
65.748875
20
25.658271
70
0
0
VERTEX
8
Layer 1
10
65.616584
20
24.136919
70
0
0
VERTEX
8
Layer 1
10
65.318928
20
21.954109
70
0
0
VERTEX
8
Layer 1
10
64.888981
20
19.539789
70
0
0
VERTEX
8
Layer 1
10
64.459033
20
17.290834
70
0
0
VERTEX
8
Layer 1
10
64.095232
20
15.571044
70
0
0
VERTEX
8
Layer 1
10
63.929867
20
14.810368
70
0
0
VERTEX
8
Layer 1
10
63.566066
20
14.678077
70
0
0
VERTEX
8
Layer 1
10
62.937681
20
14.744222
70
0
0
VERTEX
8
Layer 1
10
62.309297
20
14.942660
70
0
0
VERTEX
8
Layer 1
10
61.978568
20
15.273388
70
0
0
VERTEX
8
Layer 1
10
61.945495
20
16.199429
70
0
0
VERTEX
8
Layer 1
10
62.011641
20
18.084583
70
0
0
VERTEX
8
Layer 1
10
62.143932
20
20.465830
70
0
0
VERTEX
8
Layer 1
10
62.276224
20
22.847077
70
0
0
VERTEX
8
Layer 1
10
62.408515
20
24.765303
70
0
0
VERTEX
8
Layer 1
10
62.474661
20
25.724417
70
0
0
VERTEX
8
Layer 1
10
62.342369
20
26.848895
70
0
0
VERTEX
8
Layer 1
10
62.077786
20
27.808008
70
0
0
VERTEX
8
Layer 1
10
61.680912
20
28.403320
70
0
0
VERTEX
8
Layer 1
10
61.317110
20
28.568684
70
0
0
VERTEX
8
Layer 1
10
60.589507
20
28.337174
70
0
0
VERTEX
8
Layer 1
10
60.093414
20
28.039518
70
0
0
VERTEX
8
Layer 1
10
59.729612
20
27.576498
70
0
0
VERTEX
8
Layer 1
10
59.597321
20
27.179623
70
0
0
VERTEX
8
Layer 1
10
59.531175
20
26.418947
70
0
0
VERTEX
8
Layer 1
10
59.531175
20
25.459834
70
0
0
VERTEX
8
Layer 1
10
59.498102
20
23.541607
70
0
0
VERTEX
8
Layer 1
10
59.465029
20
21.094214
70
0
0
VERTEX
8
Layer 1
10
59.431956
20
18.679894
70
0
0
VERTEX
8
Layer 1
10
59.398884
20
16.794741
70
0
0
VERTEX
8
Layer 1
10
59.332738
20
15.901773
70
0
0
VERTEX
8
Layer 1
10
59.002009
20
15.339534
70
0
0
VERTEX
8
Layer 1
10
58.406697
20
14.711149
70
0
0
VERTEX
8
Layer 1
10
57.778313
20
14.248129
70
0
0
VERTEX
8
Layer 1
10
57.530266
20
14.198454
70
0
0
VERTEX
8
Layer 1
10
57.381438
20
14.314275
70
0
0
VERTEX
8
Layer 1
10
57.183001
20
15.273388
70
0
0
VERTEX
8
Layer 1
10
56.951491
20
17.423125
70
0
0
VERTEX
8
Layer 1
10
56.719981
20
20.201247
70
0
0
VERTEX
8
Layer 1
10
56.488471
20
23.111660
70
0
0
VERTEX
8
Layer 1
10
56.323106
20
25.625198
70
0
0
VERTEX
8
Layer 1
10
56.223888
20
27.245769
70
0
0
VERTEX
8
Layer 1
10
56.157742
20
28.800194
70
0
0
VERTEX
8
Layer 1
10
56.091596
20
30.453759
70
0
0
VERTEX
8
Layer 1
10
56.091596
20
31.809746
70
0
0
VERTEX
8
Layer 1
10
56.223888
20
32.537350
70
0
0
VERTEX
8
Layer 1
10
56.653835
20
32.603495
70
0
0
VERTEX
8
Layer 1
10
57.480657
20
32.338912
70
0
0
VERTEX
8
Layer 1
10
58.340552
20
31.908965
70
0
0
VERTEX
8
Layer 1
10
58.869718
20
31.445945
70
0
0
VERTEX
8
Layer 1
10
59.035082
20
30.982925
70
0
0
VERTEX
8
Layer 1
10
59.200446
20
30.189176
70
0
0
VERTEX
8
Layer 1
10
60.424143
20
30.784487
70
0
0
VERTEX
8
Layer 1
10
61.713985
20
31.214435
70
0
0
VERTEX
8
Layer 1
10
62.970754
20
31.313653
70
0
0
VERTEX
8
Layer 1
10
64.029086
20
30.982925
70
0
0
VERTEX
8
Layer 1
10
64.624398
20
30.189176
70
0
0
VERTEX
8
Layer 1
10
65.186637
20
28.866340
70
0
0
VERTEX
8
Layer 1
10
65.583511
20
27.245769
70
0
0
VERTEX
8
Layer 1
10
65.748875
20
25.658271
70
0
0
VERTEX
8
Layer 1
10
65.748875
20
25.658271
70
0
0
SEQEND
8
Layer 1
0
POLYLINE
8
Layer 1
62
7
70
1
10
0.000000
20
0.000000
66
1
0
VERTEX
8
Layer 1
10
52.826906
20
25.485498
70
0
0
VERTEX
8
Layer 1
10
53.190708
20
24.989405
70
0
0
VERTEX
8
Layer 1
10
53.488364
20
24.327948
70
0
0
VERTEX
8
Layer 1
10
53.686801
20
23.269616
70
0
0
VERTEX
8
Layer 1
10
53.786020
20
21.549826
70
0
0
VERTEX
8
Layer 1
10
53.686801
20
18.143320
70
0
0
VERTEX
8
Layer 1
10
53.554510
20
15.166761
70
0
0
VERTEX
8
Layer 1
10
53.488364
20
13.017024
70
0
0
VERTEX
8
Layer 1
10
53.422218
20
11.264162
70
0
0
VERTEX
8
Layer 1
10
53.322999
20
10.106611
70
0
0
VERTEX
8
Layer 1
10
53.256854
20
9.643591
70
0
0
VERTEX
8
Layer 1
10
52.826906
20
9.709737
70
0
0
VERTEX
8
Layer 1
10
52.231595
20
10.205830
70
0
0
VERTEX
8
Layer 1
10
51.669356
20
10.834215
70
0
0
VERTEX
8
Layer 1
10
51.338627
20
11.363381
70
0
0
VERTEX
8
Layer 1
10
51.239408
20
12.322494
70
0
0
VERTEX
8
Layer 1
10
50.404252
20
11.925586
70
0
0
VERTEX
8
Layer 1
10
49.486546
20
11.661037
70
0
0
VERTEX
8
Layer 1
10
47.568319
20
11.528745
70
0
0
VERTEX
8
Layer 1
10
45.848530
20
11.892547
70
0
0
VERTEX
8
Layer 1
10
45.153999
20
12.239812
70
0
0
VERTEX
8
Layer 1
10
44.657906
20
12.686296
70
0
0
VERTEX
8
Layer 1
10
44.360250
20
13.281607
70
0
0
VERTEX
8
Layer 1
10
44.161813
20
14.174575
70
0
0
VERTEX
8
Layer 1
10
44.029522
20
15.265980
70
0
0
VERTEX
8
Layer 1
10
43.930303
20
16.357385
70
0
0
VERTEX
8
Layer 1
10
43.979879
20
17.556310
70
0
0
VERTEX
8
Layer 1
10
44.261032
20
18.573267
70
0
0
VERTEX
8
Layer 1
10
44.823238
20
19.408358
70
0
0
VERTEX
8
Layer 1
10
45.716238
20
19.995401
70
0
0
VERTEX
8
Layer 1
10
46.939935
20
20.193838
70
0
0
VERTEX
8
Layer 1
10
48.494360
20
20.127693
70
0
0
VERTEX
8
Layer 1
10
49.916493
20
19.929255
70
0
0
VERTEX
8
Layer 1
10
50.710242
20
19.763891
70
0
0
VERTEX
8
Layer 1
10
50.511805
20
22.674304
70
0
0
VERTEX
8
Layer 1
10
50.247222
20
24.294875
70
0
0
VERTEX
8
Layer 1
10
49.850348
20
24.757895
70
0
0
VERTEX
8
Layer 1
10
49.321182
20
25.121697
70
0
0
VERTEX
8
Layer 1
10
48.527433
20
25.419353
70
0
0
VERTEX
8
Layer 1
10
48.180134
20
25.378078
70
0
0
VERTEX
8
Layer 1
10
47.865975
20
25.121697
70
0
0
VERTEX
8
Layer 1
10
47.369882
20
23.931073
70
0
0
VERTEX
8
Layer 1
10
47.138372
20
21.384462
70
0
0
VERTEX
8
Layer 1
10
45.352437
20
21.384462
70
0
0
VERTEX
8
Layer 1
10
44.459469
20
21.516753
70
0
0
VERTEX
8
Layer 1
10
44.029522
20
21.682118
70
0
0
VERTEX
8
Layer 1
10
44.095667
20
22.641231
70
0
0
VERTEX
8
Layer 1
10
44.459469
20
24.493312
70
0
0
VERTEX
8
Layer 1
10
45.054781
20
26.378466
70
0
0
VERTEX
8
Layer 1
10
45.426784
20
27.106102
70
0
0
VERTEX
8
Layer 1
10
45.815457
20
27.502944
70
0
0
VERTEX
8
Layer 1
10
46.683620
20
27.817136
70
0
0
VERTEX
8
Layer 1
10
47.700611
20
27.833672
70
0
0
VERTEX
8
Layer 1
10
48.808486
20
27.626967
70
0
0
VERTEX
8
Layer 1
10
49.883420
20
27.271434
70
0
0
VERTEX
8
Layer 1
10
51.768574
20
26.312320
70
0
0
VERTEX
8
Layer 1
10
52.826906
20
25.485498
70
0
0
VERTEX
8
Layer 1
10
52.826906
20
25.485498
70
0
0
SEQEND
8
Layer 1
0
POLYLINE
8
Layer 1
62
7
70
1
10
0.000000
20
0.000000
66
1
0
VERTEX
8
Layer 1
10
50.776388
20
15.828219
70
0
0
VERTEX
8
Layer 1
10
50.809461
20
16.258166
70
0
0
VERTEX
8
Layer 1
10
50.842534
20
16.853478
70
0
0
VERTEX
8
Layer 1
10
50.809461
20
17.415717
70
0
0
VERTEX
8
Layer 1
10
50.743315
20
17.812591
70
0
0
VERTEX
8
Layer 1
10
50.148003
20
18.143320
70
0
0
VERTEX
8
Layer 1
10
49.089671
20
18.308684
70
0
0
VERTEX
8
Layer 1
10
47.965194
20
18.341757
70
0
0
VERTEX
8
Layer 1
10
47.237590
20
18.209466
70
0
0
VERTEX
8
Layer 1
10
46.840716
20
17.746446
70
0
0
VERTEX
8
Layer 1
10
46.708424
20
16.820405
70
0
0
VERTEX
8
Layer 1
10
46.741497
20
16.192020
70
0
0
VERTEX
8
Layer 1
10
46.807643
20
15.530563
70
0
0
VERTEX
8
Layer 1
10
46.939935
20
15.001397
70
0
0
VERTEX
8
Layer 1
10
47.138372
20
14.703741
70
0
0
VERTEX
8
Layer 1
10
47.932121
20
14.406085
70
0
0
VERTEX
8
Layer 1
10
49.122744
20
14.339939
70
0
0
VERTEX
8
Layer 1
10
50.214149
20
14.736814
70
0
0
VERTEX
8
Layer 1
10
50.602722
20
15.174963
70
0
0
VERTEX
8
Layer 1
10
50.776388
20
15.828219
70
0
0
VERTEX
8
Layer 1
10
50.776388
20
15.828219
70
0
0
SEQEND
8
Layer 1
0
POLYLINE
8
Layer 1
62
7
70
1
10
0.000000
20
0.000000
66
1
0
VERTEX
8
Layer 1
10
41.590596
20
32.430696
70
0
0
VERTEX
8
Layer 1
10
41.657270
20
31.557599
70
0
0
VERTEX
8
Layer 1
10
41.519423
20
29.476204
70
0
0
VERTEX
8
Layer 1
10
41.258808
20
26.609976
70
0
0
VERTEX
8
Layer 1
10
40.880190
20
23.291047
70
0
0
VERTEX
8
Layer 1
10
40.460826
20
19.910205
70
0
0
VERTEX
8
Layer 1
10
40.050193
20
16.894753
70
0
0
VERTEX
8
Layer 1
10
39.689037
20
14.605845
70
0
0
VERTEX
8
Layer 1
10
39.451707
20
13.401199
70
0
0
VERTEX
8
Layer 1
10
38.989745
20
12.854835
70
0
0
VERTEX
8
Layer 1
10
38.169537
20
12.083046
70
0
0
VERTEX
8
Layer 1
10
37.195872
20
11.428468
70
0
0
VERTEX
8
Layer 1
10
36.420644
20
11.050908
70
0
0
VERTEX
8
Layer 1
10
35.786868
20
11.040093
70
0
0
VERTEX
8
Layer 1
10
35.113604
20
11.266808
70
0
0
VERTEX
8
Layer 1
10
33.812384
20
12.114267
70
0
0
VERTEX
8
Layer 1
10
32.800090
20
13.162016
70
0
0
VERTEX
8
Layer 1
10
32.316432
20
13.882740
70
0
0
VERTEX
8
Layer 1
10
32.186787
20
14.496837
70
0
0
VERTEX
8
Layer 1
10
32.170912
20
15.231055
70
0
0
VERTEX
8
Layer 1
10
32.245789
20
15.888279
70
0
0
VERTEX
8
Layer 1
10
32.509578
20
16.157625
70
0
0
VERTEX
8
Layer 1
10
33.166008
20
15.783240
70
0
0
VERTEX
8
Layer 1
10
34.343403
20
15.016214
70
0
0
VERTEX
8
Layer 1
10
35.502805
20
14.384654
70
0
0
VERTEX
8
Layer 1
10
35.944328
20
14.242672
70
0
0
VERTEX
8
Layer 1
10
36.196542
20
14.338617
70
0
0
VERTEX
8
Layer 1
10
36.620668
20
15.721592
70
0
0
VERTEX
8
Layer 1
10
37.209895
20
18.550513
70
0
0
VERTEX
8
Layer 1
10
35.046929
20
18.264764
70
0
0
VERTEX
8
Layer 1
10
34.204530
20
18.394145
70
0
0
VERTEX
8
Layer 1
10
33.540129
20
18.769588
70
0
0
VERTEX
8
Layer 1
10
32.994558
20
19.531058
70
0
0
VERTEX
8
Layer 1
10
32.563288
20
20.711892
70
0
0
VERTEX
8
Layer 1
10
32.326751
20
22.136936
70
0
0
VERTEX
8
Layer 1
10
32.323576
20
23.568859
70
0
0
VERTEX
8
Layer 1
10
32.572284
20
24.871930
70
0
0
VERTEX
8
Layer 1
10
33.114679
20
26.707343
70
0
0
VERTEX
8
Layer 1
10
33.748885
20
28.765269
70
0
0
VERTEX
8
Layer 1
10
34.401082
20
30.688153
70
0
0
VERTEX
8
Layer 1
10
34.931306
20
32.125579
70
0
0
VERTEX
8
Layer 1
10
35.207266
20
32.793122
70
0
0
VERTEX
8
Layer 1
10
35.547255
20
32.854188
70
0
0
VERTEX
8
Layer 1
10
36.102086
20
32.757589
70
0
0
VERTEX
8
Layer 1
10
36.641835
20
32.529518
70
0
0
VERTEX
8
Layer 1
10
36.936845
20
32.196276
70
0
0
VERTEX
8
Layer 1
10
36.842918
20
31.374798
70
0
0
VERTEX
8
Layer 1
10
36.556904
20
29.743062
70
0
0
VERTEX
8
Layer 1
10
36.156325
20
27.691591
70
0
0
VERTEX
8
Layer 1
10
35.755747
20
25.640279
70
0
0
VERTEX
8
Layer 1
10
35.436660
20
24.012300
70
0
0
VERTEX
8
Layer 1
10
35.277116
20
23.198443
70
0
0
VERTEX
8
Layer 1
10
35.259389
20
22.168421
70
0
0
VERTEX
8
Layer 1
10
35.461530
20
21.313289
70
0
0
VERTEX
8
Layer 1
10
35.795699
20
20.742319
70
0
0
VERTEX
8
Layer 1
10
36.142302
20
20.569811
70
0
0
VERTEX
8
Layer 1
10
37.190845
20
20.716390
70
0
0
VERTEX
8
Layer 1
10
37.640636
20
20.864821
70
0
0
VERTEX
8
Layer 1
10
38.212664
20
24.128188
70
0
0
VERTEX
8
Layer 1
10
38.733364
20
27.230952
70
0
0
VERTEX
8
Layer 1
10
39.105897
20
29.618549
70
0
0
VERTEX
8
Layer 1
10
39.314123
20
30.859708
70
0
0
VERTEX
8
Layer 1
10
39.651996
20
31.486902
70
0
0
VERTEX
8
Layer 1
10
40.322185
20
32.109440
70
0
0
VERTEX
8
Layer 1
10
41.028092
20
32.461600
70
0
0
VERTEX
8
Layer 1
10
41.590596
20
32.430696
70
0
0
VERTEX
8
Layer 1
10
41.590596
20
32.430696
70
0
0
SEQEND
8
Layer 1
0
POLYLINE
8
Layer 1
62
7
70
1
10
0.000000
20
0.000000
66
1
0
VERTEX
8
Layer 1
10
27.851329
20
30.081675
70
0
0
VERTEX
8
Layer 1
10
28.421506
20
29.482951
70
0
0
VERTEX
8
Layer 1
10
29.009409
20
28.453326
70
0
0
VERTEX
8
Layer 1
10
29.521907
20
27.215077
70
0
0
VERTEX
8
Layer 1
10
29.935979
20
25.965187
70
0
0
VERTEX
8
Layer 1
10
30.220406
20
24.966386
70
0
0
VERTEX
8
Layer 1
10
30.278614
20
24.473733
70
0
0
VERTEX
8
Layer 1
10
29.915606
20
24.164435
70
0
0
VERTEX
8
Layer 1
10
29.063649
20
23.764121
70
0
0
VERTEX
8
Layer 1
10
27.463980
20
23.208762
70
0
0
VERTEX
8
Layer 1
10
26.879516
20
25.904069
70
0
0
VERTEX
8
Layer 1
10
26.293412
20
27.200261
70
0
0
VERTEX
8
Layer 1
10
25.981710
20
27.512998
70
0
0
VERTEX
8
Layer 1
10
25.680743
20
27.593960
70
0
0
VERTEX
8
Layer 1
10
25.194017
20
27.203436
70
0
0
VERTEX
8
Layer 1
10
24.842545
20
26.795713
70
0
0
VERTEX
8
Layer 1
10
24.539438
20
26.260462
70
0
0
VERTEX
8
Layer 1
10
24.462365
20
25.785006
70
0
0
VERTEX
8
Layer 1
10
24.458979
20
24.685664
70
0
0
VERTEX
8
Layer 1
10
24.538618
20
23.729196
70
0
0
VERTEX
8
Layer 1
10
24.703586
20
22.050417
70
0
0
VERTEX
8
Layer 1
10
24.907341
20
20.043026
70
0
0
VERTEX
8
Layer 1
10
25.107233
20
18.068443
70
0
0
VERTEX
8
Layer 1
10
25.252807
20
16.553705
70
0
0
VERTEX
8
Layer 1
10
25.305274
20
15.827160
70
0
0
VERTEX
8
Layer 1
10
25.031139
20
15.328686
70
0
0
VERTEX
8
Layer 1
10
24.505889
20
14.700301
70
0
0
VERTEX
8
Layer 1
10
23.928384
20
14.232519
70
0
0
VERTEX
8
Layer 1
10
23.688824
20
14.145967
70
0
0
VERTEX
8
Layer 1
10
23.530345
20
14.218760
70
0
0
VERTEX
8
Layer 1
10
23.232451
20
15.049551
70
0
0
VERTEX
8
Layer 1
10
22.785332
20
16.861680
70
0
0
VERTEX
8
Layer 1
10
22.268390
20
19.265152
70
0
0
VERTEX
8
Layer 1
10
21.739806
20
21.767049
70
0
0
VERTEX
8
Layer 1
10
21.319595
20
23.915198
70
0
0
VERTEX
8
Layer 1
10
21.054272
20
25.315901
70
0
0
VERTEX
8
Layer 1
10
20.825672
20
26.687763
70
0
0
VERTEX
8
Layer 1
10
20.593209
20
28.092170
70
0
0
VERTEX
8
Layer 1
10
20.453562
20
29.274644
70
0
0
VERTEX
8
Layer 1
10
20.511241
20
29.914221
70
0
0
VERTEX
8
Layer 1
10
20.934363
20
29.997485
70
0
0
VERTEX
8
Layer 1
10
21.778753
20
29.897367
70
0
0
VERTEX
8
Layer 1
10
22.675372
20
29.636938
70
0
0
VERTEX
8
Layer 1
10
23.251316
20
29.271999
70
0
0
VERTEX
8
Layer 1
10
23.506559
20
28.802575
70
0
0
VERTEX
8
Layer 1
10
24.619131
20
29.533459
70
0
0
VERTEX
8
Layer 1
10
25.685427
20
30.092312
70
0
0
VERTEX
8
Layer 1
10
26.761512
20
30.285986
70
0
0
VERTEX
8
Layer 1
10
27.851329
20
30.081675
70
0
0
VERTEX
8
Layer 1
10
27.851329
20
30.081675
70
0
0
SEQEND
8
Layer 1
0
POLYLINE
8
Layer 1
62
7
70
1
10
0.000000
20
0.000000
66
1
0
VERTEX
8
Layer 1
10
19.380705
20
23.199766
70
0
0
VERTEX
8
Layer 1
10
19.347632
20
22.538308
70
0
0
VERTEX
8
Layer 1
10
19.116122
20
21.314612
70
0
0
VERTEX
8
Layer 1
10
18.818466
20
20.057843
70
0
0
VERTEX
8
Layer 1
10
18.586956
20
19.396385
70
0
0
VERTEX
8
Layer 1
10
18.256227
20
19.396385
70
0
0
VERTEX
8
Layer 1
10
18.057790
20
19.429458
70
0
0
VERTEX
8
Layer 1
10
18.322373
20
16.882847
70
0
0
VERTEX
8
Layer 1
10
18.421591
20
15.824515
70
0
0
VERTEX
8
Layer 1
10
18.190081
20
15.163057
70
0
0
VERTEX
8
Layer 1
10
17.727061
20
14.369308
70
0
0
VERTEX
8
Layer 1
10
17.164822
20
13.807069
70
0
0
VERTEX
8
Layer 1
10
16.941577
20
13.683079
70
0
0
VERTEX
8
Layer 1
10
16.801020
20
13.773996
70
0
0
VERTEX
8
Layer 1
10
16.106490
20
15.559932
70
0
0
VERTEX
8
Layer 1
10
14.915867
20
19.627895
70
0
0
VERTEX
8
Layer 1
10
13.526806
20
19.760187
70
0
0
VERTEX
8
Layer 1
10
12.104672
20
19.892478
70
0
0
VERTEX
8
Layer 1
10
10.649466
20
20.057843
70
0
0
VERTEX
8
Layer 1
10
9.293478
20
20.289353
70
0
0
VERTEX
8
Layer 1
10
8.632020
20
17.544304
70
0
0
VERTEX
8
Layer 1
10
8.036709
20
15.295349
70
0
0
VERTEX
8
Layer 1
10
7.573688
20
13.773996
70
0
0
VERTEX
8
Layer 1
10
7.276033
20
13.211758
70
0
0
VERTEX
8
Layer 1
10
6.746867
20
13.542486
70
0
0
VERTEX
8
Layer 1
10
6.250773
20
14.336235
70
0
0
VERTEX
8
Layer 1
10
5.920045
20
15.295349
70
0
0
VERTEX
8
Layer 1
10
5.787753
20
16.122171
70
0
0
VERTEX
8
Layer 1
10
5.953118
20
17.709669
70
0
0
VERTEX
8
Layer 1
10
6.151555
20
19.231021
70
0
0
VERTEX
8
Layer 1
10
6.349992
20
20.851592
70
0
0
VERTEX
8
Layer 1
10
6.217701
20
20.851592
70
0
0
VERTEX
8
Layer 1
10
5.853899
20
21.149248
70
0
0
VERTEX
8
Layer 1
10
5.390879
20
21.612268
70
0
0
VERTEX
8
Layer 1
10
4.994004
20
22.108361
70
0
0
VERTEX
8
Layer 1
10
4.828640
20
22.505235
70
0
0
VERTEX
8
Layer 1
10
5.291660
20
22.637527
70
0
0
VERTEX
8
Layer 1
10
6.581502
20
22.769818
70
0
0
VERTEX
8
Layer 1
10
7.143741
20
26.903928
70
0
0
VERTEX
8
Layer 1
10
7.739053
20
30.938819
70
0
0
VERTEX
8
Layer 1
10
8.301292
20
34.213033
70
0
0
VERTEX
8
Layer 1
10
8.797385
20
36.164333
70
0
0
VERTEX
8
Layer 1
10
9.252137
20
37.007691
70
0
0
VERTEX
8
Layer 1
10
9.954935
20
37.751831
70
0
0
VERTEX
8
Layer 1
10
11.674725
20
38.942454
70
0
0
VERTEX
8
Layer 1
10
13.427587
20
39.703130
70
0
0
VERTEX
8
Layer 1
10
14.651284
20
39.967713
70
0
0
VERTEX
8
Layer 1
10
15.015085
20
39.207037
70
0
0
VERTEX
8
Layer 1
10
15.478106
20
37.222665
70
0
0
VERTEX
8
Layer 1
10
16.007272
20
34.279179
70
0
0
VERTEX
8
Layer 1
10
16.569510
20
30.773454
70
0
0
VERTEX
8
Layer 1
10
17.065604
20
26.970074
70
0
0
VERTEX
8
Layer 1
10
17.561697
20
23.298984
70
0
0
VERTEX
8
Layer 1
10
19.380705
20
23.199766
70
0
0
VERTEX
8
Layer 1
10
19.380705
20
23.199766
70
0
0
SEQEND
8
Layer 1
0
POLYLINE
8
Layer 1
62
7
70
1
10
0.000000
20
0.000000
66
1
0
VERTEX
8
Layer 1
10
9.921862
20
23.001329
70
0
0
VERTEX
8
Layer 1
10
12.038526
20
23.100547
70
0
0
VERTEX
8
Layer 1
10
14.122118
20
23.199766
70
0
0
VERTEX
8
Layer 1
10
13.526806
20
26.077106
70
0
0
VERTEX
8
Layer 1
10
12.898421
20
29.252102
70
0
0
VERTEX
8
Layer 1
10
12.170818
20
33.253920
70
0
0
VERTEX
8
Layer 1
10
11.377069
20
29.450539
70
0
0
VERTEX
8
Layer 1
10
10.649466
20
26.176325
70
0
0
VERTEX
8
Layer 1
10
9.921862
20
23.001329
70
0
0
VERTEX
8
Layer 1
10
9.921862
20
23.001329
70
0
0
SEQEND
8
Layer 1
0
POLYLINE
8
Layer 1
62
7
70
1
10
0.000000
20
0.000000
66
1
0
VERTEX
8
Layer 1
10
53.786020
20
21.549826
70
0
0
VERTEX
8
Layer 1
10
53.686801
20
23.269616
70
0
0
VERTEX
8
Layer 1
10
53.488364
20
24.327948
70
0
0
VERTEX
8
Layer 1
10
53.190708
20
24.989405
70
0
0
VERTEX
8
Layer 1
10
52.826906
20
25.485498
70
0
0
VERTEX
8
Layer 1
10
51.965953
20
26.183468
70
0
0
VERTEX
8
Layer 1
10
51.768574
20
26.312320
70
0
0
VERTEX
8
Layer 1
10
50.144299
20
27.162425
70
0
0
VERTEX
8
Layer 1
10
49.883420
20
27.271434
70
0
0
VERTEX
8
Layer 1
10
47.840840
20
27.815945
70
0
0
VERTEX
8
Layer 1
10
47.700611
20
27.833672
70
0
0
VERTEX
8
Layer 1
10
46.683620
20
27.817037
70
0
0
VERTEX
8
Layer 1
10
45.815457
20
27.502944
70
0
0
VERTEX
8
Layer 1
10
45.765980
20
27.471458
70
0
0
VERTEX
8
Layer 1
10
45.403038
20
27.070218
70
0
0
VERTEX
8
Layer 1
10
45.054781
20
26.378466
70
0
0
VERTEX
8
Layer 1
10
44.973289
20
26.153570
70
0
0
VERTEX
8
Layer 1
10
44.459469
20
24.493312
70
0
0
VERTEX
8
Layer 1
10
44.403113
20
24.247250
70
0
0
VERTEX
8
Layer 1
10
44.095667
20
22.641231
70
0
0
VERTEX
8
Layer 1
10
44.029522
20
21.682118
70
0
0
VERTEX
8
Layer 1
10
44.459469
20
21.516753
70
0
0
VERTEX
8
Layer 1
10
45.352437
20
21.384462
70
0
0
VERTEX
8
Layer 1
10
45.517801
20
21.377053
70
0
0
VERTEX
8
Layer 1
10
47.138372
20
21.384462
70
0
0
VERTEX
8
Layer 1
10
47.369882
20
23.931073
70
0
0
VERTEX
8
Layer 1
10
47.865975
20
25.121697
70
0
0
VERTEX
8
Layer 1
10
48.180134
20
25.377879
70
0
0
VERTEX
8
Layer 1
10
48.527433
20
25.419353
70
0
0
VERTEX
8
Layer 1
10
49.321182
20
25.121697
70
0
0
VERTEX
8
Layer 1
10
49.850348
20
24.757895
70
0
0
VERTEX
8
Layer 1
10
50.247222
20
24.294875
70
0
0
VERTEX
8
Layer 1
10
50.511805
20
22.674304
70
0
0
VERTEX
8
Layer 1
10
50.710242
20
19.763891
70
0
0
VERTEX
8
Layer 1
10
49.916493
20
19.929255
70
0
0
VERTEX
8
Layer 1
10
48.494360
20
20.127693
70
0
0
VERTEX
8
Layer 1
10
46.939935
20
20.193838
70
0
0
VERTEX
8
Layer 1
10
46.754462
20
20.190663
70
0
0
VERTEX
8
Layer 1
10
45.716238
20
19.995401
70
0
0
VERTEX
8
Layer 1
10
44.823238
20
19.408258
70
0
0
VERTEX
8
Layer 1
10
44.261032
20
18.573267
70
0
0
VERTEX
8
Layer 1
10
43.979879
20
17.556210
70
0
0
VERTEX
8
Layer 1
10
43.930303
20
16.357385
70
0
0
VERTEX
8
Layer 1
10
44.029522
20
15.265980
70
0
0
VERTEX
8
Layer 1
10
44.161813
20
14.174575
70
0
0
VERTEX
8
Layer 1
10
44.360250
20
13.281607
70
0
0
VERTEX
8
Layer 1
10
44.657906
20
12.686296
70
0
0
VERTEX
8
Layer 1
10
45.153999
20
12.239812
70
0
0
VERTEX
8
Layer 1
10
45.848530
20
11.892547
70
0
0
VERTEX
8
Layer 1
10
47.568319
20
11.528745
70
0
0
VERTEX
8
Layer 1
10
49.246834
20
11.622672
70
0
0
VERTEX
8
Layer 1
10
49.486546
20
11.661037
70
0
0
VERTEX
8
Layer 1
10
50.404351
20
11.925586
70
0
0
VERTEX
8
Layer 1
10
51.239408
20
12.322494
70
0
0
VERTEX
8
Layer 1
10
51.338627
20
11.363381
70
0
0
VERTEX
8
Layer 1
10
51.669356
20
10.834215
70
0
0
VERTEX
8
Layer 1
10
52.231595
20
10.205830
70
0
0
VERTEX
8
Layer 1
10
52.826906
20
9.709737
70
0
0
VERTEX
8
Layer 1
10
53.239656
20
9.632214
70
0
0
VERTEX
8
Layer 1
10
53.256854
20
9.643591
70
0
0
VERTEX
8
Layer 1
10
53.322999
20
10.106611
70
0
0
VERTEX
8
Layer 1
10
53.403697
20
10.918881
70
0
0
VERTEX
8
Layer 1
10
53.422218
20
11.264162
70
0
0
VERTEX
8
Layer 1
10
53.455291
20
12.082517
70
0
0
VERTEX
8
Layer 1
10
53.488364
20
13.017024
70
0
0
VERTEX
8
Layer 1
10
53.554510
20
15.166761
70
0
0
VERTEX
8
Layer 1
10
53.686801
20
18.143320
70
0
0
VERTEX
8
Layer 1
10
53.784432
20
21.127552
70
0
0
VERTEX
8
Layer 1
10
53.786020
20
21.549826
70
0
0
VERTEX
8
Layer 1
10
53.786020
20
21.549826
70
0
0
SEQEND
8
Layer 1
0
POLYLINE
8
Layer 1
62
7
70
1
10
0.000000
20
0.000000
66
1
0
VERTEX
8
Layer 1
10
35.190333
20
33.635290
70
0
0
VERTEX
8
Layer 1
10
35.587207
20
33.647434
70
0
0
VERTEX
8
Layer 1
10
36.322748
20
33.520302
70
0
0
VERTEX
8
Layer 1
10
37.075222
20
33.194759
70
0
0
VERTEX
8
Layer 1
10
37.433997
20
32.891524
70
0
0
VERTEX
8
Layer 1
10
37.702284
20
32.405667
70
0
0
VERTEX
8
Layer 1
10
37.716571
20
32.353729
70
0
0
VERTEX
8
Layer 1
10
37.723715
20
32.300230
70
0
0
VERTEX
8
Layer 1
10
37.710750
20
31.833347
70
0
0
VERTEX
8
Layer 1
10
37.629523
20
31.267219
70
0
0
VERTEX
8
Layer 1
10
37.335043
20
29.587990
70
0
0
VERTEX
8
Layer 1
10
36.936581
20
27.545277
70
0
0
VERTEX
8
Layer 1
10
36.534944
20
25.489467
70
0
0
VERTEX
8
Layer 1
10
36.213211
20
23.847994
70
0
0
VERTEX
8
Layer 1
10
36.103409
20
23.315124
70
0
0
VERTEX
8
Layer 1
10
36.074569
20
23.161137
70
0
0
VERTEX
8
Layer 1
10
36.065838
20
23.108220
70
0
0
VERTEX
8
Layer 1
10
36.048111
20
22.267375
70
0
0
VERTEX
8
Layer 1
10
36.203156
20
21.601684
70
0
0
VERTEX
8
Layer 1
10
36.319838
20
21.379964
70
0
0
VERTEX
8
Layer 1
10
36.941343
20
21.474155
70
0
0
VERTEX
8
Layer 1
10
37.430822
20
24.264183
70
0
0
VERTEX
8
Layer 1
10
37.949933
20
27.357688
70
0
0
VERTEX
8
Layer 1
10
38.320614
20
29.734754
70
0
0
VERTEX
8
Layer 1
10
38.322466
20
29.747930
70
0
0
VERTEX
8
Layer 1
10
38.325112
20
29.760869
70
0
0
VERTEX
8
Layer 1
10
38.525401
20
30.949666
70
0
0
VERTEX
8
Layer 1
10
38.536514
20
31.029518
70
0
0
VERTEX
8
Layer 1
10
38.726848
20
31.559252
70
0
0
VERTEX
8
Layer 1
10
39.045572
20
31.999214
70
0
0
VERTEX
8
Layer 1
10
39.138969
20
32.106185
70
0
0
VERTEX
8
Layer 1
10
39.861546
20
32.755763
70
0
0
VERTEX
8
Layer 1
10
40.783882
20
33.216719
70
0
0
VERTEX
8
Layer 1
10
40.848705
20
33.236616
70
0
0
VERTEX
8
Layer 1
10
41.424107
20
33.306645
70
0
0
VERTEX
8
Layer 1
10
42.061024
20
33.070723
70
0
0
VERTEX
8
Layer 1
10
42.102828
20
33.036882
70
0
0
VERTEX
8
Layer 1
10
42.149395
20
32.994761
70
0
0
VERTEX
8
Layer 1
10
42.332751
20
32.731474
70
0
0
VERTEX
8
Layer 1
10
42.400219
20
32.534333
70
0
0
VERTEX
8
Layer 1
10
42.444140
20
32.234349
70
0
0
VERTEX
8
Layer 1
10
42.450490
20
31.533363
70
0
0
VERTEX
8
Layer 1
10
42.311584
20
29.422626
70
0
0
VERTEX
8
Layer 1
10
42.047530
20
26.520018
70
0
0
VERTEX
8
Layer 1
10
41.668648
20
23.201089
70
0
0
VERTEX
8
Layer 1
10
41.249283
20
19.820776
70
0
0
VERTEX
8
Layer 1
10
41.249548
20
19.820512
70
0
0
VERTEX
8
Layer 1
10
40.836534
20
16.785480
70
0
0
VERTEX
8
Layer 1
10
40.742872
20
16.132225
70
0
0
VERTEX
8
Layer 1
10
40.471409
20
14.472231
70
0
0
VERTEX
8
Layer 1
10
40.194920
20
13.122593
70
0
0
VERTEX
8
Layer 1
10
40.184337
20
13.094283
70
0
0
VERTEX
8
Layer 1
10
40.171372
20
13.066501
70
0
0
VERTEX
8
Layer 1
10
39.560715
20
12.303179
70
0
0
VERTEX
8
Layer 1
10
38.663514
20
11.461806
70
0
0
VERTEX
8
Layer 1
10
37.608886
20
10.750342
70
0
0
VERTEX
8
Layer 1
10
36.584421
20
10.274357
70
0
0
VERTEX
8
Layer 1
10
35.657520
20
10.257027
70
0
0
VERTEX
8
Layer 1
10
34.759592
20
10.556403
70
0
0
VERTEX
8
Layer 1
10
33.307031
20
11.502022
70
0
0
VERTEX
8
Layer 1
10
33.299623
20
11.508372
70
0
0
VERTEX
8
Layer 1
10
33.292743
20
11.514193
70
0
0
VERTEX
8
Layer 1
10
32.178849
20
12.667775
70
0
0
VERTEX
8
Layer 1
10
31.816370
20
13.156195
70
0
0
VERTEX
8
Layer 1
10
31.570837
20
13.610749
70
0
0
VERTEX
8
Layer 1
10
31.399917
20
14.392856
70
0
0
VERTEX
8
Layer 1
10
31.396477
20
14.418521
70
0
0
VERTEX
8
Layer 1
10
31.394890
20
14.444185
70
0
0
VERTEX
8
Layer 1
10
31.377427
20
15.249311
70
0
0
VERTEX
8
Layer 1
10
31.377427
20
15.255397
70
0
0
VERTEX
8
Layer 1
10
31.474529
20
16.075339
70
0
0
VERTEX
8
Layer 1
10
31.483260
20
16.111852
70
0
0
VERTEX
8
Layer 1
10
31.495431
20
16.147306
70
0
0
VERTEX
8
Layer 1
10
31.794145
20
16.655041
70
0
0
VERTEX
8
Layer 1
10
32.116672
20
16.876530
70
0
0
VERTEX
8
Layer 1
10
32.537624
20
16.951374
70
0
0
VERTEX
8
Layer 1
10
32.599536
20
16.946082
70
0
0
VERTEX
8
Layer 1
10
32.652188
20
16.938674
70
0
0
VERTEX
8
Layer 1
10
32.919681
20
16.855330
70
0
0
VERTEX
8
Layer 1
10
33.132935
20
16.745793
70
0
0
VERTEX
8
Layer 1
10
33.599131
20
16.448137
70
0
0
VERTEX
8
Layer 1
10
34.760385
20
15.691959
70
0
0
VERTEX
8
Layer 1
10
35.668170
20
15.190045
70
0
0
VERTEX
8
Layer 1
10
35.847292
20
15.900715
70
0
0
VERTEX
8
Layer 1
10
36.203950
20
17.564677
70
0
0
VERTEX
8
Layer 1
10
35.065450
20
17.471279
70
0
0
VERTEX
8
Layer 1
10
35.053279
20
17.471015
70
0
0
VERTEX
8
Layer 1
10
35.041373
20
17.471015
70
0
0
VERTEX
8
Layer 1
10
33.956814
20
17.640249
70
0
0
VERTEX
8
Layer 1
10
33.027631
20
18.163693
70
0
0
VERTEX
8
Layer 1
10
33.027631
20
18.163428
70
0
0
VERTEX
8
Layer 1
10
33.023133
20
18.167397
70
0
0
VERTEX
8
Layer 1
10
33.020488
20
18.169514
70
0
0
VERTEX
8
Layer 1
10
33.020488
20
18.169778
70
0
0
VERTEX
8
Layer 1
10
32.288386
20
19.168579
70
0
0
VERTEX
8
Layer 1
10
32.279655
20
19.185248
70
0
0
VERTEX
8
Layer 1
10
32.271982
20
19.202446
70
0
0
VERTEX
8
Layer 1
10
31.801554
20
20.488848
70
0
0
VERTEX
8
Layer 1
10
31.794675
20
20.512396
70
0
0
VERTEX
8
Layer 1
10
31.789118
20
20.536473
70
0
0
VERTEX
8
Layer 1
10
31.537500
20
22.049888
70
0
0
VERTEX
8
Layer 1
10
31.537235
20
22.053857
70
0
0
VERTEX
8
Layer 1
10
31.536706
20
22.057561
70
0
0
VERTEX
8
Layer 1
10
31.535119
20
23.658553
70
0
0
VERTEX
8
Layer 1
10
31.799172
20
25.051582
70
0
0
VERTEX
8
Layer 1
10
31.802347
20
25.066399
70
0
0
VERTEX
8
Layer 1
10
31.806581
20
25.080686
70
0
0
VERTEX
8
Layer 1
10
32.357443
20
26.945467
70
0
0
VERTEX
8
Layer 1
10
32.989267
20
28.994927
70
0
0
VERTEX
8
Layer 1
10
32.992442
20
29.006040
70
0
0
VERTEX
8
Layer 1
10
32.996146
20
29.016888
70
0
0
VERTEX
8
Layer 1
10
33.650989
20
30.947100
70
0
0
VERTEX
8
Layer 1
10
33.655222
20
30.960276
70
0
0
VERTEX
8
Layer 1
10
33.660514
20
30.973188
70
0
0
VERTEX
8
Layer 1
10
34.180949
20
32.384474
70
0
0
VERTEX
8
Layer 1
10
34.185976
20
32.398946
70
0
0
VERTEX
8
Layer 1
10
34.191797
20
32.413392
70
0
0
VERTEX
8
Layer 1
10
34.384678
20
32.898400
70
0
0
VERTEX
8
Layer 1
10
34.451352
20
33.054186
70
0
0
VERTEX
8
Layer 1
10
34.542369
20
33.226271
70
0
0
VERTEX
8
Layer 1
10
34.569092
20
33.267625
70
0
0
VERTEX
8
Layer 1
10
34.601106
20
33.305593
70
0
0
VERTEX
8
Layer 1
10
34.906733
20
33.543228
70
0
0
VERTEX
8
Layer 1
10
35.190333
20
33.635290
70
0
0
VERTEX
8
Layer 1
10
35.190333
20
33.635290
70
0
0
SEQEND
8
Layer 1
0
POLYLINE
8
Layer 1
62
7
70
1
10
0.000000
20
0.000000
66
1
0
VERTEX
8
Layer 1
10
35.547255
20
32.854214
70
0
0
VERTEX
8
Layer 1
10
35.207266
20
32.793228
70
0
0
VERTEX
8
Layer 1
10
35.194301
20
32.769204
70
0
0
VERTEX
8
Layer 1
10
34.931306
20
32.125579
70
0
0
VERTEX
8
Layer 1
10
34.401346
20
30.688179
70
0
0
VERTEX
8
Layer 1
10
34.088874
20
29.775077
70
0
0
VERTEX
8
Layer 1
10
33.749149
20
28.765269
70
0
0
VERTEX
8
Layer 1
10
33.430062
20
27.719902
70
0
0
VERTEX
8
Layer 1
10
33.114415
20
26.707343
70
0
0
VERTEX
8
Layer 1
10
32.963073
20
26.218922
70
0
0
VERTEX
8
Layer 1
10
32.572019
20
24.871666
70
0
0
VERTEX
8
Layer 1
10
32.483119
20
24.474262
70
0
0
VERTEX
8
Layer 1
10
32.323576
20
23.568859
70
0
0
VERTEX
8
Layer 1
10
32.326751
20
22.136936
70
0
0
VERTEX
8
Layer 1
10
32.563288
20
20.711892
70
0
0
VERTEX
8
Layer 1
10
32.994558
20
19.531058
70
0
0
VERTEX
8
Layer 1
10
33.540129
20
18.769588
70
0
0
VERTEX
8
Layer 1
10
34.157798
20
18.410350
70
0
0
VERTEX
8
Layer 1
10
34.931835
20
18.267409
70
0
0
VERTEX
8
Layer 1
10
35.046929
20
18.264764
70
0
0
VERTEX
8
Layer 1
10
37.210159
20
18.550513
70
0
0
VERTEX
8
Layer 1
10
36.620668
20
15.721592
70
0
0
VERTEX
8
Layer 1
10
36.196806
20
14.338881
70
0
0
VERTEX
8
Layer 1
10
35.965660
20
14.241713
70
0
0
VERTEX
8
Layer 1
10
35.568422
20
14.353698
70
0
0
VERTEX
8
Layer 1
10
35.503070
20
14.384654
70
0
0
VERTEX
8
Layer 1
10
34.649525
20
14.837885
70
0
0
VERTEX
8
Layer 1
10
34.343403
20
15.016214
70
0
0
VERTEX
8
Layer 1
10
33.166008
20
15.783240
70
0
0
VERTEX
8
Layer 1
10
32.509578
20
16.157625
70
0
0
VERTEX
8
Layer 1
10
32.245789
20
15.888015
70
0
0
VERTEX
8
Layer 1
10
32.230707
20
15.821075
70
0
0
VERTEX
8
Layer 1
10
32.170912
20
15.231055
70
0
0
VERTEX
8
Layer 1
10
32.168530
20
15.047964
70
0
0
VERTEX
8
Layer 1
10
32.186787
20
14.496573
70
0
0
VERTEX
8
Layer 1
10
32.316697
20
13.882740
70
0
0
VERTEX
8
Layer 1
10
32.800090
20
13.162016
70
0
0
VERTEX
8
Layer 1
10
33.812384
20
12.114532
70
0
0
VERTEX
8
Layer 1
10
35.113604
20
11.266543
70
0
0
VERTEX
8
Layer 1
10
35.745858
20
11.047303
70
0
0
VERTEX
8
Layer 1
10
36.343385
20
11.036621
70
0
0
VERTEX
8
Layer 1
10
36.420379
20
11.050908
70
0
0
VERTEX
8
Layer 1
10
37.195872
20
11.428468
70
0
0
VERTEX
8
Layer 1
10
38.050210
20
11.989913
70
0
0
VERTEX
8
Layer 1
10
38.169537
20
12.082782
70
0
0
VERTEX
8
Layer 1
10
38.989745
20
12.854835
70
0
0
VERTEX
8
Layer 1
10
39.425248
20
13.351193
70
0
0
VERTEX
8
Layer 1
10
39.451707
20
13.401464
70
0
0
VERTEX
8
Layer 1
10
39.689037
20
14.605845
70
0
0
VERTEX
8
Layer 1
10
40.050193
20
16.894753
70
0
0
VERTEX
8
Layer 1
10
40.461091
20
19.910205
70
0
0
VERTEX
8
Layer 1
10
40.780707
20
22.439090
70
0
0
VERTEX
8
Layer 1
10
40.880190
20
23.291311
70
0
0
VERTEX
8
Layer 1
10
41.258808
20
26.609976
70
0
0
VERTEX
8
Layer 1
10
41.519687
20
29.476124
70
0
0
VERTEX
8
Layer 1
10
41.649862
20
31.350933
70
0
0
VERTEX
8
Layer 1
10
41.657270
20
31.557652
70
0
0
VERTEX
8
Layer 1
10
41.590331
20
32.430723
70
0
0
VERTEX
8
Layer 1
10
41.028092
20
32.461732
70
0
0
VERTEX
8
Layer 1
10
40.321920
20
32.109545
70
0
0
VERTEX
8
Layer 1
10
39.651731
20
31.486849
70
0
0
VERTEX
8
Layer 1
10
39.314123
20
30.859761
70
0
0
VERTEX
8
Layer 1
10
39.105897
20
29.618496
70
0
0
VERTEX
8
Layer 1
10
39.028109
20
29.101290
70
0
0
VERTEX
8
Layer 1
10
38.733628
20
27.230952
70
0
0
VERTEX
8
Layer 1
10
38.615624
20
26.510228
70
0
0
VERTEX
8
Layer 1
10
38.212929
20
24.128188
70
0
0
VERTEX
8
Layer 1
10
37.640636
20
20.864821
70
0
0
VERTEX
8
Layer 1
10
37.190845
20
20.716125
70
0
0
VERTEX
8
Layer 1
10
37.069666
20
20.689667
70
0
0
VERTEX
8
Layer 1
10
36.142302
20
20.569811
70
0
0
VERTEX
8
Layer 1
10
36.120871
20
20.564784
70
0
0
VERTEX
8
Layer 1
10
35.839355
20
20.691784
70
0
0
VERTEX
8
Layer 1
10
35.795699
20
20.742319
70
0
0
VERTEX
8
Layer 1
10
35.461266
20
21.313024
70
0
0
VERTEX
8
Layer 1
10
35.259653
20
22.168421
70
0
0
VERTEX
8
Layer 1
10
35.263622
20
23.067210
70
0
0
VERTEX
8
Layer 1
10
35.277116
20
23.198178
70
0
0
VERTEX
8
Layer 1
10
35.324741
20
23.467524
70
0
0
VERTEX
8
Layer 1
10
35.436924
20
24.012300
70
0
0
VERTEX
8
Layer 1
10
35.755747
20
25.640279
70
0
0
VERTEX
8
Layer 1
10
36.156061
20
27.691856
70
0
0
VERTEX
8
Layer 1
10
36.556904
20
29.743036
70
0
0
VERTEX
8
Layer 1
10
36.842918
20
31.374719
70
0
0
VERTEX
8
Layer 1
10
36.936845
20
32.196355
70
0
0
VERTEX
8
Layer 1
10
36.700837
20
32.489116
70
0
0
VERTEX
8
Layer 1
10
36.641835
20
32.529412
70
0
0
VERTEX
8
Layer 1
10
36.102086
20
32.757562
70
0
0
VERTEX
8
Layer 1
10
35.547255
20
32.854214
70
0
0
VERTEX
8
Layer 1
10
35.547255
20
32.854214
70
0
0
SEQEND
8
Layer 1
0
POLYLINE
8
Layer 1
62
7
70
1
10
0.000000
20
0.000000
66
1
0
VERTEX
8
Layer 1
10
4.994004
20
16.156566
70
0
0
VERTEX
8
Layer 1
10
4.997100
20
16.190962
70
0
0
VERTEX
8
Layer 1
10
5.165057
20
17.804125
70
0
0
VERTEX
8
Layer 1
10
5.166856
20
17.819735
70
0
0
VERTEX
8
Layer 1
10
5.169449
20
17.835081
70
0
0
VERTEX
8
Layer 1
10
5.361431
20
19.306162
70
0
0
VERTEX
8
Layer 1
10
5.362198
20
19.315952
70
0
0
VERTEX
8
Layer 1
10
5.363494
20
19.325477
70
0
0
VERTEX
8
Layer 1
10
5.494225
20
20.398890
70
0
0
VERTEX
8
Layer 1
10
5.292692
20
20.588067
70
0
0
VERTEX
8
Layer 1
10
5.287268
20
20.593359
70
0
0
VERTEX
8
Layer 1
10
5.286236
20
20.594152
70
0
0
VERTEX
8
Layer 1
10
5.285469
20
20.595211
70
0
0
VERTEX
8
Layer 1
10
5.283643
20
20.597063
70
0
0
VERTEX
8
Layer 1
10
5.282611
20
20.597857
70
0
0
VERTEX
8
Layer 1
10
5.281844
20
20.598915
70
0
0
VERTEX
8
Layer 1
10
5.280812
20
20.599709
70
0
0
VERTEX
8
Layer 1
10
5.280045
20
20.600767
70
0
0
VERTEX
8
Layer 1
10
5.278986
20
20.601561
70
0
0
VERTEX
8
Layer 1
10
5.278219
20
20.602619
70
0
0
VERTEX
8
Layer 1
10
5.276420
20
20.604207
70
0
0
VERTEX
8
Layer 1
10
5.275388
20
20.605000
70
0
0
VERTEX
8
Layer 1
10
5.274594
20
20.606059
70
0
0
VERTEX
8
Layer 1
10
5.270996
20
20.609763
70
0
0
VERTEX
8
Layer 1
10
5.269964
20
20.610557
70
0
0
VERTEX
8
Layer 1
10
5.269170
20
20.611615
70
0
0
VERTEX
8
Layer 1
10
5.268139
20
20.612409
70
0
0
VERTEX
8
Layer 1
10
5.267371
20
20.613467
70
0
0
VERTEX
8
Layer 1
10
5.265572
20
20.615054
70
0
0
VERTEX
8
Layer 1
10
5.264540
20
20.615848
70
0
0
VERTEX
8
Layer 1
10
5.263746
20
20.616907
70
0
0
VERTEX
8
Layer 1
10
5.258323
20
20.622463
70
0
0
VERTEX
8
Layer 1
10
5.257291
20
20.623257
70
0
0
VERTEX
8
Layer 1
10
5.256523
20
20.624315
70
0
0
VERTEX
8
Layer 1
10
5.254724
20
20.625902
70
0
0
VERTEX
8
Layer 1
10
5.253666
20
20.626696
70
0
0
VERTEX
8
Layer 1
10
5.252899
20
20.627754
70
0
0
VERTEX
8
Layer 1
10
5.251867
20
20.628548
70
0
0
VERTEX
8
Layer 1
10
5.251099
20
20.629607
70
0
0
VERTEX
8
Layer 1
10
5.250068
20
20.630400
70
0
0
VERTEX
8
Layer 1
10
5.249274
20
20.631459
70
0
0
VERTEX
8
Layer 1
10
5.247475
20
20.633311
70
0
0
VERTEX
8
Layer 1
10
5.246443
20
20.634104
70
0
0
VERTEX
8
Layer 1
10
5.245675
20
20.635163
70
0
0
VERTEX
8
Layer 1
10
5.240252
20
20.640454
70
0
0
VERTEX
8
Layer 1
10
5.239220
20
20.641248
70
0
0
VERTEX
8
Layer 1
10
5.238426
20
20.642306
70
0
0
VERTEX
8
Layer 1
10
5.236627
20
20.644159
70
0
0
VERTEX
8
Layer 1
10
5.235595
20
20.644952
70
0
0
VERTEX
8
Layer 1
10
5.234828
20
20.646011
70
0
0
VERTEX
8
Layer 1
10
5.229377
20
20.651302
70
0
0
VERTEX
8
Layer 1
10
5.228345
20
20.652096
70
0
0
VERTEX
8
Layer 1
10
5.227578
20
20.653154
70
0
0
VERTEX
8
Layer 1
10
5.225779
20
20.655006
70
0
0
VERTEX
8
Layer 1
10
5.224747
20
20.655800
70
0
0
VERTEX
8
Layer 1
10
5.223953
20
20.656859
70
0
0
VERTEX
8
Layer 1
10
5.222921
20
20.657652
70
0
0
VERTEX
8
Layer 1
10
5.222154
20
20.658711
70
0
0
VERTEX
8
Layer 1
10
5.221122
20
20.659240
70
0
0
VERTEX
8
Layer 1
10
5.220355
20
20.660298
70
0
0
VERTEX
8
Layer 1
10
5.218529
20
20.662150
70
0
0
VERTEX
8
Layer 1
10
5.217497
20
20.662944
70
0
0
VERTEX
8
Layer 1
10
5.216730
20
20.664002
70
0
0
VERTEX
8
Layer 1
10
5.213105
20
20.667706
70
0
0
VERTEX
8
Layer 1
10
5.212073
20
20.668500
70
0
0
VERTEX
8
Layer 1
10
5.211306
20
20.669559
70
0
0
VERTEX
8
Layer 1
10
5.210274
20
20.670088
70
0
0
VERTEX
8
Layer 1
10
5.209507
20
20.671146
70
0
0
VERTEX
8
Layer 1
10
5.207681
20
20.672998
70
0
0
VERTEX
8
Layer 1
10
5.206649
20
20.673792
70
0
0
VERTEX
8
Layer 1
10
5.205882
20
20.674850
70
0
0
VERTEX
8
Layer 1
10
5.200458
20
20.680406
70
0
0
VERTEX
8
Layer 1
10
5.199426
20
20.680936
70
0
0
VERTEX
8
Layer 1
10
5.198633
20
20.681994
70
0
0
VERTEX
8
Layer 1
10
5.196833
20
20.683846
70
0
0
VERTEX
8
Layer 1
10
5.195802
20
20.684640
70
0
0
VERTEX
8
Layer 1
10
5.195034
20
20.685698
70
0
0
VERTEX
8
Layer 1
10
5.194002
20
20.686492
70
0
0
VERTEX
8
Layer 1
10
5.193209
20
20.687550
70
0
0
VERTEX
8
Layer 1
10
5.192177
20
20.688344
70
0
0
VERTEX
8
Layer 1
10
5.191410
20
20.689402
70
0
0
VERTEX
8
Layer 1
10
5.189610
20
20.691254
70
0
0
VERTEX
8
Layer 1
10
5.188578
20
20.691784
70
0
0
VERTEX
8
Layer 1
10
5.187785
20
20.692842
70
0
0
VERTEX
8
Layer 1
10
5.182361
20
20.698398
70
0
0
VERTEX
8
Layer 1
10
5.181329
20
20.699192
70
0
0
VERTEX
8
Layer 1
10
5.180562
20
20.700250
70
0
0
VERTEX
8
Layer 1
10
5.178736
20
20.702102
70
0
0
VERTEX
8
Layer 1
10
5.177704
20
20.702896
70
0
0
VERTEX
8
Layer 1
10
5.176937
20
20.703690
70
0
0
VERTEX
8
Layer 1
10
5.171513
20
20.709246
70
0
0
VERTEX
8
Layer 1
10
5.170481
20
20.710040
70
0
0
VERTEX
8
Layer 1
10
5.169714
20
20.711098
70
0
0
VERTEX
8
Layer 1
10
5.167888
20
20.712950
70
0
0
VERTEX
8
Layer 1
10
5.166856
20
20.713744
70
0
0
VERTEX
8
Layer 1
10
5.166089
20
20.714538
70
0
0
VERTEX
8
Layer 1
10
5.165057
20
20.715331
70
0
0
VERTEX
8
Layer 1
10
5.164290
20
20.716390
70
0
0
VERTEX
8
Layer 1
10
5.163231
20
20.717183
70
0
0
VERTEX
8
Layer 1
10
5.162464
20
20.718242
70
0
0
VERTEX
8
Layer 1
10
5.160665
20
20.720094
70
0
0
VERTEX
8
Layer 1
10
5.159633
20
20.720888
70
0
0
VERTEX
8
Layer 1
10
5.158839
20
20.721946
70
0
0
VERTEX
8
Layer 1
10
5.155241
20
20.725386
70
0
0
VERTEX
8
Layer 1
10
5.154209
20
20.726179
70
0
0
VERTEX
8
Layer 1
10
5.153415
20
20.727238
70
0
0
VERTEX
8
Layer 1
10
5.152384
20
20.728031
70
0
0
VERTEX
8
Layer 1
10
5.151616
20
20.729090
70
0
0
VERTEX
8
Layer 1
10
5.149817
20
20.730942
70
0
0
VERTEX
8
Layer 1
10
5.148785
20
20.731736
70
0
0
VERTEX
8
Layer 1
10
5.147991
20
20.732794
70
0
0
VERTEX
8
Layer 1
10
5.142567
20
20.738086
70
0
0
VERTEX
8
Layer 1
10
5.141536
20
20.738879
70
0
0
VERTEX
8
Layer 1
10
5.140768
20
20.739938
70
0
0
VERTEX
8
Layer 1
10
5.138969
20
20.741790
70
0
0
VERTEX
8
Layer 1
10
5.137911
20
20.742583
70
0
0
VERTEX
8
Layer 1
10
5.137144
20
20.743642
70
0
0
VERTEX
8
Layer 1
10
5.136112
20
20.744436
70
0
0
VERTEX
8
Layer 1
10
5.135344
20
20.745494
70
0
0
VERTEX
8
Layer 1
10
5.134312
20
20.746288
70
0
0
VERTEX
8
Layer 1
10
5.133519
20
20.747081
70
0
0
VERTEX
8
Layer 1
10
5.131720
20
20.748933
70
0
0
VERTEX
8
Layer 1
10
5.130688
20
20.749727
70
0
0
VERTEX
8
Layer 1
10
5.129920
20
20.750786
70
0
0
VERTEX
8
Layer 1
10
5.124496
20
20.756342
70
0
0
VERTEX
8
Layer 1
10
5.123465
20
20.757136
70
0
0
VERTEX
8
Layer 1
10
5.122671
20
20.757929
70
0
0
VERTEX
8
Layer 1
10
5.120872
20
20.759781
70
0
0
VERTEX
8
Layer 1
10
5.119840
20
20.760575
70
0
0
VERTEX
8
Layer 1
10
5.119073
20
20.761633
70
0
0
VERTEX
8
Layer 1
10
5.113622
20
20.767190
70
0
0
VERTEX
8
Layer 1
10
5.112590
20
20.767983
70
0
0
VERTEX
8
Layer 1
10
5.111823
20
20.769042
70
0
0
VERTEX
8
Layer 1
10
5.110024
20
20.770629
70
0
0
VERTEX
8
Layer 1
10
5.108992
20
20.771423
70
0
0
VERTEX
8
Layer 1
10
5.108198
20
20.772481
70
0
0
VERTEX
8
Layer 1
10
5.107166
20
20.773275
70
0
0
VERTEX
8
Layer 1
10
5.106399
20
20.774333
70
0
0
VERTEX
8
Layer 1
10
5.105367
20
20.775127
70
0
0
VERTEX
8
Layer 1
10
5.104600
20
20.776185
70
0
0
VERTEX
8
Layer 1
10
5.102774
20
20.778038
70
0
0
VERTEX
8
Layer 1
10
5.101742
20
20.778831
70
0
0
VERTEX
8
Layer 1
10
5.100975
20
20.779890
70
0
0
VERTEX
8
Layer 1
10
5.095551
20
20.785181
70
0
0
VERTEX
8
Layer 1
10
5.094519
20
20.785975
70
0
0
VERTEX
8
Layer 1
10
5.093752
20
20.787033
70
0
0
VERTEX
8
Layer 1
10
5.091926
20
20.788885
70
0
0
VERTEX
8
Layer 1
10
5.090894
20
20.789679
70
0
0
VERTEX
8
Layer 1
10
5.090127
20
20.790738
70
0
0
VERTEX
8
Layer 1
10
5.084703
20
20.796029
70
0
0
VERTEX
8
Layer 1
10
5.083671
20
20.796823
70
0
0
VERTEX
8
Layer 1
10
5.082878
20
20.797881
70
0
0
VERTEX
8
Layer 1
10
5.081078
20
20.799733
70
0
0
VERTEX
8
Layer 1
10
5.080047
20
20.800527
70
0
0
VERTEX
8
Layer 1
10
5.079279
20
20.801585
70
0
0
VERTEX
8
Layer 1
10
5.078247
20
20.802115
70
0
0
VERTEX
8
Layer 1
10
5.077454
20
20.803173
70
0
0
VERTEX
8
Layer 1
10
5.076422
20
20.803967
70
0
0
VERTEX
8
Layer 1
10
5.075654
20
20.805025
70
0
0
VERTEX
8
Layer 1
10
5.073855
20
20.806877
70
0
0
VERTEX
8
Layer 1
10
5.072823
20
20.807671
70
0
0
VERTEX
8
Layer 1
10
5.072030
20
20.808729
70
0
0
VERTEX
8
Layer 1
10
5.066606
20
20.814021
70
0
0
VERTEX
8
Layer 1
10
5.065574
20
20.814815
70
0
0
VERTEX
8
Layer 1
10
5.064807
20
20.815873
70
0
0
VERTEX
8
Layer 1
10
5.062981
20
20.817725
70
0
0
VERTEX
8
Layer 1
10
5.061949
20
20.818519
70
0
0
VERTEX
8
Layer 1
10
5.061182
20
20.819577
70
0
0
VERTEX
8
Layer 1
10
5.055758
20
20.824869
70
0
0
VERTEX
8
Layer 1
10
5.054726
20
20.825663
70
0
0
VERTEX
8
Layer 1
10
5.053959
20
20.826721
70
0
0
VERTEX
8
Layer 1
10
5.052133
20
20.828573
70
0
0
VERTEX
8
Layer 1
10
5.051101
20
20.829367
70
0
0
VERTEX
8
Layer 1
10
5.050334
20
20.830425
70
0
0
VERTEX
8
Layer 1
10
5.049302
20
20.831219
70
0
0
VERTEX
8
Layer 1
10
5.048535
20
20.832277
70
0
0
VERTEX
8
Layer 1
10
5.047476
20
20.833071
70
0
0
VERTEX
8
Layer 1
10
5.046709
20
20.834129
70
0
0
VERTEX
8
Layer 1
10
5.044910
20
20.835717
70
0
0
VERTEX
8
Layer 1
10
5.043878
20
20.836510
70
0
0
VERTEX
8
Layer 1
10
5.043084
20
20.837569
70
0
0
VERTEX
8
Layer 1
10
5.039486
20
20.841273
70
0
0
VERTEX
8
Layer 1
10
5.038454
20
20.842067
70
0
0
VERTEX
8
Layer 1
10
5.037660
20
20.843125
70
0
0
VERTEX
8
Layer 1
10
5.036628
20
20.843919
70
0
0
VERTEX
8
Layer 1
10
5.035861
20
20.844977
70
0
0
VERTEX
8
Layer 1
10
5.034062
20
20.846565
70
0
0
VERTEX
8
Layer 1
10
5.033030
20
20.847358
70
0
0
VERTEX
8
Layer 1
10
5.032236
20
20.848417
70
0
0
VERTEX
8
Layer 1
10
5.026812
20
20.853973
70
0
0
VERTEX
8
Layer 1
10
5.025781
20
20.854767
70
0
0
VERTEX
8
Layer 1
10
5.025013
20
20.855825
70
0
0
VERTEX
8
Layer 1
10
5.023214
20
20.857412
70
0
0
VERTEX
8
Layer 1
10
5.022156
20
20.858206
70
0
0
VERTEX
8
Layer 1
10
5.021388
20
20.859265
70
0
0
VERTEX
8
Layer 1
10
5.020357
20
20.860058
70
0
0
VERTEX
8
Layer 1
10
5.019589
20
20.861117
70
0
0
VERTEX
8
Layer 1
10
5.018557
20
20.861910
70
0
0
VERTEX
8
Layer 1
10
5.017764
20
20.862969
70
0
0
VERTEX
8
Layer 1
10
5.015965
20
20.864821
70
0
0
VERTEX
8
Layer 1
10
5.014933
20
20.865615
70
0
0
VERTEX
8
Layer 1
10
5.014165
20
20.866673
70
0
0
VERTEX
8
Layer 1
10
5.010541
20
20.870112
70
0
0
VERTEX
8
Layer 1
10
5.009509
20
20.870906
70
0
0
VERTEX
8
Layer 1
10
5.008741
20
20.871965
70
0
0
VERTEX
8
Layer 1
10
5.007710
20
20.872758
70
0
0
VERTEX
8
Layer 1
10
5.006916
20
20.873817
70
0
0
VERTEX
8
Layer 1
10
5.005117
20
20.875669
70
0
0
VERTEX
8
Layer 1
10
5.004085
20
20.876462
70
0
0
VERTEX
8
Layer 1
10
5.003317
20
20.877521
70
0
0
VERTEX
8
Layer 1
10
4.997867
20
20.882812
70
0
0
VERTEX
8
Layer 1
10
4.996835
20
20.883606
70
0
0
VERTEX
8
Layer 1
10
4.996068
20
20.884665
70
0
0
VERTEX
8
Layer 1
10
4.994269
20
20.886517
70
0
0
VERTEX
8
Layer 1
10
4.993237
20
20.887310
70
0
0
VERTEX
8
Layer 1
10
4.992443
20
20.888369
70
0
0
VERTEX
8
Layer 1
10
4.991411
20
20.889162
70
0
0
VERTEX
8
Layer 1
10
4.990644
20
20.890221
70
0
0
VERTEX
8
Layer 1
10
4.989612
20
20.890750
70
0
0
VERTEX
8
Layer 1
10
4.988845
20
20.891808
70
0
0
VERTEX
8
Layer 1
10
4.987019
20
20.893660
70
0
0
VERTEX
8
Layer 1
10
4.985987
20
20.894454
70
0
0
VERTEX
8
Layer 1
10
4.985220
20
20.895512
70
0
0
VERTEX
8
Layer 1
10
4.981595
20
20.899217
70
0
0
VERTEX
8
Layer 1
10
4.980563
20
20.900010
70
0
0
VERTEX
8
Layer 1
10
4.979796
20
20.901069
70
0
0
VERTEX
8
Layer 1
10
4.978764
20
20.901598
70
0
0
VERTEX
8
Layer 1
10
4.977997
20
20.902656
70
0
0
VERTEX
8
Layer 1
10
4.976171
20
20.904508
70
0
0
VERTEX
8
Layer 1
10
4.975139
20
20.905302
70
0
0
VERTEX
8
Layer 1
10
4.974372
20
20.906360
70
0
0
VERTEX
8
Layer 1
10
4.968948
20
20.911917
70
0
0
VERTEX
8
Layer 1
10
4.967916
20
20.912446
70
0
0
VERTEX
8
Layer 1
10
4.967122
20
20.913504
70
0
0
VERTEX
8
Layer 1
10
4.965323
20
20.915356
70
0
0
VERTEX
8
Layer 1
10
4.964291
20
20.916150
70
0
0
VERTEX
8
Layer 1
10
4.963524
20
20.917208
70
0
0
VERTEX
8
Layer 1
10
4.962492
20
20.918002
70
0
0
VERTEX
8
Layer 1
10
4.961699
20
20.919060
70
0
0
VERTEX
8
Layer 1
10
4.960667
20
20.919854
70
0
0
VERTEX
8
Layer 1
10
4.959899
20
20.920912
70
0
0
VERTEX
8
Layer 1
10
4.958100
20
20.922764
70
0
0
VERTEX
8
Layer 1
10
4.957068
20
20.923294
70
0
0
VERTEX
8
Layer 1
10
4.956275
20
20.924352
70
0
0
VERTEX
8
Layer 1
10
4.950851
20
20.929908
70
0
0
VERTEX
8
Layer 1
10
4.949819
20
20.930702
70
0
0
VERTEX
8
Layer 1
10
4.949051
20
20.931760
70
0
0
VERTEX
8
Layer 1
10
4.947226
20
20.933612
70
0
0
VERTEX
8
Layer 1
10
4.946194
20
20.934406
70
0
0
VERTEX
8
Layer 1
10
4.945427
20
20.935200
70
0
0
VERTEX
8
Layer 1
10
4.940003
20
20.940756
70
0
0
VERTEX
8
Layer 1
10
4.938971
20
20.941550
70
0
0
VERTEX
8
Layer 1
10
4.938204
20
20.942608
70
0
0
VERTEX
8
Layer 1
10
4.936378
20
20.944460
70
0
0
VERTEX
8
Layer 1
10
4.935346
20
20.945254
70
0
0
VERTEX
8
Layer 1
10
4.934579
20
20.946048
70
0
0
VERTEX
8
Layer 1
10
4.933547
20
20.946842
70
0
0
VERTEX
8
Layer 1
10
4.932780
20
20.947900
70
0
0
VERTEX
8
Layer 1
10
4.931721
20
20.948694
70
0
0
VERTEX
8
Layer 1
10
4.930954
20
20.949752
70
0
0
VERTEX
8
Layer 1
10
4.929155
20
20.951604
70
0
0
VERTEX
8
Layer 1
10
4.928123
20
20.952398
70
0
0
VERTEX
8
Layer 1
10
4.927329
20
20.953456
70
0
0
VERTEX
8
Layer 1
10
4.923731
20
20.956896
70
0
0
VERTEX
8
Layer 1
10
4.922699
20
20.957689
70
0
0
VERTEX
8
Layer 1
10
4.921905
20
20.958748
70
0
0
VERTEX
8
Layer 1
10
4.920873
20
20.959542
70
0
0
VERTEX
8
Layer 1
10
4.920106
20
20.960600
70
0
0
VERTEX
8
Layer 1
10
4.918307
20
20.962452
70
0
0
VERTEX
8
Layer 1
10
4.917275
20
20.963246
70
0
0
VERTEX
8
Layer 1
10
4.916481
20
20.964304
70
0
0
VERTEX
8
Layer 1
10
4.911057
20
20.969596
70
0
0
VERTEX
8
Layer 1
10
4.910025
20
20.970389
70
0
0
VERTEX
8
Layer 1
10
4.909258
20
20.971448
70
0
0
VERTEX
8
Layer 1
10
4.907459
20
20.973300
70
0
0
VERTEX
8
Layer 1
10
4.906401
20
20.974094
70
0
0
VERTEX
8
Layer 1
10
4.905633
20
20.975152
70
0
0
VERTEX
8
Layer 1
10
4.904602
20
20.975946
70
0
0
VERTEX
8
Layer 1
10
4.903834
20
20.977004
70
0
0
VERTEX
8
Layer 1
10
4.902802
20
20.977798
70
0
0
VERTEX
8
Layer 1
10
4.902009
20
20.978591
70
0
0
VERTEX
8
Layer 1
10
4.900209
20
20.980444
70
0
0
VERTEX
8
Layer 1
10
4.899178
20
20.981237
70
0
0
VERTEX
8
Layer 1
10
4.898410
20
20.982296
70
0
0
VERTEX
8
Layer 1
10
4.892986
20
20.987852
70
0
0
VERTEX
8
Layer 1
10
4.891954
20
20.988646
70
0
0
VERTEX
8
Layer 1
10
4.891161
20
20.989439
70
0
0
VERTEX
8
Layer 1
10
4.889362
20
20.991291
70
0
0
VERTEX
8
Layer 1
10
4.888330
20
20.992085
70
0
0
VERTEX
8
Layer 1
10
4.887562
20
20.993144
70
0
0
VERTEX
8
Layer 1
10
4.882112
20
20.998700
70
0
0
VERTEX
8
Layer 1
10
4.881080
20
20.999494
70
0
0
VERTEX
8
Layer 1
10
4.880313
20
21.000552
70
0
0
VERTEX
8
Layer 1
10
4.878514
20
21.002139
70
0
0
VERTEX
8
Layer 1
10
4.877482
20
21.002933
70
0
0
VERTEX
8
Layer 1
10
4.876688
20
21.003991
70
0
0
VERTEX
8
Layer 1
10
4.875656
20
21.004785
70
0
0
VERTEX
8
Layer 1
10
4.874889
20
21.005844
70
0
0
VERTEX
8
Layer 1
10
4.873857
20
21.006637
70
0
0
VERTEX
8
Layer 1
10
4.873090
20
21.007696
70
0
0
VERTEX
8
Layer 1
10
4.871264
20
21.009548
70
0
0
VERTEX
8
Layer 1
10
4.870232
20
21.010341
70
0
0
VERTEX
8
Layer 1
10
4.869465
20
21.011400
70
0
0
VERTEX
8
Layer 1
10
4.864041
20
21.016691
70
0
0
VERTEX
8
Layer 1
10
4.863009
20
21.017485
70
0
0
VERTEX
8
Layer 1
10
4.862242
20
21.018544
70
0
0
VERTEX
8
Layer 1
10
4.860416
20
21.020396
70
0
0
VERTEX
8
Layer 1
10
4.859384
20
21.021189
70
0
0
VERTEX
8
Layer 1
10
4.858617
20
21.022248
70
0
0
VERTEX
8
Layer 1
10
4.853193
20
21.027539
70
0
0
VERTEX
8
Layer 1
10
4.852161
20
21.028333
70
0
0
VERTEX
8
Layer 1
10
4.851367
20
21.029391
70
0
0
VERTEX
8
Layer 1
10
4.849568
20
21.031244
70
0
0
VERTEX
8
Layer 1
10
4.848536
20
21.032037
70
0
0
VERTEX
8
Layer 1
10
4.847769
20
21.033096
70
0
0
VERTEX
8
Layer 1
10
4.846737
20
21.033625
70
0
0
VERTEX
8
Layer 1
10
4.845943
20
21.034683
70
0
0
VERTEX
8
Layer 1
10
4.844912
20
21.035477
70
0
0
VERTEX
8
Layer 1
10
4.844144
20
21.036535
70
0
0
VERTEX
8
Layer 1
10
4.842345
20
21.038387
70
0
0
VERTEX
8
Layer 1
10
4.841313
20
21.039181
70
0
0
VERTEX
8
Layer 1
10
4.840520
20
21.040239
70
0
0
VERTEX
8
Layer 1
10
4.836921
20
21.043943
70
0
0
VERTEX
8
Layer 1
10
4.835863
20
21.044473
70
0
0
VERTEX
8
Layer 1
10
4.835096
20
21.045531
70
0
0
VERTEX
8
Layer 1
10
4.834064
20
21.046325
70
0
0
VERTEX
8
Layer 1
10
4.833296
20
21.047383
70
0
0
VERTEX
8
Layer 1
10
4.831471
20
21.049235
70
0
0
VERTEX
8
Layer 1
10
4.830439
20
21.050029
70
0
0
VERTEX
8
Layer 1
10
4.829672
20
21.051087
70
0
0
VERTEX
8
Layer 1
10
4.810807
20
21.069608
70
0
0
VERTEX
8
Layer 1
10
4.793503
20
21.089452
70
0
0
VERTEX
8
Layer 1
10
4.348051
20
21.646928
70
0
0
VERTEX
8
Layer 1
10
4.333843
20
21.667036
70
0
0
VERTEX
8
Layer 1
10
4.320931
20
21.687674
70
0
0
VERTEX
8
Layer 1
10
4.137205
20
22.034542
70
0
0
VERTEX
8
Layer 1
10
4.034891
20
22.505235
70
0
0
VERTEX
8
Layer 1
10
4.238487
20
23.044456
70
0
0
VERTEX
8
Layer 1
10
4.463806
20
23.227282
70
0
0
VERTEX
8
Layer 1
10
4.726326
20
23.334703
70
0
0
VERTEX
8
Layer 1
10
5.179530
20
23.423338
70
0
0
VERTEX
8
Layer 1
10
5.186753
20
23.424397
70
0
0
VERTEX
8
Layer 1
10
5.879219
20
23.502978
70
0
0
VERTEX
8
Layer 1
10
6.357480
20
27.012671
70
0
0
VERTEX
8
Layer 1
10
6.955120
20
31.062590
70
0
0
VERTEX
8
Layer 1
10
7.521486
20
34.361597
70
0
0
VERTEX
8
Layer 1
10
7.522783
20
34.368581
70
0
0
VERTEX
8
Layer 1
10
7.524344
20
34.375566
70
0
0
VERTEX
8
Layer 1
10
8.052980
20
36.440028
70
0
0
VERTEX
8
Layer 1
10
8.610741
20
37.475315
70
0
0
VERTEX
8
Layer 1
10
9.444370
20
38.359551
70
0
0
VERTEX
8
Layer 1
10
11.299811
20
39.642144
70
0
0
VERTEX
8
Layer 1
10
13.185732
20
40.459150
70
0
0
VERTEX
8
Layer 1
10
14.651284
20
40.761462
70
0
0
VERTEX
8
Layer 1
10
15.081522
20
40.648042
70
0
0
VERTEX
8
Layer 1
10
15.322293
20
40.455287
70
0
0
VERTEX
8
Layer 1
10
15.540891
20
40.119902
70
0
0
VERTEX
8
Layer 1
10
15.779386
20
39.421244
70
0
0
VERTEX
8
Layer 1
10
16.256350
20
37.378478
70
0
0
VERTEX
8
Layer 1
10
16.791204
20
34.403454
70
0
0
VERTEX
8
Layer 1
10
17.355243
20
30.885584
70
0
0
VERTEX
8
Layer 1
10
17.853664
20
27.065588
70
0
0
VERTEX
8
Layer 1
10
18.256994
20
24.087177
70
0
0
VERTEX
8
Layer 1
10
18.886411
20
24.066540
70
0
0
VERTEX
8
Layer 1
10
19.313792
20
24.029498
70
0
0
VERTEX
8
Layer 1
10
19.506540
20
23.993515
70
0
0
VERTEX
8
Layer 1
10
19.745538
20
23.904879
70
0
0
VERTEX
8
Layer 1
10
19.789194
20
23.880273
70
0
0
VERTEX
8
Layer 1
10
19.942176
20
23.788728
70
0
0
VERTEX
8
Layer 1
10
20.041130
20
23.640032
70
0
0
VERTEX
8
Layer 1
10
20.192022
20
23.212201
70
0
0
VERTEX
8
Layer 1
10
20.198213
20
22.945237
70
0
0
VERTEX
8
Layer 1
10
20.133126
20
22.425067
70
0
0
VERTEX
8
Layer 1
10
19.889974
20
21.138664
70
0
0
VERTEX
8
Layer 1
10
19.586894
20
19.860199
70
0
0
VERTEX
8
Layer 1
10
19.443755
20
19.349025
70
0
0
VERTEX
8
Layer 1
10
19.348664
20
19.119896
70
0
0
VERTEX
8
Layer 1
10
19.148163
20
18.835205
70
0
0
VERTEX
8
Layer 1
10
18.939142
20
18.626449
70
0
0
VERTEX
8
Layer 1
10
19.111994
20
16.964603
70
0
0
VERTEX
8
Layer 1
10
19.187189
20
16.212922
70
0
0
VERTEX
8
Layer 1
10
19.215340
20
15.824515
70
0
0
VERTEX
8
Layer 1
10
19.117051
20
15.293761
70
0
0
VERTEX
8
Layer 1
10
18.900116
20
14.808251
70
0
0
VERTEX
8
Layer 1
10
18.368886
20
13.902319
70
0
0
VERTEX
8
Layer 1
10
17.652898
20
13.180801
70
0
0
VERTEX
8
Layer 1
10
17.013401
20
12.892670
70
0
0
VERTEX
8
Layer 1
10
16.429731
20
13.035281
70
0
0
VERTEX
8
Layer 1
10
16.090986
20
13.418926
70
0
0
VERTEX
8
Layer 1
10
16.090986
20
13.419191
70
0
0
VERTEX
8
Layer 1
10
15.358726
20
15.294026
70
0
0
VERTEX
8
Layer 1
10
14.287217
20
18.891825
70
0
0
VERTEX
8
Layer 1
10
13.454972
20
18.969877
70
0
0
VERTEX
8
Layer 1
10
13.451611
20
18.970142
70
0
0
VERTEX
8
Layer 1
10
12.032838
20
19.102169
70
0
0
VERTEX
8
Layer 1
10
10.542230
20
19.271237
70
0
0
VERTEX
8
Layer 1
10
10.521566
20
19.274148
70
0
0
VERTEX
8
Layer 1
10
10.500902
20
19.278117
70
0
0
VERTEX
8
Layer 1
10
9.899902
20
19.387389
70
0
0
VERTEX
8
Layer 1
10
9.400978
20
17.347190
70
0
0
VERTEX
8
Layer 1
10
8.799184
20
15.074686
70
0
0
VERTEX
8
Layer 1
10
8.322220
20
13.509943
70
0
0
VERTEX
8
Layer 1
10
8.101558
20
12.981041
70
0
0
VERTEX
8
Layer 1
10
7.927145
20
12.721485
70
0
0
VERTEX
8
Layer 1
10
7.725354
20
12.548713
70
0
0
VERTEX
8
Layer 1
10
7.276033
20
12.418009
70
0
0
VERTEX
8
Layer 1
10
6.590749
20
12.621307
70
0
0
VERTEX
8
Layer 1
10
6.127001
20
13.046658
70
0
0
VERTEX
8
Layer 1
10
5.540738
20
13.981165
70
0
0
VERTEX
8
Layer 1
10
5.530393
20
14.002067
70
0
0
VERTEX
8
Layer 1
10
5.521106
20
14.023498
70
0
0
VERTEX
8
Layer 1
10
5.153177
20
15.090826
70
0
0
VERTEX
8
Layer 1
10
4.994004
20
16.122171
70
0
0
VERTEX
8
Layer 1
10
4.994004
20
16.156566
70
0
0
VERTEX
8
Layer 1
10
4.994004
20
16.156566
70
0
0
SEQEND
8
Layer 1
0
POLYLINE
8
Layer 1
62
7
70
1
10
0.000000
20
0.000000
66
1
0
VERTEX
8
Layer 1
10
26.741933
20
31.079630
70
0
0
VERTEX
8
Layer 1
10
28.068817
20
30.849681
70
0
0
VERTEX
8
Layer 1
10
28.156658
20
30.814279
70
0
0
VERTEX
8
Layer 1
10
28.173592
20
30.807294
70
0
0
VERTEX
8
Layer 1
10
28.190260
20
30.799542
70
0
0
VERTEX
8
Layer 1
10
28.696573
20
30.426295
70
0
0
VERTEX
8
Layer 1
10
29.076878
20
29.931128
70
0
0
VERTEX
8
Layer 1
10
29.722990
20
28.800988
70
0
0
VERTEX
8
Layer 1
10
30.272264
20
27.474369
70
0
0
VERTEX
8
Layer 1
10
30.691099
20
26.210456
70
0
0
VERTEX
8
Layer 1
10
30.998809
20
25.121697
70
0
0
VERTEX
8
Layer 1
10
31.062838
20
24.741226
70
0
0
VERTEX
8
Layer 1
10
31.055959
20
24.312866
70
0
0
VERTEX
8
Layer 1
10
31.044582
20
24.257569
70
0
0
VERTEX
8
Layer 1
10
31.025532
20
24.204387
70
0
0
VERTEX
8
Layer 1
10
30.677341
20
23.722582
70
0
0
VERTEX
8
Layer 1
10
30.320683
20
23.482076
70
0
0
VERTEX
8
Layer 1
10
30.320947
20
23.481811
70
0
0
VERTEX
8
Layer 1
10
29.364215
20
23.029374
70
0
0
VERTEX
8
Layer 1
10
27.700782
20
22.451260
70
0
0
VERTEX
8
Layer 1
10
26.821043
20
22.176359
70
0
0
VERTEX
8
Layer 1
10
26.679756
20
23.087053
70
0
0
VERTEX
8
Layer 1
10
26.128100
20
25.647688
70
0
0
VERTEX
8
Layer 1
10
26.127307
20
25.650598
70
0
0
VERTEX
8
Layer 1
10
26.126275
20
25.652979
70
0
0
VERTEX
8
Layer 1
10
25.746704
20
26.584312
70
0
0
VERTEX
8
Layer 1
10
25.727866
20
26.616061
70
0
0
VERTEX
8
Layer 1
10
25.507706
20
26.362591
70
0
0
VERTEX
8
Layer 1
10
25.501515
20
26.353331
70
0
0
VERTEX
8
Layer 1
10
25.276461
20
25.960689
70
0
0
VERTEX
8
Layer 1
10
25.254500
20
25.735529
70
0
0
VERTEX
8
Layer 1
10
25.251669
20
24.734876
70
0
0
VERTEX
8
Layer 1
10
25.328663
20
23.805661
70
0
0
VERTEX
8
Layer 1
10
25.492731
20
22.137200
70
0
0
VERTEX
8
Layer 1
10
25.696592
20
20.127693
70
0
0
VERTEX
8
Layer 1
10
25.896590
20
18.152845
70
0
0
VERTEX
8
Layer 1
10
26.043328
20
16.624614
70
0
0
VERTEX
8
Layer 1
10
26.094498
20
16.117143
70
0
0
VERTEX
8
Layer 1
10
26.103547
20
15.919500
70
0
0
VERTEX
8
Layer 1
10
26.082619
20
15.666029
70
0
0
VERTEX
8
Layer 1
10
26.077697
20
15.643275
70
0
0
VERTEX
8
Layer 1
10
26.071771
20
15.620786
70
0
0
VERTEX
8
Layer 1
10
25.682119
20
14.874397
70
0
0
VERTEX
8
Layer 1
10
25.071038
20
14.143090
70
0
0
VERTEX
8
Layer 1
10
25.053232
20
14.124833
70
0
0
VERTEX
8
Layer 1
10
25.034103
20
14.108165
70
0
0
VERTEX
8
Layer 1
10
24.392542
20
13.588788
70
0
0
VERTEX
8
Layer 1
10
24.363861
20
13.568151
70
0
0
VERTEX
8
Layer 1
10
24.333619
20
13.549895
70
0
0
VERTEX
8
Layer 1
10
23.716082
20
13.352516
70
0
0
VERTEX
8
Layer 1
10
23.295462
20
13.429046
70
0
0
VERTEX
8
Layer 1
10
22.943262
20
13.683774
70
0
0
VERTEX
8
Layer 1
10
22.764986
20
13.939361
70
0
0
VERTEX
8
Layer 1
10
22.653623
20
14.202092
70
0
0
VERTEX
8
Layer 1
10
22.462938
20
14.855347
70
0
0
VERTEX
8
Layer 1
10
22.013861
20
16.674355
70
0
0
VERTEX
8
Layer 1
10
22.008199
20
16.699755
70
0
0
VERTEX
8
Layer 1
10
21.493241
20
19.093967
70
0
0
VERTEX
8
Layer 1
10
20.961747
20
21.610416
70
0
0
VERTEX
8
Layer 1
10
20.539552
20
23.768090
70
0
0
VERTEX
8
Layer 1
10
20.539287
20
23.769942
70
0
0
VERTEX
8
Layer 1
10
20.275472
20
25.162707
70
0
0
VERTEX
8
Layer 1
10
20.273672
20
25.171967
70
0
0
VERTEX
8
Layer 1
10
20.271873
20
25.181492
70
0
0
VERTEX
8
Layer 1
10
20.042162
20
26.560499
70
0
0
VERTEX
8
Layer 1
10
19.810652
20
27.959879
70
0
0
VERTEX
8
Layer 1
10
19.807292
20
27.979458
70
0
0
VERTEX
8
Layer 1
10
19.804964
20
27.999301
70
0
0
VERTEX
8
Layer 1
10
19.665184
20
29.181564
70
0
0
VERTEX
8
Layer 1
10
19.662353
20
29.206117
70
0
0
VERTEX
8
Layer 1
10
19.661057
20
29.230909
70
0
0
VERTEX
8
Layer 1
10
19.662856
20
29.770420
70
0
0
VERTEX
8
Layer 1
10
19.708602
20
30.039130
70
0
0
VERTEX
8
Layer 1
10
19.837772
20
30.334723
70
0
0
VERTEX
8
Layer 1
10
19.848884
20
30.352556
70
0
0
VERTEX
8
Layer 1
10
19.851213
20
30.355651
70
0
0
VERTEX
8
Layer 1
10
20.202066
20
30.668590
70
0
0
VERTEX
8
Layer 1
10
20.490710
20
30.766998
70
0
0
VERTEX
8
Layer 1
10
20.946242
20
30.791552
70
0
0
VERTEX
8
Layer 1
10
21.938931
20
30.675267
70
0
0
VERTEX
8
Layer 1
10
22.992104
20
30.364700
70
0
0
VERTEX
8
Layer 1
10
23.735476
20
29.910966
70
0
0
VERTEX
8
Layer 1
10
24.199264
20
30.207088
70
0
0
VERTEX
8
Layer 1
10
25.403831
20
30.834441
70
0
0
VERTEX
8
Layer 1
10
25.409017
20
30.836504
70
0
0
VERTEX
8
Layer 1
10
25.414176
20
30.838303
70
0
0
VERTEX
8
Layer 1
10
26.741933
20
31.079630
70
0
0
VERTEX
8
Layer 1
10
26.741933
20
31.079630
70
0
0
SEQEND
8
Layer 1
0
POLYLINE
8
Layer 1
62
7
70
1
10
0.000000
20
0.000000
66
1
0
VERTEX
8
Layer 1
10
55.297847
20
31.831786
70
0
0
VERTEX
8
Layer 1
10
55.299170
20
31.853747
70
0
0
VERTEX
8
Layer 1
10
55.360289
20
32.431225
70
0
0
VERTEX
8
Layer 1
10
55.546820
20
32.952639
70
0
0
VERTEX
8
Layer 1
10
55.896069
20
33.288120
70
0
0
VERTEX
8
Layer 1
10
56.243731
20
33.404547
70
0
0
VERTEX
8
Layer 1
10
56.784010
20
33.386476
70
0
0
VERTEX
8
Layer 1
10
56.784274
20
33.386476
70
0
0
VERTEX
8
Layer 1
10
56.792212
20
33.385179
70
0
0
VERTEX
8
Layer 1
10
56.795916
20
33.384412
70
0
0
VERTEX
8
Layer 1
10
56.795651
20
33.384412
70
0
0
VERTEX
8
Layer 1
10
57.779371
20
33.074612
70
0
0
VERTEX
8
Layer 1
10
58.764413
20
32.580053
70
0
0
VERTEX
8
Layer 1
10
59.204812
20
32.264905
70
0
0
VERTEX
8
Layer 1
10
59.558692
20
31.839803
70
0
0
VERTEX
8
Layer 1
10
59.597850
20
31.771594
70
0
0
VERTEX
8
Layer 1
10
59.622721
20
31.696902
70
0
0
VERTEX
8
Layer 1
10
59.742841
20
31.357918
70
0
0
VERTEX
8
Layer 1
10
60.115903
20
31.516033
70
0
0
VERTEX
8
Layer 1
10
61.550472
20
31.991197
70
0
0
VERTEX
8
Layer 1
10
63.040075
20
32.104386
70
0
0
VERTEX
8
Layer 1
10
63.781403
20
31.968245
70
0
0
VERTEX
8
Layer 1
10
64.458240
20
31.650653
70
0
0
VERTEX
8
Layer 1
10
64.488138
20
31.631285
70
0
0
VERTEX
8
Layer 1
10
64.516448
20
31.609589
70
0
0
VERTEX
8
Layer 1
10
64.955457
20
31.153127
70
0
0
VERTEX
8
Layer 1
10
65.315489
20
30.579409
70
0
0
VERTEX
8
Layer 1
10
65.936465
20
29.127034
70
0
0
VERTEX
8
Layer 1
10
66.006579
20
28.916875
70
0
0
VERTEX
8
Layer 1
10
66.364560
20
27.386527
70
0
0
VERTEX
8
Layer 1
10
66.542625
20
25.658271
70
0
0
VERTEX
8
Layer 1
10
66.405306
20
24.048283
70
0
0
VERTEX
8
Layer 1
10
66.101829
20
21.823670
70
0
0
VERTEX
8
Layer 1
10
66.101300
20
21.819965
70
0
0
VERTEX
8
Layer 1
10
65.669765
20
19.396385
70
0
0
VERTEX
8
Layer 1
10
65.236114
20
17.128115
70
0
0
VERTEX
8
Layer 1
10
64.872577
20
15.410971
70
0
0
VERTEX
8
Layer 1
10
64.763304
20
14.864872
70
0
0
VERTEX
8
Layer 1
10
64.720971
20
14.683633
70
0
0
VERTEX
8
Layer 1
10
64.640008
20
14.455298
70
0
0
VERTEX
8
Layer 1
10
64.617783
20
14.411112
70
0
0
VERTEX
8
Layer 1
10
64.590267
20
14.370102
70
0
0
VERTEX
8
Layer 1
10
64.077240
20
13.981694
70
0
0
VERTEX
8
Layer 1
10
63.653643
20
13.889090
70
0
0
VERTEX
8
Layer 1
10
63.609987
20
13.884328
70
0
0
VERTEX
8
Layer 1
10
63.566066
20
13.884328
70
0
0
VERTEX
8
Layer 1
10
62.795600
20
13.963173
70
0
0
VERTEX
8
Layer 1
10
62.782106
20
13.965819
70
0
0
VERTEX
8
Layer 1
10
61.986770
20
14.217173
70
0
0
VERTEX
8
Layer 1
10
61.970630
20
14.224581
70
0
0
VERTEX
8
Layer 1
10
61.954226
20
14.232519
70
0
0
VERTEX
8
Layer 1
10
61.533043
20
14.530175
70
0
0
VERTEX
8
Layer 1
10
61.225565
20
15.022299
70
0
0
VERTEX
8
Layer 1
10
61.215775
20
15.051139
70
0
0
VERTEX
8
Layer 1
10
61.208631
20
15.080772
70
0
0
VERTEX
8
Layer 1
10
61.160477
20
15.542734
70
0
0
VERTEX
8
Layer 1
10
61.151746
20
16.199429
70
0
0
VERTEX
8
Layer 1
10
61.151746
20
16.215833
70
0
0
VERTEX
8
Layer 1
10
61.152540
20
16.232502
70
0
0
VERTEX
8
Layer 1
10
61.218156
20
18.108660
70
0
0
VERTEX
8
Layer 1
10
61.218685
20
18.119772
70
0
0
VERTEX
8
Layer 1
10
61.219215
20
18.131149
70
0
0
VERTEX
8
Layer 1
10
61.351241
20
20.507369
70
0
0
VERTEX
8
Layer 1
10
61.484062
20
22.895231
70
0
0
VERTEX
8
Layer 1
10
61.484591
20
22.906079
70
0
0
VERTEX
8
Layer 1
10
61.485650
20
22.916927
70
0
0
VERTEX
8
Layer 1
10
61.615560
20
24.798376
70
0
0
VERTEX
8
Layer 1
10
61.616089
20
24.814780
70
0
0
VERTEX
8
Layer 1
10
61.617677
20
24.831185
70
0
0
VERTEX
8
Layer 1
10
61.680912
20
25.724417
70
0
0
VERTEX
8
Layer 1
10
61.572433
20
26.656278
70
0
0
VERTEX
8
Layer 1
10
61.565554
20
26.683266
70
0
0
VERTEX
8
Layer 1
10
61.560791
20
26.711047
70
0
0
VERTEX
8
Layer 1
10
61.344891
20
27.502679
70
0
0
VERTEX
8
Layer 1
10
61.218685
20
27.738423
70
0
0
VERTEX
8
Layer 1
10
60.975004
20
27.643173
70
0
0
VERTEX
8
Layer 1
10
60.944048
20
27.625975
70
0
0
VERTEX
8
Layer 1
10
60.912034
20
27.611687
70
0
0
VERTEX
8
Layer 1
10
60.606176
20
27.433094
70
0
0
VERTEX
8
Layer 1
10
60.447955
20
27.236509
70
0
0
VERTEX
8
Layer 1
10
60.432874
20
27.193117
70
0
0
VERTEX
8
Layer 1
10
60.370168
20
26.992828
70
0
0
VERTEX
8
Layer 1
10
60.324924
20
26.418947
70
0
0
VERTEX
8
Layer 1
10
60.324924
20
25.459834
70
0
0
VERTEX
8
Layer 1
10
60.291851
20
23.527055
70
0
0
VERTEX
8
Layer 1
10
60.258778
20
21.091304
70
0
0
VERTEX
8
Layer 1
10
60.225441
20
18.664284
70
0
0
VERTEX
8
Layer 1
10
60.191839
20
16.761668
70
0
0
VERTEX
8
Layer 1
10
60.157443
20
16.116085
70
0
0
VERTEX
8
Layer 1
10
60.137335
20
15.899127
70
0
0
VERTEX
8
Layer 1
10
60.085741
20
15.650684
70
0
0
VERTEX
8
Layer 1
10
59.643887
20
14.872545
70
0
0
VERTEX
8
Layer 1
10
59.633304
20
14.857993
70
0
0
VERTEX
8
Layer 1
10
59.621927
20
14.843705
70
0
0
VERTEX
8
Layer 1
10
58.937715
20
14.121129
70
0
0
VERTEX
8
Layer 1
10
58.163810
20
13.554128
70
0
0
VERTEX
8
Layer 1
10
58.132854
20
13.536930
70
0
0
VERTEX
8
Layer 1
10
58.100839
20
13.522643
70
0
0
VERTEX
8
Layer 1
10
57.399694
20
13.415486
70
0
0
VERTEX
8
Layer 1
10
56.998454
20
13.578073
70
0
0
VERTEX
8
Layer 1
10
56.721039
20
13.871628
70
0
0
VERTEX
8
Layer 1
10
56.581075
20
14.153938
70
0
0
VERTEX
8
Layer 1
10
56.505139
20
14.442598
70
0
0
VERTEX
8
Layer 1
10
56.394544
20
15.182372
70
0
0
VERTEX
8
Layer 1
10
56.394279
20
15.185547
70
0
0
VERTEX
8
Layer 1
10
56.162240
20
17.340046
70
0
0
VERTEX
8
Layer 1
10
56.160917
20
17.351159
70
0
0
VERTEX
8
Layer 1
10
56.160123
20
17.362271
70
0
0
VERTEX
8
Layer 1
10
55.929407
20
20.130868
70
0
0
VERTEX
8
Layer 1
10
55.929407
20
20.132455
70
0
0
VERTEX
8
Layer 1
10
55.696838
20
23.055039
70
0
0
VERTEX
8
Layer 1
10
55.530680
20
25.578367
70
0
0
VERTEX
8
Layer 1
10
55.431991
20
27.192852
70
0
0
VERTEX
8
Layer 1
10
55.431461
20
27.200261
70
0
0
VERTEX
8
Layer 1
10
55.430932
20
27.207934
70
0
0
VERTEX
8
Layer 1
10
55.364522
20
28.769767
70
0
0
VERTEX
8
Layer 1
10
55.364522
20
28.770825
70
0
0
VERTEX
8
Layer 1
10
55.298641
20
30.419204
70
0
0
VERTEX
8
Layer 1
10
55.297847
20
30.436534
70
0
0
VERTEX
8
Layer 1
10
55.297847
20
31.831786
70
0
0
VERTEX
8
Layer 1
10
55.297847
20
31.831786
70
0
0
SEQEND
8
Layer 1
0
POLYLINE
8
Layer 1
62
7
70
1
10
0.000000
20
0.000000
66
1
0
VERTEX
8
Layer 1
10
27.851594
20
30.081755
70
0
0
VERTEX
8
Layer 1
10
26.761512
20
30.285881
70
0
0
VERTEX
8
Layer 1
10
26.628162
20
30.283817
70
0
0
VERTEX
8
Layer 1
10
25.685480
20
30.092365
70
0
0
VERTEX
8
Layer 1
10
24.619131
20
29.533486
70
0
0
VERTEX
8
Layer 1
10
23.506559
20
28.802575
70
0
0
VERTEX
8
Layer 1
10
23.251263
20
29.271999
70
0
0
VERTEX
8
Layer 1
10
22.776628
20
29.591112
70
0
0
VERTEX
8
Layer 1
10
22.675319
20
29.636832
70
0
0
VERTEX
8
Layer 1
10
21.778753
20
29.897288
70
0
0
VERTEX
8
Layer 1
10
20.934363
20
29.997538
70
0
0
VERTEX
8
Layer 1
10
20.847024
20
30.001163
70
0
0
VERTEX
8
Layer 1
10
20.511136
20
29.914327
70
0
0
VERTEX
8
Layer 1
10
20.453509
20
29.274591
70
0
0
VERTEX
8
Layer 1
10
20.593289
20
28.092170
70
0
0
VERTEX
8
Layer 1
10
20.825566
20
26.687763
70
0
0
VERTEX
8
Layer 1
10
21.054245
20
25.315901
70
0
0
VERTEX
8
Layer 1
10
21.319595
20
23.915198
70
0
0
VERTEX
8
Layer 1
10
21.739727
20
21.767049
70
0
0
VERTEX
8
Layer 1
10
22.268390
20
19.265152
70
0
0
VERTEX
8
Layer 1
10
22.785412
20
16.861680
70
0
0
VERTEX
8
Layer 1
10
23.232398
20
15.049551
70
0
0
VERTEX
8
Layer 1
10
23.530319
20
14.219025
70
0
0
VERTEX
8
Layer 1
10
23.860783
20
14.196006
70
0
0
VERTEX
8
Layer 1
10
23.928490
20
14.232519
70
0
0
VERTEX
8
Layer 1
10
24.356876
20
14.570391
70
0
0
VERTEX
8
Layer 1
10
24.505969
20
14.700301
70
0
0
VERTEX
8
Layer 1
10
24.973116
20
15.247195
70
0
0
VERTEX
8
Layer 1
10
25.031245
20
15.328686
70
0
0
VERTEX
8
Layer 1
10
25.290933
20
15.781917
70
0
0
VERTEX
8
Layer 1
10
25.305406
20
15.827160
70
0
0
VERTEX
8
Layer 1
10
25.252701
20
16.553705
70
0
0
VERTEX
8
Layer 1
10
25.107233
20
18.068178
70
0
0
VERTEX
8
Layer 1
10
24.907235
20
20.042761
70
0
0
VERTEX
8
Layer 1
10
24.703638
20
22.050153
70
0
0
VERTEX
8
Layer 1
10
24.538512
20
23.729196
70
0
0
VERTEX
8
Layer 1
10
24.458952
20
24.685664
70
0
0
VERTEX
8
Layer 1
10
24.462312
20
25.785006
70
0
0
VERTEX
8
Layer 1
10
24.526368
20
26.229770
70
0
0
VERTEX
8
Layer 1
10
24.539544
20
26.260197
70
0
0
VERTEX
8
Layer 1
10
24.759968
20
26.667126
70
0
0
VERTEX
8
Layer 1
10
24.842650
20
26.795713
70
0
0
VERTEX
8
Layer 1
10
25.142370
20
27.155282
70
0
0
VERTEX
8
Layer 1
10
25.194043
20
27.203700
70
0
0
VERTEX
8
Layer 1
10
25.680823
20
27.593960
70
0
0
VERTEX
8
Layer 1
10
25.981776
20
27.512998
70
0
0
VERTEX
8
Layer 1
10
26.293465
20
27.200261
70
0
0
VERTEX
8
Layer 1
10
26.328072
20
27.152107
70
0
0
VERTEX
8
Layer 1
10
26.879516
20
25.904069
70
0
0
VERTEX
8
Layer 1
10
27.464245
20
23.208762
70
0
0
VERTEX
8
Layer 1
10
28.913630
20
23.704061
70
0
0
VERTEX
8
Layer 1
10
29.063649
20
23.764121
70
0
0
VERTEX
8
Layer 1
10
29.915341
20
24.164435
70
0
0
VERTEX
8
Layer 1
10
30.261945
20
24.438543
70
0
0
VERTEX
8
Layer 1
10
30.278614
20
24.473733
70
0
0
VERTEX
8
Layer 1
10
30.220670
20
24.966386
70
0
0
VERTEX
8
Layer 1
10
29.936244
20
25.965187
70
0
0
VERTEX
8
Layer 1
10
29.521907
20
27.215077
70
0
0
VERTEX
8
Layer 1
10
29.009674
20
28.453326
70
0
0
VERTEX
8
Layer 1
10
28.421506
20
29.482845
70
0
0
VERTEX
8
Layer 1
10
27.886519
20
30.063684
70
0
0
VERTEX
8
Layer 1
10
27.851594
20
30.081755
70
0
0
VERTEX
8
Layer 1
10
27.851594
20
30.081755
70
0
0
SEQEND
8
Layer 1
0
POLYLINE
8
Layer 1
62
7
70
1
10
0.000000
20
0.000000
66
1
0
VERTEX
8
Layer 1
10
50.048785
20
16.853478
70
0
0
VERTEX
8
Layer 1
10
50.021797
20
17.317292
70
0
0
VERTEX
8
Layer 1
10
50.017035
20
17.355127
70
0
0
VERTEX
8
Layer 1
10
49.943481
20
17.376294
70
0
0
VERTEX
8
Layer 1
10
49.929987
20
17.379998
70
0
0
VERTEX
8
Layer 1
10
49.045486
20
17.516258
70
0
0
VERTEX
8
Layer 1
10
49.023790
20
17.517317
70
0
0
VERTEX
8
Layer 1
10
49.001830
20
17.519698
70
0
0
VERTEX
8
Layer 1
10
48.014671
20
17.549596
70
0
0
VERTEX
8
Layer 1
10
47.989800
20
17.548008
70
0
0
VERTEX
8
Layer 1
10
47.965194
20
17.548008
70
0
0
VERTEX
8
Layer 1
10
47.660659
20
17.527900
70
0
0
VERTEX
8
Layer 1
10
47.639757
20
17.523138
70
0
0
VERTEX
8
Layer 1
10
47.581813
20
17.454611
70
0
0
VERTEX
8
Layer 1
10
47.502173
20
16.803207
70
0
0
VERTEX
8
Layer 1
10
47.531278
20
16.271131
70
0
0
VERTEX
8
Layer 1
10
47.592132
20
15.661267
70
0
0
VERTEX
8
Layer 1
10
47.678386
20
15.311224
70
0
0
VERTEX
8
Layer 1
10
47.731038
20
15.289792
70
0
0
VERTEX
8
Layer 1
10
48.089812
20
15.184753
70
0
0
VERTEX
8
Layer 1
10
49.052894
20
15.131307
70
0
0
VERTEX
8
Layer 1
10
49.773883
20
15.397213
70
0
0
VERTEX
8
Layer 1
10
49.894963
20
15.534829
70
0
0
VERTEX
8
Layer 1
10
49.983697
20
15.880606
70
0
0
VERTEX
8
Layer 1
10
50.020739
20
16.348124
70
0
0
VERTEX
8
Layer 1
10
50.048785
20
16.853478
70
0
0
VERTEX
8
Layer 1
10
50.048785
20
16.853478
70
0
0
SEQEND
8
Layer 1
0
POLYLINE
8
Layer 1
62
7
70
1
10
0.000000
20
0.000000
66
1
0
VERTEX
8
Layer 1
10
48.477956
20
24.615285
70
0
0
VERTEX
8
Layer 1
10
48.139554
20
23.736869
70
0
0
VERTEX
8
Layer 1
10
47.931856
20
21.369116
70
0
0
VERTEX
8
Layer 1
10
47.924448
20
20.978327
70
0
0
VERTEX
8
Layer 1
10
48.568443
20
20.918267
70
0
0
VERTEX
8
Layer 1
10
49.840029
20
20.752902
70
0
0
VERTEX
8
Layer 1
10
49.719114
20
22.631441
70
0
0
VERTEX
8
Layer 1
10
49.719114
20
22.632500
70
0
0
VERTEX
8
Layer 1
10
49.629156
20
23.579972
70
0
0
VERTEX
8
Layer 1
10
49.557983
20
23.891386
70
0
0
VERTEX
8
Layer 1
10
49.315890
20
24.168933
70
0
0
VERTEX
8
Layer 1
10
48.912665
20
24.440925
70
0
0
VERTEX
8
Layer 1
10
48.477956
20
24.615285
70
0
0
VERTEX
8
Layer 1
10
48.477956
20
24.615285
70
0
0
SEQEND
8
Layer 1
0
POLYLINE
8
Layer 1
62
7
70
1
10
0.000000
20
0.000000
66
1
0
VERTEX
8
Layer 1
10
12.170818
20
33.253920
70
0
0
VERTEX
8
Layer 1
10
12.898421
20
29.252102
70
0
0
VERTEX
8
Layer 1
10
13.526806
20
26.077106
70
0
0
VERTEX
8
Layer 1
10
14.122118
20
23.199766
70
0
0
VERTEX
8
Layer 1
10
12.038526
20
23.100547
70
0
0
VERTEX
8
Layer 1
10
9.921862
20
23.001329
70
0
0
VERTEX
8
Layer 1
10
10.649466
20
26.176325
70
0
0
VERTEX
8
Layer 1
10
11.377069
20
29.450539
70
0
0
VERTEX
8
Layer 1
10
12.170818
20
33.253920
70
0
0
VERTEX
8
Layer 1
10
12.170818
20
33.253920
70
0
0
SEQEND
8
Layer 1
0
POLYLINE
8
Layer 1
62
7
70
1
10
0.000000
20
0.000000
66
1
0
VERTEX
8
Layer 1
10
12.116049
20
29.116715
70
0
0
VERTEX
8
Layer 1
10
11.423583
20
26.000377
70
0
0
VERTEX
8
Layer 1
10
10.940401
20
23.852227
70
0
0
VERTEX
8
Layer 1
10
12.013735
20
23.893767
70
0
0
VERTEX
8
Layer 1
10
13.159141
20
23.940598
70
0
0
VERTEX
8
Layer 1
10
12.749858
20
25.915181
70
0
0
VERTEX
8
Layer 1
10
12.748826
20
25.920208
70
0
0
VERTEX
8
Layer 1
10
12.747794
20
25.925235
70
0
0
VERTEX
8
Layer 1
10
12.120177
20
29.096527
70
0
0
VERTEX
8
Layer 1
10
12.116049
20
29.116715
70
0
0
VERTEX
8
Layer 1
10
12.116049
20
29.116715
70
0
0
SEQEND
8
Layer 1
0
POLYLINE
8
Layer 1
62
7
70
1
10
0.000000
20
0.000000
66
1
0
VERTEX
8
Layer 1
10
5.787753
20
16.122171
70
0
0
VERTEX
8
Layer 1
10
5.920045
20
15.295349
70
0
0
VERTEX
8
Layer 1
10
6.250773
20
14.336235
70
0
0
VERTEX
8
Layer 1
10
6.746867
20
13.542486
70
0
0
VERTEX
8
Layer 1
10
7.276033
20
13.211758
70
0
0
VERTEX
8
Layer 1
10
7.573688
20
13.773996
70
0
0
VERTEX
8
Layer 1
10
8.036709
20
15.295349
70
0
0
VERTEX
8
Layer 1
10
8.632020
20
17.544304
70
0
0
VERTEX
8
Layer 1
10
9.293478
20
20.289353
70
0
0
VERTEX
8
Layer 1
10
10.649466
20
20.057843
70
0
0
VERTEX
8
Layer 1
10
12.104672
20
19.892478
70
0
0
VERTEX
8
Layer 1
10
14.237873
20
19.694041
70
0
0
VERTEX
8
Layer 1
10
14.915867
20
19.627895
70
0
0
VERTEX
8
Layer 1
10
16.106490
20
15.559932
70
0
0
VERTEX
8
Layer 1
10
16.801020
20
13.773996
70
0
0
VERTEX
8
Layer 1
10
16.941577
20
13.683079
70
0
0
VERTEX
8
Layer 1
10
17.164822
20
13.807069
70
0
0
VERTEX
8
Layer 1
10
17.727061
20
14.369308
70
0
0
VERTEX
8
Layer 1
10
18.190081
20
15.163057
70
0
0
VERTEX
8
Layer 1
10
18.421591
20
15.824515
70
0
0
VERTEX
8
Layer 1
10
18.322373
20
16.882847
70
0
0
VERTEX
8
Layer 1
10
18.057790
20
19.429458
70
0
0
VERTEX
8
Layer 1
10
18.256227
20
19.396385
70
0
0
VERTEX
8
Layer 1
10
18.586956
20
19.396385
70
0
0
VERTEX
8
Layer 1
10
18.818466
20
20.057843
70
0
0
VERTEX
8
Layer 1
10
19.116122
20
21.314612
70
0
0
VERTEX
8
Layer 1
10
19.347632
20
22.538308
70
0
0
VERTEX
8
Layer 1
10
19.380705
20
23.199766
70
0
0
VERTEX
8
Layer 1
10
17.561697
20
23.298984
70
0
0
VERTEX
8
Layer 1
10
17.065604
20
26.970074
70
0
0
VERTEX
8
Layer 1
10
16.569510
20
30.773454
70
0
0
VERTEX
8
Layer 1
10
16.007272
20
34.279179
70
0
0
VERTEX
8
Layer 1
10
15.478106
20
37.222665
70
0
0
VERTEX
8
Layer 1
10
15.015085
20
39.207037
70
0
0
VERTEX
8
Layer 1
10
14.651284
20
39.967713
70
0
0
VERTEX
8
Layer 1
10
13.427587
20
39.703130
70
0
0
VERTEX
8
Layer 1
10
11.674725
20
38.942454
70
0
0
VERTEX
8
Layer 1
10
9.954935
20
37.751831
70
0
0
VERTEX
8
Layer 1
10
9.252137
20
37.007691
70
0
0
VERTEX
8
Layer 1
10
8.797385
20
36.164333
70
0
0
VERTEX
8
Layer 1
10
8.301292
20
34.213033
70
0
0
VERTEX
8
Layer 1
10
7.739053
20
30.938819
70
0
0
VERTEX
8
Layer 1
10
7.143741
20
26.903928
70
0
0
VERTEX
8
Layer 1
10
6.581502
20
22.769818
70
0
0
VERTEX
8
Layer 1
10
5.291660
20
22.637527
70
0
0
VERTEX
8
Layer 1
10
4.828640
20
22.505235
70
0
0
VERTEX
8
Layer 1
10
4.994004
20
22.108361
70
0
0
VERTEX
8
Layer 1
10
5.390879
20
21.612268
70
0
0
VERTEX
8
Layer 1
10
5.853899
20
21.149248
70
0
0
VERTEX
8
Layer 1
10
6.217701
20
20.851592
70
0
0
VERTEX
8
Layer 1
10
6.349992
20
20.851592
70
0
0
VERTEX
8
Layer 1
10
6.151555
20
19.231021
70
0
0
VERTEX
8
Layer 1
10
5.953118
20
17.709669
70
0
0
VERTEX
8
Layer 1
10
5.787753
20
16.122171
70
0
0
VERTEX
8
Layer 1
10
5.787753
20
16.122171
70
0
0
SEQEND
8
Layer 1
0
POLYLINE
8
Layer 1
62
7
70
1
10
0.000000
20
0.000000
66
1
0
VERTEX
8
Layer 1
10
50.840417
20
16.704518
70
0
0
VERTEX
8
Layer 1
10
50.809461
20
16.258166
70
0
0
VERTEX
8
Layer 1
10
50.776388
20
15.828219
70
0
0
VERTEX
8
Layer 1
10
50.602722
20
15.174963
70
0
0
VERTEX
8
Layer 1
10
50.214149
20
14.736814
70
0
0
VERTEX
8
Layer 1
10
50.151708
20
14.696333
70
0
0
VERTEX
8
Layer 1
10
49.122744
20
14.339939
70
0
0
VERTEX
8
Layer 1
10
48.081081
20
14.383331
70
0
0
VERTEX
8
Layer 1
10
47.932121
20
14.406085
70
0
0
VERTEX
8
Layer 1
10
47.138372
20
14.703741
70
0
0
VERTEX
8
Layer 1
10
46.939935
20
15.001397
70
0
0
VERTEX
8
Layer 1
10
46.807643
20
15.530563
70
0
0
VERTEX
8
Layer 1
10
46.741497
20
16.192020
70
0
0
VERTEX
8
Layer 1
10
46.710541
20
16.669328
70
0
0
VERTEX
8
Layer 1
10
46.708424
20
16.820405
70
0
0
VERTEX
8
Layer 1
10
46.840716
20
17.746446
70
0
0
VERTEX
8
Layer 1
10
47.173561
20
18.166074
70
0
0
VERTEX
8
Layer 1
10
47.237590
20
18.209466
70
0
0
VERTEX
8
Layer 1
10
47.838194
20
18.339641
70
0
0
VERTEX
8
Layer 1
10
47.965194
20
18.341757
70
0
0
VERTEX
8
Layer 1
10
49.089671
20
18.308684
70
0
0
VERTEX
8
Layer 1
10
50.148003
20
18.143320
70
0
0
VERTEX
8
Layer 1
10
50.743315
20
17.812591
70
0
0
VERTEX
8
Layer 1
10
50.809461
20
17.415717
70
0
0
VERTEX
8
Layer 1
10
50.842534
20
16.853478
70
0
0
VERTEX
8
Layer 1
10
50.840417
20
16.704518
70
0
0
VERTEX
8
Layer 1
10
50.840417
20
16.704518
70
0
0
SEQEND
8
Layer 1
0
POLYLINE
8
Layer 1
62
7
70
1
10
0.000000
20
0.000000
66
1
0
VERTEX
8
Layer 1
10
54.579769
20
21.549826
70
0
0
VERTEX
8
Layer 1
10
54.479756
20
18.112099
70
0
0
VERTEX
8
Layer 1
10
54.347200
20
15.126016
70
0
0
VERTEX
8
Layer 1
10
54.281584
20
12.990566
70
0
0
VERTEX
8
Layer 1
10
54.215173
20
11.229766
70
0
0
VERTEX
8
Layer 1
10
54.214909
20
11.228179
70
0
0
VERTEX
8
Layer 1
10
54.111986
20
10.017182
70
0
0
VERTEX
8
Layer 1
10
54.075738
20
9.663699
70
0
0
VERTEX
8
Layer 1
10
54.043459
20
9.492250
70
0
0
VERTEX
8
Layer 1
10
54.002184
20
9.363133
70
0
0
VERTEX
8
Layer 1
10
53.818034
20
9.082411
70
0
0
VERTEX
8
Layer 1
10
53.778082
20
9.042459
70
0
0
VERTEX
8
Layer 1
10
53.733103
20
9.008592
70
0
0
VERTEX
8
Layer 1
10
53.328787
20
8.830792
70
0
0
VERTEX
8
Layer 1
10
52.962373
20
8.826030
70
0
0
VERTEX
8
Layer 1
10
52.441409
20
9.016000
70
0
0
VERTEX
8
Layer 1
10
52.393784
20
9.042194
70
0
0
VERTEX
8
Layer 1
10
52.350392
20
9.074738
70
0
0
VERTEX
8
Layer 1
10
51.700577
20
9.615810
70
0
0
VERTEX
8
Layer 1
10
51.684966
20
9.629833
70
0
0
VERTEX
8
Layer 1
10
51.670149
20
9.644650
70
0
0
VERTEX
8
Layer 1
10
51.049438
20
10.338386
70
0
0
VERTEX
8
Layer 1
10
50.585359
20
11.112291
70
0
0
VERTEX
8
Layer 1
10
50.575040
20
11.143248
70
0
0
VERTEX
8
Layer 1
10
49.647412
20
10.883692
70
0
0
VERTEX
8
Layer 1
10
49.634448
20
10.881046
70
0
0
VERTEX
8
Layer 1
10
49.621483
20
10.878929
70
0
0
VERTEX
8
Layer 1
10
47.541067
20
10.735525
70
0
0
VERTEX
8
Layer 1
10
47.526251
20
10.736054
70
0
0
VERTEX
8
Layer 1
10
47.511698
20
10.736848
70
0
0
VERTEX
8
Layer 1
10
45.569659
20
11.149333
70
0
0
VERTEX
8
Layer 1
10
44.713634
20
11.579313
70
0
0
VERTEX
8
Layer 1
10
44.037988
20
12.190467
70
0
0
VERTEX
8
Layer 1
10
44.037988
20
12.190732
70
0
0
VERTEX
8
Layer 1
10
43.606983
20
13.030518
70
0
0
VERTEX
8
Layer 1
10
43.597458
20
13.059622
70
0
0
VERTEX
8
Layer 1
10
43.590049
20
13.088991
70
0
0
VERTEX
8
Layer 1
10
43.383410
20
14.019000
70
0
0
VERTEX
8
Layer 1
10
43.377589
20
14.047311
70
0
0
VERTEX
8
Layer 1
10
43.374150
20
14.076150
70
0
0
VERTEX
8
Layer 1
10
43.241329
20
15.173111
70
0
0
VERTEX
8
Layer 1
10
43.240800
20
15.175757
70
0
0
VERTEX
8
Layer 1
10
43.240535
20
15.178403
70
0
0
VERTEX
8
Layer 1
10
43.138141
20
16.304468
70
0
0
VERTEX
8
Layer 1
10
43.137877
20
16.310554
70
0
0
VERTEX
8
Layer 1
10
43.137612
20
16.316639
70
0
0
VERTEX
8
Layer 1
10
43.194101
20
17.668228
70
0
0
VERTEX
8
Layer 1
10
43.527608
20
18.876744
70
0
0
VERTEX
8
Layer 1
10
43.561474
20
18.955854
70
0
0
VERTEX
8
Layer 1
10
44.210100
20
19.917051
70
0
0
VERTEX
8
Layer 1
10
45.158762
20
20.608175
70
0
0
VERTEX
8
Layer 1
10
44.287225
20
20.741790
70
0
0
VERTEX
8
Layer 1
10
44.286961
20
20.741790
70
0
0
VERTEX
8
Layer 1
10
43.885059
20
20.850269
70
0
0
VERTEX
8
Layer 1
10
43.369122
20
21.241852
70
0
0
VERTEX
8
Layer 1
10
43.341606
20
21.282862
70
0
0
VERTEX
8
Layer 1
10
43.319645
20
21.327047
70
0
0
VERTEX
8
Layer 1
10
43.216193
20
21.748793
70
0
0
VERTEX
8
Layer 1
10
43.220956
20
22.042744
70
0
0
VERTEX
8
Layer 1
10
43.311708
20
22.766643
70
0
0
VERTEX
8
Layer 1
10
43.686357
20
24.673493
70
0
0
VERTEX
8
Layer 1
10
43.689268
20
24.685664
70
0
0
VERTEX
8
Layer 1
10
43.692443
20
24.697835
70
0
0
VERTEX
8
Layer 1
10
44.310509
20
26.654161
70
0
0
VERTEX
8
Layer 1
10
44.314742
20
26.666332
70
0
0
VERTEX
8
Layer 1
10
44.319769
20
26.677974
70
0
0
VERTEX
8
Layer 1
10
44.769461
20
27.550800
70
0
0
VERTEX
8
Layer 1
10
45.415407
20
28.188478
70
0
0
VERTEX
8
Layer 1
10
46.546400
20
28.598913
70
0
0
VERTEX
8
Layer 1
10
47.795861
20
28.621601
70
0
0
VERTEX
8
Layer 1
10
47.795861
20
28.621601
70
0
0
VERTEX
8
Layer 1
10
49.007651
20
28.395316
70
0
0
VERTEX
8
Layer 1
10
50.182135
20
28.006710
70
0
0
VERTEX
8
Layer 1
10
52.196405
20
26.980921
70
0
0
VERTEX
8
Layer 1
10
53.429362
20
26.001964
70
0
0
VERTEX
8
Layer 1
10
53.546043
20
25.860942
70
0
0
VERTEX
8
Layer 1
10
53.861161
20
25.413796
70
0
0
VERTEX
8
Layer 1
10
54.246923
20
24.561310
70
0
0
VERTEX
8
Layer 1
10
54.246659
20
24.561310
70
0
0
VERTEX
8
Layer 1
10
54.473671
20
23.374126
70
0
0
VERTEX
8
Layer 1
10
54.579769
20
21.549826
70
0
0
VERTEX
8
Layer 1
10
54.579769
20
21.549826
70
0
0
SEQEND
8
Layer 1
0
POLYLINE
8
Layer 1
62
7
70
1
10
0.000000
20
0.000000
66
1
0
VERTEX
8
Layer 1
10
56.091596
20
30.453838
70
0
0
VERTEX
8
Layer 1
10
56.157742
20
28.800194
70
0
0
VERTEX
8
Layer 1
10
56.223888
20
27.245769
70
0
0
VERTEX
8
Layer 1
10
56.323106
20
25.625198
70
0
0
VERTEX
8
Layer 1
10
56.488471
20
23.111660
70
0
0
VERTEX
8
Layer 1
10
56.719981
20
20.201247
70
0
0
VERTEX
8
Layer 1
10
56.951491
20
17.423125
70
0
0
VERTEX
8
Layer 1
10
57.183001
20
15.273388
70
0
0
VERTEX
8
Layer 1
10
57.381438
20
14.314275
70
0
0
VERTEX
8
Layer 1
10
57.530266
20
14.198553
70
0
0
VERTEX
8
Layer 1
10
57.778313
20
14.248129
70
0
0
VERTEX
8
Layer 1
10
58.406697
20
14.711149
70
0
0
VERTEX
8
Layer 1
10
59.002009
20
15.339534
70
0
0
VERTEX
8
Layer 1
10
59.332738
20
15.901773
70
0
0
VERTEX
8
Layer 1
10
59.398884
20
16.794741
70
0
0
VERTEX
8
Layer 1
10
59.431956
20
18.679894
70
0
0
VERTEX
8
Layer 1
10
59.465029
20
21.094214
70
0
0
VERTEX
8
Layer 1
10
59.498102
20
23.541607
70
0
0
VERTEX
8
Layer 1
10
59.531175
20
25.459834
70
0
0
VERTEX
8
Layer 1
10
59.531175
20
26.418947
70
0
0
VERTEX
8
Layer 1
10
59.597321
20
27.179623
70
0
0
VERTEX
8
Layer 1
10
59.729612
20
27.576498
70
0
0
VERTEX
8
Layer 1
10
60.093414
20
28.039518
70
0
0
VERTEX
8
Layer 1
10
60.589507
20
28.337174
70
0
0
VERTEX
8
Layer 1
10
61.317110
20
28.568684
70
0
0
VERTEX
8
Layer 1
10
61.680912
20
28.403320
70
0
0
VERTEX
8
Layer 1
10
62.077786
20
27.808008
70
0
0
VERTEX
8
Layer 1
10
62.342369
20
26.848895
70
0
0
VERTEX
8
Layer 1
10
62.474661
20
25.724417
70
0
0
VERTEX
8
Layer 1
10
62.408515
20
24.765303
70
0
0
VERTEX
8
Layer 1
10
62.276224
20
22.847077
70
0
0
VERTEX
8
Layer 1
10
62.143932
20
20.465830
70
0
0
VERTEX
8
Layer 1
10
62.011641
20
18.084583
70
0
0
VERTEX
8
Layer 1
10
61.945495
20
16.199429
70
0
0
VERTEX
8
Layer 1
10
61.978568
20
15.273388
70
0
0
VERTEX
8
Layer 1
10
62.309297
20
14.942660
70
0
0
VERTEX
8
Layer 1
10
62.937681
20
14.744222
70
0
0
VERTEX
8
Layer 1
10
63.566066
20
14.678077
70
0
0
VERTEX
8
Layer 1
10
63.929867
20
14.810368
70
0
0
VERTEX
8
Layer 1
10
64.095232
20
15.571044
70
0
0
VERTEX
8
Layer 1
10
64.459033
20
17.290834
70
0
0
VERTEX
8
Layer 1
10
64.888981
20
19.539789
70
0
0
VERTEX
8
Layer 1
10
65.318928
20
21.954109
70
0
0
VERTEX
8
Layer 1
10
65.616584
20
24.136919
70
0
0
VERTEX
8
Layer 1
10
65.748875
20
25.658271
70
0
0
VERTEX
8
Layer 1
10
65.583511
20
27.245769
70
0
0
VERTEX
8
Layer 1
10
65.186637
20
28.866340
70
0
0
VERTEX
8
Layer 1
10
64.624398
20
30.189255
70
0
0
VERTEX
8
Layer 1
10
64.029086
20
30.983004
70
0
0
VERTEX
8
Layer 1
10
62.970754
20
31.313733
70
0
0
VERTEX
8
Layer 1
10
61.713985
20
31.214514
70
0
0
VERTEX
8
Layer 1
10
60.424143
20
30.784567
70
0
0
VERTEX
8
Layer 1
10
59.200446
20
30.189255
70
0
0
VERTEX
8
Layer 1
10
59.035082
20
30.983004
70
0
0
VERTEX
8
Layer 1
10
58.869718
20
31.446024
70
0
0
VERTEX
8
Layer 1
10
58.340552
20
31.909044
70
0
0
VERTEX
8
Layer 1
10
57.480657
20
32.338992
70
0
0
VERTEX
8
Layer 1
10
56.653835
20
32.603575
70
0
0
VERTEX
8
Layer 1
10
56.223888
20
32.537429
70
0
0
VERTEX
8
Layer 1
10
56.091596
20
31.809826
70
0
0
VERTEX
8
Layer 1
10
56.091596
20
30.453838
70
0
0
VERTEX
8
Layer 1
10
56.091596
20
30.453838
70
0
0
SEQEND
8
Layer 1
 0 
ENDSEC
 0 
EOF