<svg width="357" height="210" viewBox="0 0 357 210" fill="none" xmlns="http://www.w3.org/2000/svg">
<path d="M284.5 98.0243C284.5 99.3577 284.333 101.274 284 103.774C283.75 106.274 283.375 109.024 282.875 112.024C282.375 114.941 281.833 117.983 281.25 121.149C280.75 124.233 280.208 127.066 279.625 129.649C279.125 132.233 278.667 134.399 278.25 136.149C277.917 137.899 277.708 138.858 277.625 139.024C277.458 139.274 277 139.441 276.25 139.524C275.583 139.524 274.792 139.441 273.875 139.274C273.042 139.108 272.25 138.858 271.5 138.524C270.833 138.191 270.417 137.774 270.25 137.274C270.167 136.941 270.125 135.774 270.125 133.774C270.208 131.774 270.292 129.399 270.375 126.649C270.542 123.816 270.708 120.816 270.875 117.649C271.042 114.399 271.208 111.399 271.375 108.649C271.625 105.816 271.792 103.399 271.875 101.399C272.042 99.3993 272.125 98.191 272.125 97.7743C272.125 96.2743 271.958 94.8577 271.625 93.5243C271.375 92.1077 271.042 90.8993 270.625 89.8993C270.208 88.8993 269.708 88.1493 269.125 87.6493C268.625 87.066 268.167 86.8577 267.75 87.0243C266.667 87.191 265.75 87.4827 265 87.8993C264.25 88.2327 263.625 88.6077 263.125 89.0243C262.542 89.5243 262.083 90.1077 261.75 90.7743C261.667 90.941 261.5 91.441 261.25 92.2743C261.083 93.1077 261 94.066 261 95.1493C261 95.4827 261 96.691 261 98.7743C261 100.774 260.958 103.191 260.875 106.024C260.875 108.858 260.833 111.941 260.75 115.274C260.75 118.524 260.708 121.566 260.625 124.399C260.625 127.149 260.583 129.524 260.5 131.524C260.417 133.524 260.333 134.649 260.25 134.899C260.083 135.399 259.667 136.108 259 137.024C258.333 137.858 257.583 138.649 256.75 139.399C255.917 140.149 255.125 140.733 254.375 141.149C253.625 141.483 253.125 141.399 252.875 140.899C252.625 140.649 252.375 139.441 252.125 137.274C251.875 135.024 251.583 132.316 251.25 129.149C251 125.899 250.708 122.399 250.375 118.649C250.042 114.816 249.75 111.149 249.5 107.649C249.25 104.149 249.042 100.983 248.875 98.1493C248.708 95.316 248.583 93.2743 248.5 92.0243C248.417 90.2743 248.333 88.316 248.25 86.1493C248.167 83.8993 248.083 81.816 248 79.8993C248 77.8993 248 76.191 248 74.7743C248.083 73.2743 248.25 72.3577 248.5 72.0243C248.667 71.691 249.208 71.6077 250.125 71.7743C251.125 71.941 252.167 72.2743 253.25 72.7743C254.417 73.191 255.5 73.7327 256.5 74.3993C257.5 74.9827 258.167 75.566 258.5 76.1493C258.667 76.6493 258.875 77.2327 259.125 77.8993C259.375 78.4827 259.583 79.4827 259.75 80.8993C261.167 80.066 262.708 79.316 264.375 78.6493C266.042 77.8993 267.667 77.3577 269.25 77.0243C270.917 76.6077 272.5 76.4827 274 76.6493C275.5 76.7327 276.833 77.1493 278 77.8993C278.75 78.4827 279.5 79.4827 280.25 80.8993C281.083 82.316 281.792 83.9827 282.375 85.8993C283.042 87.816 283.542 89.8577 283.875 92.0243C284.292 94.1077 284.5 96.1077 284.5 98.0243Z" fill="white"/>
<path d="M236.611 70.0154C237.088 70.6172 237.522 71.2591 237.914 71.9411C238.308 72.5398 238.651 73.3867 238.943 74.4819C239.238 75.4938 239.438 76.8357 239.541 78.5075C239.728 80.1824 239.771 82.3522 239.67 85.017C239.509 89.2639 239.221 93.5478 238.807 97.8686C238.48 102.109 238.171 105.85 237.881 109.092C237.688 112.003 237.502 114.706 237.324 117.201C237.146 119.696 236.979 121.9 236.823 123.812C236.67 125.641 236.49 127.093 236.283 128.17C236.158 129.249 236.053 129.829 235.967 129.909C235.624 130.146 235.086 130.042 234.352 129.598C233.705 129.073 232.979 128.42 232.175 127.639C231.454 126.861 230.776 126.043 230.141 125.185C229.507 124.327 229.116 123.645 228.968 123.139C228.984 122.723 228.905 121.51 228.731 119.502C226.688 120.593 224.45 121.342 222.016 121.75C219.585 122.075 217.164 122.15 214.752 121.975C212.427 121.72 210.279 121.18 208.309 120.355C206.339 119.529 204.877 118.473 203.926 117.186C203.528 116.671 203.182 115.907 202.887 114.895C202.675 113.887 202.467 112.753 202.265 111.494C202.149 110.156 202.034 108.775 201.921 107.353C201.812 105.848 201.739 104.469 201.703 103.217C201.66 99.9631 202.182 97.1893 203.269 94.8955C204.36 92.5184 206.26 90.7975 208.969 89.7326C210.154 89.2772 211.704 89.0857 213.619 89.1583C215.621 89.1508 217.574 89.3083 219.48 89.6307C221.473 89.873 223.253 90.1906 224.823 90.5837C226.396 90.8935 227.387 91.1395 227.797 91.3219C227.625 87.0623 227.514 83.3888 227.464 80.3014C227.418 77.1307 227.162 75.0778 226.697 74.1429C226.303 73.5442 225.825 72.9423 225.264 72.3373C224.781 71.902 224.132 71.4188 223.318 70.8876C222.504 70.3564 221.519 69.9438 220.363 69.6497C219.453 69.4485 218.606 69.7917 217.822 70.6793C217.124 71.4867 216.443 72.962 215.778 75.105C215.199 77.1679 214.786 80.3629 214.539 84.69C211.621 84.6628 209.373 84.5776 207.794 84.4343C206.301 84.211 205.183 84.0018 204.44 83.8069C203.53 83.6056 202.997 83.3769 202.84 83.1208C202.686 82.7814 202.815 81.577 203.227 79.5078C203.642 77.3553 204.189 75.041 204.866 72.5649C205.627 70.092 206.466 67.7471 207.384 65.5303C208.386 63.3166 209.397 61.9372 210.418 61.3922C212.461 60.3021 214.85 59.9757 217.586 60.4129C220.404 60.8533 223.125 61.6653 225.749 62.8489C228.373 64.0324 230.7 65.3298 232.732 66.7411C234.763 68.1524 236.056 69.2438 236.611 70.0154ZM227.484 106.196C227.499 105.779 227.562 105.24 227.67 104.577C227.782 103.83 227.852 103.082 227.88 102.333C227.909 101.583 227.894 100.874 227.836 100.205C227.861 99.5385 227.797 99.0357 227.643 98.6963C227.412 98.1872 226.678 97.7424 225.442 97.362C224.289 96.9847 222.964 96.726 221.468 96.5859C219.976 96.3626 218.562 96.2673 217.226 96.3001C215.894 96.2496 214.971 96.3814 214.459 96.6956C213.777 97.0867 213.255 97.6507 212.894 98.3875C212.616 99.1275 212.405 100.287 212.262 101.866C212.233 102.616 212.245 103.408 212.297 104.244C212.348 105.08 212.4 105.916 212.452 106.752C212.59 107.508 212.731 108.18 212.876 108.769C213.103 109.362 213.339 109.746 213.583 109.922C214.15 110.36 215.135 110.773 216.538 111.16C218.027 111.466 219.523 111.606 221.025 111.58C222.53 111.47 223.923 111.023 225.204 110.237C226.485 109.452 227.245 108.105 227.484 106.196Z" fill="white"/>
<path d="M185.968 63.2821C186.243 63.405 186.628 64.4387 187.124 66.3833C187.62 68.3279 188.179 70.8957 188.801 74.0868C189.491 77.1819 190.175 80.7428 190.853 84.7695C191.531 88.7962 192.229 92.9461 192.948 97.2193C193.668 101.493 194.339 105.732 194.962 109.936C195.654 114.045 196.208 117.839 196.624 121.318C197.109 124.702 197.47 127.599 197.707 130.009C198.026 132.406 198.159 133.947 198.105 134.632C198.024 135.153 197.655 135.976 196.999 137.1C196.439 138.293 195.715 139.513 194.827 140.762C193.938 142.01 192.988 143.141 191.976 144.157C191.06 145.241 190.253 145.968 189.555 146.339C188.158 147.081 186.501 147.276 184.582 146.922C182.664 146.569 180.793 145.997 178.969 145.205C177.228 144.4 175.638 143.484 174.197 142.459C172.853 141.502 172.017 140.798 171.687 140.347C171.357 139.895 170.986 139.197 170.574 138.252C170.257 137.376 169.982 136.493 169.748 135.603C169.5 134.631 169.361 133.809 169.333 133.137C169.373 132.37 169.598 131.952 170.009 131.883C170.338 131.828 171.263 132.052 172.784 132.557C174.388 133.047 176.081 133.565 177.862 134.11C179.631 134.573 181.255 134.934 182.735 135.191C184.215 135.449 185.071 135.263 185.302 134.632C185.52 133.92 185.552 132.098 185.396 129.166C185.227 126.152 184.954 122.522 184.577 118.276C181.867 119.746 179.348 120.846 177.02 121.576C174.761 122.21 172.76 122.124 171.019 121.319C170.197 120.95 169.271 120.219 168.242 119.124C167.294 118.016 166.361 116.737 165.441 115.286C164.589 113.739 163.805 112.096 163.09 110.358C162.361 108.537 161.858 106.805 161.581 105.161C161.388 104.011 161.234 102.346 161.121 100.168C161.09 97.9762 161.107 95.565 161.171 92.9345C161.236 90.304 161.286 87.5913 161.323 84.7965C161.441 81.9878 161.561 79.4326 161.68 77.1308C161.882 74.8152 162.023 72.8901 162.102 71.3556C162.25 69.7251 162.352 68.8207 162.406 68.6425C162.529 68.3683 162.919 68.1759 163.577 68.0652C164.22 67.8724 164.926 67.7959 165.693 67.8358C166.446 67.7935 167.179 67.8813 167.892 68.0994C168.605 68.3174 169.078 68.6181 169.312 69.0013C169.449 69.3162 169.622 70.3434 169.83 72.0829C170.121 73.8087 170.343 75.8838 170.498 78.3085C170.735 80.7193 170.965 83.3424 171.189 86.178C171.481 88.9175 171.711 91.5407 171.88 94.0475C172.116 96.4583 172.298 98.5404 172.424 100.294C172.55 102.047 172.641 103.088 172.696 103.417C172.917 104.732 173.255 105.985 173.709 107.176C174.231 108.271 174.774 109.236 175.337 110.071C175.969 110.81 176.572 111.384 177.148 111.794C177.724 112.204 178.204 112.292 178.587 112.059C179.943 111.577 181.161 111.034 182.243 110.43C182.776 110.086 183.269 109.75 183.721 109.42C183.289 105.352 182.844 101.202 182.385 96.9692C181.913 92.6545 181.461 88.7165 181.031 85.1552C180.6 81.5939 180.218 78.5737 179.886 76.0945C179.635 73.6015 179.454 72.0263 179.344 71.3689C179.219 70.6293 179.41 69.7522 179.915 68.7376C180.406 67.6408 181.001 66.6535 181.698 65.7756C182.395 64.8976 183.127 64.2252 183.894 63.7581C184.728 63.1951 185.42 63.0364 185.968 63.2821Z" fill="white"/>
<path d="M154.795 89.5196C155.336 90.0905 155.731 91.0542 155.981 92.4107C156.333 93.7074 156.552 95.1849 156.638 96.8431C156.826 98.4416 156.861 100.13 156.744 101.907C156.707 103.706 156.621 105.362 156.486 106.877C156.432 108.413 156.308 109.715 156.117 110.785C155.946 111.774 155.789 112.378 155.645 112.6C155.4 112.88 154.833 113.077 153.942 113.19C153.133 113.324 151.949 113.405 150.393 113.431C148.836 113.457 146.705 113.377 143.998 113.19C144.989 108.712 145.535 105.281 145.638 102.897C145.762 100.433 145.667 98.6429 145.354 97.5284C145.002 96.2316 144.463 95.4889 143.737 95.3004C142.927 95.4345 142.177 95.6702 141.487 96.0075C140.817 96.2641 140.218 96.582 139.689 96.9612C139.059 97.4001 138.458 97.8899 137.887 98.4304C137.663 98.6304 137.355 99.1532 136.963 99.9985C136.571 100.844 136.064 102.133 135.442 103.865C135.296 104.43 134.952 105.589 134.41 107.343C133.949 109.117 133.375 111.163 132.687 113.481C132.079 115.82 131.4 118.27 130.649 120.83C129.978 123.411 129.31 125.82 128.642 128.058C128.077 130.236 127.555 132.08 127.076 133.592C126.678 135.124 126.407 136.001 126.264 136.222C125.998 136.583 125.448 137.043 124.614 137.602C123.78 138.16 122.876 138.657 121.902 139.093C120.949 139.448 120.057 139.733 119.226 139.948C118.416 140.082 117.943 139.916 117.806 139.449C117.627 139.145 117.657 138.033 117.897 136.115C118.137 134.197 118.441 131.866 118.81 129.12C119.28 126.315 119.773 123.257 120.288 119.947C120.803 116.637 121.327 113.459 121.861 110.411C122.394 107.364 122.883 104.65 123.33 102.269C123.797 99.8075 124.126 98.042 124.318 96.9725C124.635 95.4191 124.994 93.7043 125.396 91.8282C125.797 89.9522 126.166 88.1971 126.505 86.563C126.945 84.8692 127.322 83.4174 127.636 82.2075C128.052 80.9379 128.412 80.2136 128.717 80.0345C128.941 79.8344 129.476 79.9302 130.321 80.322C131.268 80.654 132.214 81.1578 133.157 81.8335C134.203 82.4494 135.136 83.1653 135.957 83.9813C136.779 84.7973 137.288 85.4891 137.485 86.0569C137.622 86.523 137.707 87.1908 137.739 88.0602C139.481 87.6516 141.122 87.3028 142.66 87.0137C144.301 86.6648 145.808 86.4967 147.182 86.5092C148.637 86.5427 149.989 86.8077 151.238 87.3042C152.507 87.72 153.693 88.4585 154.795 89.5196Z" fill="white"/>
<path d="M117.884 107.001C118.077 107.271 118.029 108.169 117.739 109.696C117.545 111.223 117.206 112.885 116.722 114.681C116.335 116.478 115.9 118.184 115.416 119.801C115.028 121.328 114.69 122.226 114.399 122.496L112.947 122.496C112.657 122.496 112.367 122.451 112.076 122.361C112.56 126.672 112.947 130.131 113.238 132.735C113.528 135.34 113.673 136.778 113.673 137.047C113.673 137.676 113.335 138.574 112.657 139.742C112.076 140.909 111.399 141.987 110.624 142.975C109.85 143.963 109.027 144.727 108.156 145.266C107.382 145.895 106.849 145.939 106.559 145.401C106.075 144.592 105.059 142.167 103.51 138.125C101.961 134.083 100.219 128.559 98.2831 121.553C96.3472 121.373 94.3146 121.193 92.1851 121.014C90.1525 120.834 88.0714 120.654 85.9419 120.475C83.8125 120.295 81.683 120.07 79.5535 119.801C77.5209 119.442 75.5366 119.127 73.6007 118.858C72.6328 122.81 71.6649 126.538 70.6969 130.041C69.8258 133.544 68.9546 136.598 68.0835 139.203C67.3091 141.808 66.6316 143.874 66.0508 145.401C65.4701 146.928 65.0345 147.691 64.7441 147.691C63.9698 147.691 63.1954 147.242 62.4211 146.344C61.6467 145.445 60.9208 144.368 60.2432 143.11C59.6624 141.853 59.1785 140.55 58.7913 139.203C58.4041 137.855 58.2105 136.733 58.2105 135.834C58.4041 133.768 58.6461 131.613 58.9365 129.367C59.3237 127.122 59.614 125.056 59.8076 123.169C60.098 120.924 60.3884 118.723 60.6788 116.567L60.098 116.567C59.7108 116.388 59.1785 115.984 58.5009 115.355C57.8234 114.726 57.1458 114.097 56.4682 113.468C55.7907 112.75 55.2099 112.076 54.726 111.447C54.242 110.729 54 110.19 54 109.831C54 109.651 54.6776 109.471 56.0327 109.292C57.4846 109.112 59.3721 108.932 61.6951 108.753C62.4695 103.363 63.2922 97.7495 64.1633 91.911C65.0345 86.0725 65.9056 80.5933 66.7768 75.4734C67.6479 70.3535 68.4707 65.9073 69.245 62.1348C70.1162 58.2724 70.8421 55.6226 71.4229 54.1854C72.3908 51.7602 74.0847 49.6045 76.5045 47.7182C78.9244 45.7421 81.441 44.1253 84.0544 42.8678C86.7647 41.5204 89.3297 40.4875 91.7495 39.7689C94.1694 39.0503 95.9601 38.691 97.1216 38.691C97.6056 38.691 98.1379 39.724 98.7187 41.7899C99.3963 43.766 100.074 46.4607 100.751 49.8739C101.526 53.2872 102.3 57.2843 103.074 61.8653C103.946 66.3564 104.768 71.117 105.543 76.1471C106.317 81.1772 107.043 86.342 107.721 91.6416C108.495 96.8513 109.221 101.836 109.898 106.597C114.738 106.597 117.4 106.732 117.884 107.001ZM76.3593 107.81C79.4567 107.63 82.5541 107.495 85.6515 107.405C88.7489 107.316 91.7979 107.181 94.7985 107.001C94.0242 103.498 93.1531 99.5909 92.1851 95.2794C91.4108 91.5966 90.4912 87.2851 89.4265 82.3449C88.3618 77.4046 87.297 71.9704 86.2323 66.042C85.0708 71.3416 83.9093 76.5064 82.7477 81.5365C81.5862 86.4767 80.5215 90.923 79.5535 94.8752C78.4888 99.4561 77.4241 103.768 76.3593 107.81Z" fill="white"/>
<path d="M284.5 99.024C284.5 97.1074 284.292 95.1072 283.875 93.024C283.583 91.1282 283.164 89.328 282.617 87.6236L282.375 86.899C281.865 85.2219 281.258 83.7362 280.557 82.442L280.25 81.899C279.5 80.4825 278.75 79.4823 278 78.899C276.833 78.1491 275.5 77.7323 274 77.649C272.5 77.4823 270.917 77.6074 269.25 78.024C267.667 78.3573 266.042 78.899 264.375 79.649C262.708 80.3156 261.167 81.0657 259.75 81.899C259.583 80.4825 259.375 79.4823 259.125 78.899C258.875 78.2324 258.667 77.6489 258.5 77.149C258.208 76.6386 257.661 76.1281 256.859 75.6178L256.5 75.399C255.5 74.7324 254.417 74.1907 253.25 73.774C252.302 73.3365 251.386 73.0266 250.502 72.8443L250.125 72.774C249.209 72.6074 248.667 72.6909 248.5 73.024C248.25 73.3573 248.083 74.2742 248 75.774L248 80.899C248.083 82.8156 248.167 84.8991 248.25 87.149C248.333 89.3155 248.417 91.2741 248.5 93.024L248.656 95.4928C248.719 96.5136 248.792 97.7323 248.875 99.149C249.042 101.982 249.25 105.149 249.5 108.649C249.75 112.149 250.042 115.816 250.375 119.649C250.708 123.399 251 126.899 251.25 130.149C251.583 133.316 251.875 136.024 252.125 138.274C252.375 140.44 252.625 141.649 252.875 141.899C253.094 142.337 253.504 142.455 254.105 142.254L254.375 142.149C255.031 141.784 255.719 141.292 256.439 140.672L256.75 140.399C257.479 139.743 258.145 139.055 258.746 138.335L259 138.024C259.583 137.222 259.975 136.579 260.176 136.096L260.25 135.899C260.312 135.711 260.375 135.031 260.438 133.86L260.5 132.524C260.562 131.024 260.602 129.313 260.617 127.391L260.625 125.399C260.687 123.274 260.727 121.032 260.742 118.672L260.75 116.274C260.812 113.774 260.852 111.415 260.867 109.196L260.875 107.024C260.937 104.899 260.977 103.008 260.992 101.352L261 99.774L261 96.149C261 95.0658 261.083 94.1073 261.25 93.274C261.5 92.4408 261.667 91.9406 261.75 91.774C262.083 91.1074 262.542 90.5239 263.125 90.024C263.563 89.6594 264.096 89.3267 264.725 89.026L265 88.899C265.656 88.5345 266.44 88.2655 267.352 88.0924L267.75 88.024C268.167 87.8574 268.625 88.0659 269.125 88.649L269.34 88.8482C269.832 89.3404 270.26 90.024 270.625 90.899C271.042 91.8989 271.375 93.1075 271.625 94.524C271.958 95.8572 272.125 97.2741 272.125 98.774L272.109 99.2349C272.078 99.8442 272 100.899 271.875 102.399L271.797 103.977C271.703 105.633 271.562 107.524 271.375 109.649L271.125 113.962C271.042 115.462 270.958 117.024 270.875 118.649C270.708 121.816 270.542 124.816 270.375 127.649L270.25 131.493C270.208 132.68 270.167 133.774 270.125 134.774C270.125 136.773 270.167 137.94 270.25 138.274C270.417 138.774 270.833 139.191 271.5 139.524C272.25 139.857 273.042 140.107 273.875 140.274C274.562 140.399 275.18 140.477 275.727 140.508L276.25 140.524C276.906 140.451 277.339 140.314 277.549 140.114L277.625 140.024C277.708 139.857 277.917 138.898 278.25 137.149C278.667 135.399 279.125 133.232 279.625 130.649C280.208 128.066 280.75 125.232 281.25 122.149C281.542 120.566 281.823 119.014 282.094 117.493L282.875 113.024C283.375 110.024 283.75 107.274 284 104.774C284.292 102.586 284.456 100.846 284.492 99.5513L284.5 99.024ZM185.969 64.2818C185.42 64.0361 184.728 64.1953 183.894 64.7584L183.607 64.9429C182.944 65.3965 182.308 66.0079 181.698 66.776L181.441 67.1099C180.854 67.9021 180.345 68.7782 179.915 69.7379C179.41 70.7523 179.219 71.6292 179.344 72.3687C179.454 73.0261 179.635 74.6014 179.886 77.0943L180.145 79.0553C180.412 81.1174 180.707 83.484 181.03 86.1549C181.461 89.7162 181.913 93.6546 182.386 97.9693C182.845 102.202 183.289 106.352 183.721 110.42C183.269 110.75 182.776 111.086 182.242 111.429C181.161 112.034 179.942 112.578 178.587 113.059L178.515 113.099C178.194 113.256 177.809 113.201 177.36 112.933L177.148 112.795C176.572 112.384 175.968 111.81 175.337 111.071C174.774 110.236 174.231 109.271 173.709 108.176C173.312 107.134 173.003 106.044 172.784 104.907L172.696 104.417C172.641 104.088 172.55 103.046 172.424 101.294C172.298 99.5402 172.117 97.4581 171.88 95.0474C171.711 92.5407 171.481 89.9177 171.188 87.1783C170.965 84.3428 170.735 81.719 170.498 79.3082C170.343 76.8837 170.121 74.8083 169.83 73.0826C169.648 71.561 169.493 70.5843 169.365 70.1529L169.312 70.0015C169.107 69.6663 168.72 69.394 168.148 69.1851L167.893 69.0992C167.18 68.8812 166.447 68.7933 165.693 68.8355L165.408 68.8267C164.751 68.8173 164.14 68.8964 163.577 69.065C162.92 69.1756 162.529 69.3681 162.406 69.6422C162.352 69.8204 162.251 70.7255 162.103 72.356L162.031 73.5797C161.949 74.8769 161.831 76.3938 161.68 78.1304C161.56 80.4322 161.441 82.9878 161.322 85.7965C161.286 88.5912 161.235 91.3038 161.171 93.9342C161.107 96.5646 161.09 98.9766 161.121 101.169C161.234 103.346 161.387 105.01 161.581 106.161C161.858 107.804 162.361 109.537 163.09 111.358L163.361 112.005C164.002 113.506 164.695 114.932 165.44 116.286C166.361 117.736 167.294 119.016 168.241 120.125C169.27 121.219 170.197 121.95 171.02 122.319C172.652 123.074 174.512 123.196 176.6 122.686L177.021 122.576C179.348 121.846 181.867 120.746 184.577 119.276C184.954 123.522 185.227 127.152 185.396 130.166C185.552 133.097 185.521 134.92 185.303 135.632C185.071 136.263 184.214 136.449 182.734 136.191C181.254 135.933 179.63 135.573 177.862 135.11C176.081 134.565 174.388 134.047 172.784 133.556C171.263 133.052 170.338 132.827 170.009 132.882C169.598 132.952 169.373 133.37 169.333 134.137C169.361 134.809 169.5 135.631 169.748 136.603C169.982 137.493 170.258 138.376 170.574 139.253C170.987 140.197 171.357 140.895 171.687 141.346C172.016 141.798 172.853 142.503 174.197 143.46C175.637 144.485 177.229 145.4 178.97 146.206C180.793 146.997 182.664 147.569 184.582 147.922C186.381 148.253 187.95 148.104 189.29 147.472L189.555 147.339C190.253 146.968 191.059 146.241 191.976 145.157C192.861 144.268 193.7 143.291 194.491 142.224L194.827 141.761C195.716 140.513 196.439 139.293 196.999 138.1C197.573 137.116 197.927 136.363 198.061 135.841L198.104 135.632C198.158 134.947 198.026 133.406 197.707 131.009C197.47 128.599 197.109 125.702 196.624 122.319C196.207 118.84 195.654 115.045 194.962 110.936C194.339 106.731 193.667 102.492 192.948 98.2193C192.229 93.9461 191.53 89.7958 190.853 85.7691C190.175 81.7426 189.491 78.1815 188.801 75.0865C188.257 72.2947 187.761 69.9799 187.313 68.1422L187.124 67.3834C186.628 65.4392 186.243 64.4051 185.969 64.2818ZM130.321 81.3219C129.476 80.9301 128.941 80.8347 128.717 81.0347C128.412 81.2141 128.051 81.9384 127.636 83.2076L126.505 87.5631L125.974 90.1051C125.789 90.9825 125.596 91.8907 125.396 92.8287L124.825 95.5211C124.646 96.3785 124.476 97.1955 124.317 97.9722C124.126 99.0417 123.796 100.808 123.329 103.269C122.883 105.65 122.393 108.365 121.86 111.412C121.327 114.459 120.803 117.637 120.288 120.947C119.773 124.257 119.28 127.315 118.81 130.12C118.441 132.865 118.136 135.198 117.896 137.116C117.657 139.033 117.627 140.145 117.806 140.45C117.926 140.858 118.304 141.036 118.938 140.984L119.227 140.948C119.849 140.787 120.507 140.586 121.198 140.346L121.902 140.092C122.755 139.711 123.553 139.283 124.298 138.808L124.614 138.601C125.344 138.113 125.856 137.7 126.15 137.362L126.264 137.222C126.407 137.001 126.678 136.124 127.076 134.591C127.555 133.08 128.077 131.236 128.643 129.058C129.31 126.821 129.978 124.411 130.648 121.83C131.399 119.27 132.079 116.82 132.687 114.481C133.375 112.163 133.949 110.117 134.41 108.342C134.952 106.589 135.296 105.431 135.442 104.866C135.909 103.566 136.31 102.516 136.647 101.715L136.963 100.999C137.355 100.153 137.663 99.6304 137.887 99.4303C138.315 99.025 138.76 98.6485 139.222 98.3004L139.689 97.9615C140.218 97.5824 140.817 97.264 141.486 97.0074C142.177 96.6702 142.927 96.4345 143.736 96.3004C144.462 96.4889 145.002 97.2314 145.354 98.5279C145.667 99.6424 145.761 101.432 145.638 103.897C145.535 106.281 144.989 109.712 143.998 114.19C146.366 114.353 148.294 114.436 149.782 114.436L150.393 114.431C151.949 114.405 153.133 114.324 153.942 114.19C154.721 114.091 155.253 113.928 155.538 113.701L155.646 113.599C155.789 113.378 155.947 112.773 156.117 111.785C156.309 110.715 156.432 109.413 156.486 107.878C156.621 106.363 156.707 104.705 156.743 102.907C156.86 101.129 156.826 99.4416 156.639 97.8433C156.553 96.1852 156.333 94.7075 155.981 93.4107C155.731 92.0542 155.335 91.09 154.795 90.5191C153.693 89.4582 152.507 88.7201 151.237 88.3043C149.989 87.8079 148.637 87.5429 147.183 87.5094C145.808 87.4968 144.301 87.6644 142.66 88.0133C141.121 88.3024 139.481 88.6516 137.739 89.0601C137.707 88.1909 137.622 87.5233 137.484 87.0572C137.287 86.4895 136.778 85.797 135.957 84.981C135.136 84.1652 134.203 83.4494 133.157 82.8336C132.213 82.158 131.268 81.6539 130.321 81.3219ZM217.586 61.4127C214.851 60.9754 212.461 61.3021 210.418 62.3922C209.397 62.9373 208.386 64.3167 207.385 66.5299L207.044 67.3678C206.258 69.3354 205.532 71.4012 204.866 73.565L204.618 74.4859C204.054 76.6169 203.591 78.6241 203.228 80.5074C202.816 82.5764 202.686 83.7811 202.84 84.1207C202.997 84.3768 203.531 84.6059 204.44 84.8072C205.184 85.0021 206.302 85.2108 207.794 85.4342C209.373 85.5774 211.621 85.6628 214.539 85.69C214.786 81.3631 215.199 78.168 215.777 76.1051C216.442 73.962 217.125 72.4868 217.822 71.6793C218.606 70.7919 219.453 70.4489 220.362 70.65C221.519 70.944 222.505 71.3561 223.318 71.8873C224.132 72.4184 224.781 72.9022 225.265 73.3375C225.825 73.9424 226.303 74.5445 226.697 75.1431C227.162 76.0782 227.418 78.131 227.465 81.3013C227.515 84.3888 227.625 88.0623 227.797 92.3219C227.387 92.1395 226.395 91.8933 224.823 91.5836C223.254 91.1905 221.473 90.8727 219.48 90.6304C217.575 90.308 215.621 90.1513 213.619 90.1588C211.704 90.0862 210.154 90.2775 208.969 90.733C206.26 91.7978 204.36 93.5183 203.27 95.8951C202.182 98.1889 201.66 100.963 201.703 104.217L201.737 105.18C201.778 106.167 201.84 107.224 201.922 108.353L202.092 110.455C202.149 111.145 202.207 111.825 202.265 112.495C202.467 113.753 202.675 114.886 202.887 115.895L203 116.263C203.269 117.094 203.578 117.735 203.926 118.186C204.878 119.473 206.338 120.53 208.309 121.355C210.279 122.18 212.427 122.72 214.752 122.975C217.164 123.15 219.585 123.074 222.016 122.75C224.449 122.341 226.688 121.593 228.73 120.503C228.905 122.511 228.984 123.723 228.968 124.139C229.115 124.645 229.507 125.327 230.142 126.185C230.776 127.043 231.454 127.861 232.175 128.638C232.979 129.419 233.705 130.072 234.353 130.597C235.04 131.014 235.556 131.132 235.9 130.95L235.967 130.909C236.053 130.828 236.159 130.248 236.283 129.17C236.439 128.362 236.578 127.343 236.703 126.113L236.823 124.812C236.901 123.856 236.982 122.827 237.065 121.725L237.324 118.202C237.502 115.707 237.688 113.003 237.882 110.091C238.171 106.85 238.48 103.109 238.808 98.8687C239.17 95.0879 239.435 91.3352 239.604 87.6109L239.67 86.0172C239.771 83.3524 239.728 81.1823 239.541 79.5074C239.438 77.8357 239.239 76.4939 238.943 75.482C238.651 74.3868 238.307 73.5397 237.913 72.941C237.522 72.2591 237.088 71.617 236.61 71.0152C236.056 70.2437 234.763 69.152 232.731 67.7408C230.954 66.506 228.95 65.3589 226.719 64.2984L225.749 63.8492C223.289 62.7397 220.744 61.956 218.113 61.4996L217.586 61.4127ZM217.227 97.3004C218.562 97.2676 219.976 97.3622 221.469 97.5855C222.964 97.7256 224.288 97.9847 225.441 98.3619C226.678 98.7422 227.411 99.187 227.643 99.6959C227.796 100.035 227.861 100.539 227.836 101.205C227.894 101.874 227.908 102.583 227.88 103.333C227.851 104.082 227.782 104.83 227.67 105.577C227.561 106.24 227.499 106.78 227.483 107.196C227.244 109.105 226.485 110.452 225.204 111.237L224.963 111.38C223.749 112.077 222.437 112.477 221.025 112.58C219.523 112.606 218.027 112.466 216.538 112.16C215.31 111.821 214.402 111.464 213.814 111.086L213.583 110.921C213.339 110.745 213.104 110.362 212.876 109.769C212.732 109.18 212.59 108.507 212.452 107.752L212.297 105.244C212.245 104.408 212.233 103.615 212.262 102.866C212.405 101.287 212.615 100.127 212.894 99.3873C213.21 98.7425 213.649 98.2302 214.211 97.8502L214.459 97.6959C214.971 97.3817 215.894 97.2499 217.227 97.3004ZM86.2324 67.0416C87.2972 72.9699 88.362 78.405 89.4268 83.3453C90.4914 88.2854 91.4112 92.5972 92.1855 96.2799C93.1534 100.591 94.0245 104.499 94.7988 108.002C91.7982 108.181 88.7488 108.316 85.6514 108.406L83.3281 108.481C81.0052 108.565 78.6823 108.675 76.3594 108.81C77.4241 104.768 78.489 100.456 79.5537 95.8756C80.5216 91.9234 81.5865 87.4769 82.748 82.5367C83.9096 77.5066 85.0709 72.3411 86.2324 67.0416ZM217.354 102.297C217.32 102.554 217.287 102.847 217.255 103.179C217.239 103.712 217.248 104.296 217.287 104.935C217.313 105.353 217.338 105.771 217.364 106.189C217.383 106.499 217.403 106.808 217.422 107.118C217.428 107.151 217.434 107.183 217.44 107.215C217.523 107.241 217.611 107.266 217.705 107.293C218.733 107.493 219.756 107.588 220.78 107.581C221.377 107.522 221.909 107.356 222.42 107.072C222.446 106.99 222.478 106.858 222.507 106.664C222.547 106.054 222.63 105.412 222.734 104.774C222.814 104.23 222.863 103.686 222.884 103.143C222.888 103.043 222.889 102.944 222.891 102.848C222.348 102.73 221.721 102.631 221.002 102.564L220.865 102.551L220.729 102.531C219.488 102.345 218.366 102.273 217.354 102.297ZM176.613 91.3951C176.706 92.4875 176.79 93.5613 176.861 94.6168C177.098 97.0317 177.282 99.14 177.411 100.935C177.473 101.801 177.525 102.471 177.567 102.956C177.589 103.198 177.607 103.379 177.62 103.506C177.636 103.659 177.639 103.661 177.627 103.587C177.765 104.406 177.96 105.178 178.207 105.907C177.946 103.469 177.685 101.003 177.414 98.5084C177.14 96.009 176.873 93.6374 176.613 91.3951ZM85.918 90.8316C85.3917 93.0286 84.8897 95.1069 84.4102 97.065C83.8977 99.2687 83.3835 101.412 82.8701 103.496C83.749 103.463 84.628 103.433 85.5068 103.408C86.5544 103.377 87.596 103.339 88.6318 103.298C88.2123 101.417 87.7709 99.4426 87.3066 97.3746L87.2988 97.3414L87.292 97.3082C86.8765 95.3319 86.4178 93.1733 85.918 90.8316ZM220.977 76.3385C220.851 76.6746 220.717 77.0645 220.576 77.5133C220.17 78.9946 219.797 81.6026 219.556 85.5797C219.767 85.6111 219.979 85.6453 220.189 85.6803C221.008 85.7811 221.803 85.8954 222.573 86.023C222.525 84.3574 222.488 82.8103 222.465 81.3824L222.465 81.3746C222.443 79.8866 222.373 78.779 222.276 78.0015C222.246 77.7594 222.213 77.5717 222.187 77.4303C222.06 77.2676 221.918 77.0966 221.758 76.9166C221.577 76.7674 221.321 76.5751 220.977 76.3385ZM58.2109 136.835C58.211 137.733 58.4039 138.856 58.791 140.203C59.1782 141.55 59.6624 142.852 60.2432 144.11C60.9207 145.367 61.6466 146.445 62.4209 147.343C63.1468 148.185 63.8728 148.633 64.5986 148.686L64.7441 148.691C64.9982 148.691 65.3634 148.106 65.8398 146.937L66.0508 146.401C66.6315 144.874 67.3087 142.808 68.083 140.203C68.9542 137.598 69.8261 134.544 70.6973 131.041C71.6652 127.538 72.6327 123.81 73.6006 119.858C75.5365 120.127 77.521 120.442 79.5537 120.801C81.6831 121.071 83.813 121.295 85.9424 121.474C88.0717 121.654 90.153 121.834 92.1855 122.013C94.3149 122.193 96.3474 122.373 98.2832 122.552C100.219 129.558 101.961 135.083 103.51 139.125C105.058 143.167 106.075 145.593 106.559 146.401C106.849 146.94 107.382 146.895 108.156 146.266C109.027 145.727 109.85 144.963 110.624 143.975C111.398 142.987 112.076 141.909 112.657 140.742C113.335 139.574 113.673 138.676 113.673 138.047C113.673 137.913 113.637 137.486 113.564 136.767L113.237 133.736C112.947 131.131 112.56 127.672 112.076 123.361C112.367 123.451 112.657 123.496 112.947 123.496L114.399 123.496C114.69 123.226 115.029 122.328 115.416 120.801C115.9 119.185 116.335 117.478 116.723 115.681C117.207 113.885 117.545 112.223 117.738 110.696C118.029 109.169 118.077 108.271 117.884 108.002C117.4 107.732 114.738 107.597 109.898 107.597C109.221 102.837 108.495 97.8509 107.721 92.6412C107.213 88.6666 106.677 84.7679 106.114 80.9449L105.543 77.147C104.769 72.117 103.945 67.356 103.074 62.8648C102.3 58.2841 101.525 54.2868 100.751 50.8736C100.073 47.4605 99.3963 44.7657 98.7188 42.7896C98.1382 40.7245 97.6059 39.6917 97.1221 39.691C95.9606 39.691 94.1697 40.0506 91.75 40.7691L90.835 41.0533C88.686 41.7508 86.4259 42.6889 84.0547 43.8678L83.5654 44.108C81.1268 45.329 78.7734 46.8658 76.5049 48.7183C74.0851 50.6046 72.3908 52.76 71.4229 55.1851C70.8421 56.6223 70.1162 59.2722 69.2451 63.1344L68.9521 64.5806C68.264 68.029 67.5386 71.9932 66.7764 76.4732C65.9052 81.593 65.0342 87.0723 64.1631 92.9107C63.292 98.7491 62.4696 104.363 61.6953 109.753C59.3723 109.932 57.4841 110.112 56.0322 110.292C54.6775 110.471 54.0001 110.651 54 110.831C54 111.19 54.2416 111.729 54.7256 112.448C55.2095 113.076 55.7904 113.75 56.4678 114.468C57.1453 115.097 57.8234 115.726 58.501 116.355C59.1782 116.983 59.7106 117.387 60.0977 117.567L60.6787 117.567C60.3883 119.723 60.098 121.924 59.8076 124.17L59.6445 125.618C59.4631 127.1 59.2269 128.683 58.9365 130.367L58.7275 132.035C58.5279 133.685 58.3561 135.285 58.2109 136.835ZM289.5 99.024C289.5 100.671 289.303 102.813 288.97 105.33C288.707 107.942 288.317 110.783 287.807 113.846L287.805 113.858L287.803 113.869C287.304 116.779 286.764 119.81 286.184 122.962C285.678 126.081 285.125 128.975 284.526 131.639C284.033 134.186 283.571 136.371 283.144 138.179C282.982 139.026 282.843 139.72 282.729 140.243C282.671 140.51 282.611 140.772 282.551 141.005C282.541 141.044 282.395 141.664 282.097 142.26L281.958 142.539L281.785 142.797C280.844 144.209 279.523 144.797 278.865 145.036C278.118 145.307 277.382 145.429 276.802 145.494L276.527 145.524L276.25 145.524C275.192 145.524 274.086 145.395 272.98 145.194L272.938 145.186L272.895 145.177C271.713 144.941 270.568 144.581 269.47 144.093L269.365 144.047L269.264 143.997C267.908 143.319 266.241 142.057 265.507 139.855L265.446 139.673L265.399 139.487C265.205 138.711 265.175 137.773 265.159 137.328C265.154 137.192 265.152 137.049 265.148 136.898C265.108 137.08 265.06 137.279 264.993 137.48C264.566 138.762 263.747 139.998 263.044 140.965L262.977 141.058L262.904 141.148C262.059 142.204 261.12 143.193 260.095 144.116C259.062 145.046 257.964 145.875 256.803 146.52L256.608 146.628L256.405 146.718C255.639 147.059 254.26 147.543 252.615 147.269C250.844 146.974 249.507 145.934 248.698 144.656C248.227 143.964 248.02 143.333 247.958 143.154C247.799 142.691 247.687 142.221 247.604 141.819C247.434 141 247.289 139.985 247.158 138.847L247.157 138.837L247.155 138.827C246.904 136.564 246.611 133.845 246.277 130.672L246.271 130.603L246.265 130.533C246.016 127.305 245.726 123.825 245.395 120.092L245.394 120.083C245.058 116.226 244.765 112.533 244.513 109.005C244.262 105.489 244.052 102.301 243.884 99.4429C243.869 99.1983 243.855 98.9597 243.841 98.7271C243.823 98.9181 243.806 99.1093 243.788 99.3004C243.463 103.507 243.156 107.231 242.867 110.47C242.674 113.371 242.489 116.066 242.312 118.557C242.133 121.064 241.964 123.285 241.807 125.218L241.806 125.228C241.654 127.047 241.465 128.636 241.226 129.933C241.166 130.436 241.103 130.908 241.03 131.308C240.992 131.521 240.93 131.828 240.836 132.151C240.79 132.308 240.706 132.578 240.568 132.887C240.485 133.074 240.142 133.857 239.366 134.576L239.105 134.817L238.813 135.02C237.22 136.124 235.515 136.141 234.359 135.919C233.276 135.71 232.38 135.249 231.761 134.874L231.468 134.696L231.203 134.481C230.409 133.837 229.569 133.078 228.691 132.226L228.598 132.134L228.508 132.038C227.661 131.124 226.865 130.164 226.121 129.159C225.722 128.619 225.28 127.972 224.895 127.258C224.22 127.422 223.537 127.565 222.843 127.681L222.761 127.695L222.678 127.706C219.913 128.075 217.149 128.161 214.391 127.962L214.299 127.955L214.207 127.945C211.45 127.643 208.83 126.994 206.377 125.966C204.707 125.267 203.139 124.361 201.794 123.191C202.174 125.942 202.471 128.373 202.679 130.477C202.969 132.675 203.191 134.729 203.09 136.023L203.074 136.214L203.045 136.404C202.814 137.88 202.044 139.357 201.419 140.442C200.731 141.87 199.885 143.277 198.9 144.661C197.9 146.066 196.815 147.366 195.646 148.554C194.619 149.747 193.372 150.973 191.901 151.754C189.294 153.14 186.439 153.348 183.678 152.839C181.379 152.416 179.143 151.732 176.979 150.792L176.924 150.768L176.87 150.744C174.872 149.819 173.01 148.752 171.298 147.533C170.565 147.011 169.902 146.51 169.343 146.04C168.85 145.625 168.18 145.023 167.648 144.295C166.994 143.398 166.45 142.303 165.992 141.253L165.927 141.104L165.871 140.951C165.505 139.936 165.185 138.911 164.912 137.876L164.907 137.858L164.903 137.839C164.607 136.679 164.385 135.491 164.337 134.349L164.327 134.114L164.34 133.878C164.377 133.16 164.515 132.018 165.13 130.877C165.858 129.525 167.225 128.281 169.179 127.952C170.02 127.81 170.743 127.9 171.036 127.939C171.427 127.992 171.804 128.072 172.129 128.151C172.762 128.305 173.493 128.525 174.278 128.784C175.839 129.261 177.482 129.765 179.211 130.294C179.621 130.401 180.021 130.501 180.41 130.595C180.407 130.541 180.406 130.486 180.403 130.431C180.34 129.308 180.259 128.092 180.166 126.785C179.611 126.987 179.062 127.176 178.517 127.347L178.443 127.37L178.371 127.39C175.231 128.271 171.968 128.267 168.92 126.857L168.92 126.855C167.247 126.092 165.806 124.832 164.6 123.549L164.518 123.463L164.44 123.373C163.315 122.056 162.244 120.581 161.219 118.964L161.136 118.834L161.061 118.698C160.635 117.925 160.228 117.134 159.836 116.325L159.646 116.621L159.412 116.888C158.469 117.969 157.328 118.454 156.675 118.681C156.016 118.91 155.351 119.039 154.758 119.123L154.759 119.124C153.58 119.319 152.102 119.403 150.477 119.43C148.71 119.46 146.415 119.368 143.654 119.178L137.861 118.78L139.116 113.11C139.804 110.003 140.237 107.55 140.463 105.695C140.382 105.915 140.296 106.146 140.208 106.39C140.012 107.105 139.674 108.241 139.217 109.721C138.751 111.507 138.182 113.533 137.512 115.794C136.902 118.138 136.223 120.583 135.478 123.128C134.806 125.712 134.132 128.136 133.458 130.402C132.902 132.539 132.376 134.402 131.881 135.976C131.687 136.717 131.511 137.359 131.352 137.874C131.268 138.143 131.175 138.429 131.073 138.699C131.01 138.866 130.809 139.402 130.457 139.945L130.377 140.068L130.29 140.186C129.465 141.307 128.264 142.175 127.396 142.756C126.313 143.481 125.159 144.113 123.943 144.657L123.798 144.722L123.647 144.778C122.561 145.183 121.503 145.524 120.478 145.789L120.263 145.844L120.043 145.88C119.278 146.007 117.991 146.127 116.609 145.642C116.334 145.546 116.068 145.427 115.813 145.292C115.421 145.9 115.005 146.491 114.56 147.059C113.564 148.33 112.402 149.466 111.044 150.353C110.373 150.862 109.177 151.62 107.597 151.753C106.541 151.843 105.352 151.645 104.248 150.982C103.285 150.404 102.662 149.636 102.269 148.967C101.816 148.211 101.315 147.082 100.822 145.908C100.286 144.627 99.6235 142.956 98.8408 140.914C97.4744 137.347 95.9976 132.771 94.4053 127.223C93.5428 127.148 92.6625 127.071 91.7646 126.996L91.7451 126.994C89.7194 126.815 87.6446 126.636 85.5215 126.457C83.3225 126.271 81.1239 126.039 78.9258 125.761L78.8037 125.746L78.6836 125.725C78.2335 125.646 77.7856 125.569 77.3408 125.494C76.736 127.857 76.1338 130.138 75.5273 132.334C74.6501 135.854 73.7604 138.981 72.8545 141.7C72.0731 144.325 71.3629 146.5 70.7246 148.178C70.4061 149.016 70.0433 149.875 69.6318 150.596C69.437 150.938 69.1041 151.475 68.6123 151.993C68.2821 152.34 66.9513 153.691 64.7441 153.691C61.8864 153.691 59.8514 152.02 58.6338 150.608C57.5807 149.386 56.6575 147.996 55.8418 146.482L55.7686 146.346L55.7041 146.207C55.0152 144.715 54.4421 143.173 53.9854 141.584C53.5328 140.009 53.211 138.385 53.2109 136.835L53.2109 136.6L53.2324 136.368C53.4319 134.239 53.6803 132.025 53.9775 129.726L53.9912 129.622L54.0088 129.517C54.3803 127.363 54.6541 125.412 54.834 123.659L54.8408 123.593L54.8486 123.528C54.994 122.404 55.1388 121.291 55.2842 120.189C55.2208 120.131 55.159 120.075 55.0996 120.02C54.7608 119.706 54.4218 119.391 54.083 119.077C53.7443 118.762 53.4061 118.448 53.0674 118.133L52.9453 118.02L52.8301 117.899C52.0646 117.087 51.3703 116.286 50.7637 115.498L50.667 115.372L50.5791 115.241C50.2443 114.744 49.8979 114.171 49.6201 113.552C49.3732 113.002 49 112.028 49 110.831C49 109.12 49.8293 107.932 50.3936 107.334C50.9371 106.757 51.4952 106.432 51.7842 106.279C52.3753 105.965 52.9383 105.805 53.2266 105.728C53.8818 105.554 54.6458 105.432 55.376 105.336L55.4189 105.33C55.9948 105.258 56.6271 105.189 57.3145 105.12C57.9218 100.934 58.5546 96.6181 59.2178 92.1734C60.0933 86.3057 60.9701 80.792 61.8477 75.6344C62.7252 70.4767 63.5579 65.9725 64.3467 62.1295L64.3564 62.0816L64.3672 62.0347C65.2341 58.1909 66.0354 55.1722 66.7871 53.3121C68.1249 49.9717 70.3954 47.1626 73.3418 44.8453C76.0437 42.6389 78.8918 40.803 81.8867 39.3619C84.7854 37.9243 87.6004 36.7856 90.3262 35.9762C92.7975 35.2423 95.1839 34.691 97.1221 34.691L97.4893 34.7027C99.2871 34.8229 100.492 35.8023 101.058 36.3775C101.685 37.015 102.086 37.7051 102.328 38.1754C102.808 39.1056 103.181 40.2124 103.492 41.3033C104.247 43.5359 104.953 46.3857 105.628 49.7681L105.927 51.1168C106.622 54.3114 107.31 57.9331 107.994 61.9742C108.874 66.5175 109.705 71.3219 110.484 76.3863C111.261 81.4339 111.989 86.6131 112.669 91.9234C113.217 95.6097 113.738 99.1849 114.237 102.648C114.802 102.664 115.316 102.681 115.777 102.705C116.498 102.741 117.172 102.791 117.75 102.865C117.92 102.887 118.107 102.915 118.304 102.95C118.341 102.747 118.378 102.546 118.415 102.348L118.417 102.337C118.884 99.876 119.21 98.1325 119.396 97.0904L119.407 97.0308L119.419 96.9713C119.74 95.4003 120.102 93.6706 120.506 91.7828C120.905 89.9159 121.273 88.1714 121.608 86.5494L121.634 86.4273L121.665 86.3062C122.105 84.6105 122.482 83.1626 122.797 81.9508L122.836 81.7994L122.885 81.651C123.126 80.9137 123.407 80.1573 123.741 79.4849C123.909 79.1481 124.14 78.7284 124.451 78.3062C124.672 78.0058 125.075 77.5123 125.69 77.0543C127.533 75.6293 129.578 75.929 130.168 76.0347C130.948 76.1746 131.658 76.4467 132.211 76.692C133.51 77.1733 134.734 77.8375 135.882 78.6392C137.196 79.4326 138.402 80.3615 139.481 81.4342C139.977 81.9262 140.537 82.5305 141.043 83.234C141.276 83.1884 141.508 83.1423 141.737 83.0992C143.619 82.7062 145.456 82.4932 147.228 82.5094L147.263 82.5094L147.298 82.5103C149.249 82.5553 151.147 82.9073 152.952 83.606C154.171 84.0226 155.299 84.6094 156.338 85.3326C156.454 82.6103 156.57 80.123 156.687 77.8717L156.691 77.7838L156.699 77.6969C156.898 75.4133 157.034 73.5512 157.109 72.0963L157.114 71.9996L157.123 71.9029C157.198 71.0759 157.264 70.4018 157.32 69.898C157.348 69.6491 157.377 69.4095 157.407 69.1998C157.418 69.1223 157.481 68.6525 157.625 68.1803L157.716 67.8824L157.844 67.5982C158.554 66.0128 159.796 65.1943 160.579 64.8082C161.243 64.4806 161.9 64.3019 162.438 64.1939C163.521 63.9042 164.617 63.7995 165.695 63.8336C166.934 63.7943 168.161 63.953 169.354 64.3179C170.445 64.6515 172.172 65.3712 173.353 67.0504L173.581 67.4L173.758 67.689L173.894 68.0006C174.25 68.8178 174.407 69.7749 174.475 70.1783C174.477 70.1928 174.479 70.2075 174.481 70.2222C174.679 69.2501 175.022 68.363 175.396 67.5982C176.038 66.1841 176.829 64.8659 177.782 63.6656C178.733 62.4686 179.856 61.3852 181.187 60.5543C182.455 59.7186 184.943 58.4986 187.735 59.6021L188.013 59.7193L188.358 59.8902C189.126 60.305 189.617 60.8202 189.865 61.108C190.182 61.4758 190.4 61.8276 190.538 62.0689C190.812 62.5492 191.011 63.0341 191.148 63.4039C191.434 64.1706 191.706 65.1175 191.969 66.147C192.493 68.2005 193.065 70.8373 193.688 74.025C194.399 77.2195 195.097 80.8612 195.783 84.94C196.412 88.6744 197.055 92.4969 197.719 96.44C197.997 95.5234 198.336 94.6339 198.741 93.776C199.546 92.0326 200.635 90.5414 201.958 89.2984C201.768 89.2323 201.576 89.1606 201.388 89.0797C200.919 88.8787 199.506 88.249 198.577 86.7349L198.415 86.4693L198.286 86.1861C197.797 85.1073 197.783 84.0852 197.778 83.7847C197.771 83.3061 197.806 82.8345 197.85 82.4303C197.937 81.6164 198.104 80.6393 198.318 79.5592C198.761 77.2629 199.338 74.8231 200.044 72.2447L200.064 72.1695L200.087 72.0943C200.89 69.4832 201.782 66.9901 202.765 64.6178L202.796 64.5426L202.829 64.4693C203.876 62.1548 205.458 59.3721 208.064 57.981L208.364 57.8258C211.469 56.2597 214.893 55.9186 218.375 56.4752C221.635 56.986 224.781 57.9276 227.805 59.2916C230.663 60.5811 233.266 62.0239 235.585 63.6353C237.485 64.9551 239.386 66.4151 240.527 67.9078L240.993 68.5181C241.412 69.0898 241.799 69.6851 242.159 70.3004C242.651 71.0699 243.03 71.9103 243.331 72.7584C243.444 72.2118 243.681 71.3032 244.228 70.4244C245.367 68.5048 247.254 67.9265 248.271 67.7701C249.305 67.6109 250.27 67.7245 250.946 67.8433L250.947 67.8424C250.962 67.8448 250.977 67.8477 250.991 67.8502C251.001 67.8519 251.01 67.8534 251.02 67.8551C252.433 68.0978 253.81 68.5463 255.145 69.1451C256.563 69.6693 257.905 70.3417 259.161 71.1666C260.412 71.9124 261.897 73.0178 262.841 74.6685L262.93 74.8238C264.639 74.095 266.359 73.5342 268.087 73.1607C270.186 72.6411 272.304 72.451 274.406 72.6656C276.506 72.8006 278.514 73.3803 280.335 74.4654L280.704 74.6929L280.893 74.815L281.069 74.9527C282.604 76.1466 283.738 77.824 284.615 79.4625C285.638 81.2213 286.46 83.1848 287.115 85.3082C287.864 87.4717 288.418 89.7427 288.791 92.1119C289.257 94.4602 289.5 96.7667 289.5 99.024ZM266 99.774C266 101.818 265.958 104.258 265.875 107.086C265.874 109.922 265.832 112.993 265.75 116.299C265.75 118.117 265.736 119.873 265.71 121.567C265.767 120.526 265.825 119.466 265.882 118.386C266.049 115.126 266.216 112.113 266.384 109.347L266.389 109.278L266.395 109.21C266.64 106.424 266.8 104.089 266.879 102.191L266.884 102.087L266.893 101.984C266.975 100.995 267.035 100.219 267.074 99.649C267.094 99.3636 267.108 99.1425 267.116 98.9791C267.125 98.7981 267.125 98.7473 267.125 98.774C267.125 97.646 267 96.6392 266.774 95.7369L266.731 95.566L266.701 95.3931C266.595 94.7917 266.476 94.2788 266.354 93.8443C266.327 93.8696 266.305 93.8923 266.287 93.9137C266.243 94.0473 266.188 94.2251 266.119 94.4517C266.05 94.8714 266 95.4289 266 96.149L266 99.774Z" fill="black"/>
</svg>
