<svg width="357" height="210" viewBox="0 0 357 210" fill="none" xmlns="http://www.w3.org/2000/svg">
<path d="M248.5 113.024C248.5 114.358 248.333 116.274 248 118.774C247.75 121.274 247.375 124.024 246.875 127.024C246.375 129.941 245.833 132.983 245.25 136.149C244.75 139.233 244.208 142.066 243.625 144.649C243.125 147.233 242.667 149.399 242.25 151.149C241.917 152.899 241.708 153.858 241.625 154.024C241.458 154.274 241 154.441 240.25 154.524C239.583 154.524 238.792 154.441 237.875 154.274C237.042 154.108 236.25 153.858 235.5 153.524C234.833 153.191 234.417 152.774 234.25 152.274C234.167 151.941 234.125 150.774 234.125 148.774C234.208 146.774 234.292 144.399 234.375 141.649C234.542 138.816 234.708 135.816 234.875 132.649C235.042 129.399 235.208 126.399 235.375 123.649C235.625 120.816 235.792 118.399 235.875 116.399C236.042 114.399 236.125 113.191 236.125 112.774C236.125 111.274 235.958 109.858 235.625 108.524C235.375 107.108 235.042 105.899 234.625 104.899C234.208 103.899 233.708 103.149 233.125 102.649C232.625 102.066 232.167 101.858 231.75 102.024C230.667 102.191 229.75 102.483 229 102.899C228.25 103.233 227.625 103.608 227.125 104.024C226.542 104.524 226.083 105.108 225.75 105.774C225.667 105.941 225.5 106.441 225.25 107.274C225.083 108.108 225 109.066 225 110.149C225 110.483 225 111.691 225 113.774C225 115.774 224.958 118.191 224.875 121.024C224.875 123.858 224.833 126.941 224.75 130.274C224.75 133.524 224.708 136.566 224.625 139.399C224.625 142.149 224.583 144.524 224.5 146.524C224.417 148.524 224.333 149.649 224.25 149.899C224.083 150.399 223.667 151.108 223 152.024C222.333 152.858 221.583 153.649 220.75 154.399C219.917 155.149 219.125 155.733 218.375 156.149C217.625 156.483 217.125 156.399 216.875 155.899C216.625 155.649 216.375 154.441 216.125 152.274C215.875 150.024 215.583 147.316 215.25 144.149C215 140.899 214.708 137.399 214.375 133.649C214.042 129.816 213.75 126.149 213.5 122.649C213.25 119.149 213.042 115.983 212.875 113.149C212.708 110.316 212.583 108.274 212.5 107.024C212.417 105.274 212.333 103.316 212.25 101.149C212.167 98.8993 212.083 96.816 212 94.8993C212 92.8993 212 91.191 212 89.7743C212.083 88.2743 212.25 87.3577 212.5 87.0243C212.667 86.691 213.208 86.6077 214.125 86.7743C215.125 86.941 216.167 87.2743 217.25 87.7743C218.417 88.191 219.5 88.7327 220.5 89.3993C221.5 89.9827 222.167 90.566 222.5 91.1493C222.667 91.6493 222.875 92.2327 223.125 92.8993C223.375 93.4827 223.583 94.4827 223.75 95.8993C225.167 95.066 226.708 94.316 228.375 93.6493C230.042 92.8993 231.667 92.3577 233.25 92.0243C234.917 91.6077 236.5 91.4827 238 91.6493C239.5 91.7327 240.833 92.1493 242 92.8993C242.75 93.4827 243.5 94.4827 244.25 95.8993C245.083 97.316 245.792 98.9827 246.375 100.899C247.042 102.816 247.542 104.858 247.875 107.024C248.292 109.108 248.5 111.108 248.5 113.024Z" fill="white"/>
<path d="M199.661 113.677C200.161 114.26 200.619 114.885 201.036 115.552C201.452 116.135 201.827 116.969 202.161 118.052C202.494 119.052 202.744 120.385 202.911 122.052C203.161 123.719 203.286 125.885 203.286 128.552C203.286 132.802 203.161 137.094 202.911 141.427C202.744 145.677 202.577 149.427 202.411 152.677C202.327 155.594 202.244 158.302 202.161 160.802C202.077 163.302 201.994 165.51 201.911 167.427C201.827 169.26 201.702 170.719 201.536 171.802C201.452 172.885 201.369 173.469 201.286 173.552C200.952 173.802 200.411 173.719 199.661 173.302C198.994 172.802 198.244 172.177 197.411 171.427C196.661 170.677 195.952 169.885 195.286 169.052C194.619 168.219 194.202 167.552 194.036 167.052C194.036 166.635 193.911 165.427 193.661 163.427C191.661 164.594 189.452 165.427 187.036 165.927C184.619 166.344 182.202 166.51 179.786 166.427C177.452 166.26 175.286 165.802 173.286 165.052C171.286 164.302 169.786 163.302 168.786 162.052C168.369 161.552 167.994 160.802 167.661 159.802C167.411 158.802 167.161 157.677 166.911 156.427C166.744 155.094 166.577 153.719 166.411 152.302C166.244 150.802 166.119 149.427 166.036 148.177C165.869 144.927 166.286 142.135 167.286 139.802C168.286 137.385 170.119 135.594 172.786 134.427C173.952 133.927 175.494 133.677 177.411 133.677C179.411 133.594 181.369 133.677 183.286 133.927C185.286 134.094 187.077 134.344 188.661 134.677C190.244 134.927 191.244 135.135 191.661 135.302C191.327 131.052 191.077 127.385 190.911 124.302C190.744 121.135 190.411 119.094 189.911 118.177C189.494 117.594 188.994 117.01 188.411 116.427C187.911 116.01 187.244 115.552 186.411 115.052C185.577 114.552 184.577 114.177 183.411 113.927C182.494 113.76 181.661 114.135 180.911 115.052C180.244 115.885 179.619 117.385 179.036 119.552C178.536 121.635 178.244 124.844 178.161 129.177C175.244 129.26 172.994 129.26 171.411 129.177C169.911 129.01 168.786 128.844 168.036 128.677C167.119 128.51 166.577 128.302 166.411 128.052C166.244 127.719 166.327 126.51 166.661 124.427C166.994 122.26 167.452 119.927 168.036 117.427C168.702 114.927 169.452 112.552 170.286 110.302C171.202 108.052 172.161 106.635 173.161 106.052C175.161 104.885 177.536 104.469 180.286 104.802C183.119 105.135 185.869 105.844 188.536 106.927C191.202 108.01 193.577 109.219 195.661 110.552C197.744 111.885 199.077 112.927 199.661 113.677ZM191.911 150.177C191.911 149.76 191.952 149.219 192.036 148.552C192.119 147.802 192.161 147.052 192.161 146.302C192.161 145.552 192.119 144.844 192.036 144.177C192.036 143.51 191.952 143.01 191.786 142.677C191.536 142.177 190.786 141.76 189.536 141.427C188.369 141.094 187.036 140.885 185.536 140.802C184.036 140.635 182.619 140.594 181.286 140.677C179.952 140.677 179.036 140.844 178.536 141.177C177.869 141.594 177.369 142.177 177.036 142.927C176.786 143.677 176.619 144.844 176.536 146.427C176.536 147.177 176.577 147.969 176.661 148.802C176.744 149.635 176.827 150.469 176.911 151.302C177.077 152.052 177.244 152.719 177.411 153.302C177.661 153.885 177.911 154.26 178.161 154.427C178.744 154.844 179.744 155.219 181.161 155.552C182.661 155.802 184.161 155.885 185.661 155.802C187.161 155.635 188.536 155.135 189.786 154.302C191.036 153.469 191.744 152.094 191.911 150.177Z" fill="white"/>
<path d="M157.193 87.4274C157.422 87.6213 157.506 88.7213 157.445 90.7273C157.384 92.7333 157.21 95.3555 156.924 98.594C156.731 101.759 156.403 105.37 155.939 109.427C155.476 113.484 154.999 117.665 154.508 121.971C154.016 126.276 153.488 130.535 152.923 134.749C152.451 138.888 151.933 142.687 151.371 146.146C150.901 149.531 150.446 152.415 150.006 154.797C149.649 157.189 149.35 158.706 149.109 159.35C148.887 159.828 148.305 160.516 147.363 161.415C146.495 162.406 145.462 163.379 144.263 164.332C143.063 165.286 141.837 166.11 140.583 166.806C139.403 167.594 138.426 168.069 137.653 168.233C136.106 168.559 134.459 168.288 132.713 167.417C130.967 166.547 129.328 165.479 127.795 164.214C126.344 162.958 125.069 161.638 123.969 160.254C122.942 158.963 122.333 158.055 122.141 157.53C121.95 157.004 121.786 156.231 121.651 155.209C121.59 154.279 121.569 153.354 121.591 152.434C121.621 151.431 121.716 150.603 121.874 149.95C122.125 149.224 122.457 148.885 122.871 148.932C123.202 148.97 124.029 149.442 125.352 150.347C126.757 151.263 128.24 152.229 129.802 153.246C131.372 154.18 132.833 154.976 134.184 155.633C135.535 156.291 136.409 156.348 136.806 155.807C137.213 155.182 137.747 153.44 138.409 150.58C139.081 147.637 139.823 144.073 140.636 139.888C137.625 140.551 134.9 140.911 132.461 140.968C130.114 140.952 128.216 140.316 126.766 139.06C126.077 138.478 125.39 137.519 124.704 136.182C124.1 134.855 123.557 133.368 123.074 131.719C122.684 129.997 122.386 128.201 122.18 126.333C121.983 124.381 121.979 122.577 122.168 120.921C122.3 119.762 122.614 118.121 123.108 115.996C123.685 113.881 124.368 111.569 125.158 109.059C125.947 106.549 126.747 103.956 127.555 101.281C128.447 98.6146 129.268 96.1921 130.02 94.0134C130.855 91.844 131.523 90.0331 132.024 88.5806C132.618 87.0547 132.966 86.2137 133.067 86.0576C133.261 85.8281 133.689 85.7512 134.352 85.8268C135.023 85.8196 135.723 85.9413 136.449 86.1919C137.184 86.3598 137.865 86.6471 138.489 87.0539C139.114 87.4607 139.485 87.8805 139.604 88.3134C139.649 88.654 139.53 89.689 139.249 91.4182C139.051 93.1569 138.69 95.2127 138.168 97.5854C137.728 99.9676 137.223 102.552 136.654 105.339C136.176 108.052 135.672 110.636 135.14 113.092C134.7 115.474 134.298 117.525 133.934 119.245C133.57 120.965 133.369 121.99 133.331 122.321C133.18 123.646 133.158 124.944 133.264 126.214C133.463 127.411 133.718 128.488 134.028 129.446C134.43 130.331 134.851 131.05 135.291 131.604C135.731 132.157 136.168 132.375 136.601 132.256C138.037 132.169 139.358 131.984 140.564 131.702C141.172 131.52 141.739 131.333 142.264 131.141C142.975 127.113 143.696 123.001 144.426 118.807C145.166 114.53 145.822 110.621 146.394 107.08C146.966 103.538 147.435 100.53 147.802 98.056C148.251 95.591 148.513 94.0273 148.589 93.365C148.674 92.6198 149.099 91.8296 149.866 90.9945C150.641 90.0765 151.486 89.2922 152.399 88.6416C153.312 87.9909 154.201 87.5473 155.067 87.3106C156.025 87.0006 156.734 87.0395 157.193 87.4274Z" fill="white"/>
<path d="M105.265 96.3056C105.976 96.6412 106.694 97.3955 107.42 98.5685C108.219 99.6489 108.96 100.946 109.642 102.46C110.397 103.881 111.043 105.441 111.579 107.14C112.198 108.829 112.72 110.404 113.144 111.864C113.651 113.315 114.01 114.573 114.219 115.639C114.419 116.622 114.493 117.243 114.439 117.501C114.313 117.852 113.855 118.241 113.067 118.67C112.361 119.089 111.288 119.593 109.847 120.183C108.406 120.773 106.391 121.472 103.801 122.282C103.098 117.749 102.362 114.354 101.592 112.095C100.812 109.754 100.073 108.121 99.3768 107.196C98.5779 106.116 97.806 105.62 97.0612 105.708C96.3555 106.127 95.7423 106.619 95.2216 107.184C94.6911 107.666 94.2483 108.18 93.8932 108.725C93.4651 109.363 93.0832 110.037 92.7476 110.748C92.6114 111.016 92.5143 111.615 92.4563 112.545C92.3983 113.475 92.394 114.86 92.4435 116.7C92.5119 117.279 92.6122 118.484 92.7445 120.315C92.9595 122.135 93.1673 124.251 93.368 126.66C93.6514 129.06 93.9081 131.589 94.1381 134.247C94.4508 136.896 94.7027 139.383 94.8936 141.71C95.1574 143.945 95.3408 145.853 95.4438 147.435C95.6295 149.008 95.6956 149.923 95.6421 150.181C95.5255 150.614 95.1801 151.242 94.606 152.065C94.0319 152.889 93.3701 153.68 92.6208 154.44C91.8616 155.117 91.134 155.706 90.4381 156.208C89.7323 156.627 89.2309 156.644 88.9337 156.26C88.6562 156.041 88.2808 154.994 87.8078 153.12C87.3347 151.246 86.7714 148.963 86.1179 146.271C85.5373 143.487 84.886 140.459 84.1641 137.187C83.4421 133.916 82.7762 130.764 82.1663 127.731C81.5564 124.699 81.027 121.992 80.5781 119.612C80.1194 117.149 79.7851 115.384 79.5753 114.318C79.3068 112.755 79.0189 111.027 78.7113 109.133C78.4038 107.24 78.1109 105.47 77.8327 103.825C77.6274 102.087 77.4515 100.597 77.3049 99.3558C77.2313 98.0219 77.304 97.2161 77.5229 96.9385C77.6591 96.6707 78.1922 96.5658 79.1221 96.6238C80.1249 96.5893 81.1887 96.7154 82.3135 97.0022C83.5112 97.1964 84.6408 97.5245 85.7023 97.9865C86.7638 98.4485 87.4894 98.9083 87.8791 99.3658C88.1762 99.7502 88.4978 100.342 88.8438 101.14C90.3185 100.127 91.7201 99.2058 93.0488 98.3776C94.4505 97.4569 95.7939 96.7528 97.0789 96.2654C98.4467 95.7682 99.8025 95.5242 101.146 95.5334C102.48 95.4597 103.853 95.7172 105.265 96.3056Z" fill="white"/>
<path d="M73.25 122.316C73.4167 122.566 73.375 123.399 73.125 124.816C72.9583 126.233 72.6667 127.774 72.25 129.441C71.9167 131.108 71.5417 132.691 71.125 134.191C70.7917 135.608 70.5 136.441 70.25 136.691L69 136.691C68.75 136.691 68.5 136.649 68.25 136.566C68.6667 140.566 69 143.774 69.25 146.191C69.5 148.608 69.625 149.941 69.625 150.191C69.625 150.774 69.3333 151.608 68.75 152.691C68.25 153.774 67.6667 154.774 67 155.691C66.3333 156.608 65.625 157.316 64.875 157.816C64.2083 158.399 63.75 158.441 63.5 157.941C63.0833 157.191 62.2083 154.941 60.875 151.191C59.5417 147.441 58.0417 142.316 56.375 135.816C54.7083 135.649 52.9583 135.483 51.125 135.316C49.375 135.149 47.5833 134.983 45.75 134.816C43.9167 134.649 42.0833 134.441 40.25 134.191C38.5 133.858 36.7917 133.566 35.125 133.316C34.2917 136.983 33.4583 140.441 32.625 143.691C31.875 146.941 31.125 149.774 30.375 152.191C29.7083 154.608 29.125 156.524 28.625 157.941C28.125 159.358 27.75 160.066 27.5 160.066C26.8333 160.066 26.1667 159.649 25.5 158.816C24.8333 157.983 24.2083 156.983 23.625 155.816C23.125 154.649 22.7083 153.441 22.375 152.191C22.0417 150.941 21.875 149.899 21.875 149.066C22.0417 147.149 22.25 145.149 22.5 143.066C22.8333 140.983 23.0833 139.066 23.25 137.316C23.5 135.233 23.75 133.191 24 131.191L23.5 131.191C23.1667 131.024 22.7083 130.649 22.125 130.066C21.5417 129.483 20.9583 128.899 20.375 128.316C19.7917 127.649 19.2917 127.024 18.875 126.441C18.4583 125.774 18.25 125.274 18.25 124.941C18.25 124.774 18.8333 124.608 20 124.441C21.25 124.274 22.875 124.108 24.875 123.941C25.5417 118.941 26.25 113.733 27 108.316C27.75 102.899 28.5 97.816 29.25 93.066C30 88.316 30.7083 84.191 31.375 80.691C32.125 77.1077 32.75 74.6493 33.25 73.316C34.0833 71.066 35.5417 69.066 37.625 67.316C39.7083 65.4827 41.875 63.9827 44.125 62.816C46.4583 61.566 48.6667 60.6077 50.75 59.941C52.8333 59.2743 54.375 58.941 55.375 58.941C55.7917 58.941 56.25 59.8993 56.75 61.816C57.3333 63.6493 57.9167 66.1493 58.5 69.316C59.1667 72.4827 59.8333 76.191 60.5 80.441C61.25 84.6077 61.9583 89.0243 62.625 93.691C63.2917 98.3577 63.9167 103.149 64.5 108.066C65.1667 112.899 65.7917 117.524 66.375 121.941C70.5417 121.941 72.8333 122.066 73.25 122.316ZM37.5 123.066C40.1667 122.899 42.8333 122.774 45.5 122.691C48.1667 122.608 50.7917 122.483 53.375 122.316C52.7083 119.066 51.9583 115.441 51.125 111.441C50.4583 108.024 49.6667 104.024 48.75 99.441C47.8333 94.8577 46.9167 89.816 46 84.316C45 89.2327 44 94.0243 43 98.691C42 103.274 41.0833 107.399 40.25 111.066C39.3333 115.316 38.4167 119.316 37.5 123.066Z" fill="white"/>
<path d="M203.286 128.552C203.286 125.886 203.161 123.719 202.911 122.052C202.744 120.386 202.494 119.052 202.161 118.052C201.828 116.969 201.453 116.136 201.036 115.552C200.62 114.886 200.161 114.261 199.661 113.677C199.151 113.021 198.066 112.141 196.407 111.039L195.661 110.552C193.838 109.386 191.792 108.315 189.522 107.339L188.536 106.927C186.036 105.912 183.463 105.225 180.816 104.869L180.286 104.802C177.536 104.469 175.161 104.886 173.161 106.052L172.974 106.171C172.041 106.816 171.145 108.193 170.286 110.302L169.978 111.152C169.267 113.148 168.619 115.24 168.036 117.427L167.823 118.357C167.34 120.508 166.953 122.532 166.661 124.427C166.328 126.511 166.244 127.719 166.411 128.052C166.578 128.302 167.12 128.511 168.036 128.677C168.786 128.844 169.911 129.011 171.411 129.177L172.036 129.205C173.567 129.259 175.609 129.25 178.161 129.177C178.244 124.844 178.536 121.636 179.036 119.552C179.619 117.386 180.244 115.886 180.911 115.052C181.661 114.136 182.494 113.761 183.411 113.927C184.578 114.177 185.578 114.552 186.411 115.052C187.244 115.552 187.911 116.011 188.411 116.427C188.994 117.011 189.495 117.594 189.911 118.177C190.411 119.094 190.744 121.136 190.911 124.302C191.078 127.386 191.328 131.052 191.661 135.302C191.245 135.136 190.244 134.927 188.661 134.677C187.078 134.344 185.286 134.094 183.286 133.927C181.37 133.677 179.411 133.594 177.411 133.677L176.71 133.689C175.115 133.744 173.807 133.99 172.786 134.427C170.119 135.594 168.286 137.386 167.286 139.802C166.286 142.136 165.869 144.927 166.036 148.177C166.119 149.427 166.244 150.802 166.411 152.302C166.578 153.719 166.744 155.094 166.911 156.427C167.161 157.677 167.411 158.802 167.661 159.802C167.994 160.802 168.37 161.552 168.786 162.052C169.786 163.302 171.286 164.302 173.286 165.052C175.286 165.802 177.453 166.261 179.786 166.427C181.901 166.5 184.015 166.382 186.13 166.072L187.036 165.927C189.453 165.427 191.661 164.594 193.661 163.427C193.911 165.427 194.036 166.636 194.036 167.052C194.203 167.552 194.62 168.219 195.286 169.052C195.953 169.886 196.661 170.677 197.411 171.427C198.244 172.177 198.995 172.802 199.661 173.302C200.364 173.693 200.884 173.79 201.221 173.595L201.286 173.552C201.369 173.469 201.453 172.885 201.536 171.802C201.661 170.99 201.763 169.966 201.841 168.732L201.911 167.427C201.953 166.469 201.994 165.438 202.036 164.334L202.161 160.802C202.244 158.302 202.328 155.594 202.411 152.677C202.578 149.427 202.744 145.677 202.911 141.427C203.13 137.636 203.253 133.876 203.28 130.148L203.286 128.552ZM133.003 82.8746C133.537 82.7786 134.057 82.7884 134.503 82.8287C135.45 82.8395 136.381 83.0119 137.283 83.3092C138.297 83.5597 139.25 83.9686 140.127 84.5396C140.988 85.1006 142.092 86.0407 142.497 87.522L142.551 87.7183L142.578 87.9205C142.657 88.519 142.581 89.2343 142.529 89.6851C142.464 90.2543 142.36 90.973 142.222 91.8248C142.008 93.6662 141.633 95.7863 141.109 98.1715C140.67 100.55 140.168 103.124 139.603 105.892C139.125 108.604 138.618 111.194 138.085 113.662C137.644 116.05 137.239 118.119 136.869 119.866C136.688 120.719 136.55 121.389 136.454 121.88C136.406 122.126 136.37 122.319 136.345 122.462C136.317 122.621 136.31 122.673 136.312 122.662C136.187 123.756 136.167 124.814 136.245 125.84C136.408 126.795 136.606 127.631 136.831 128.356C136.987 128.687 137.135 128.964 137.272 129.194C138.121 129.113 138.903 128.994 139.621 128.838L141.471 118.293C142.209 114.026 142.863 110.129 143.433 106.601C144.003 103.068 144.47 100.074 144.834 97.6168L144.841 97.567L144.851 97.5181C145.306 95.021 145.547 93.5668 145.608 93.025L145.65 92.7232C145.895 91.2771 146.682 90.0519 147.574 89.0582L147.927 88.6539C148.759 87.7257 149.669 86.904 150.658 86.1988C151.751 85.4203 152.913 84.8126 154.144 84.4566L154.389 84.3814C155.618 84.0259 157.432 83.8221 158.971 85.0084L159.129 85.1363L159.305 85.2955C159.688 85.6717 159.894 86.0651 159.998 86.2906C160.129 86.5761 160.206 86.8415 160.253 87.0357C160.347 87.4228 160.392 87.8234 160.419 88.1695C160.473 88.879 160.475 89.7806 160.443 90.8189C160.38 92.8933 160.203 95.5587 159.918 98.7965C159.72 102.022 159.386 105.68 158.92 109.767C158.457 113.824 157.98 118.005 157.488 122.311C156.997 126.615 156.468 130.874 155.903 135.087L155.904 135.088C155.43 139.24 154.91 143.064 154.343 146.559L153.989 149.028C153.641 151.389 153.298 153.482 152.963 155.302C152.623 157.574 152.29 159.411 151.918 160.403L151.878 160.51L151.829 160.615C151.356 161.631 150.423 162.632 149.521 163.5C148.54 164.606 147.406 165.666 146.13 166.68C144.843 167.703 143.514 168.6 142.144 169.369C140.889 170.197 139.57 170.893 138.272 171.168C135.92 171.664 133.581 171.202 131.375 170.102C129.421 169.128 127.59 167.936 125.885 166.528L125.857 166.504L125.831 166.482C124.252 165.115 122.846 163.662 121.621 162.122C121.08 161.441 120.617 160.822 120.251 160.276C119.914 159.774 119.547 159.171 119.323 158.558C119.018 157.723 118.821 156.692 118.677 155.602L118.664 155.505L118.658 155.408C118.591 154.39 118.569 153.375 118.592 152.365L118.592 152.342C118.626 151.223 118.734 150.17 118.959 149.243L118.992 149.105L119.038 148.971C119.229 148.418 119.556 147.676 120.167 147.052C120.833 146.372 121.815 145.873 122.977 145.932L123.211 145.952L123.41 145.98C123.862 146.058 124.228 146.211 124.421 146.295C124.695 146.416 124.97 146.562 125.227 146.709C125.729 146.995 126.323 147.378 126.989 147.834L131.378 150.692C132.604 151.42 133.748 152.05 134.809 152.589C135.009 151.882 135.235 150.99 135.486 149.903C135.907 148.061 136.354 145.964 136.834 143.614C135.336 143.815 133.901 143.935 132.531 143.967L132.485 143.968L132.44 143.968C129.558 143.948 126.928 143.155 124.829 141.35L124.829 141.351C124.823 141.346 124.817 141.341 124.812 141.336C124.808 141.333 124.805 141.33 124.802 141.328L124.802 141.327C123.688 140.375 122.791 139.025 122.035 137.552L122.002 137.489L121.973 137.424C121.301 135.948 120.711 134.324 120.195 132.562L120.169 132.473L120.148 132.382C119.731 130.543 119.415 128.636 119.197 126.662L119.196 126.647L119.194 126.633C118.98 124.505 118.97 122.484 119.188 120.582C119.34 119.25 119.684 117.475 120.186 115.317L120.198 115.261L120.214 115.207C120.803 113.048 121.497 110.698 122.296 108.159C123.082 105.66 123.878 103.078 124.684 100.413L124.696 100.371L124.71 100.33C125.604 97.6563 126.429 95.2243 127.185 93.0347L127.201 92.9849L127.221 92.9361C128.048 90.7849 128.703 89.0094 129.188 87.6021L129.207 87.5474L129.229 87.4928C129.528 86.7232 129.772 86.1091 129.958 85.6597C130.05 85.4368 130.135 85.2366 130.21 85.0709C130.252 84.9785 130.382 84.6847 130.554 84.4205L130.655 84.2642L130.776 84.1207C131.488 83.2791 132.402 82.9826 133.003 82.8746ZM134.352 85.8267C133.69 85.7512 133.261 85.828 133.067 86.0572L133.018 86.148C132.875 86.4343 132.544 87.2452 132.024 88.5806C131.523 90.0331 130.855 91.844 130.021 94.0133L128.84 97.4644C128.429 98.6756 128.001 99.9479 127.556 101.281L126.35 105.232C125.95 106.528 125.552 107.804 125.157 109.059L124.585 110.905C124.033 112.713 123.54 114.411 123.107 115.997L122.771 117.499C122.469 118.911 122.267 120.052 122.168 120.921C121.979 122.577 121.983 124.381 122.18 126.333C122.386 128.201 122.684 129.997 123.074 131.719C123.557 133.368 124.101 134.855 124.704 136.182C125.39 137.519 126.077 138.478 126.766 139.06C128.125 140.238 129.879 140.87 132.026 140.958L132.461 140.968C134.9 140.911 137.625 140.551 140.637 139.888C139.824 144.073 139.081 147.637 138.409 150.58C137.747 153.439 137.213 155.181 136.807 155.806C136.434 156.314 135.642 156.296 134.432 155.75L134.185 155.633C133.171 155.14 132.096 154.569 130.959 153.92L129.802 153.246C128.24 152.229 126.757 151.263 125.352 150.347C124.029 149.441 123.202 148.97 122.871 148.932C122.457 148.885 122.125 149.225 121.874 149.951L121.817 150.204C121.693 150.813 121.618 151.557 121.591 152.434L121.582 153.126C121.582 153.817 121.605 154.512 121.651 155.21C121.786 156.231 121.95 157.005 122.142 157.53C122.333 158.055 122.942 158.963 123.969 160.254C125.069 161.638 126.345 162.958 127.795 164.213C129.328 165.479 130.967 166.547 132.713 167.418C134.35 168.233 135.899 168.523 137.361 168.287L137.652 168.233C138.426 168.07 139.403 167.594 140.583 166.806C141.68 166.198 142.756 165.49 143.812 164.684L144.263 164.333C145.462 163.379 146.495 162.406 147.363 161.415C148.187 160.628 148.736 160.003 149.009 159.539L149.109 159.349C149.351 158.705 149.649 157.188 150.006 154.797C150.446 152.415 150.901 149.531 151.371 146.146C151.934 142.688 152.451 138.888 152.924 134.749C153.347 131.589 153.75 128.403 154.132 125.191L154.508 121.97L155.939 109.427C156.403 105.37 156.731 101.759 156.925 98.5943C157.175 95.7606 157.339 93.3984 157.417 91.5084L157.445 90.7271C157.507 88.7212 157.422 87.6213 157.192 87.4273C156.733 87.0396 156.025 87.0003 155.067 87.3101C154.202 87.5468 153.311 87.9905 152.398 88.6412C151.485 89.2918 150.641 90.0768 149.865 90.9947C149.099 91.8297 148.674 92.6198 148.589 93.3648C148.513 94.0272 148.251 95.5913 147.802 98.0562L147.508 100.011C147.195 102.067 146.824 104.423 146.395 107.08L145.949 109.804C145.489 112.598 144.982 115.599 144.427 118.807C143.696 123.001 142.975 127.113 142.264 131.141C141.739 131.333 141.172 131.52 140.564 131.703L140.106 131.803C139.026 132.029 137.857 132.18 136.601 132.256L136.52 132.275C136.167 132.337 135.813 132.177 135.456 131.795L135.291 131.604C134.851 131.051 134.43 130.331 134.027 129.447C133.717 128.489 133.464 127.411 133.265 126.214C133.171 125.103 133.176 123.97 133.28 122.817L133.331 122.322C133.35 122.156 133.41 121.817 133.511 121.304L133.935 119.245C134.299 117.525 134.7 115.474 135.14 113.092C135.672 110.637 136.176 108.052 136.653 105.338C137.223 102.552 137.728 99.9676 138.168 97.5855C138.69 95.2129 139.051 93.1572 139.249 91.4185C139.53 89.6893 139.649 88.6537 139.604 88.3131C139.5 87.9344 139.203 87.5653 138.712 87.2066L138.489 87.0543C137.865 86.6476 137.185 86.3598 136.449 86.192C135.723 85.9413 135.023 85.8195 134.352 85.8267ZM18.875 148.936L18.8867 148.806C19.0565 146.854 19.2679 144.821 19.5215 142.709L19.5283 142.65L19.5381 142.592C19.8633 140.56 20.1041 138.707 20.2637 137.032L20.2666 136.995L20.2715 136.959C20.4359 135.588 20.6012 134.236 20.7656 132.902C20.4936 132.665 20.2374 132.421 20.0039 132.187L19.9834 132.167C19.9823 132.165 19.9806 132.165 19.9795 132.164C19.9784 132.163 19.9777 132.161 19.9766 132.16C19.9646 132.148 19.9817 132.165 19.9697 132.153C19.9686 132.152 19.967 132.151 19.9658 132.15C19.9647 132.149 19.964 132.147 19.9629 132.146C19.9618 132.145 19.9601 132.144 19.959 132.143C19.9578 132.142 19.9572 132.14 19.9561 132.139C19.9549 132.138 19.9533 132.137 19.9521 132.136C19.951 132.135 19.9504 132.134 19.9492 132.132C19.9431 132.126 19.9485 132.132 19.9424 132.126C19.9412 132.124 19.9396 132.124 19.9385 132.123C19.9373 132.121 19.9367 132.12 19.9355 132.119L19.9219 132.105C19.9207 132.104 19.9191 132.103 19.918 132.102C19.9168 132.101 19.9162 132.099 19.915 132.098C19.9139 132.097 19.9123 132.096 19.9111 132.095C19.91 132.094 19.9093 132.093 19.9082 132.091C19.8974 132.081 19.9122 132.095 19.9014 132.085C19.9002 132.083 19.8986 132.083 19.8975 132.082C19.8963 132.08 19.8957 132.079 19.8945 132.078L19.874 132.057C19.8729 132.056 19.8713 132.055 19.8701 132.054C19.869 132.053 19.8683 132.052 19.8672 132.05C19.8547 132.038 19.8729 132.056 19.8604 132.044C19.8592 132.042 19.8576 132.042 19.8564 132.041C19.8553 132.039 19.8547 132.038 19.8535 132.037C19.8524 132.036 19.8507 132.035 19.8496 132.034C19.8485 132.033 19.8478 132.031 19.8467 132.03C19.8455 132.029 19.8439 132.028 19.8428 132.027C19.8416 132.026 19.841 132.024 19.8398 132.023C19.834 132.017 19.8389 132.022 19.833 132.016C19.8319 132.015 19.8302 132.014 19.8291 132.013C19.828 132.012 19.8273 132.01 19.8262 132.009L19.8057 131.989C19.8045 131.988 19.8029 131.987 19.8018 131.986C19.8006 131.985 19.8 131.983 19.7988 131.982C19.7884 131.972 19.8024 131.986 19.792 131.975C19.7909 131.974 19.7892 131.973 19.7881 131.972C19.7869 131.971 19.7863 131.969 19.7852 131.968L19.7646 131.948C19.7635 131.947 19.7619 131.946 19.7607 131.945C19.7596 131.944 19.759 131.942 19.7578 131.941C19.7457 131.929 19.7631 131.946 19.751 131.934C19.7498 131.933 19.7482 131.932 19.7471 131.931C19.7459 131.93 19.7453 131.928 19.7441 131.927C19.743 131.926 19.7414 131.926 19.7402 131.924C19.7391 131.923 19.7384 131.922 19.7373 131.92C19.7362 131.919 19.7345 131.919 19.7334 131.918C19.7323 131.916 19.7316 131.915 19.7305 131.914C19.7246 131.908 19.7295 131.913 19.7236 131.907C19.7225 131.906 19.7209 131.905 19.7197 131.904C19.7186 131.903 19.7179 131.901 19.7168 131.9L19.7031 131.886C19.702 131.885 19.7004 131.885 19.6992 131.883C19.6981 131.882 19.6974 131.881 19.6963 131.879C19.6952 131.878 19.6935 131.878 19.6924 131.877C19.6912 131.875 19.6906 131.874 19.6895 131.873C19.6786 131.862 19.6934 131.877 19.6826 131.866C19.6815 131.865 19.6798 131.864 19.6787 131.863C19.6776 131.862 19.6769 131.86 19.6758 131.859L19.6553 131.838C19.6541 131.837 19.6525 131.837 19.6514 131.836C19.6502 131.834 19.6496 131.833 19.6484 131.832C19.6365 131.82 19.6536 131.837 19.6416 131.825C19.6405 131.824 19.6388 131.823 19.6377 131.822C19.6366 131.821 19.6359 131.819 19.6348 131.818C19.6336 131.817 19.632 131.816 19.6309 131.815C19.6297 131.814 19.6291 131.812 19.6279 131.811C19.6268 131.81 19.6252 131.809 19.624 131.808C19.6229 131.807 19.6222 131.805 19.6211 131.804C19.615 131.798 19.6203 131.804 19.6143 131.797C19.6131 131.796 19.6115 131.796 19.6104 131.795C19.6092 131.793 19.6086 131.792 19.6074 131.791L19.5869 131.77C19.5858 131.769 19.5841 131.768 19.583 131.767C19.5819 131.766 19.5812 131.764 19.5801 131.763C19.5693 131.752 19.5841 131.767 19.5732 131.756C19.5721 131.755 19.5705 131.755 19.5693 131.753C19.5682 131.752 19.5675 131.751 19.5664 131.75L19.5459 131.729C19.5448 131.728 19.5431 131.727 19.542 131.726C19.5409 131.725 19.5402 131.723 19.5391 131.722C19.5263 131.71 19.5449 131.728 19.5322 131.715C19.5311 131.714 19.5295 131.714 19.5283 131.712C19.5272 131.711 19.5265 131.71 19.5254 131.709C19.5243 131.707 19.5226 131.707 19.5215 131.706C19.5203 131.704 19.5197 131.703 19.5186 131.702C19.5174 131.701 19.5158 131.7 19.5146 131.699C19.5135 131.698 19.5129 131.696 19.5117 131.695C19.5055 131.689 19.5111 131.694 19.5049 131.688C19.5037 131.687 19.5021 131.686 19.501 131.685C19.4998 131.684 19.4992 131.682 19.498 131.681L19.4844 131.668C19.4832 131.666 19.4816 131.666 19.4805 131.665C19.4793 131.663 19.4787 131.662 19.4775 131.661C19.4764 131.66 19.4748 131.659 19.4736 131.658C19.4725 131.657 19.4718 131.655 19.4707 131.654C19.4601 131.643 19.4745 131.658 19.4639 131.647C19.4627 131.646 19.4611 131.645 19.46 131.644C19.4588 131.643 19.4582 131.641 19.457 131.64L19.4365 131.62C19.4354 131.619 19.4338 131.618 19.4326 131.617C19.4315 131.616 19.4308 131.614 19.4297 131.613C19.4177 131.601 19.4348 131.618 19.4229 131.606C19.4217 131.605 19.4201 131.604 19.4189 131.603C19.4178 131.602 19.4172 131.6 19.416 131.599C19.4149 131.598 19.4132 131.597 19.4121 131.596C19.411 131.595 19.4103 131.593 19.4092 131.592C19.408 131.591 19.4064 131.591 19.4053 131.589C19.4041 131.588 19.4035 131.587 19.4023 131.586C19.3961 131.579 19.4018 131.585 19.3955 131.579C19.3944 131.578 19.3927 131.577 19.3916 131.576C19.3905 131.575 19.3898 131.573 19.3887 131.572L19.3682 131.551C19.367 131.55 19.3654 131.55 19.3643 131.548C19.3631 131.547 19.3625 131.546 19.3613 131.545C19.3509 131.534 19.3649 131.548 19.3545 131.538C19.3534 131.537 19.3517 131.536 19.3506 131.535C19.3494 131.534 19.3488 131.532 19.3477 131.531L19.3271 131.51C19.326 131.509 19.3244 131.509 19.3232 131.507C19.3221 131.506 19.3215 131.505 19.3203 131.503C19.308 131.491 19.3258 131.509 19.3135 131.497C19.3123 131.496 19.3107 131.495 19.3096 131.494C19.3084 131.493 19.3078 131.491 19.3066 131.49C19.3055 131.489 19.3039 131.488 19.3027 131.487C19.3016 131.486 19.3009 131.484 19.2998 131.483C19.2987 131.482 19.297 131.481 19.2959 131.48C19.2948 131.479 19.2941 131.477 19.293 131.476C19.2871 131.47 19.292 131.475 19.2861 131.469C19.285 131.468 19.2834 131.468 19.2822 131.466C19.2811 131.465 19.2804 131.464 19.2793 131.462L19.2588 131.442C19.2577 131.441 19.256 131.44 19.2549 131.439C19.2537 131.438 19.2531 131.436 19.252 131.435C19.2415 131.425 19.2556 131.439 19.2451 131.428C19.244 131.427 19.2423 131.427 19.2412 131.425C19.2401 131.424 19.2394 131.423 19.2383 131.421L19.2178 131.401C19.2166 131.4 19.215 131.399 19.2139 131.398C19.2127 131.397 19.2121 131.395 19.2109 131.394C19.1984 131.382 19.2166 131.4 19.2041 131.387C19.203 131.386 19.2013 131.385 19.2002 131.384C19.1991 131.383 19.1984 131.382 19.1973 131.38C19.1961 131.379 19.1945 131.379 19.1934 131.378C19.1922 131.376 19.1916 131.375 19.1904 131.374C19.1893 131.372 19.1877 131.372 19.1865 131.371C19.1854 131.37 19.1847 131.368 19.1836 131.367C19.1771 131.36 19.1832 131.366 19.1768 131.36C19.1756 131.359 19.174 131.358 19.1729 131.357C19.1717 131.356 19.1711 131.354 19.1699 131.353L19.1494 131.333C19.1483 131.331 19.1466 131.331 19.1455 131.33C19.1444 131.329 19.1437 131.327 19.1426 131.326C19.1318 131.315 19.1466 131.33 19.1357 131.319C19.1346 131.318 19.133 131.317 19.1318 131.316C19.1307 131.315 19.13 131.313 19.1289 131.312L19.1084 131.292C19.1073 131.29 19.1056 131.29 19.1045 131.289C19.1034 131.288 19.1027 131.286 19.1016 131.285C19.0894 131.273 19.1069 131.29 19.0947 131.278C19.0936 131.277 19.092 131.276 19.0908 131.275C19.0897 131.274 19.089 131.272 19.0879 131.271C19.0868 131.27 19.0851 131.269 19.084 131.268C19.0828 131.267 19.0822 131.265 19.0811 131.264C19.0799 131.263 19.0783 131.262 19.0771 131.261C19.076 131.26 19.0754 131.259 19.0742 131.257C19.0681 131.251 19.0735 131.257 19.0674 131.251C19.0662 131.249 19.0646 131.249 19.0635 131.248C19.0623 131.246 19.0617 131.245 19.0605 131.244L19.0469 131.23C19.0457 131.229 19.0441 131.228 19.043 131.227C19.0418 131.226 19.0412 131.224 19.04 131.223C19.0389 131.222 19.0373 131.221 19.0361 131.22C19.035 131.219 19.0343 131.218 19.0332 131.216C19.0224 131.206 19.0372 131.22 19.0264 131.21C19.0252 131.208 19.0236 131.208 19.0225 131.207C19.0213 131.205 19.0207 131.204 19.0195 131.203L18.999 131.182C18.9979 131.181 18.9963 131.18 18.9951 131.179C18.994 131.178 18.9933 131.177 18.9922 131.175C18.98 131.163 18.9975 131.181 18.9854 131.169C18.9842 131.167 18.9826 131.167 18.9814 131.166C18.9803 131.164 18.9797 131.163 18.9785 131.162C18.9774 131.161 18.9757 131.16 18.9746 131.159C18.9735 131.158 18.9728 131.156 18.9717 131.155C18.9705 131.154 18.9689 131.153 18.9678 131.152C18.9666 131.151 18.966 131.149 18.9648 131.148C18.959 131.142 18.9639 131.147 18.958 131.141C18.9569 131.14 18.9552 131.139 18.9541 131.138C18.953 131.137 18.9523 131.135 18.9512 131.134L18.9375 131.121C18.9364 131.12 18.9347 131.119 18.9336 131.118C18.9325 131.117 18.9318 131.115 18.9307 131.114C18.9295 131.113 18.9279 131.112 18.9268 131.111C18.9256 131.11 18.925 131.108 18.9238 131.107C18.9132 131.096 18.9276 131.111 18.917 131.1C18.9159 131.099 18.9142 131.098 18.9131 131.097C18.9119 131.096 18.9113 131.094 18.9102 131.093L18.8896 131.073C18.8885 131.072 18.8869 131.071 18.8857 131.07C18.8846 131.069 18.884 131.067 18.8828 131.066C18.8709 131.054 18.8879 131.071 18.876 131.059C18.8748 131.058 18.8732 131.057 18.8721 131.056C18.8709 131.055 18.8703 131.053 18.8691 131.052C18.868 131.051 18.8664 131.051 18.8652 131.049C18.8641 131.048 18.8634 131.047 18.8623 131.045C18.8612 131.044 18.8595 131.044 18.8584 131.043C18.8573 131.041 18.8566 131.04 18.8555 131.039C18.8494 131.033 18.8547 131.038 18.8486 131.032C18.8475 131.031 18.8459 131.03 18.8447 131.029C18.8436 131.028 18.8429 131.026 18.8418 131.025L18.8281 131.011C18.827 131.01 18.8254 131.01 18.8242 131.008C18.8231 131.007 18.8224 131.006 18.8213 131.004C18.8202 131.003 18.8185 131.003 18.8174 131.002C18.8162 131 18.8156 130.999 18.8145 130.998C18.8036 130.987 18.8184 131.002 18.8076 130.991C18.8065 130.99 18.8048 130.989 18.8037 130.988C18.8026 130.987 18.8019 130.985 18.8008 130.984L18.7803 130.963C18.7791 130.962 18.7775 130.962 18.7764 130.961C18.7752 130.959 18.7746 130.958 18.7734 130.957C18.7615 130.945 18.7786 130.962 18.7666 130.95C18.7655 130.949 18.7638 130.948 18.7627 130.947C18.7616 130.946 18.7609 130.944 18.7598 130.943C18.7586 130.942 18.757 130.941 18.7559 130.94C18.7547 130.939 18.7541 130.937 18.7529 130.936C18.7518 130.935 18.7502 130.934 18.749 130.933C18.7479 130.932 18.7472 130.93 18.7461 130.929C18.7398 130.923 18.7455 130.929 18.7393 130.922C18.7381 130.921 18.7365 130.921 18.7354 130.92C18.7342 130.918 18.7336 130.917 18.7324 130.916L18.7119 130.895C18.7108 130.894 18.7091 130.893 18.708 130.892C18.7069 130.891 18.7062 130.889 18.7051 130.888C18.6946 130.878 18.7087 130.892 18.6982 130.881C18.6971 130.88 18.6955 130.88 18.6943 130.878C18.6932 130.877 18.6925 130.876 18.6914 130.875L18.6709 130.854C18.6698 130.853 18.6681 130.852 18.667 130.851C18.6659 130.85 18.6652 130.848 18.6641 130.847C18.6519 130.835 18.6694 130.853 18.6572 130.84C18.6561 130.839 18.6545 130.839 18.6533 130.837C18.6522 130.836 18.6515 130.835 18.6504 130.834C18.6493 130.832 18.6476 130.832 18.6465 130.831C18.6453 130.829 18.6447 130.828 18.6436 130.827C18.6424 130.826 18.6408 130.825 18.6396 130.824C18.6385 130.823 18.6379 130.821 18.6367 130.82C18.6308 130.814 18.6358 130.819 18.6299 130.813C18.6287 130.812 18.6271 130.811 18.626 130.81C18.6248 130.809 18.6242 130.807 18.623 130.806L18.6094 130.793C18.6082 130.791 18.6066 130.791 18.6055 130.79C18.6043 130.788 18.6037 130.787 18.6025 130.786C18.6014 130.785 18.5998 130.784 18.5986 130.783C18.5975 130.782 18.5968 130.78 18.5957 130.779C18.5849 130.768 18.5997 130.783 18.5889 130.772C18.5877 130.771 18.5861 130.77 18.585 130.769C18.5838 130.768 18.5832 130.766 18.582 130.765L18.5615 130.745C18.5604 130.744 18.5588 130.743 18.5576 130.742C18.5565 130.741 18.5558 130.739 18.5547 130.738C18.5427 130.726 18.5598 130.743 18.5479 130.731C18.5467 130.73 18.5451 130.729 18.5439 130.728C18.5428 130.727 18.5422 130.725 18.541 130.724C18.5399 130.723 18.5382 130.722 18.5371 130.721C18.536 130.72 18.5353 130.718 18.5342 130.717C18.533 130.716 18.5314 130.716 18.5303 130.714C18.5291 130.713 18.5285 130.712 18.5273 130.711C18.5213 130.704 18.5266 130.71 18.5205 130.704C18.5194 130.703 18.5177 130.702 18.5166 130.701C18.5155 130.7 18.5148 130.698 18.5137 130.697L18.4932 130.676C18.492 130.675 18.4904 130.675 18.4893 130.673C18.4881 130.672 18.4875 130.671 18.4863 130.67C18.4755 130.659 18.4903 130.673 18.4795 130.663C18.4784 130.662 18.4767 130.661 18.4756 130.66C18.4744 130.659 18.4738 130.657 18.4727 130.656L18.4521 130.635C18.451 130.634 18.4494 130.634 18.4482 130.632C18.4471 130.631 18.4465 130.63 18.4453 130.628C18.4326 130.616 18.4512 130.634 18.4385 130.622C18.4373 130.621 18.4357 130.62 18.4346 130.619C18.4334 130.618 18.4328 130.616 18.4316 130.615C18.4305 130.614 18.4289 130.613 18.4277 130.612C18.4266 130.611 18.4259 130.609 18.4248 130.608C18.4237 130.607 18.422 130.606 18.4209 130.605C18.4198 130.604 18.4191 130.602 18.418 130.601C18.4121 130.595 18.417 130.6 18.4111 130.594C18.41 130.593 18.4084 130.593 18.4072 130.591C18.4061 130.59 18.4054 130.589 18.4043 130.587L18.3838 130.567C18.3827 130.566 18.381 130.565 18.3799 130.564C18.3787 130.563 18.3781 130.561 18.377 130.56C18.3665 130.55 18.3806 130.564 18.3701 130.553C18.369 130.552 18.3673 130.552 18.3662 130.55C18.3651 130.549 18.3644 130.548 18.3633 130.546L18.3428 130.526C18.3416 130.525 18.34 130.524 18.3389 130.523C18.3377 130.522 18.3371 130.52 18.3359 130.519C18.3236 130.507 18.3414 130.525 18.3291 130.512C18.328 130.511 18.3263 130.51 18.3252 130.509C18.3241 130.508 18.3234 130.507 18.3223 130.505C18.3211 130.504 18.3195 130.504 18.3184 130.503C18.3172 130.501 18.3166 130.5 18.3154 130.499C18.3143 130.497 18.3127 130.497 18.3115 130.496C18.3104 130.495 18.3097 130.493 18.3086 130.492C18.3025 130.486 18.3078 130.491 18.3018 130.485C18.3006 130.484 18.299 130.483 18.2979 130.482C18.2967 130.481 18.2961 130.479 18.2949 130.478L18.2813 130.464C18.2801 130.463 18.2785 130.463 18.2773 130.462C18.2762 130.46 18.2756 130.459 18.2744 130.458C18.2733 130.456 18.2716 130.456 18.2705 130.455C18.2694 130.454 18.2687 130.452 18.2676 130.451C18.2571 130.44 18.2712 130.454 18.2607 130.444C18.2596 130.443 18.258 130.442 18.2568 130.441C18.2557 130.44 18.255 130.438 18.2539 130.437L18.1826 130.367L18.1172 130.292C17.4834 129.567 16.919 128.865 16.4336 128.185L16.3799 128.109L16.3311 128.031C16.071 127.615 15.8251 127.172 15.6367 126.72C15.4637 126.305 15.25 125.675 15.25 124.941C15.25 123.983 15.6824 123.288 16.0195 122.903C16.3401 122.537 16.6789 122.321 16.8711 122.212C17.2575 121.991 17.6395 121.87 17.8633 121.806C18.357 121.665 18.9585 121.56 19.5762 121.471L19.6035 121.467C20.3586 121.367 21.2321 121.269 22.2207 121.17C22.7943 116.896 23.3956 112.474 24.0283 107.905C24.7806 102.472 25.5338 97.3693 26.2871 92.5982C27.0405 87.827 27.7535 83.6691 28.4277 80.1295L28.4326 80.1031L28.4385 80.0767C29.1842 76.5136 29.8471 73.85 30.4365 72.274C31.4737 69.4737 33.2679 67.0582 35.6953 65.0191C37.9181 63.0697 40.2545 61.4476 42.708 60.1715C45.1698 58.8527 47.5474 57.8159 49.8359 57.0836C51.9492 56.4073 53.8735 55.941 55.375 55.941C56.6949 55.941 57.546 56.6984 57.9111 57.0982C58.3045 57.5292 58.5656 58.0068 58.7373 58.3658C59.0853 59.0934 59.3777 60.0127 59.6387 61.0064C60.2626 62.9907 60.8606 65.5806 61.4414 68.7271C62.1193 71.9502 62.7929 75.7004 63.4629 79.9713C64.2159 84.1592 64.9268 88.5915 65.5947 93.2672C66.2645 97.9559 66.8928 102.768 67.4785 107.705C68.0145 111.591 68.5206 115.344 69.0029 118.962C69.9246 118.979 70.719 119.003 71.3818 119.04C71.9901 119.073 72.5398 119.117 72.9971 119.18C73.2244 119.212 73.4767 119.255 73.7256 119.316C73.8953 119.358 74.2471 119.45 74.6289 119.651L74.7939 119.744L75.3721 120.09L75.7461 120.652C76.1873 121.314 76.2839 121.987 76.3164 122.269C76.358 122.63 76.3546 122.982 76.3398 123.278C76.3111 123.852 76.2189 124.522 76.0938 125.244C75.9104 126.769 75.6012 128.391 75.1748 130.106C74.8362 131.79 74.4547 133.401 74.0293 134.938C73.8562 135.668 73.6788 136.325 73.4883 136.87C73.3905 137.149 73.2727 137.448 73.1289 137.736C73.0043 137.985 72.7676 138.416 72.3711 138.812L71.5811 139.601C71.8396 142.087 72.0583 144.181 72.2344 145.882C72.3597 147.094 72.4547 148.042 72.5186 148.723C72.5737 149.311 72.625 149.888 72.625 150.191C72.625 151.542 72.0315 152.909 71.4336 154.032C70.864 155.253 70.1963 156.396 69.4258 157.456C68.6476 158.526 67.752 159.459 66.7197 160.183C66.2494 160.577 65.4126 161.171 64.3027 161.272C63.5845 161.337 62.8009 161.189 62.0967 160.733C61.4347 160.305 61.0429 159.736 60.8164 159.283L60.8164 159.282C60.2415 158.192 59.2963 155.704 58.0488 152.196C56.8178 148.734 55.4688 144.192 53.999 138.598C52.9798 138.5 51.9314 138.401 50.8535 138.303L50.8408 138.302C49.0953 138.136 47.3077 137.97 45.4785 137.803C43.6003 137.633 41.7223 137.42 39.8447 137.164L39.7666 137.153L39.6885 137.138C38.9225 136.992 38.1654 136.855 37.417 136.725C36.7887 139.411 36.1608 141.981 35.5313 144.436C34.7804 147.684 34.0231 150.55 33.2568 153.025C32.5861 155.454 31.985 157.435 31.4541 158.939C31.1896 159.689 30.9124 160.386 30.6201 160.938C30.481 161.201 30.2665 161.572 29.9609 161.919C29.7739 162.131 28.9344 163.066 27.5 163.066C25.4887 163.066 24.0521 161.809 23.1572 160.69C22.3333 159.66 21.5992 158.473 20.9414 157.158L20.9023 157.079L20.8672 156.998C20.3094 155.696 19.8463 154.351 19.4766 152.964C19.1086 151.585 18.875 150.262 18.875 149.066L18.875 148.936ZM101.072 92.5338C102.772 92.454 104.452 92.7674 106.087 93.4029L106.419 93.5367L106.483 93.5631L106.546 93.5924C108.001 94.2792 109.077 95.5734 109.897 96.8746C110.807 98.1195 111.615 99.5523 112.339 101.146C113.155 102.697 113.846 104.37 114.415 106.16C115.033 107.849 115.561 109.442 115.998 110.937C116.522 112.444 116.919 113.822 117.161 115.052C117.268 115.579 117.353 116.066 117.403 116.49C117.44 116.801 117.512 117.456 117.377 118.109L117.334 118.318L117.262 118.519C116.944 119.399 116.354 119.993 115.946 120.34C115.532 120.693 115.062 120.991 114.598 121.249L114.599 121.25C113.7 121.783 112.463 122.354 110.983 122.96C109.426 123.597 107.317 124.326 104.696 125.145L101.371 126.184L100.837 122.742C100.141 118.256 99.4355 115.069 98.752 113.064L98.749 113.053L98.7451 113.044C98.1703 111.318 97.6811 110.193 97.3105 109.524L97.2393 109.404C96.8796 109.731 96.6092 110.052 96.4072 110.362L96.3838 110.397C96.0708 110.864 95.7882 111.358 95.5332 111.881C95.5065 112.047 95.4758 112.322 95.4502 112.732C95.4018 113.509 95.3936 114.751 95.4395 116.514C95.514 117.2 95.6119 118.389 95.7305 120.026C95.9455 121.855 96.1522 123.958 96.3506 126.332C96.6348 128.74 96.8908 131.272 97.1211 133.927C97.4324 136.567 97.6843 139.055 97.877 141.391C98.1387 143.611 98.3239 145.539 98.4316 147.167C98.5216 147.934 98.5885 148.579 98.625 149.085C98.6438 149.345 98.6567 149.6 98.6592 149.832C98.661 149.997 98.6642 150.384 98.5801 150.79L98.5615 150.876L98.5391 150.961C98.2753 151.94 97.6547 152.938 97.0664 153.782C96.3894 154.752 95.6178 155.674 94.7568 156.546L94.6895 156.615L94.6172 156.678C93.7944 157.412 92.9861 158.069 92.1924 158.641L92.084 158.719L91.9697 158.788C91.4287 159.109 90.6139 159.5 89.6357 159.534C88.5349 159.572 87.4708 159.142 86.7148 158.282C86.3453 157.891 86.1331 157.494 86.041 157.316C85.8752 156.995 85.7368 156.648 85.6201 156.323C85.3844 155.665 85.1451 154.827 84.8994 153.854C84.4234 151.968 83.857 149.676 83.2021 146.979L83.1807 146.883C82.6029 144.112 81.9542 141.095 81.2344 137.834C80.5087 134.546 79.8394 131.375 79.2256 128.323C78.6139 125.281 78.0816 122.563 77.6299 120.168L77.6289 120.161C77.1703 117.698 76.8384 115.947 76.6318 114.897L76.625 114.862L76.6182 114.826C76.3479 113.253 76.0587 111.515 75.75 109.614C75.4434 107.726 75.152 105.963 74.875 104.325L74.8623 104.251L74.8535 104.176C74.6483 102.439 74.4718 100.949 74.3252 99.7076L74.3145 99.6148L74.3096 99.5211C74.2692 98.7896 74.2614 98.0919 74.3164 97.482C74.3439 97.1767 74.393 96.8242 74.4893 96.4664C74.5615 96.1981 74.6991 95.7808 74.9775 95.3492C74.9914 95.3264 75.0053 95.304 75.0195 95.2818C75.0223 95.2778 75.0256 95.2741 75.0283 95.2701C75.784 94.1019 77.0031 93.8025 77.4453 93.7154C78.0284 93.6007 78.6334 93.5956 79.167 93.6226C80.4027 93.5949 81.6568 93.7512 82.9189 94.0621C84.3063 94.2969 85.6359 94.686 86.8994 95.2359C87.8687 95.6578 88.9002 96.2027 89.709 96.9508C90.3052 96.5622 90.8892 96.1886 91.4619 95.8316C92.9879 94.8342 94.5058 94.0328 96.0146 93.4605L96.0342 93.4527L96.0537 93.4459C97.6981 92.8482 99.3758 92.5339 101.072 92.5338ZM209 89.691L209.005 89.608C209.05 88.7991 209.122 88.0569 209.236 87.4254C209.316 86.9881 209.48 86.1803 209.941 85.4547C210.661 84.2413 211.863 83.8562 212.575 83.7467C213.308 83.6339 214.034 83.7116 214.617 83.815L214.618 83.815C214.628 83.8167 214.638 83.8182 214.648 83.8199C214.653 83.8207 214.658 83.822 214.662 83.8228L214.661 83.8228C215.909 84.0352 217.15 84.4376 218.379 84.9937C219.701 85.476 220.944 86.0982 222.102 86.8629C223.24 87.5378 224.402 88.4317 225.104 89.6607L225.252 89.9185L225.346 90.2008C225.468 90.5676 225.62 90.9936 225.8 91.482C226.262 91.276 226.732 91.0764 227.21 90.8844C229.026 90.072 230.834 89.4669 232.632 89.0885C234.536 88.6239 236.419 88.465 238.262 88.6607C240.199 88.7828 242.01 89.3391 243.622 90.3756L243.735 90.4488L243.842 90.5308C245.062 91.4801 246.04 92.8842 246.862 94.4244C247.809 96.0427 248.583 97.882 249.209 99.9137L249.474 100.708C250.064 102.549 250.514 104.479 250.827 106.492C251.271 108.729 251.5 110.907 251.5 113.024C251.5 114.547 251.315 116.599 250.981 119.109C250.724 121.676 250.34 124.48 249.834 127.517L249.832 127.531C249.33 130.46 248.786 133.514 248.201 136.691C247.699 139.783 247.153 142.642 246.562 145.264C246.068 147.81 245.61 149.976 245.188 151.754C245.024 152.618 244.886 153.31 244.775 153.818C244.72 154.074 244.666 154.307 244.615 154.503C244.595 154.583 244.496 154.992 244.309 155.366L244.225 155.533L244.121 155.688C243.523 156.585 242.668 156.979 242.182 157.156C241.642 157.352 241.079 157.451 240.581 157.506L240.416 157.524L240.25 157.524C239.348 157.524 238.368 157.413 237.338 157.226L237.287 157.216C236.245 157.008 235.24 156.692 234.281 156.266L234.22 156.238L234.158 156.208C233.078 155.667 231.911 154.744 231.404 153.223L231.367 153.114L231.34 153.002C231.207 152.469 231.176 151.757 231.158 151.256C231.136 150.621 231.125 149.788 231.125 148.774L231.125 148.712L231.128 148.649C231.211 146.664 231.293 144.3 231.376 141.558L231.378 141.516L231.38 141.473C231.546 138.647 231.713 135.653 231.879 132.492C232.046 129.236 232.214 126.227 232.381 123.467L232.383 123.426L232.387 123.385C232.634 120.581 232.797 118.213 232.878 116.274L232.88 116.212L232.886 116.15C233.058 114.088 233.125 113.034 233.125 112.774C233.125 111.497 232.984 110.326 232.715 109.252L232.689 109.15L232.671 109.045C232.448 107.78 232.165 106.796 231.855 106.053C231.675 105.62 231.507 105.339 231.378 105.162C230.985 105.269 230.684 105.396 230.457 105.522L230.34 105.587L230.219 105.641C229.672 105.884 229.303 106.119 229.063 106.316C228.8 106.544 228.608 106.789 228.465 107.059C228.451 107.098 228.432 107.152 228.408 107.223C228.348 107.404 228.27 107.654 228.171 107.98C228.065 108.556 228 109.273 228 110.149L228 113.774C228 115.805 227.958 118.241 227.875 121.079C227.874 123.908 227.832 126.977 227.75 130.285C227.75 133.545 227.708 136.603 227.624 139.458C227.623 142.211 227.582 144.61 227.497 146.649C227.455 147.661 227.412 148.479 227.367 149.089C227.345 149.392 227.32 149.671 227.291 149.909C227.273 150.059 227.225 150.461 227.096 150.848C226.773 151.817 226.115 152.842 225.426 153.789L225.386 153.844L225.343 153.898C224.569 154.865 223.705 155.776 222.757 156.629C221.804 157.487 220.829 158.218 219.832 158.772L219.715 158.837L219.594 158.891C218.984 159.162 218.031 159.478 216.944 159.296C215.786 159.103 214.913 158.425 214.379 157.572C214.057 157.113 213.907 156.672 213.85 156.505C213.729 156.155 213.637 155.775 213.563 155.414C213.411 154.68 213.273 153.734 213.145 152.618L213.144 152.606C212.893 150.349 212.6 147.634 212.267 144.463L212.262 144.421L212.259 144.379C212.01 141.143 211.719 137.655 211.387 133.915L211.387 133.909C211.052 130.062 210.759 126.38 210.508 122.863C210.257 119.353 210.047 116.174 209.88 113.326C209.713 110.493 209.589 108.462 209.507 107.224L209.505 107.196L209.503 107.167C209.419 105.406 209.336 103.438 209.252 101.264L209.252 101.26C209.169 99.0158 209.086 96.939 209.003 95.0299L209 94.9644L209 89.691ZM105.266 96.3053C103.854 95.7168 102.48 95.4602 101.146 95.5338L100.642 95.5416C99.4633 95.589 98.2758 95.8302 97.0791 96.2652C95.7941 96.7526 94.4505 97.4568 93.0488 98.3775C91.7201 99.2057 90.3184 100.127 88.8438 101.14C88.4977 100.342 88.176 99.7503 87.8789 99.3658C87.538 98.9656 86.9401 98.5635 86.085 98.1597L85.7021 97.9869C84.6407 97.5249 83.5112 97.1967 82.3135 97.0025C81.1888 96.7158 80.1249 96.5891 79.1221 96.6236L78.792 96.6099C78.0653 96.5948 77.6418 96.7038 77.5225 96.9381C77.3035 97.2157 77.2311 98.0221 77.3047 99.356C77.4513 100.597 77.6278 102.087 77.833 103.825C78.1112 105.47 78.4034 107.24 78.7109 109.133C79.0185 111.027 79.3067 112.755 79.5752 114.318C79.785 115.384 80.1194 117.149 80.5781 119.612C81.027 121.992 81.5562 124.699 82.166 127.731C82.7759 130.764 83.4421 133.916 84.1641 137.187C84.886 140.458 85.5376 143.487 86.1182 146.271C86.7717 148.963 87.3346 151.246 87.8076 153.12C88.2805 154.993 88.656 156.04 88.9336 156.259C89.1935 156.596 89.61 156.625 90.1826 156.346L90.4385 156.208C90.9603 155.831 91.5002 155.406 92.0576 154.931L92.6211 154.44C93.2768 153.775 93.8652 153.086 94.3867 152.373L94.6064 152.065C95.1088 151.345 95.4359 150.774 95.5879 150.352L95.6426 150.181C95.696 149.923 95.629 149.008 95.4434 147.435C95.3404 145.853 95.1574 143.945 94.8936 141.711C94.7027 139.384 94.4504 136.896 94.1377 134.248C93.9077 131.59 93.6516 129.061 93.3682 126.661C93.1675 124.251 92.9591 122.136 92.7441 120.315C92.6119 118.485 92.5118 117.279 92.4434 116.7C92.3939 114.86 92.398 113.474 92.4561 112.545C92.5068 111.731 92.5876 111.17 92.6982 110.864L92.748 110.749C92.9997 110.215 93.2773 109.703 93.5811 109.211L93.8936 108.725C94.2043 108.248 94.5815 107.795 95.0264 107.366L95.2217 107.183C95.7423 106.618 96.3559 106.127 97.0615 105.708C97.8062 105.62 98.5782 106.116 99.377 107.196L99.5078 107.378C100.166 108.328 100.861 109.901 101.592 112.095C102.362 114.354 103.099 117.75 103.802 122.282C106.068 121.574 107.894 120.95 109.28 120.41L109.847 120.183C111.287 119.594 112.361 119.088 113.066 118.67C113.756 118.294 114.193 117.95 114.376 117.634L114.439 117.501C114.493 117.242 114.42 116.622 114.22 115.639C114.01 114.573 113.651 113.314 113.145 111.864C112.72 110.404 112.198 108.829 111.579 107.14C111.043 105.441 110.398 103.881 109.643 102.46C108.96 100.946 108.219 99.6493 107.42 98.5689C106.739 97.4693 106.066 96.7373 105.398 96.3736L105.266 96.3053ZM189.161 146.302C189.161 145.663 189.125 145.079 189.059 144.549L189.041 144.406C188.957 144.38 188.865 144.353 188.763 144.326L188.712 144.312C187.803 144.052 186.697 143.871 185.369 143.797L185.287 143.793L185.204 143.784C183.855 143.634 182.613 143.6 181.473 143.671L181.379 143.677L181.286 143.677C180.73 143.677 180.358 143.713 180.135 143.753C180.103 143.759 180.077 143.766 180.056 143.771C179.975 143.833 179.904 143.911 179.837 144.03C179.731 144.435 179.607 145.211 179.536 146.492C179.538 147.113 179.573 147.783 179.646 148.503L179.876 150.808C179.987 151.298 180.096 151.739 180.202 152.131C180.26 152.156 180.326 152.183 180.401 152.212C180.731 152.335 181.176 152.47 181.757 152.609C182.975 152.805 184.187 152.872 185.397 152.811C186.396 152.69 187.292 152.36 188.122 151.806C188.404 151.618 188.796 151.216 188.915 149.979C188.926 149.444 188.976 148.846 189.055 148.212C189.125 147.574 189.161 146.938 189.161 146.302ZM183.224 116.966C182.964 117.318 182.487 118.287 181.945 120.286C181.529 122.043 181.242 124.973 181.16 129.235L181.132 130.712C181.949 130.761 182.76 130.836 183.566 130.939C185.291 131.084 186.895 131.292 188.372 131.564C188.182 128.935 188.029 126.568 187.915 124.464L187.915 124.46C187.835 122.935 187.718 121.752 187.575 120.879C187.466 120.209 187.357 119.852 187.306 119.702C187.051 119.367 186.748 119.018 186.391 118.653C186.051 118.382 185.556 118.038 184.867 117.625C184.456 117.378 183.919 117.149 183.224 116.966ZM46 84.316C46.9167 89.816 47.8333 94.8577 48.75 99.441C49.6667 104.024 50.4583 108.024 51.125 111.441C51.9583 115.441 52.7083 119.066 53.375 122.316C50.7917 122.483 48.1667 122.608 45.5 122.691C42.8333 122.774 40.1667 122.899 37.5 123.066C38.4167 119.316 39.3333 115.316 40.25 111.066C41.0833 107.399 42 103.274 43 98.691C44 94.0243 45 89.2327 46 84.316ZM45.793 99.9527C44.8442 104.294 43.9735 108.221 43.1758 111.731C42.5687 114.545 41.9576 117.251 41.3496 119.85C42.7018 119.787 44.054 119.735 45.4063 119.693C46.8623 119.647 48.3053 119.587 49.7354 119.516C49.2562 117.194 48.7412 114.706 48.1885 112.053L48.1846 112.034L48.1807 112.015C47.5152 108.604 46.7246 104.609 45.8086 100.029C45.8035 100.003 45.798 99.9781 45.793 99.9527ZM21.875 149.066C21.875 149.899 22.0417 150.941 22.375 152.191C22.7083 153.441 23.125 154.649 23.625 155.816C24.2083 156.983 24.8333 157.983 25.5 158.816C26.1667 159.649 26.8333 160.066 27.5 160.066C27.75 160.066 28.125 159.358 28.625 157.941C29.125 156.524 29.7083 154.608 30.375 152.191C31.125 149.774 31.875 146.941 32.625 143.691C33.4583 140.441 34.2917 136.983 35.125 133.316C36.7917 133.566 38.5 133.858 40.25 134.191C42.0833 134.441 43.9167 134.649 45.75 134.816L53.8125 135.566C54.6875 135.649 55.5417 135.733 56.375 135.816C58.0417 142.316 59.5417 147.441 60.875 151.191C62.2083 154.941 63.0833 157.191 63.5 157.941C63.75 158.441 64.2083 158.399 64.875 157.816C65.625 157.316 66.3333 156.608 67 155.691C67.6667 154.774 68.25 153.774 68.75 152.691C69.3333 151.608 69.625 150.774 69.625 150.191C69.625 149.941 69.5 148.608 69.25 146.191C69 143.774 68.6667 140.566 68.25 136.566C68.5 136.649 68.75 136.691 69 136.691L70.25 136.691C70.5 136.441 70.7917 135.608 71.125 134.191C71.5417 132.691 71.9167 131.108 72.25 129.441C72.6667 127.774 72.9583 126.233 73.125 124.816C73.375 123.399 73.4167 122.566 73.25 122.316C72.8333 122.066 70.5417 121.941 66.375 121.941C65.7917 117.524 65.1667 112.899 64.5 108.066C63.9167 103.149 63.2917 98.3577 62.625 93.691C61.9583 89.0243 61.25 84.6077 60.5 80.441C59.8333 76.191 59.1667 72.4827 58.5 69.316C57.9167 66.1493 57.3333 63.6493 56.75 61.816C56.25 59.8993 55.7917 58.941 55.375 58.941C54.375 58.941 52.8333 59.2743 50.75 59.941C48.6667 60.6077 46.4583 61.566 44.125 62.816C41.875 63.9827 39.7083 65.4827 37.625 67.316C35.5417 69.066 34.0833 71.066 33.25 73.316C32.75 74.6493 32.125 77.1077 31.375 80.691C30.7083 84.191 30 88.316 29.25 93.066C28.5 97.816 27.75 102.899 27 108.316C26.25 113.733 25.5417 118.941 24.875 123.941C22.875 124.108 21.25 124.274 20 124.441C18.8333 124.608 18.25 124.774 18.25 124.941C18.25 125.274 18.4583 125.774 18.875 126.441C19.2917 127.024 19.7917 127.649 20.375 128.316L22.125 130.066C22.7083 130.649 23.1667 131.024 23.5 131.191L24 131.191C23.75 133.191 23.5 135.233 23.25 137.316C23.0833 139.066 22.8333 140.983 22.5 143.066C22.25 145.149 22.0417 147.149 21.875 149.066ZM192.153 146.865C192.138 147.427 192.099 147.99 192.036 148.552C191.953 149.219 191.911 149.761 191.911 150.177C191.744 152.094 191.036 153.469 189.786 154.302L189.55 154.455C188.363 155.197 187.067 155.646 185.661 155.802C184.349 155.875 183.036 155.821 181.724 155.638L181.161 155.552C179.745 155.219 178.745 154.844 178.161 154.427C177.911 154.261 177.661 153.885 177.411 153.302C177.244 152.719 177.078 152.052 176.911 151.302L176.661 148.802C176.599 148.177 176.56 147.576 176.544 146.998L176.536 146.427C176.619 144.844 176.786 143.677 177.036 142.927C177.328 142.271 177.747 141.742 178.294 141.341L178.536 141.177C178.974 140.886 179.73 140.722 180.806 140.685L181.286 140.677C182.619 140.594 184.036 140.636 185.536 140.802C187.036 140.886 188.37 141.094 189.536 141.427C190.786 141.761 191.536 142.177 191.786 142.677C191.953 143.011 192.036 143.511 192.036 144.177C192.119 144.844 192.161 145.552 192.161 146.302L192.153 146.865ZM206.286 128.552C206.286 132.843 206.159 137.174 205.908 141.545C205.741 145.803 205.575 149.566 205.407 152.831C205.324 155.725 205.242 158.416 205.159 160.902C205.076 163.409 204.992 165.628 204.908 167.557L204.907 167.563C204.824 169.383 204.698 170.922 204.518 172.14C204.477 172.658 204.433 173.113 204.381 173.476C204.354 173.663 204.316 173.894 204.259 174.124C204.231 174.236 204.182 174.413 204.103 174.612C204.053 174.736 203.86 175.221 203.407 175.673L203.256 175.824L203.086 175.952C202.089 176.7 200.979 176.766 200.173 176.642C199.41 176.525 198.734 176.219 198.204 175.924L198.024 175.825L197.86 175.702C197.103 175.134 196.283 174.447 195.404 173.657L195.345 173.604L195.289 173.548C194.46 172.72 193.679 171.845 192.943 170.926C192.235 170.04 191.532 169.029 191.189 168.001L191.15 167.884C190.022 168.288 188.852 168.615 187.644 168.865L187.595 168.875L187.546 168.883C184.93 169.334 182.307 169.516 179.683 169.425L179.627 169.423L179.572 169.42C176.979 169.234 174.526 168.721 172.232 167.861C169.89 166.983 167.876 165.717 166.443 163.926L166.443 163.925C165.706 163.023 165.195 161.893 164.814 160.751L164.778 160.641L164.75 160.53C164.486 159.474 164.226 158.301 163.969 157.015L163.947 156.908L163.934 156.799C163.766 155.459 163.599 154.076 163.432 152.653L163.43 152.643L163.429 152.633C163.258 151.098 163.129 149.678 163.042 148.377L163.041 148.354L163.04 148.331C162.857 144.762 163.301 141.503 164.514 138.655L164.642 138.356C165.867 135.591 167.942 133.515 170.679 132.111C169.333 131.955 168.217 131.791 167.385 131.606L167.384 131.606C166.873 131.509 166.347 131.381 165.865 131.196C165.471 131.044 164.54 130.653 163.915 129.716L163.811 129.561L163.728 129.394C163.393 128.725 163.351 128.058 163.337 127.8C163.317 127.436 163.33 127.053 163.355 126.689C163.406 125.953 163.526 125.028 163.698 123.953C164.045 121.704 164.518 119.301 165.114 116.746L165.125 116.7L165.137 116.654C165.826 114.07 166.604 111.605 167.473 109.26L167.489 109.214L167.508 109.17C168.45 106.859 169.718 104.587 171.649 103.461C174.319 101.903 177.379 101.428 180.646 101.824L180.646 101.824C183.745 102.189 186.754 102.965 189.665 104.148C192.475 105.29 195.018 106.578 197.278 108.025C199.268 109.298 200.979 110.548 201.938 111.725L202.379 112.258C202.805 112.796 203.202 113.36 203.57 113.948C204.201 114.875 204.667 115.994 205.028 117.17L205.027 117.17C205.439 118.43 205.71 119.951 205.885 121.657C206.161 123.521 206.286 125.836 206.286 128.552ZM212 94.899C212.083 96.8156 212.167 98.8991 212.25 101.149C212.333 103.316 212.417 105.274 212.5 107.024C212.583 108.274 212.708 110.316 212.875 113.149C213.042 115.982 213.25 119.149 213.5 122.649C213.75 126.149 214.042 129.816 214.375 133.649C214.708 137.399 215 140.899 215.25 144.149C215.583 147.316 215.875 150.024 216.125 152.274C216.375 154.44 216.625 155.649 216.875 155.899C217.125 156.399 217.625 156.482 218.375 156.149C219.125 155.732 219.917 155.149 220.75 154.399C221.583 153.649 222.333 152.857 223 152.024C223.667 151.107 224.083 150.399 224.25 149.899C224.333 149.648 224.417 148.523 224.5 146.524C224.583 144.524 224.625 142.149 224.625 139.399C224.708 136.566 224.75 133.524 224.75 130.274C224.833 126.941 224.875 123.857 224.875 121.024C224.958 118.191 225 115.774 225 113.774L225 110.149C225 109.066 225.083 108.107 225.25 107.274C225.5 106.441 225.667 105.941 225.75 105.774C226.083 105.107 226.542 104.524 227.125 104.024C227.625 103.607 228.25 103.232 229 102.899C229.75 102.482 230.667 102.191 231.75 102.024C232.167 101.857 232.625 102.066 233.125 102.649C233.708 103.149 234.208 103.899 234.625 104.899C235.042 105.899 235.375 107.107 235.625 108.524C235.958 109.857 236.125 111.274 236.125 112.774C236.125 113.191 236.042 114.399 235.875 116.399C235.792 118.399 235.625 120.816 235.375 123.649C235.208 126.399 235.042 129.399 234.875 132.649C234.708 135.816 234.542 138.816 234.375 141.649C234.292 144.399 234.208 146.774 234.125 148.774C234.125 150.773 234.167 151.94 234.25 152.274C234.417 152.774 234.833 153.191 235.5 153.524C236.25 153.857 237.042 154.107 237.875 154.274C238.792 154.441 239.583 154.524 240.25 154.524C241 154.441 241.458 154.274 241.625 154.024C241.708 153.857 241.917 152.898 242.25 151.149C242.667 149.399 243.125 147.232 243.625 144.649C244.208 142.066 244.75 139.232 245.25 136.149C245.833 132.982 246.375 129.941 246.875 127.024C247.375 124.024 247.75 121.274 248 118.774C248.333 116.274 248.5 114.357 248.5 113.024C248.5 111.107 248.292 109.107 247.875 107.024C247.542 104.857 247.042 102.816 246.375 100.899C245.792 98.9825 245.083 97.3156 244.25 95.899C243.5 94.4825 242.75 93.4823 242 92.899C240.833 92.1491 239.5 91.7323 238 91.649C236.5 91.4823 234.917 91.6074 233.25 92.024C231.667 92.3573 230.042 92.899 228.375 93.649C226.708 94.3156 225.167 95.0657 223.75 95.899C223.583 94.4825 223.375 93.4823 223.125 92.899C222.875 92.2325 222.667 91.6489 222.5 91.149C222.167 90.5658 221.5 89.9823 220.5 89.399C219.5 88.7324 218.417 88.1906 217.25 87.774C216.167 87.274 215.125 86.9407 214.125 86.774C213.209 86.6074 212.667 86.6909 212.5 87.024C212.25 87.3573 212.083 88.2742 212 89.774L212 94.899Z" fill="#050505"/>
</svg>
