<svg width="158" height="95" viewBox="0 0 158 95" fill="none" xmlns="http://www.w3.org/2000/svg">
<path d="M156.848 55.6729L155.994 54.4053C155.116 53.1022 154.551 52.069 154.218 51.2852C153.923 50.5899 153.878 50.252 153.872 50.1963L154.063 35.2803L154.069 34.8652L153.863 33.5361C153.783 30.3038 152.789 27.1574 150.325 24.751C147.836 22.32 144.507 21.2954 141.122 21.0166L140.918 21H140.712V20H140.959L140.999 20.0029L141.203 20.0195C144.72 20.3092 148.308 21.3834 151.023 24.0352C153.701 26.6503 154.761 30.0425 154.859 33.4375L155.058 34.7119L155.07 34.7949L155.069 34.8789L155.063 35.2939L154.873 50.1172C154.892 50.2095 154.954 50.46 155.139 50.8945C155.439 51.6014 155.968 52.5774 156.823 53.8467L157.677 55.1143L157.848 55.3672V58.2041L157.632 58.9873C157.22 60.48 156.473 62.26 155.011 63.7227C153.391 65.3421 151.284 66.1757 149.064 66.1758H147.856L147.671 66.0977L146.744 65.709C143.841 64.4916 141.435 62.5397 139.752 59.8672C139.69 60.0038 139.627 60.1402 139.559 60.2744C138.914 61.5441 137.928 62.847 136.453 63.8164C136.115 64.0386 135.767 64.228 135.415 64.3936L135.466 64.7686L135.481 64.8867L135.469 65.0049L135.407 65.5918L135.408 65.5928C135.239 67.2305 134.693 69.3765 133.04 71.1523C131.236 73.0897 128.898 73.7598 126.848 73.7598H124.426L124.171 73.5869L122.898 72.7217C120.388 71.0146 118.372 68.9561 116.835 66.6006C114.748 68.3444 112.156 69.5361 109.088 69.5361H108.256L107.454 69.3086C106.736 69.1053 106.036 68.8484 105.36 68.5371C104.022 79.5344 99.6685 88.3303 91.2549 93.5029L90.2949 94.0938L90.1094 94.1279L87.0732 94.6797L87.0723 94.6787L86.6309 94.7598L86.542 94.7764H86C82.1292 94.7764 78.9294 92.9265 76.4775 90.4746C74.0834 88.0805 72.0957 84.8341 70.3779 81.1182L70.377 81.1172L70.0771 80.4678L70.0176 80.3379L69.9961 80.1973L68.9707 73.3613L68.96 73.2871V72.5518C68.96 71.0419 69.0785 69.4175 69.4668 67.8428C66.0637 66.3302 62.79 64.3645 59.6406 61.9795C58.9291 63.2308 58.1322 64.3748 57.2217 65.3438C56.1395 66.4952 54.6888 67.6289 52.8145 68.2334C51.8057 68.5587 50.783 68.6911 49.7764 68.6553C48.3355 70.9885 45.9256 72.2998 44.3213 72.9727L43.207 73.4404H42C38.3531 73.4404 35.9781 71.2135 34.6846 69.0996L34.4404 68.6787C33.4323 66.8481 32.8755 64.671 32.5361 62.502C31.3901 59.8628 30.148 56.3274 28.8037 51.9814C27.2526 52.371 26.0427 52.7227 25.1475 53.0371C25.0532 53.0702 24.9658 53.105 24.8828 53.1357C22.7456 57.6688 20.7437 61.3669 18.8623 64.0596C17.8464 65.5135 16.7075 66.9087 15.4297 67.998C14.2471 69.006 12.2273 70.3682 9.55176 70.3682C7.47071 70.3681 5.24399 69.6347 3.54199 67.7969C2.01168 66.1441 1.44091 64.168 1.2168 62.6553L1.16309 62.29L1.15234 62.2178V61.7764C1.15234 59.3069 2.32577 56.9666 3.19727 55.4209C3.47514 54.9281 3.7838 54.4178 4.11816 53.8896C3.58462 53.5299 3.06854 53.1098 2.58887 52.6172C0.798813 50.7785 0 48.4581 0 46.1279V44.8965L0.0810547 44.708L0.485352 43.7646C1.22376 42.0418 2.33355 40.2714 4.04102 38.9131C5.84238 37.4802 7.98548 36.7677 10.2236 36.7676V37.7676C8.20384 37.7677 6.28159 38.4079 4.66309 39.6953C3.123 40.9205 2.09971 42.5356 1.4043 44.1582L1 45.1016V46.1279C1 48.2253 1.71559 50.2868 3.30566 51.9199C3.97755 52.61 4.7327 53.1466 5.51758 53.5674C4.96825 54.3968 4.48199 55.1785 4.06836 55.9121C3.20262 57.4476 2.15234 59.5888 2.15234 61.7764V62.1445L2.20605 62.5088C2.41424 63.914 2.93375 65.6682 4.27539 67.1172C5.75944 68.7199 7.70382 69.3681 9.55176 69.3682C11.8793 69.3682 13.6728 68.1821 14.7812 67.2373C15.9684 66.2253 17.0511 64.9069 18.043 63.4873C19.9268 60.7911 21.9604 57.0258 24.1543 52.3418C24.3398 52.2672 24.5593 52.184 24.8164 52.0938C25.9251 51.7044 27.4678 51.2654 29.4805 50.7832C30.949 55.6014 32.2872 59.4438 33.5029 62.2217C33.8326 64.3832 34.37 66.4779 35.3164 68.1963C36.4444 70.2444 38.61 72.4404 42 72.4404H43.0059L43.9336 72.0508C45.6033 71.3506 48.0059 69.9969 49.2168 67.6152C50.2994 67.736 51.4113 67.6349 52.5078 67.2812C54.1758 66.7433 55.4889 65.7278 56.4932 64.6592C57.5698 63.5135 58.4993 62.0818 59.3203 60.4697C62.9411 63.3304 66.7211 65.6126 70.665 67.2725C70.1221 68.9757 69.96 70.8143 69.96 72.5518V73.2129L70.9854 80.0488L71.2852 80.6982C72.9779 84.3602 74.9066 87.4897 77.1846 89.7676C79.5116 92.0946 82.4715 93.7764 86 93.7764H86.4512L86.8945 93.6953L89.9307 93.1436L90.7305 92.6514C99.1604 87.4691 103.426 78.4628 104.528 66.9639C105.517 67.5691 106.594 68.0262 107.727 68.3467L108.395 68.5361H109.088C112.303 68.5361 114.97 67.1038 117.059 65.0508C118.583 67.7138 120.705 70.0206 123.461 71.8945L124.733 72.7598H126.848C128.687 72.7598 130.734 72.1613 132.308 70.4707C133.757 68.914 134.256 67.0108 134.413 65.4902L134.475 64.9014L134.323 63.7676C134.864 63.5745 135.395 63.3153 135.904 62.9805C137.203 62.1268 138.083 60.9728 138.667 59.8223C139.06 59.0468 139.348 58.2131 139.557 57.3496C139.762 57.8246 139.989 58.2902 140.244 58.7432C141.818 61.536 144.194 63.5553 147.131 64.7871L148.058 65.1758H149.064C151.027 65.1757 152.877 64.4422 154.304 63.0156C155.6 61.7195 156.282 60.1205 156.668 58.7217L156.848 58.0693V55.6729ZM91.1836 21.7676C91.8876 20.0397 92.8802 19.1758 94.1602 19.1758C96.5281 19.1759 97.7119 23.3682 97.7119 31.752C99.1199 40.456 99.8242 48.552 99.8242 56.04V60.5518C99.8242 74.3115 95.92 83.5915 88.1123 88.3916L86 88.7764L85.6592 88.7656C82.1405 88.5605 78.8623 85.1718 75.8242 78.5996L74.96 72.8398V72.5518C74.96 68.3281 76.144 66.216 78.5117 66.2158L80.9121 67.752L80.624 73.7998C80.624 76.7437 82.128 79.7197 85.1357 82.7275H86.3838C89.9038 82.7275 92.4962 76.0081 94.1602 62.5684L94.3516 57C94.2876 50.5362 94.032 46.4083 93.584 44.6162C91.0241 46.8561 89.0081 47.9755 87.5361 47.9756L87.3828 47.9697C84.1808 47.7002 81.3197 38.9658 78.7998 21.7676L78.5117 21.5762C78.5117 20.1042 79.6004 19.176 81.7764 18.792C84.0162 18.7925 85.5518 23.7207 86.3838 33.5762C87.438 37.9788 88.2219 40.2489 88.7354 40.3857L88.7842 40.3916H89.3604C90.9602 36.3598 91.7598 32.3594 91.7598 28.3916L91.1836 21.7676ZM77.583 41.1562C77.7727 41.8036 77.9652 42.4199 78.1602 43.0049C78.9487 45.3704 79.8841 47.5453 81.0713 49.2246C82.1765 50.7879 84.2759 52.9756 87.5361 52.9756C88.1345 52.9756 88.7138 52.907 89.2695 52.791C89.3062 54.0089 89.3356 55.3919 89.3516 56.9502L89.1709 62.165C88.3581 68.6541 87.3632 73.1394 86.3027 75.8887C86.2833 75.9392 86.2614 75.9876 86.2422 76.0361C85.7892 75.1523 85.6373 74.4326 85.626 73.8691L86.0439 65.1006L83.1748 63.2637C83.5829 61.9294 83.7359 60.3786 83.2939 58.7598C82.7907 56.9169 81.6677 55.5348 80.4141 54.5645L79.7998 54.0889L79.0713 53.8223L78.2998 53.5352C74.0683 51.9254 71.0457 50.2429 68.9512 48.5977C72.4705 46.6365 75.3943 44.1729 77.583 41.1562ZM77.1914 43.2598C75.3958 45.3556 73.2371 47.1576 70.7725 48.6855C72.6848 49.9787 75.2536 51.306 78.6475 52.5977L79.415 52.8828L80.1436 53.1494L80.2891 53.2031L80.4121 53.2979L81.0264 53.7734C82.4129 54.8466 83.6867 56.4012 84.2588 58.4961C84.679 60.0351 84.62 61.5097 84.3262 62.8135L87.0703 64.5703L86.7871 70.5146C87.2826 68.2335 87.7522 65.436 88.1738 62.0762L88.3516 56.9326C88.3403 55.8505 88.319 54.854 88.2969 53.9395C88.0473 53.9605 87.7938 53.9756 87.5361 53.9756C83.7826 53.9756 81.4225 51.4533 80.2549 49.8018C78.9848 48.0053 78.0126 45.7234 77.2119 43.3213C77.2051 43.3009 77.1982 43.2802 77.1914 43.2598ZM123.448 48.752V48.7354L123.449 48.7188L124.032 30.9434L124.88 29.1523C124.843 28.4306 124.616 27.9844 124.29 27.6904C123.908 27.3457 123.24 27.0715 122.128 27.0117L121.652 27C119.883 27.0036 117.858 27.8288 115.56 29.6855C108.475 38.4899 105 47.2406 105 55.9521C105 57.8088 105.373 59.2211 106.037 60.2627C106.692 61.2891 107.681 62.0384 109.082 62.4893L109.223 62.5322C110.629 62.49 112.018 61.7853 113.396 60.1934C114.833 58.5345 116.199 55.9773 117.459 52.4482L117.695 51.7842H120.062L120.079 53.3867L120.098 53.9385C120.349 59.5954 122.475 63.7795 126.411 66.6357L126.588 66.7598H126.848V67.7598H126.272L125.829 67.4492C121.47 64.288 119.22 59.6079 119.079 53.4092L119.072 52.7842H118.4C115.84 59.9522 112.736 63.5361 109.088 63.5361L108.775 63.4414C105.592 62.4166 104 59.9202 104 55.9521C104 46.9281 107.616 37.9356 114.848 28.9756C117.28 26.9916 119.552 26 121.664 26L122.176 26.0127C124.651 26.144 125.888 27.2604 125.888 29.3604L125.024 31.1836L124.448 48.752C124.448 56.688 126.048 61.6161 129.248 63.5361L129.44 64.9756L129.396 65.3135C129.138 66.9445 128.288 67.7598 126.848 67.7598V66.7598C127.37 66.7598 127.674 66.6177 127.873 66.4268C128.088 66.2202 128.301 65.8414 128.409 65.1572L128.432 64.9785L128.316 64.1211C126.662 62.9659 125.479 61.1154 124.697 58.709C123.853 56.107 123.448 52.7753 123.448 48.752ZM37.6396 42.1484L38.5791 41.6807L38.6592 41.6406L38.7451 41.6162C42.7915 40.4373 45.772 39.3608 47.7236 38.3926C48.7033 37.9065 49.3722 37.4718 49.7822 37.1006C49.9848 36.9172 50.0996 36.7713 50.1602 36.667C50.1892 36.6169 50.2035 36.5813 50.21 36.5596C50.2128 36.5499 50.2131 36.5421 50.2139 36.5371C50.1508 35.5279 49.9433 34.9223 49.7061 34.5898C49.5334 34.3481 49.3183 34.2065 48.9736 34.1748L37.5215 38.3584L36.4453 37.2852L33.4248 14.7725L33.416 14.7061V14.6396C33.416 11.7945 33.1438 9.78121 32.665 8.51367C32.4283 7.88704 32.1645 7.50689 31.9189 7.29004C31.7279 7.12142 31.5252 7.03067 31.2852 7.00684L29.5723 7.55469C25.7495 21.5409 22.2244 32.3642 18.9951 40.002C18.9475 41.4745 18.3948 42.7105 17.2471 43.5508C16.1032 44.3881 14.5084 44.7275 12.624 44.7275H12.4316L12.2529 44.6562L10.0469 43.7734C9.41466 43.8056 8.87561 44.011 8.39844 44.3906C7.89692 44.7897 7.42333 45.4143 7.00684 46.3262C7.04396 46.9205 7.25052 47.3707 7.60449 47.7344C7.99241 48.1329 8.62139 48.489 9.5791 48.748L11.2715 48.3916H15.333L13.1494 53.168L13.1035 53.2676L13.0371 53.3555C11.3537 55.5788 10.1115 57.4109 9.29492 58.8594C8.48409 60.2977 8.17935 61.2174 8.15625 61.7168C8.26361 62.3713 8.44819 62.7679 8.63867 62.9961C8.81073 63.2021 9.03124 63.3271 9.375 63.3594L9.55957 63.3672C9.80577 63.3643 10.2389 63.2248 10.8887 62.6709C11.5296 62.1244 12.276 61.2645 13.124 60.0508C14.8017 57.6494 16.774 54.0128 19.043 49.1084C19.104 48.7808 19.2624 48.5051 19.4385 48.29C19.6607 48.0189 19.9522 47.7889 20.2627 47.5898C20.884 47.1916 21.7554 46.8087 22.8291 46.4316C24.99 45.6728 28.1867 44.8624 32.3896 43.9961L32.4902 43.9756H33.7285L33.9365 44.7002C36.0468 52.0541 37.8217 57.2723 39.2598 60.3984L39.3232 60.5361L39.3428 60.6875C39.616 62.7816 40.0262 64.2655 40.5244 65.2139C40.9849 66.0903 41.4377 66.3675 41.8262 66.4248C43.5632 65.6534 43.9755 64.9092 43.9756 64.3682V64.335C41.9545 58.269 40.4179 53.5024 39.3682 50.0391C38.839 48.2933 38.4309 46.8714 38.1465 45.7773C37.8688 44.7095 37.6893 43.8849 37.6494 43.373L37.6484 43.3574L37.6475 43.3428L37.6406 43.2002L37.6396 43.1768V42.1484ZM61.4766 26.748C65.5353 22.9171 69.1274 21.5727 72.2529 22.7158C76.0396 24.1007 77.3265 27.5699 76.1133 33.123L75.8164 33.9346L75.6084 34.4766C73.3714 40.029 68.4784 44.0987 60.9307 46.6855C63.1638 51.3866 68.6382 55.331 77.3535 58.5186L77.5625 58.6914C78.5586 59.5708 78.8101 60.6867 78.3154 62.0391C77.7219 63.6616 76.3729 64.0885 74.2695 63.3193C68.3791 61.165 62.737 57.398 57.3447 52.0186L56.3887 54.6328C54.1245 60.8236 51.67 63.4359 49.0254 62.4688C47.1621 61.7873 47.5383 57.8694 50.1543 50.7168L52.7266 43.6846L53.3789 41.0615L55.0654 38.4072L57.5996 29.5205L57.7314 29.1602C58.325 27.5373 59.5738 26.7336 61.4766 26.748ZM71.9092 23.6553C69.3383 22.7151 66.1446 23.7176 62.1631 27.4756L61.8711 27.751L61.4688 27.748C60.6577 27.7419 60.0745 27.9101 59.6543 28.1807C59.2421 28.4461 58.9055 28.8624 58.6709 29.5039L58.5508 29.8301L56.0273 38.6816L55.9873 38.8213L55.9092 38.9434L54.3105 41.459L53.6973 43.9258L53.6846 43.9775L51.0938 51.0605C49.7932 54.6166 49.0809 57.2871 48.9053 59.1152C48.8171 60.0333 48.8735 60.6545 48.999 61.043C49.1132 61.396 49.2558 61.4879 49.3691 61.5293C49.8323 61.6986 50.2523 61.7047 50.666 61.5713C51.0973 61.4322 51.5856 61.1197 52.1211 60.5498C53.2078 59.3931 54.3312 57.3459 55.4492 54.2891L56.9434 50.2051L58.0508 51.3105C63.3619 56.6091 68.8851 60.2849 74.6133 62.3799C75.5699 62.7296 76.1844 62.7407 76.5566 62.623C76.8697 62.524 77.1595 62.2871 77.376 61.6953C77.5743 61.1531 77.5962 60.7349 77.5225 60.4072C77.4503 60.0866 77.2671 59.7651 76.9004 59.4414L76.8457 59.3965C68.1528 56.1929 62.4187 52.1484 60.0273 47.1143L59.5469 46.1025L60.6064 45.7393C67.9763 43.2134 72.5853 39.3034 74.6807 34.1025L74.877 33.5908L75.1494 32.8438C75.7203 30.1937 75.6657 28.175 75.1201 26.7041C74.5885 25.2709 73.5553 24.2573 71.9092 23.6553ZM129 46.3516C129 33.9365 130.088 27.7282 132.264 27.7275L133.224 27.4404L135.24 27.7275C136.968 26.5757 138.792 26 140.712 26C146.152 26.448 148.872 29.1039 148.872 33.9678L149.064 35.2158L148.872 50.1924L148.884 50.5234C149 52.2146 149.988 54.4404 151.848 57.2002V57.3916C151.336 59.2474 150.408 60.1756 149.064 60.1758L148.698 60.0146C145.094 58.3459 143.234 55.0458 143.118 50.1143L143.112 49.6162V48.3682L142.824 48.1758L143.112 47.792V47.5996L143.4 34.3516C143.4 32.4959 142.6 31.5684 141 31.5684V30.5684C141.996 30.5684 142.913 30.8643 143.558 31.6113C144.177 32.33 144.4 33.303 144.4 34.3516V34.373L144.112 47.6211V49.6045L144.118 50.0908L144.133 50.5225C144.337 54.9304 146.049 57.6853 149.116 59.1064L149.249 59.165C149.573 59.1304 149.831 59.0019 150.061 58.7725C150.321 58.5118 150.58 58.0842 150.795 57.4219C149.05 54.7742 148.016 52.479 147.886 50.5918L147.885 50.5752V50.5586L147.873 50.2275L147.872 50.2041V50.1797L148.063 35.2832L147.872 34.0439V33.9678C147.872 31.726 147.251 30.1338 146.134 29.043C145.005 27.941 143.234 27.217 140.668 27C138.978 27.0087 137.359 27.517 135.795 28.5596L135.478 28.7715L133.299 28.4609L132.41 28.7275H132.264C132.251 28.7275 132.214 28.726 132.131 28.7939C132.032 28.8747 131.887 29.0415 131.721 29.3574C131.385 29.9961 131.067 31.0394 130.801 32.5566C130.272 35.5724 130 40.1577 130 46.3516V55.9229L130.019 56.2705C130.082 57.0383 130.275 57.4996 130.492 57.7637C130.708 58.0253 131.049 58.2158 131.688 58.2158V59.2158C129.961 59.2158 129.064 58.1281 129 55.9521V46.3516ZM134.048 52.5918C134.048 46.1972 134.449 41.1738 135.273 37.5615C135.686 35.7558 136.214 34.2561 136.883 33.1016C137.552 31.9461 138.401 31.07 139.477 30.6396L139.655 30.5684H141V31.5684H139.848C136.648 32.8488 135.048 39.8565 135.048 52.5918C135.048 57.0075 133.928 59.2155 131.688 59.2158V58.2158C132.076 58.2157 132.371 58.1226 132.609 57.9658C132.853 57.8053 133.097 57.5395 133.316 57.1074C133.769 56.2142 134.048 54.7475 134.048 52.5918ZM118.824 33.7363V34.7363C118.824 35.5147 118.65 36.5564 118.346 37.8154C118.037 39.091 117.578 40.6511 116.974 42.4893C115.764 46.1662 113.955 51.0041 111.552 56.9961L111.301 57.624H108.664V54.7285L108.674 54.6582L109.058 51.9707L109.06 51.9609L109.061 51.9502C110.297 44.4024 112.819 38.4134 116.694 34.0703L116.992 33.7363H118.824ZM45.459 49C45.4343 49.0675 45.4101 49.135 45.3857 49.2021C45.2542 48.7741 45.1295 48.3646 45.0117 47.9736C44.8063 47.2921 44.6249 46.6734 44.4648 46.1172C45.2938 45.8401 46.078 45.562 46.8164 45.2852L45.459 49ZM29.6191 23.2402C30.0543 23.2415 30.3339 23.4911 30.4521 23.6201C30.5801 23.7598 30.6651 23.9132 30.7197 24.0264C30.8325 24.2601 30.9259 24.5537 31.0088 24.8662C31.1785 25.5061 31.3547 26.4299 31.54 27.6143C31.9123 29.9935 32.339 33.5427 32.8193 38.25L32.8281 38.3438L32.8203 38.4375L32.8125 38.5283L32.8096 38.5693L32.8018 38.6113C32.6912 39.257 32.2083 39.6941 31.7979 39.9736C31.3525 40.2769 30.764 40.549 30.0752 40.8018C28.6892 41.3103 26.7012 41.8105 24.1436 42.3096L22.4648 42.6377L28.8945 23.2383L29.6191 23.2402ZM70.1104 26.8984L71.333 27.3457L71.501 27.75L72.3047 29.6787L72.1709 30.0459L70.6953 34.0801L70.5889 34.2109C68.3475 36.9608 66.4045 38.997 64.7676 40.2715C63.9498 40.9082 63.1677 41.3874 62.4287 41.6582C61.6875 41.9298 60.9103 42.0192 60.1797 41.752L59.2412 41.4082L59.584 40.4688C61.0284 36.5196 62.5499 33.3924 64.1631 31.1279C65.7682 28.8749 67.5416 27.3691 69.5215 26.8682L69.8203 26.793L70.1104 26.8984ZM23.9521 41.3281C29.0356 40.3362 31.6571 39.3742 31.8164 38.4424L31.8242 38.3516C30.8644 28.9451 30.1282 24.2415 29.6162 24.2402L23.9521 41.3281ZM69.7666 27.8379C66.4624 28.6738 63.3812 32.9987 60.5234 40.8125C62.2665 41.45 65.3634 39.0387 69.8135 33.5791L71.2314 29.7021L70.5781 28.1348L69.7666 27.8379ZM31.1523 0V1H30.3711L24.6416 2.83398L23.9277 5.4541C20.0451 19.7116 16.5308 30.4657 13.3984 37.8359L13.1016 38.5342L11.1865 37.7676H10.2236V36.7676H11.3789L11.5586 36.8389L12.5625 37.2402C15.647 29.9373 19.1204 19.3015 22.9629 5.19141L23.8193 2.04688L24.3369 1.88184L30.0664 0.0478516L30.2148 0H31.1523ZM81.7764 12.792C84.7232 12.7921 86.7614 14.4283 87.9287 15.8682C89.3732 14.3493 91.4128 13.1758 94.1602 13.1758H94.1895L94.6162 13.1885L94.6475 13.1904C97.0712 13.3369 98.9989 14.5583 100.291 16.083L100.516 16.3584C101.603 17.7471 102.215 19.3359 102.598 20.6895C103.389 23.4922 103.684 27.1285 103.706 31.2549C103.855 32.1876 103.996 33.1144 104.129 34.0352C105.819 31.0454 107.843 28.1023 110.179 25.208L110.571 24.7217L110.652 24.6562L111.056 24.3271C114.056 21.8794 117.637 20 121.664 20C123.706 20 126.347 20.3796 128.566 22.1445C128.716 22.2638 128.86 22.3873 128.998 22.5127C129.596 22.2022 130.272 21.9613 131.03 21.833L132.555 21.377L132.766 21.3145L132.983 21.3447L134.072 21.5L134.089 21.502C136.146 20.5284 138.368 20 140.712 20V21C138.421 21 136.253 21.5391 134.249 22.5352L133.931 22.4902L132.842 22.335L131.269 22.8057C130.315 22.9555 129.511 23.3121 128.843 23.7656C128.575 23.4718 128.276 23.1906 127.944 22.9268C125.978 21.363 123.601 21 121.664 21C117.957 21 114.594 22.7307 111.688 25.1016L111.284 25.4307L110.957 25.8359C107.941 29.5727 105.463 33.3807 103.559 37.2539C103.311 35.3104 103.027 33.3387 102.708 31.3389C102.69 27.2047 102.395 23.6486 101.636 20.9609C101.247 19.5834 100.627 18.0261 99.5283 16.7295C98.3801 15.3745 96.692 14.3156 94.5869 14.1885L94.1602 14.1758C91.2038 14.1758 89.1759 15.7012 87.8623 17.5088C87.686 17.2216 87.4976 16.9419 87.293 16.6748C86.2636 15.3314 84.4355 13.7921 81.7764 13.792V12.792ZM31.1523 0C33.1584 9.23803e-05 35.0452 0.714488 36.5488 2.04102C37.9305 3.26018 38.7299 4.76068 39.2129 6.03906C40.1041 8.39808 40.384 11.2686 40.4092 14.1992L42.4121 29.1182L47.7549 27.168H48.8164V28.168H47.9316L41.5869 30.4854L39.4111 14.2764C39.3901 11.3586 39.1124 8.60312 38.2773 6.39258C37.8295 5.20727 37.1072 3.86705 35.8877 2.79102C34.5665 1.62533 32.9147 1.00008 31.1523 1V0ZM81.7764 12.792V13.792H81.3379L80.9072 13.8682C79.3801 14.1377 77.5783 14.6963 76.083 15.9717C75.3403 16.6052 74.7546 17.3469 74.3311 18.1611C74.2117 18.1135 74.0922 18.0649 73.9707 18.0205C68.6307 16.0675 63.5489 18.385 59.3359 21.9551C58.3451 22.1593 57.3475 22.5297 56.4053 23.1367C54.8263 24.1541 53.7802 25.5893 53.1553 27.1328L53.0361 27.4434L52.8418 27.9746L52.501 29.167C51.386 28.4985 50.1154 28.168 48.8164 28.168V27.168C49.8611 27.168 50.8961 27.3579 51.8672 27.7432L51.8799 27.7002L51.8906 27.665L51.9023 27.6309L52.0967 27.0996L52.0996 27.0928L52.1025 27.085L52.2217 26.7744L52.2246 26.7656L52.2285 26.7578C52.9186 25.0533 54.0857 23.4412 55.8633 22.2959C56.8401 21.6666 57.8663 21.2687 58.8799 21.0332C63.0621 17.547 68.2931 15.0971 73.8955 16.9375C74.3166 16.3065 74.8302 15.7257 75.4336 15.2109C77.1192 13.7732 79.1187 13.1687 80.7334 12.8838L81.1641 12.8076L81.25 12.792H81.7764ZM109.664 56.624H110.624C115.424 44.6565 117.824 37.3606 117.824 34.7363H117.44C113.728 38.8963 111.264 44.6883 110.048 52.1123L109.664 54.7998V56.624ZM38.6396 43.1523L38.6465 43.2949C38.7746 44.9405 40.8839 51.9008 44.9756 64.1758V64.3682C44.9755 65.5841 43.9839 66.6085 42 67.4404L41.8281 67.4336C40.0688 67.3001 38.9096 65.0944 38.3516 60.8164C36.8796 57.6164 35.0876 52.3356 32.9756 44.9756H32.5918C24.2088 46.7034 20.0166 48.1757 20.0156 49.3916C15.4076 59.3756 11.9198 64.3682 9.55176 64.3682L9.30664 64.3574C8.11035 64.2563 7.39242 63.3962 7.15234 61.7764C7.15234 60.2404 8.84823 57.232 12.2402 52.752L13.7764 49.3916H11.376L9.55176 49.7764C7.18386 49.2004 6 47.9839 6 46.1279C6.95994 43.8881 8.36783 42.7677 10.2236 42.7676L12.624 43.7275C16.208 43.7275 18 42.416 18 39.792C21.264 32.112 24.848 21.1036 28.752 6.76758L31.1523 6C33.3281 6.0003 34.416 8.88019 34.416 14.6396L37.3916 36.8164L37.7764 37.2002L48.8164 33.168C50.2881 33.1682 51.0878 34.2885 51.2158 36.5283C51.2153 38.1922 47.1517 40.2084 39.0244 42.5762L38.6396 42.7676V43.1523ZM92.7598 28.3916C92.7598 32.497 91.9322 36.6224 90.29 40.7607L90.0391 41.3916H88.7246L88.665 41.3848L88.6162 41.3789L88.5459 41.3701L88.4775 41.3516C88.1296 41.2587 87.8992 41.0335 87.7744 40.8896C87.6353 40.7291 87.5183 40.5417 87.4189 40.3574C87.2191 39.9865 87.0198 39.4935 86.8174 38.9072C86.4093 37.7256 85.9404 36.0191 85.4111 33.8086L85.3936 33.7354L85.3877 33.6602C84.9734 28.7519 84.388 25.1437 83.6533 22.7861C83.2843 21.6021 82.8989 20.8054 82.5303 20.3242C82.2211 19.9207 81.9905 19.818 81.8428 19.7969C80.9055 19.9742 80.3177 20.2462 79.9766 20.5371C79.789 20.6972 79.6607 20.8758 79.5869 21.0898L79.7246 21.1816L79.7891 21.623C81.0466 30.2057 82.3827 36.6209 83.7861 40.9053C84.4896 43.0528 85.192 44.6078 85.875 45.6221C86.5711 46.6557 87.1158 46.9389 87.458 46.9717L87.541 46.9746C88.0369 46.9733 88.7343 46.7797 89.667 46.2617C90.5915 45.7482 91.6766 44.9563 92.9258 43.8633L94.1572 42.7861L94.5537 44.374C95.0361 46.3039 95.2879 50.5606 95.3516 56.9902V57.0127L95.3506 57.0342L95.1592 62.6025L95.1582 62.6475L95.1523 62.6914C94.3175 69.4345 93.2423 74.5719 91.9014 78.0479C91.2318 79.7834 90.4713 81.1715 89.5898 82.1406C88.6947 83.1247 87.6218 83.7275 86.3838 83.7275H84.7217L84.4287 83.4346C81.3171 80.3228 79.624 77.1075 79.624 73.7998V73.7764L79.625 73.752L79.8848 68.2822L78.2402 67.2295C77.9303 67.261 77.6785 67.3469 77.4688 67.4717C77.1999 67.6317 76.9457 67.8878 76.7207 68.2891C76.2536 69.1223 75.96 70.5006 75.96 72.5518V72.7598L76.792 78.3076C78.2674 81.4754 79.7695 83.8134 81.2803 85.375C82.8041 86.9501 84.2813 87.6822 85.7148 87.7666L85.9238 87.7734L87.7432 87.4424C95.0234 82.8761 98.8242 74.0556 98.8242 60.5518V56.04C98.8242 48.6141 98.1255 40.5722 96.7246 31.9121L96.7119 31.832V31.752C96.7119 27.5838 96.4148 24.5517 95.8613 22.5918C95.584 21.6098 95.2642 20.9779 94.9512 20.6084C94.6993 20.3111 94.4735 20.2031 94.2539 20.1807L94.1602 20.1758C93.5006 20.1758 92.812 20.5536 92.2012 21.9316L92.7559 28.3047L92.7598 28.3486V28.3916Z" fill="black"/>
</svg>
