999
"DXF R12 Output" (www.mydxf.blogspot.com)
 0 
SECTION
 2 
HEADER
 9 
$ACADVER
 1 
AC1009
 9 
$EXTMIN
 10 
 0 
 20 
 0 
 9 
$EXTMAX
 10 
 8.5 
 20 
 11 
 0 
ENDSEC
 0 
SECTION
 2 
ENTITIES
0
POLYLINE
8
Layer 1
62
7
70
1
10
0.000000
20
0.000000
66
1
0
VERTEX
8
Layer 1
10
41.499314
20
10.405297
70
0
0
VERTEX
8
Layer 1
10
41.273361
20
10.740683
70
0
0
VERTEX
8
Layer 1
10
40.803461
20
11.566208
70
0
0
VERTEX
8
Layer 1
10
40.711915
20
11.854312
70
0
0
VERTEX
8
Layer 1
10
40.762451
20
15.800832
70
0
0
VERTEX
8
Layer 1
10
40.764038
20
15.910661
70
0
0
VERTEX
8
Layer 1
10
40.709534
20
16.262318
70
0
0
VERTEX
8
Layer 1
10
40.478024
20
17.506457
70
0
0
VERTEX
8
Layer 1
10
39.773439
20
18.586706
70
0
0
VERTEX
8
Layer 1
10
38.644861
20
19.294274
70
0
0
VERTEX
8
Layer 1
10
37.338482
20
19.574765
70
0
0
VERTEX
8
Layer 1
10
37.284507
20
19.579157
70
0
0
VERTEX
8
Layer 1
10
37.230003
20
19.579157
70
0
0
VERTEX
8
Layer 1
10
37.230003
20
19.843740
70
0
0
VERTEX
8
Layer 1
10
37.295355
20
19.843740
70
0
0
VERTEX
8
Layer 1
10
37.305938
20
19.842973
70
0
0
VERTEX
8
Layer 1
10
37.359913
20
19.838581
70
0
0
VERTEX
8
Layer 1
10
38.738589
20
19.541702
70
0
0
VERTEX
8
Layer 1
10
39.379955
20
19.227326
70
0
0
VERTEX
8
Layer 1
10
39.958118
20
18.776095
70
0
0
VERTEX
8
Layer 1
10
40.411977
20
18.221811
70
0
0
VERTEX
8
Layer 1
10
40.721573
20
17.609631
70
0
0
VERTEX
8
Layer 1
10
40.973059
20
16.288406
70
0
0
VERTEX
8
Layer 1
10
41.025711
20
15.951221
70
0
0
VERTEX
8
Layer 1
10
41.028886
20
15.929261
70
0
0
VERTEX
8
Layer 1
10
41.028621
20
15.907036
70
0
0
VERTEX
8
Layer 1
10
41.027034
20
15.797234
70
0
0
VERTEX
8
Layer 1
10
40.976763
20
11.875241
70
0
0
VERTEX
8
Layer 1
10
41.047142
20
11.669581
70
0
0
VERTEX
8
Layer 1
10
41.492700
20
10.888479
70
0
0
VERTEX
8
Layer 1
10
41.718654
20
10.553093
70
0
0
VERTEX
8
Layer 1
10
41.763897
20
10.486180
70
0
0
VERTEX
8
Layer 1
10
41.763897
20
9.735585
70
0
0
VERTEX
8
Layer 1
10
41.706747
20
9.528363
70
0
0
VERTEX
8
Layer 1
10
41.464191
20
8.898933
70
0
0
VERTEX
8
Layer 1
10
41.013275
20
8.275457
70
0
0
VERTEX
8
Layer 1
10
40.286069
20
7.790268
70
0
0
VERTEX
8
Layer 1
10
39.439800
20
7.626408
70
0
0
VERTEX
8
Layer 1
10
39.120184
20
7.626408
70
0
0
VERTEX
8
Layer 1
10
39.071236
20
7.647072
70
0
0
VERTEX
8
Layer 1
10
38.825968
20
7.749916
70
0
0
VERTEX
8
Layer 1
10
37.779939
20
8.378363
70
0
0
VERTEX
8
Layer 1
10
36.976003
20
9.295557
70
0
0
VERTEX
8
Layer 1
10
36.924939
20
9.187818
70
0
0
VERTEX
8
Layer 1
10
36.596393
20
8.689447
70
0
0
VERTEX
8
Layer 1
10
36.103144
20
8.250665
70
0
0
VERTEX
8
Layer 1
10
35.828507
20
8.097948
70
0
0
VERTEX
8
Layer 1
10
35.842001
20
7.998730
70
0
0
VERTEX
8
Layer 1
10
35.845969
20
7.967482
70
0
0
VERTEX
8
Layer 1
10
35.842794
20
7.936209
70
0
0
VERTEX
8
Layer 1
10
35.826390
20
7.780925
70
0
0
VERTEX
8
Layer 1
10
35.826655
20
7.780660
70
0
0
VERTEX
8
Layer 1
10
35.660629
20
7.058888
70
0
0
VERTEX
8
Layer 1
10
35.200122
20
6.309711
70
0
0
VERTEX
8
Layer 1
10
34.405381
20
5.772535
70
0
0
VERTEX
8
Layer 1
10
33.561824
20
5.619811
70
0
0
VERTEX
8
Layer 1
10
32.921004
20
5.619811
70
0
0
VERTEX
8
Layer 1
10
32.853536
20
5.665557
70
0
0
VERTEX
8
Layer 1
10
32.516722
20
5.894474
70
0
0
VERTEX
8
Layer 1
10
31.618098
20
6.639911
70
0
0
VERTEX
8
Layer 1
10
30.912555
20
7.514013
70
0
0
VERTEX
8
Layer 1
10
29.985026
20
6.952654
70
0
0
VERTEX
8
Layer 1
10
28.862830
20
6.737330
70
0
0
VERTEX
8
Layer 1
10
28.642697
20
6.737330
70
0
0
VERTEX
8
Layer 1
10
28.430502
20
6.797523
70
0
0
VERTEX
8
Layer 1
10
27.876465
20
7.001648
70
0
0
VERTEX
8
Layer 1
10
27.457040
20
4.934463
70
0
0
VERTEX
8
Layer 1
10
26.712511
20
3.120967
70
0
0
VERTEX
8
Layer 1
10
25.616967
20
1.596430
70
0
0
VERTEX
8
Layer 1
10
24.144495
20
0.396122
70
0
0
VERTEX
8
Layer 1
10
23.890496
20
0.239780
70
0
0
VERTEX
8
Layer 1
10
23.841415
20
0.230758
70
0
0
VERTEX
8
Layer 1
10
23.038088
20
0.084761
70
0
0
VERTEX
8
Layer 1
10
23.037850
20
0.085026
70
0
0
VERTEX
8
Layer 1
10
22.921063
20
0.063568
70
0
0
VERTEX
8
Layer 1
10
22.897542
20
0.059176
70
0
0
VERTEX
8
Layer 1
10
22.754138
20
0.059176
70
0
0
VERTEX
8
Layer 1
10
22.019633
20
0.145789
70
0
0
VERTEX
8
Layer 1
10
21.353611
20
0.384993
70
0
0
VERTEX
8
Layer 1
10
20.234646
20
1.197359
70
0
0
VERTEX
8
Layer 1
10
19.360620
20
2.303984
70
0
0
VERTEX
8
Layer 1
10
18.620796
20
3.672903
70
0
0
VERTEX
8
Layer 1
10
18.620558
20
3.673168
70
0
0
VERTEX
8
Layer 1
10
18.541209
20
3.844988
70
0
0
VERTEX
8
Layer 1
10
18.525467
20
3.879357
70
0
0
VERTEX
8
Layer 1
10
18.519778
20
3.916558
70
0
0
VERTEX
8
Layer 1
10
18.248475
20
5.725247
70
0
0
VERTEX
8
Layer 1
10
18.245644
20
5.744879
70
0
0
VERTEX
8
Layer 1
10
18.245644
20
5.939427
70
0
0
VERTEX
8
Layer 1
10
18.379734
20
7.185348
70
0
0
VERTEX
8
Layer 1
10
17.054640
20
7.874455
70
0
0
VERTEX
8
Layer 1
10
15.779889
20
8.736678
70
0
0
VERTEX
8
Layer 1
10
15.139889
20
7.846541
70
0
0
VERTEX
8
Layer 1
10
14.635445
20
7.410009
70
0
0
VERTEX
8
Layer 1
10
13.973819
20
7.082002
70
0
0
VERTEX
8
Layer 1
10
13.169989
20
6.970375
70
0
0
VERTEX
8
Layer 1
10
12.464538
20
6.234487
70
0
0
VERTEX
8
Layer 1
10
11.726663
20
5.828064
70
0
0
VERTEX
8
Layer 1
10
11.431838
20
5.704319
70
0
0
VERTEX
8
Layer 1
10
11.112486
20
5.704319
70
0
0
VERTEX
8
Layer 1
10
10.451116
20
5.805120
70
0
0
VERTEX
8
Layer 1
10
9.911220
20
6.068831
70
0
0
VERTEX
8
Layer 1
10
9.176956
20
6.852821
70
0
0
VERTEX
8
Layer 1
10
9.112344
20
6.964184
70
0
0
VERTEX
8
Layer 1
10
8.794074
20
7.747733
70
0
0
VERTEX
8
Layer 1
10
8.608499
20
8.598433
70
0
0
VERTEX
8
Layer 1
10
7.620969
20
11.382005
70
0
0
VERTEX
8
Layer 1
10
6.653601
20
11.102685
70
0
0
VERTEX
8
Layer 1
10
6.583566
20
11.076597
70
0
0
VERTEX
8
Layer 1
10
4.990644
20
8.186319
70
0
0
VERTEX
8
Layer 1
10
4.082436
20
7.144285
70
0
0
VERTEX
8
Layer 1
10
3.452962
20
6.730715
70
0
0
VERTEX
8
Layer 1
10
2.527233
20
6.517171
70
0
0
VERTEX
8
Layer 1
10
1.694583
20
6.674998
70
0
0
VERTEX
8
Layer 1
10
0.937150
20
7.197493
70
0
0
VERTEX
8
Layer 1
10
0.499948
20
7.891583
70
0
0
VERTEX
8
Layer 1
10
0.321945
20
8.557873
70
0
0
VERTEX
8
Layer 1
10
0.307734
20
8.654525
70
0
0
VERTEX
8
Layer 1
10
0.304890
20
8.673628
70
0
0
VERTEX
8
Layer 1
10
0.304890
20
8.790415
70
0
0
VERTEX
8
Layer 1
10
0.488947
20
9.722852
70
0
0
VERTEX
8
Layer 1
10
0.845943
20
10.471972
70
0
0
VERTEX
8
Layer 1
10
1.089595
20
10.877128
70
0
0
VERTEX
8
Layer 1
10
0.684971
20
11.213783
70
0
0
VERTEX
8
Layer 1
10
0.164879
20
12.023497
70
0
0
VERTEX
8
Layer 1
10
0.000000
20
12.930742
70
0
0
VERTEX
8
Layer 1
10
0.000000
20
13.256549
70
0
0
VERTEX
8
Layer 1
10
0.021446
20
13.306423
70
0
0
VERTEX
8
Layer 1
10
0.128416
20
13.556031
70
0
0
VERTEX
8
Layer 1
10
0.502652
20
14.234008
70
0
0
VERTEX
8
Layer 1
10
1.069185
20
14.839655
70
0
0
VERTEX
8
Layer 1
10
1.843753
20
15.265647
70
0
0
VERTEX
8
Layer 1
10
2.704991
20
15.407318
70
0
0
VERTEX
8
Layer 1
10
2.704991
20
15.142735
70
0
0
VERTEX
8
Layer 1
10
1.929570
20
15.015441
70
0
0
VERTEX
8
Layer 1
10
1.233774
20
14.632698
70
0
0
VERTEX
8
Layer 1
10
0.718856
20
14.081724
70
0
0
VERTEX
8
Layer 1
10
0.371554
20
13.451891
70
0
0
VERTEX
8
Layer 1
10
0.264583
20
13.202283
70
0
0
VERTEX
8
Layer 1
10
0.264583
20
12.930742
70
0
0
VERTEX
8
Layer 1
10
0.411838
20
12.118442
70
0
0
VERTEX
8
Layer 1
10
0.874621
20
11.398277
70
0
0
VERTEX
8
Layer 1
10
1.459858
20
10.962377
70
0
0
VERTEX
8
Layer 1
10
1.076419
20
10.342009
70
0
0
VERTEX
8
Layer 1
10
0.737048
20
9.630912
70
0
0
VERTEX
8
Layer 1
10
0.569473
20
8.790415
70
0
0
VERTEX
8
Layer 1
10
0.569473
20
8.693022
70
0
0
VERTEX
8
Layer 1
10
0.583683
20
8.596634
70
0
0
VERTEX
8
Layer 1
10
0.744980
20
7.991328
70
0
0
VERTEX
8
Layer 1
10
1.131196
20
7.377330
70
0
0
VERTEX
8
Layer 1
10
1.793110
20
6.920534
70
0
0
VERTEX
8
Layer 1
10
2.527233
20
6.781754
70
0
0
VERTEX
8
Layer 1
10
3.340005
20
6.969912
70
0
0
VERTEX
8
Layer 1
10
3.910854
20
7.345553
70
0
0
VERTEX
8
Layer 1
10
4.773871
20
8.337740
70
0
0
VERTEX
8
Layer 1
10
6.390817
20
11.286650
70
0
0
VERTEX
8
Layer 1
10
6.565998
20
11.352266
70
0
0
VERTEX
8
Layer 1
10
7.800039
20
11.699029
70
0
0
VERTEX
8
Layer 1
10
8.864298
20
8.672596
70
0
0
VERTEX
8
Layer 1
10
9.043020
20
7.838243
70
0
0
VERTEX
8
Layer 1
10
9.344119
20
7.091818
70
0
0
VERTEX
8
Layer 1
10
10.003870
20
6.327150
70
0
0
VERTEX
8
Layer 1
10
10.499753
20
6.068154
70
0
0
VERTEX
8
Layer 1
10
11.112486
20
5.968902
70
0
0
VERTEX
8
Layer 1
10
11.378630
20
5.968902
70
0
0
VERTEX
8
Layer 1
10
11.624084
20
6.071983
70
0
0
VERTEX
8
Layer 1
10
12.368528
20
6.491939
70
0
0
VERTEX
8
Layer 1
10
13.021929
20
7.245568
70
0
0
VERTEX
8
Layer 1
10
13.892671
20
7.333938
70
0
0
VERTEX
8
Layer 1
10
14.485757
20
7.628151
70
0
0
VERTEX
8
Layer 1
10
14.947140
20
8.027675
70
0
0
VERTEX
8
Layer 1
10
15.695143
20
9.136145
70
0
0
VERTEX
8
Layer 1
10
17.163893
20
8.117051
70
0
0
VERTEX
8
Layer 1
10
18.696758
20
7.336240
70
0
0
VERTEX
8
Layer 1
10
18.510227
20
5.939427
70
0
0
VERTEX
8
Layer 1
10
18.510227
20
5.764511
70
0
0
VERTEX
8
Layer 1
10
18.781530
20
3.955848
70
0
0
VERTEX
8
Layer 1
10
18.860852
20
3.784028
70
0
0
VERTEX
8
Layer 1
10
19.583220
20
2.446895
70
0
0
VERTEX
8
Layer 1
10
20.421733
20
1.384419
70
0
0
VERTEX
8
Layer 1
10
21.468724
20
0.623207
70
0
0
VERTEX
8
Layer 1
10
22.082426
20
0.402906
70
0
0
VERTEX
8
Layer 1
10
22.754138
20
0.323759
70
0
0
VERTEX
8
Layer 1
10
22.873518
20
0.323759
70
0
0
VERTEX
8
Layer 1
10
22.990807
20
0.345216
70
0
0
VERTEX
8
Layer 1
10
23.794134
20
0.491187
70
0
0
VERTEX
8
Layer 1
10
24.005748
20
0.621415
70
0
0
VERTEX
8
Layer 1
10
25.476103
20
1.833978
70
0
0
VERTEX
8
Layer 1
10
26.558104
20
3.392928
70
0
0
VERTEX
8
Layer 1
10
27.276573
20
5.265241
70
0
0
VERTEX
8
Layer 1
10
27.656332
20
7.417890
70
0
0
VERTEX
8
Layer 1
10
28.502733
20
7.052025
70
0
0
VERTEX
8
Layer 1
10
28.679474
20
7.001913
70
0
0
VERTEX
8
Layer 1
10
28.862830
20
7.001913
70
0
0
VERTEX
8
Layer 1
10
30.029046
20
7.259293
70
0
0
VERTEX
8
Layer 1
10
30.971821
20
7.924064
70
0
0
VERTEX
8
Layer 1
10
31.696514
20
6.940407
70
0
0
VERTEX
8
Layer 1
10
32.665682
20
6.113338
70
0
0
VERTEX
8
Layer 1
10
33.002231
20
5.884394
70
0
0
VERTEX
8
Layer 1
10
33.561824
20
5.884394
70
0
0
VERTEX
8
Layer 1
10
34.310429
20
6.019483
70
0
0
VERTEX
8
Layer 1
10
35.006448
20
6.490051
70
0
0
VERTEX
8
Layer 1
10
35.413112
20
7.152510
70
0
0
VERTEX
8
Layer 1
10
35.563395
20
7.807806
70
0
0
VERTEX
8
Layer 1
10
35.579799
20
7.963593
70
0
0
VERTEX
8
Layer 1
10
35.539582
20
8.263577
70
0
0
VERTEX
8
Layer 1
10
35.957888
20
8.471830
70
0
0
VERTEX
8
Layer 1
10
36.394351
20
8.860185
70
0
0
VERTEX
8
Layer 1
10
36.688931
20
9.307436
70
0
0
VERTEX
8
Layer 1
10
36.924410
20
9.961671
70
0
0
VERTEX
8
Layer 1
10
37.106178
20
9.592948
70
0
0
VERTEX
8
Layer 1
10
37.882035
20
8.638511
70
0
0
VERTEX
8
Layer 1
10
38.928361
20
7.993835
70
0
0
VERTEX
8
Layer 1
10
39.173630
20
7.890991
70
0
0
VERTEX
8
Layer 1
10
39.439800
20
7.890991
70
0
0
VERTEX
8
Layer 1
10
40.186189
20
8.035232
70
0
0
VERTEX
8
Layer 1
10
40.826215
20
8.462544
70
0
0
VERTEX
8
Layer 1
10
41.229241
20
9.020400
70
0
0
VERTEX
8
Layer 1
10
41.451689
20
9.598636
70
0
0
VERTEX
8
Layer 1
10
41.499314
20
9.771250
70
0
0
VERTEX
8
Layer 1
10
41.499314
20
10.405297
70
0
0
VERTEX
8
Layer 1
10
41.499314
20
10.405297
70
0
0
SEQEND
8
Layer 1
0
POLYLINE
8
Layer 1
62
7
70
1
10
0.000000
20
0.000000
66
1
0
VERTEX
8
Layer 1
10
24.125630
20
19.376063
70
0
0
VERTEX
8
Layer 1
10
24.462259
20
19.890376
70
0
0
VERTEX
8
Layer 1
10
24.913188
20
20.061809
70
0
0
VERTEX
8
Layer 1
10
25.324327
20
19.853820
70
0
0
VERTEX
8
Layer 1
10
25.617988
20
19.229904
70
0
0
VERTEX
8
Layer 1
10
25.794179
20
18.190078
70
0
0
VERTEX
8
Layer 1
10
25.852908
20
16.734361
70
0
0
VERTEX
8
Layer 1
10
26.272047
20
13.400615
70
0
0
VERTEX
8
Layer 1
10
26.411786
20
10.308169
70
0
0
VERTEX
8
Layer 1
10
26.411786
20
9.114423
70
0
0
VERTEX
8
Layer 1
10
26.218105
20
6.606222
70
0
0
VERTEX
8
Layer 1
10
25.637071
20
4.542495
70
0
0
VERTEX
8
Layer 1
10
24.668702
20
2.923248
70
0
0
VERTEX
8
Layer 1
10
23.313017
20
1.748485
70
0
0
VERTEX
8
Layer 1
10
22.754138
20
1.646674
70
0
0
VERTEX
8
Layer 1
10
22.663968
20
1.649531
70
0
0
VERTEX
8
Layer 1
10
21.977656
20
1.848167
70
0
0
VERTEX
8
Layer 1
10
21.315197
20
2.362672
70
0
0
VERTEX
8
Layer 1
10
20.676579
20
3.193044
70
0
0
VERTEX
8
Layer 1
10
20.061794
20
4.339282
70
0
0
VERTEX
8
Layer 1
10
19.833142
20
5.863227
70
0
0
VERTEX
8
Layer 1
10
19.833142
20
5.939427
70
0
0
VERTEX
8
Layer 1
10
19.891878
20
6.672810
70
0
0
VERTEX
8
Layer 1
10
20.068081
20
7.196676
70
0
0
VERTEX
8
Layer 1
10
20.361745
20
7.511017
70
0
0
VERTEX
8
Layer 1
10
20.772861
20
7.615825
70
0
0
VERTEX
8
Layer 1
10
21.407966
20
7.209373
70
0
0
VERTEX
8
Layer 1
10
21.331740
20
5.609228
70
0
0
VERTEX
8
Layer 1
10
21.630179
20
4.434509
70
0
0
VERTEX
8
Layer 1
10
22.525459
20
3.247110
70
0
0
VERTEX
8
Layer 1
10
22.855685
20
3.247110
70
0
0
VERTEX
8
Layer 1
10
23.193430
20
3.330447
70
0
0
VERTEX
8
Layer 1
10
23.508163
20
3.580458
70
0
0
VERTEX
8
Layer 1
10
24.068586
20
4.580519
70
0
0
VERTEX
8
Layer 1
10
24.536935
20
6.247314
70
0
0
VERTEX
8
Layer 1
10
24.913188
20
8.580865
70
0
0
VERTEX
8
Layer 1
10
24.963829
20
10.054169
70
0
0
VERTEX
8
Layer 1
10
24.760735
20
13.330712
70
0
0
VERTEX
8
Layer 1
10
23.852710
20
12.664062
70
0
0
VERTEX
8
Layer 1
10
23.160564
20
12.441872
70
0
0
VERTEX
8
Layer 1
10
23.120003
20
12.443433
70
0
0
VERTEX
8
Layer 1
10
22.806533
20
12.575156
70
0
0
VERTEX
8
Layer 1
10
22.501520
20
12.916845
70
0
0
VERTEX
8
Layer 1
10
21.916868
20
14.230106
70
0
0
VERTEX
8
Layer 1
10
21.366055
20
16.383187
70
0
0
VERTEX
8
Layer 1
10
20.849087
20
19.376063
70
0
0
VERTEX
8
Layer 1
10
20.772861
20
19.426704
70
0
0
VERTEX
8
Layer 1
10
20.988853
20
19.902980
70
0
0
VERTEX
8
Layer 1
10
21.636645
20
20.163356
70
0
0
VERTEX
8
Layer 1
10
22.046173
20
19.918799
70
0
0
VERTEX
8
Layer 1
10
22.385845
20
19.185332
70
0
0
VERTEX
8
Layer 1
10
22.855685
20
16.251708
70
0
0
VERTEX
8
Layer 1
10
23.220429
20
14.927622
70
0
0
VERTEX
8
Layer 1
10
23.477878
20
14.450030
70
0
0
VERTEX
8
Layer 1
10
23.490790
20
14.448469
70
0
0
VERTEX
8
Layer 1
10
23.643243
20
14.448469
70
0
0
VERTEX
8
Layer 1
10
24.119393
20
16.042317
70
0
0
VERTEX
8
Layer 1
10
24.278083
20
17.623465
70
0
0
VERTEX
8
Layer 1
10
24.125630
20
19.376063
70
0
0
VERTEX
8
Layer 1
10
24.125630
20
19.376063
70
0
0
SEQEND
8
Layer 1
0
POLYLINE
8
Layer 1
62
7
70
1
10
0.000000
20
0.000000
66
1
0
VERTEX
8
Layer 1
10
20.527143
20
14.246169
70
0
0
VERTEX
8
Layer 1
10
20.679860
20
13.757035
70
0
0
VERTEX
8
Layer 1
10
21.450088
20
12.111408
70
0
0
VERTEX
8
Layer 1
10
22.091510
20
11.460074
70
0
0
VERTEX
8
Layer 1
10
22.570517
20
11.215862
70
0
0
VERTEX
8
Layer 1
10
23.160564
20
11.118957
70
0
0
VERTEX
8
Layer 1
10
23.619192
20
11.167799
70
0
0
VERTEX
8
Layer 1
10
23.640914
20
10.067345
70
0
0
VERTEX
8
Layer 1
10
23.593104
20
8.687598
70
0
0
VERTEX
8
Layer 1
10
23.238242
20
6.501011
70
0
0
VERTEX
8
Layer 1
10
22.834227
20
5.056540
70
0
0
VERTEX
8
Layer 1
10
22.818220
20
5.017541
70
0
0
VERTEX
8
Layer 1
10
22.655184
20
5.590892
70
0
0
VERTEX
8
Layer 1
10
22.765753
20
7.910888
70
0
0
VERTEX
8
Layer 1
10
22.006638
20
8.396900
70
0
0
VERTEX
8
Layer 1
10
22.106740
20
8.964500
70
0
0
VERTEX
8
Layer 1
10
22.038150
20
9.588556
70
0
0
VERTEX
8
Layer 1
10
21.731631
20
10.230137
70
0
0
VERTEX
8
Layer 1
10
21.276204
20
10.698561
70
0
0
VERTEX
8
Layer 1
10
21.113670
20
10.824397
70
0
0
VERTEX
8
Layer 1
10
20.920922
20
10.894934
70
0
0
VERTEX
8
Layer 1
10
20.716796
20
10.970896
70
0
0
VERTEX
8
Layer 1
10
19.268025
20
11.620573
70
0
0
VERTEX
8
Layer 1
10
18.243315
20
12.277275
70
0
0
VERTEX
8
Layer 1
10
19.517249
20
13.156997
70
0
0
VERTEX
8
Layer 1
10
20.527143
20
14.246169
70
0
0
VERTEX
8
Layer 1
10
20.527143
20
14.246169
70
0
0
SEQEND
8
Layer 1
0
POLYLINE
8
Layer 1
62
7
70
1
10
0.000000
20
0.000000
66
1
0
VERTEX
8
Layer 1
10
20.423532
20
13.689592
70
0
0
VERTEX
8
Layer 1
10
19.640744
20
12.915472
70
0
0
VERTEX
8
Layer 1
10
18.725200
20
12.254044
70
0
0
VERTEX
8
Layer 1
10
20.808791
20
11.218943
70
0
0
VERTEX
8
Layer 1
10
21.011859
20
11.143510
70
0
0
VERTEX
8
Layer 1
10
21.204634
20
11.072972
70
0
0
VERTEX
8
Layer 1
10
21.243131
20
11.058764
70
0
0
VERTEX
8
Layer 1
10
21.275675
20
11.033682
70
0
0
VERTEX
8
Layer 1
10
21.438208
20
10.907873
70
0
0
VERTEX
8
Layer 1
10
21.946631
20
10.384471
70
0
0
VERTEX
8
Layer 1
10
22.293446
20
9.658326
70
0
0
VERTEX
8
Layer 1
10
22.373205
20
9.063835
70
0
0
VERTEX
8
Layer 1
10
22.311279
20
8.516016
70
0
0
VERTEX
8
Layer 1
10
23.037321
20
8.051196
70
0
0
VERTEX
8
Layer 1
10
22.962391
20
6.478436
70
0
0
VERTEX
8
Layer 1
10
23.329289
20
8.711093
70
0
0
VERTEX
8
Layer 1
10
23.376331
20
10.072002
70
0
0
VERTEX
8
Layer 1
10
23.361859
20
10.863925
70
0
0
VERTEX
8
Layer 1
10
23.160564
20
10.854374
70
0
0
VERTEX
8
Layer 1
10
22.484025
20
10.965476
70
0
0
VERTEX
8
Layer 1
10
21.940754
20
11.242673
70
0
0
VERTEX
8
Layer 1
10
21.234082
20
11.958690
70
0
0
VERTEX
8
Layer 1
10
20.784946
20
12.755919
70
0
0
VERTEX
8
Layer 1
10
20.428956
20
13.673320
70
0
0
VERTEX
8
Layer 1
10
20.423532
20
13.689592
70
0
0
VERTEX
8
Layer 1
10
20.423532
20
13.689592
70
0
0
SEQEND
8
Layer 1
0
POLYLINE
8
Layer 1
62
7
70
1
10
0.000000
20
0.000000
66
1
0
VERTEX
8
Layer 1
10
32.662242
20
12.236450
70
0
0
VERTEX
8
Layer 1
10
32.662242
20
12.240842
70
0
0
VERTEX
8
Layer 1
10
32.662507
20
12.245234
70
0
0
VERTEX
8
Layer 1
10
32.816759
20
16.948302
70
0
0
VERTEX
8
Layer 1
10
33.041125
20
17.422197
70
0
0
VERTEX
8
Layer 1
10
32.885021
20
17.808991
70
0
0
VERTEX
8
Layer 1
10
32.312993
20
17.988563
70
0
0
VERTEX
8
Layer 1
10
32.187051
20
17.991659
70
0
0
VERTEX
8
Layer 1
10
31.433618
20
17.820252
70
0
0
VERTEX
8
Layer 1
10
30.575211
20
17.281121
70
0
0
VERTEX
8
Layer 1
10
29.347815
20
15.536605
70
0
0
VERTEX
8
Layer 1
10
28.475249
20
13.797056
70
0
0
VERTEX
8
Layer 1
10
27.954165
20
12.062116
70
0
0
VERTEX
8
Layer 1
10
27.781215
20
10.331426
70
0
0
VERTEX
8
Layer 1
10
27.852520
20
9.680297
70
0
0
VERTEX
8
Layer 1
10
28.055588
20
9.190914
70
0
0
VERTEX
8
Layer 1
10
28.384398
20
8.839253
70
0
0
VERTEX
8
Layer 1
10
28.861243
20
8.601794
70
0
0
VERTEX
8
Layer 1
10
28.898549
20
8.590443
70
0
0
VERTEX
8
Layer 1
10
29.453380
20
8.746087
70
0
0
VERTEX
8
Layer 1
10
30.002654
20
9.209250
70
0
0
VERTEX
8
Layer 1
10
30.557716
20
10.048315
70
0
0
VERTEX
8
Layer 1
10
31.077655
20
11.258498
70
0
0
VERTEX
8
Layer 1
10
31.140096
20
11.434181
70
0
0
VERTEX
8
Layer 1
10
31.766364
20
11.434181
70
0
0
VERTEX
8
Layer 1
10
31.770862
20
11.010187
70
0
0
VERTEX
8
Layer 1
10
31.775889
20
10.864190
70
0
0
VERTEX
8
Layer 1
10
31.918446
20
9.814116
70
0
0
VERTEX
8
Layer 1
10
32.245425
20
8.906577
70
0
0
VERTEX
8
Layer 1
10
32.755214
20
8.137978
70
0
0
VERTEX
8
Layer 1
10
33.446202
20
7.504727
70
0
0
VERTEX
8
Layer 1
10
33.493033
20
7.471892
70
0
0
VERTEX
8
Layer 1
10
33.561824
20
7.471892
70
0
0
VERTEX
8
Layer 1
10
33.561824
20
7.207309
70
0
0
VERTEX
8
Layer 1
10
33.409425
20
7.207309
70
0
0
VERTEX
8
Layer 1
10
33.292214
20
7.289488
70
0
0
VERTEX
8
Layer 1
10
32.531852
20
7.992138
70
0
0
VERTEX
8
Layer 1
10
31.980743
20
8.845484
70
0
0
VERTEX
8
Layer 1
10
31.638885
20
9.849519
70
0
0
VERTEX
8
Layer 1
10
31.506279
20
11.004234
70
0
0
VERTEX
8
Layer 1
10
31.504427
20
11.169598
70
0
0
VERTEX
8
Layer 1
10
31.326627
20
11.169598
70
0
0
VERTEX
8
Layer 1
10
30.791640
20
9.925004
70
0
0
VERTEX
8
Layer 1
10
30.202679
20
9.036014
70
0
0
VERTEX
8
Layer 1
10
29.559742
20
8.502624
70
0
0
VERTEX
8
Layer 1
10
28.862830
20
8.324828
70
0
0
VERTEX
8
Layer 1
10
28.780016
20
8.349884
70
0
0
VERTEX
8
Layer 1
10
28.227323
20
8.626248
70
0
0
VERTEX
8
Layer 1
10
27.832511
20
9.048625
70
0
0
VERTEX
8
Layer 1
10
27.595606
20
9.617016
70
0
0
VERTEX
8
Layer 1
10
27.516632
20
10.331426
70
0
0
VERTEX
8
Layer 1
10
27.696019
20
12.120556
70
0
0
VERTEX
8
Layer 1
10
28.234181
20
13.906537
70
0
0
VERTEX
8
Layer 1
10
29.131117
20
15.689343
70
0
0
VERTEX
8
Layer 1
10
30.386828
20
17.468949
70
0
0
VERTEX
8
Layer 1
10
31.320277
20
18.059445
70
0
0
VERTEX
8
Layer 1
10
32.190226
20
18.256242
70
0
0
VERTEX
8
Layer 1
10
32.325693
20
18.252882
70
0
0
VERTEX
8
Layer 1
10
33.062325
20
18.005341
70
0
0
VERTEX
8
Layer 1
10
33.307825
20
17.367137
70
0
0
VERTEX
8
Layer 1
10
33.079225
20
16.884750
70
0
0
VERTEX
8
Layer 1
10
32.926825
20
12.236450
70
0
0
VERTEX
8
Layer 1
10
33.006200
20
10.810872
70
0
0
VERTEX
8
Layer 1
10
33.244325
20
9.683740
70
0
0
VERTEX
8
Layer 1
10
33.641199
20
8.855057
70
0
0
VERTEX
8
Layer 1
10
34.196824
20
8.324828
70
0
0
VERTEX
8
Layer 1
10
34.247624
20
7.943961
70
0
0
VERTEX
8
Layer 1
10
34.235982
20
7.854558
70
0
0
VERTEX
8
Layer 1
10
34.016180
20
7.369108
70
0
0
VERTEX
8
Layer 1
10
33.561824
20
7.207309
70
0
0
VERTEX
8
Layer 1
10
33.561824
20
7.471892
70
0
0
VERTEX
8
Layer 1
10
33.833022
20
7.559998
70
0
0
VERTEX
8
Layer 1
10
33.974838
20
7.895913
70
0
0
VERTEX
8
Layer 1
10
33.980924
20
7.943194
70
0
0
VERTEX
8
Layer 1
10
33.950232
20
8.170047
70
0
0
VERTEX
8
Layer 1
10
33.384951
20
8.761879
70
0
0
VERTEX
8
Layer 1
10
32.992706
20
9.601997
70
0
0
VERTEX
8
Layer 1
10
32.743734
20
10.778204
70
0
0
VERTEX
8
Layer 1
10
32.662242
20
12.236450
70
0
0
VERTEX
8
Layer 1
10
32.662242
20
12.236450
70
0
0
SEQEND
8
Layer 1
0
POLYLINE
8
Layer 1
62
7
70
1
10
0.000000
20
0.000000
66
1
0
VERTEX
8
Layer 1
10
9.958798
20
13.983650
70
0
0
VERTEX
8
Layer 1
10
10.207374
20
14.107395
70
0
0
VERTEX
8
Layer 1
10
10.228567
20
14.118005
70
0
0
VERTEX
8
Layer 1
10
10.251295
20
14.124461
70
0
0
VERTEX
8
Layer 1
10
12.626853
20
14.977371
70
0
0
VERTEX
8
Layer 1
10
13.171524
20
15.319212
70
0
0
VERTEX
8
Layer 1
10
13.271536
20
15.433935
70
0
0
VERTEX
8
Layer 1
10
13.284712
20
15.462351
70
0
0
VERTEX
8
Layer 1
10
13.285744
20
15.468304
70
0
0
VERTEX
8
Layer 1
10
13.151389
20
15.983527
70
0
0
VERTEX
8
Layer 1
10
12.957582
20
16.093329
70
0
0
VERTEX
8
Layer 1
10
9.927551
20
14.986419
70
0
0
VERTEX
8
Layer 1
10
9.642807
20
15.270370
70
0
0
VERTEX
8
Layer 1
10
8.843634
20
21.226848
70
0
0
VERTEX
8
Layer 1
10
8.841306
20
21.244416
70
0
0
VERTEX
8
Layer 1
10
8.841306
20
21.262011
70
0
0
VERTEX
8
Layer 1
10
8.642604
20
22.882828
70
0
0
VERTEX
8
Layer 1
10
8.445198
20
23.206579
70
0
0
VERTEX
8
Layer 1
10
8.277532
20
23.281509
70
0
0
VERTEX
8
Layer 1
10
7.824328
20
23.136557
70
0
0
VERTEX
8
Layer 1
10
6.366168
20
18.214174
70
0
0
VERTEX
8
Layer 1
10
5.025781
20
14.551551
70
0
0
VERTEX
8
Layer 1
10
4.903685
20
14.019349
70
0
0
VERTEX
8
Layer 1
10
4.563289
20
13.612599
70
0
0
VERTEX
8
Layer 1
10
4.025164
20
13.373856
70
0
0
VERTEX
8
Layer 1
10
3.340096
20
13.301264
70
0
0
VERTEX
8
Layer 1
10
3.289190
20
13.301264
70
0
0
VERTEX
8
Layer 1
10
3.241909
20
13.320129
70
0
0
VERTEX
8
Layer 1
10
2.658239
20
13.553703
70
0
0
VERTEX
8
Layer 1
10
2.222084
20
13.390402
70
0
0
VERTEX
8
Layer 1
10
1.853891
20
12.878275
70
0
0
VERTEX
8
Layer 1
10
2.012019
20
12.505689
70
0
0
VERTEX
8
Layer 1
10
2.534467
20
12.237508
70
0
0
VERTEX
8
Layer 1
10
2.982247
20
12.331805
70
0
0
VERTEX
8
Layer 1
10
4.056851
20
12.331805
70
0
0
VERTEX
8
Layer 1
10
3.479108
20
11.068051
70
0
0
VERTEX
8
Layer 1
10
3.466963
20
11.041699
70
0
0
VERTEX
8
Layer 1
10
3.449395
20
11.018442
70
0
0
VERTEX
8
Layer 1
10
2.459278
20
9.562203
70
0
0
VERTEX
8
Layer 1
10
2.158005
20
8.806184
70
0
0
VERTEX
8
Layer 1
10
2.285645
20
8.467703
70
0
0
VERTEX
8
Layer 1
10
2.480466
20
8.371580
70
0
0
VERTEX
8
Layer 1
10
2.529300
20
8.369516
70
0
0
VERTEX
8
Layer 1
10
2.880965
20
8.553745
70
0
0
VERTEX
8
Layer 1
10
3.472387
20
9.246979
70
0
0
VERTEX
8
Layer 1
10
5.038454
20
12.142152
70
0
0
VERTEX
8
Layer 1
10
5.143097
20
12.358687
70
0
0
VERTEX
8
Layer 1
10
5.361166
20
12.543948
70
0
0
VERTEX
8
Layer 1
10
6.040192
20
12.850388
70
0
0
VERTEX
8
Layer 1
10
8.569738
20
13.494780
70
0
0
VERTEX
8
Layer 1
10
8.596355
20
13.500204
70
0
0
VERTEX
8
Layer 1
10
8.923988
20
13.500204
70
0
0
VERTEX
8
Layer 1
10
8.979021
20
13.308487
70
0
0
VERTEX
8
Layer 1
10
10.387476
20
9.155010
70
0
0
VERTEX
8
Layer 1
10
10.404250
20
9.118577
70
0
0
VERTEX
8
Layer 1
10
10.409436
20
9.078519
70
0
0
VERTEX
8
Layer 1
10
10.722067
20
7.880911
70
0
0
VERTEX
8
Layer 1
10
11.066501
20
7.560527
70
0
0
VERTEX
8
Layer 1
10
11.523182
20
7.855458
70
0
0
VERTEX
8
Layer 1
10
11.635196
20
8.104669
70
0
0
VERTEX
8
Layer 1
10
11.635196
20
8.113453
70
0
0
VERTEX
8
Layer 1
10
10.416156
20
11.895905
70
0
0
VERTEX
8
Layer 1
10
10.092915
20
13.023505
70
0
0
VERTEX
8
Layer 1
10
9.961391
20
13.659642
70
0
0
VERTEX
8
Layer 1
10
9.961127
20
13.663769
70
0
0
VERTEX
8
Layer 1
10
9.960888
20
13.667632
70
0
0
VERTEX
8
Layer 1
10
9.959063
20
13.705361
70
0
0
VERTEX
8
Layer 1
10
9.958798
20
13.711553
70
0
0
VERTEX
8
Layer 1
10
9.958798
20
13.983650
70
0
0
VERTEX
8
Layer 1
10
9.958798
20
13.983650
70
0
0
SEQEND
8
Layer 1
0
POLYLINE
8
Layer 1
62
7
70
1
10
0.000000
20
0.000000
66
1
0
VERTEX
8
Layer 1
10
16.265663
20
18.058334
70
0
0
VERTEX
8
Layer 1
10
17.047913
20
18.695169
70
0
0
VERTEX
8
Layer 1
10
17.783867
20
19.085273
70
0
0
VERTEX
8
Layer 1
10
18.473526
20
19.228620
70
0
0
VERTEX
8
Layer 1
10
19.116889
20
19.125185
70
0
0
VERTEX
8
Layer 1
10
19.744297
20
18.746971
70
0
0
VERTEX
8
Layer 1
10
20.123670
20
18.161964
70
0
0
VERTEX
8
Layer 1
10
20.255002
20
17.370177
70
0
0
VERTEX
8
Layer 1
10
20.138285
20
16.371617
70
0
0
VERTEX
8
Layer 1
10
20.059731
20
16.156882
70
0
0
VERTEX
8
Layer 1
10
20.004697
20
16.013478
70
0
0
VERTEX
8
Layer 1
10
19.429036
20
14.985231
70
0
0
VERTEX
8
Layer 1
10
18.589883
20
14.104101
70
0
0
VERTEX
8
Layer 1
10
17.487269
20
13.370093
70
0
0
VERTEX
8
Layer 1
10
16.121227
20
12.783210
70
0
0
VERTEX
8
Layer 1
10
16.725155
20
11.887877
70
0
0
VERTEX
8
Layer 1
10
17.650669
20
11.067624
70
0
0
VERTEX
8
Layer 1
10
18.897761
20
10.322456
70
0
0
VERTEX
8
Layer 1
10
20.466421
20
9.652373
70
0
0
VERTEX
8
Layer 1
10
20.521719
20
9.606653
70
0
0
VERTEX
8
Layer 1
10
20.769236
20
9.210711
70
0
0
VERTEX
8
Layer 1
10
20.720923
20
8.720909
70
0
0
VERTEX
8
Layer 1
10
20.335496
20
8.314248
70
0
0
VERTEX
8
Layer 1
10
19.650447
20
8.382190
70
0
0
VERTEX
8
Layer 1
10
18.493897
20
8.889687
70
0
0
VERTEX
8
Layer 1
10
17.362019
20
9.557186
70
0
0
VERTEX
8
Layer 1
10
15.172433
20
11.372163
70
0
0
VERTEX
8
Layer 1
10
14.919491
20
10.680490
70
0
0
VERTEX
8
Layer 1
10
14.460750
20
9.629535
70
0
0
VERTEX
8
Layer 1
10
13.983132
20
8.933657
70
0
0
VERTEX
8
Layer 1
10
13.486643
20
8.592877
70
0
0
VERTEX
8
Layer 1
10
12.971287
20
8.607217
70
0
0
VERTEX
8
Layer 1
10
12.712641
20
8.903001
70
0
0
VERTEX
8
Layer 1
10
12.676201
20
9.519854
70
0
0
VERTEX
8
Layer 1
10
13.269975
20
11.716597
70
0
0
VERTEX
8
Layer 1
10
13.950562
20
13.577197
70
0
0
VERTEX
8
Layer 1
10
14.123149
20
14.271225
70
0
0
VERTEX
8
Layer 1
10
14.569369
20
14.973508
70
0
0
VERTEX
8
Layer 1
10
15.239875
20
17.324778
70
0
0
VERTEX
8
Layer 1
10
15.274747
20
17.420107
70
0
0
VERTEX
8
Layer 1
10
15.640308
20
17.901671
70
0
0
VERTEX
8
Layer 1
10
16.265663
20
18.058334
70
0
0
VERTEX
8
Layer 1
10
16.265663
20
18.058334
70
0
0
SEQEND
8
Layer 1
0
POLYLINE
8
Layer 1
62
7
70
1
10
0.000000
20
0.000000
66
1
0
VERTEX
8
Layer 1
10
19.025952
20
18.876610
70
0
0
VERTEX
8
Layer 1
10
18.484211
20
18.963444
70
0
0
VERTEX
8
Layer 1
10
17.876583
20
18.837365
70
0
0
VERTEX
8
Layer 1
10
17.198977
20
18.478212
70
0
0
VERTEX
8
Layer 1
10
16.447299
20
17.865823
70
0
0
VERTEX
8
Layer 1
10
16.370041
20
17.792957
70
0
0
VERTEX
8
Layer 1
10
16.263600
20
17.793751
70
0
0
VERTEX
8
Layer 1
10
15.783514
20
17.679266
70
0
0
VERTEX
8
Layer 1
10
15.523323
20
17.329170
70
0
0
VERTEX
8
Layer 1
10
15.491546
20
17.242863
70
0
0
VERTEX
8
Layer 1
10
14.823871
20
14.900906
70
0
0
VERTEX
8
Layer 1
10
14.813288
20
14.863944
70
0
0
VERTEX
8
Layer 1
10
14.792624
20
14.831638
70
0
0
VERTEX
8
Layer 1
10
14.369635
20
14.166053
70
0
0
VERTEX
8
Layer 1
10
14.207393
20
13.513380
70
0
0
VERTEX
8
Layer 1
10
14.204033
20
13.499701
70
0
0
VERTEX
8
Layer 1
10
13.518551
20
11.625660
70
0
0
VERTEX
8
Layer 1
10
12.939511
20
9.494523
70
0
0
VERTEX
8
Layer 1
10
12.964302
20
8.984460
70
0
0
VERTEX
8
Layer 1
10
13.062225
20
8.855793
70
0
0
VERTEX
8
Layer 1
10
13.405362
20
8.844681
70
0
0
VERTEX
8
Layer 1
10
13.790357
20
9.114952
70
0
0
VERTEX
8
Layer 1
10
14.227531
20
9.754664
70
0
0
VERTEX
8
Layer 1
10
14.670916
20
10.771427
70
0
0
VERTEX
8
Layer 1
10
15.066256
20
11.851984
70
0
0
VERTEX
8
Layer 1
10
15.359255
20
11.559514
70
0
0
VERTEX
8
Layer 1
10
17.508949
20
9.777270
70
0
0
VERTEX
8
Layer 1
10
18.614922
20
9.125061
70
0
0
VERTEX
8
Layer 1
10
19.741411
20
8.630739
70
0
0
VERTEX
8
Layer 1
10
20.255575
20
8.566419
70
0
0
VERTEX
8
Layer 1
10
20.472374
20
8.811872
70
0
0
VERTEX
8
Layer 1
10
20.511136
20
9.152682
70
0
0
VERTEX
8
Layer 1
10
20.346539
20
9.408216
70
0
0
VERTEX
8
Layer 1
10
20.332066
20
9.420096
70
0
0
VERTEX
8
Layer 1
10
18.755442
20
10.098141
70
0
0
VERTEX
8
Layer 1
10
17.481908
20
10.863307
70
0
0
VERTEX
8
Layer 1
10
16.520988
20
11.719283
70
0
0
VERTEX
8
Layer 1
10
15.882203
20
12.669757
70
0
0
VERTEX
8
Layer 1
10
15.755097
20
12.937462
70
0
0
VERTEX
8
Layer 1
10
16.035423
20
13.033559
70
0
0
VERTEX
8
Layer 1
10
17.361942
20
13.603070
70
0
0
VERTEX
8
Layer 1
10
18.420662
20
14.307599
70
0
0
VERTEX
8
Layer 1
10
19.217718
20
15.144832
70
0
0
VERTEX
8
Layer 1
10
19.759244
20
16.112458
70
0
0
VERTEX
8
Layer 1
10
19.811181
20
16.247845
70
0
0
VERTEX
8
Layer 1
10
19.883254
20
16.445489
70
0
0
VERTEX
8
Layer 1
10
19.990155
20
17.374718
70
0
0
VERTEX
8
Layer 1
10
19.875501
20
18.069949
70
0
0
VERTEX
8
Layer 1
10
19.561306
20
18.555750
70
0
0
VERTEX
8
Layer 1
10
19.025952
20
18.876610
70
0
0
VERTEX
8
Layer 1
10
19.025952
20
18.876610
70
0
0
SEQEND
8
Layer 1
0
POLYLINE
8
Layer 1
62
7
70
1
10
0.000000
20
0.000000
66
1
0
VERTEX
8
Layer 1
10
34.131207
20
12.871555
70
0
0
VERTEX
8
Layer 1
10
34.347107
20
16.567104
70
0
0
VERTEX
8
Layer 1
10
34.616981
20
17.491085
70
0
0
VERTEX
8
Layer 1
10
34.994806
20
17.799175
70
0
0
VERTEX
8
Layer 1
10
35.248806
20
17.875137
70
0
0
VERTEX
8
Layer 1
10
35.782205
20
17.799175
70
0
0
VERTEX
8
Layer 1
10
36.487054
20
18.141988
70
0
0
VERTEX
8
Layer 1
10
37.230003
20
18.256242
70
0
0
VERTEX
8
Layer 1
10
38.174564
20
18.057809
70
0
0
VERTEX
8
Layer 1
10
38.849251
20
17.640309
70
0
0
VERTEX
8
Layer 1
10
39.254063
20
17.003740
70
0
0
VERTEX
8
Layer 1
10
39.389000
20
16.148098
70
0
0
VERTEX
8
Layer 1
10
39.439800
20
15.817898
70
0
0
VERTEX
8
Layer 1
10
39.389000
20
11.855344
70
0
0
VERTEX
8
Layer 1
10
39.392175
20
11.767767
70
0
0
VERTEX
8
Layer 1
10
39.611250
20
10.990508
70
0
0
VERTEX
8
Layer 1
10
40.176399
20
10.001199
70
0
0
VERTEX
8
Layer 1
10
40.176399
20
9.950558
70
0
0
VERTEX
8
Layer 1
10
39.890650
20
9.398122
70
0
0
VERTEX
8
Layer 1
10
39.439800
20
9.213906
70
0
0
VERTEX
8
Layer 1
10
39.342963
20
9.256557
70
0
0
VERTEX
8
Layer 1
10
38.714314
20
9.668622
70
0
0
VERTEX
8
Layer 1
10
38.258702
20
10.242552
70
0
0
VERTEX
8
Layer 1
10
37.976127
20
10.978347
70
0
0
VERTEX
8
Layer 1
10
37.866590
20
11.876008
70
0
0
VERTEX
8
Layer 1
10
37.865002
20
12.007797
70
0
0
VERTEX
8
Layer 1
10
37.865002
20
12.337997
70
0
0
VERTEX
8
Layer 1
10
37.788802
20
12.388902
70
0
0
VERTEX
8
Layer 1
10
37.865002
20
12.490449
70
0
0
VERTEX
8
Layer 1
10
37.865002
20
12.541355
70
0
0
VERTEX
8
Layer 1
10
37.941202
20
16.046551
70
0
0
VERTEX
8
Layer 1
10
37.782452
20
16.598864
70
0
0
VERTEX
8
Layer 1
10
37.306203
20
16.782938
70
0
0
VERTEX
8
Layer 1
10
37.306203
20
17.047521
70
0
0
VERTEX
8
Layer 1
10
37.679430
20
16.983671
70
0
0
VERTEX
8
Layer 1
10
37.983006
20
16.771587
70
0
0
VERTEX
8
Layer 1
10
38.155812
20
16.441801
70
0
0
VERTEX
8
Layer 1
10
38.205785
20
16.046551
70
0
0
VERTEX
8
Layer 1
10
38.205785
20
16.040889
70
0
0
VERTEX
8
Layer 1
10
38.129585
20
12.535666
70
0
0
VERTEX
8
Layer 1
10
38.129585
20
12.010893
70
0
0
VERTEX
8
Layer 1
10
38.131173
20
11.882226
70
0
0
VERTEX
8
Layer 1
10
38.135142
20
11.768005
70
0
0
VERTEX
8
Layer 1
10
38.249801
20
10.973998
70
0
0
VERTEX
8
Layer 1
10
38.510287
20
10.336082
70
0
0
VERTEX
8
Layer 1
10
38.912805
20
9.846339
70
0
0
VERTEX
8
Layer 1
10
39.453559
20
9.496851
70
0
0
VERTEX
8
Layer 1
10
39.488748
20
9.481347
70
0
0
VERTEX
8
Layer 1
10
39.703590
20
9.585196
70
0
0
VERTEX
8
Layer 1
10
39.897793
20
9.942541
70
0
0
VERTEX
8
Layer 1
10
39.352719
20
10.921561
70
0
0
VERTEX
8
Layer 1
10
39.128122
20
11.749670
70
0
0
VERTEX
8
Layer 1
10
39.127857
20
11.754062
70
0
0
VERTEX
8
Layer 1
10
39.127857
20
11.758454
70
0
0
VERTEX
8
Layer 1
10
39.124682
20
11.846057
70
0
0
VERTEX
8
Layer 1
10
39.124417
20
11.852249
70
0
0
VERTEX
8
Layer 1
10
39.124417
20
11.858704
70
0
0
VERTEX
8
Layer 1
10
39.174953
20
15.800065
70
0
0
VERTEX
8
Layer 1
10
39.124417
20
16.127963
70
0
0
VERTEX
8
Layer 1
10
39.124417
20
16.148098
70
0
0
VERTEX
8
Layer 1
10
39.005322
20
16.913807
70
0
0
VERTEX
8
Layer 1
10
38.664572
20
17.451116
70
0
0
VERTEX
8
Layer 1
10
38.084044
20
17.809196
70
0
0
VERTEX
8
Layer 1
10
37.218361
20
17.991659
70
0
0
VERTEX
8
Layer 1
10
36.561203
20
17.887919
70
0
0
VERTEX
8
Layer 1
10
35.929048
20
17.579015
70
0
0
VERTEX
8
Layer 1
10
35.845176
20
17.522950
70
0
0
VERTEX
8
Layer 1
10
35.268649
20
17.605130
70
0
0
VERTEX
8
Layer 1
10
35.033435
20
17.534592
70
0
0
VERTEX
8
Layer 1
10
34.994806
20
17.534592
70
0
0
VERTEX
8
Layer 1
10
34.959616
20
17.517024
70
0
0
VERTEX
8
Layer 1
10
34.851137
20
17.367931
70
0
0
VERTEX
8
Layer 1
10
34.607721
20
16.521477
70
0
0
VERTEX
8
Layer 1
10
34.395790
20
12.871555
70
0
0
VERTEX
8
Layer 1
10
34.395790
20
10.339151
70
0
0
VERTEX
8
Layer 1
10
34.400817
20
10.247182
70
0
0
VERTEX
8
Layer 1
10
34.525965
20
9.852107
70
0
0
VERTEX
8
Layer 1
10
34.842406
20
9.732489
70
0
0
VERTEX
8
Layer 1
10
34.842406
20
9.467906
70
0
0
VERTEX
8
Layer 1
10
34.321806
20
9.683766
70
0
0
VERTEX
8
Layer 1
10
34.131207
20
10.331426
70
0
0
VERTEX
8
Layer 1
10
34.131207
20
12.871555
70
0
0
VERTEX
8
Layer 1
10
34.131207
20
12.871555
70
0
0
SEQEND
8
Layer 1
0
POLYLINE
8
Layer 1
62
7
70
1
10
0.000000
20
0.000000
66
1
0
VERTEX
8
Layer 1
10
35.466822
20
11.220504
70
0
0
VERTEX
8
Layer 1
10
35.547123
20
13.484941
70
0
0
VERTEX
8
Layer 1
10
35.790936
20
15.197266
70
0
0
VERTEX
8
Layer 1
10
36.216915
20
16.377279
70
0
0
VERTEX
8
Layer 1
10
36.519697
20
16.774924
70
0
0
VERTEX
8
Layer 1
10
36.903243
20
17.028683
70
0
0
VERTEX
8
Layer 1
10
36.950339
20
17.047521
70
0
0
VERTEX
8
Layer 1
10
37.306203
20
17.047521
70
0
0
VERTEX
8
Layer 1
10
37.306203
20
16.782938
70
0
0
VERTEX
8
Layer 1
10
37.001403
20
16.782938
70
0
0
VERTEX
8
Layer 1
10
36.445779
20
16.244730
70
0
0
VERTEX
8
Layer 1
10
36.048905
20
15.138260
70
0
0
VERTEX
8
Layer 1
10
35.810780
20
13.463521
70
0
0
VERTEX
8
Layer 1
10
35.731405
20
11.220504
70
0
0
VERTEX
8
Layer 1
10
35.509155
20
9.906115
70
0
0
VERTEX
8
Layer 1
10
35.231343
20
9.577488
70
0
0
VERTEX
8
Layer 1
10
34.842406
20
9.467906
70
0
0
VERTEX
8
Layer 1
10
34.842406
20
9.732489
70
0
0
VERTEX
8
Layer 1
10
35.086087
20
9.798635
70
0
0
VERTEX
8
Layer 1
10
35.273147
20
10.025753
70
0
0
VERTEX
8
Layer 1
10
35.466822
20
11.220504
70
0
0
VERTEX
8
Layer 1
10
35.466822
20
11.220504
70
0
0
SEQEND
8
Layer 1
0
POLYLINE
8
Layer 1
62
7
70
1
10
0.000000
20
0.000000
66
1
0
VERTEX
8
Layer 1
10
31.438810
20
16.209349
70
0
0
VERTEX
8
Layer 1
10
31.438810
20
15.944766
70
0
0
VERTEX
8
Layer 1
10
31.312340
20
15.130088
70
0
0
VERTEX
8
Layer 1
10
30.949332
20
13.893454
70
0
0
VERTEX
8
Layer 1
10
29.514763
20
10.055201
70
0
0
VERTEX
8
Layer 1
10
29.448352
20
9.889069
70
0
0
VERTEX
8
Layer 1
10
28.750647
20
9.889069
70
0
0
VERTEX
8
Layer 1
10
28.750647
20
10.655169
70
0
0
VERTEX
8
Layer 1
10
28.753293
20
10.673769
70
0
0
VERTEX
8
Layer 1
10
28.854893
20
11.384836
70
0
0
VERTEX
8
Layer 1
10
28.855422
20
11.387429
70
0
0
VERTEX
8
Layer 1
10
28.855687
20
11.390260
70
0
0
VERTEX
8
Layer 1
10
29.165030
20
12.810334
70
0
0
VERTEX
8
Layer 1
10
29.603630
20
14.073585
70
0
0
VERTEX
8
Layer 1
10
30.173149
20
15.177853
70
0
0
VERTEX
8
Layer 1
10
30.875249
20
16.120978
70
0
0
VERTEX
8
Layer 1
10
30.954094
20
16.209349
70
0
0
VERTEX
8
Layer 1
10
31.438810
20
16.209349
70
0
0
VERTEX
8
Layer 1
10
31.438810
20
16.209349
70
0
0
SEQEND
8
Layer 1
0
POLYLINE
8
Layer 1
62
7
70
1
10
0.000000
20
0.000000
66
1
0
VERTEX
8
Layer 1
10
12.027679
20
12.170833
70
0
0
VERTEX
8
Layer 1
10
12.008285
20
12.117361
70
0
0
VERTEX
8
Layer 1
10
11.909331
20
12.442401
70
0
0
VERTEX
8
Layer 1
10
11.764630
20
12.933573
70
0
0
VERTEX
8
Layer 1
10
12.386824
20
13.153706
70
0
0
VERTEX
8
Layer 1
10
12.027679
20
12.170833
70
0
0
VERTEX
8
Layer 1
10
12.027679
20
12.170833
70
0
0
SEQEND
8
Layer 1
0
POLYLINE
8
Layer 1
62
7
70
1
10
0.000000
20
0.000000
66
1
0
VERTEX
8
Layer 1
10
7.836710
20
18.986438
70
0
0
VERTEX
8
Layer 1
10
8.057108
20
18.885923
70
0
0
VERTEX
8
Layer 1
10
8.127910
20
18.778423
70
0
0
VERTEX
8
Layer 1
10
8.204401
20
18.556226
70
0
0
VERTEX
8
Layer 1
10
8.344948
20
17.829126
70
0
0
VERTEX
8
Layer 1
10
8.683429
20
15.015100
70
0
0
VERTEX
8
Layer 1
10
8.685757
20
14.990282
70
0
0
VERTEX
8
Layer 1
10
8.683693
20
14.965491
70
0
0
VERTEX
8
Layer 1
10
8.681630
20
14.941467
70
0
0
VERTEX
8
Layer 1
10
8.680862
20
14.930619
70
0
0
VERTEX
8
Layer 1
10
8.678799
20
14.919506
70
0
0
VERTEX
8
Layer 1
10
8.413184
20
14.559065
70
0
0
VERTEX
8
Layer 1
10
7.957387
20
14.339937
70
0
0
VERTEX
8
Layer 1
10
6.387986
20
13.940999
70
0
0
VERTEX
8
Layer 1
10
5.943804
20
13.854189
70
0
0
VERTEX
8
Layer 1
10
7.644993
20
18.986941
70
0
0
VERTEX
8
Layer 1
10
7.836710
20
18.986438
70
0
0
VERTEX
8
Layer 1
10
7.836710
20
18.986438
70
0
0
SEQEND
8
Layer 1
0
POLYLINE
8
Layer 1
62
7
70
1
10
0.000000
20
0.000000
66
1
0
VERTEX
8
Layer 1
10
18.550020
20
18.018541
70
0
0
VERTEX
8
Layer 1
10
18.873499
20
17.900193
70
0
0
VERTEX
8
Layer 1
10
18.917949
20
17.793222
70
0
0
VERTEX
8
Layer 1
10
19.130594
20
17.282921
70
0
0
VERTEX
8
Layer 1
10
19.095193
20
17.185766
70
0
0
VERTEX
8
Layer 1
10
18.704775
20
16.118385
70
0
0
VERTEX
8
Layer 1
10
18.676623
20
16.083777
70
0
0
VERTEX
8
Layer 1
10
17.136406
20
14.480246
70
0
0
VERTEX
8
Layer 1
10
16.517573
20
14.113348
70
0
0
VERTEX
8
Layer 1
10
15.922526
20
14.088531
70
0
0
VERTEX
8
Layer 1
10
15.674214
20
14.179494
70
0
0
VERTEX
8
Layer 1
10
15.764913
20
14.428043
70
0
0
VERTEX
8
Layer 1
10
16.353941
20
15.830919
70
0
0
VERTEX
8
Layer 1
10
16.976465
20
16.899487
70
0
0
VERTEX
8
Layer 1
10
17.648149
20
17.636850
70
0
0
VERTEX
8
Layer 1
10
18.394207
20
18.026531
70
0
0
VERTEX
8
Layer 1
10
18.473264
20
18.046428
70
0
0
VERTEX
8
Layer 1
10
18.550020
20
18.018541
70
0
0
VERTEX
8
Layer 1
10
18.550020
20
18.018541
70
0
0
SEQEND
8
Layer 1
0
POLYLINE
8
Layer 1
62
7
70
1
10
0.000000
20
0.000000
66
1
0
VERTEX
8
Layer 1
10
6.337318
20
14.200687
70
0
0
VERTEX
8
Layer 1
10
7.866271
20
14.588404
70
0
0
VERTEX
8
Layer 1
10
8.418079
20
14.964194
70
0
0
VERTEX
8
Layer 1
10
8.420142
20
14.988219
70
0
0
VERTEX
8
Layer 1
10
8.083613
20
17.788208
70
0
0
VERTEX
8
Layer 1
10
7.835943
20
18.721855
70
0
0
VERTEX
8
Layer 1
10
6.337318
20
14.200687
70
0
0
VERTEX
8
Layer 1
10
6.337318
20
14.200687
70
0
0
SEQEND
8
Layer 1
0
POLYLINE
8
Layer 1
62
7
70
1
10
0.000000
20
0.000000
66
1
0
VERTEX
8
Layer 1
10
18.459056
20
17.769965
70
0
0
VERTEX
8
Layer 1
10
17.814444
20
17.431005
70
0
0
VERTEX
8
Layer 1
10
17.191968
20
16.745873
70
0
0
VERTEX
8
Layer 1
10
16.591638
20
15.714573
70
0
0
VERTEX
8
Layer 1
10
16.013463
20
14.337106
70
0
0
VERTEX
8
Layer 1
10
16.426517
20
14.361849
70
0
0
VERTEX
8
Layer 1
10
16.973879
20
14.689078
70
0
0
VERTEX
8
Layer 1
10
18.471465
20
16.250941
70
0
0
VERTEX
8
Layer 1
10
18.846618
20
17.276729
70
0
0
VERTEX
8
Layer 1
10
18.673765
20
17.691410
70
0
0
VERTEX
8
Layer 1
10
18.459056
20
17.769965
70
0
0
VERTEX
8
Layer 1
10
18.459056
20
17.769965
70
0
0
SEQEND
8
Layer 1
0
POLYLINE
8
Layer 1
62
7
70
1
10
0.000000
20
0.000000
66
1
0
VERTEX
8
Layer 1
10
8.242369
20
25.135400
70
0
0
VERTEX
8
Layer 1
10
8.242369
20
24.870817
70
0
0
VERTEX
8
Layer 1
10
8.035677
20
24.870817
70
0
0
VERTEX
8
Layer 1
10
6.519748
20
24.385577
70
0
0
VERTEX
8
Layer 1
10
6.330863
20
23.692338
70
0
0
VERTEX
8
Layer 1
10
4.863492
20
18.725153
70
0
0
VERTEX
8
Layer 1
10
3.544989
20
15.124664
70
0
0
VERTEX
8
Layer 1
10
3.466461
20
14.939906
70
0
0
VERTEX
8
Layer 1
10
2.959758
20
15.142735
70
0
0
VERTEX
8
Layer 1
10
2.704991
20
15.142735
70
0
0
VERTEX
8
Layer 1
10
2.704991
20
15.407318
70
0
0
VERTEX
8
Layer 1
10
3.010663
20
15.407318
70
0
0
VERTEX
8
Layer 1
10
3.058209
20
15.388453
70
0
0
VERTEX
8
Layer 1
10
3.323824
20
15.282276
70
0
0
VERTEX
8
Layer 1
10
4.624501
20
18.846659
70
0
0
VERTEX
8
Layer 1
10
6.075593
20
23.761841
70
0
0
VERTEX
8
Layer 1
10
6.302182
20
24.593830
70
0
0
VERTEX
8
Layer 1
10
6.439130
20
24.637497
70
0
0
VERTEX
8
Layer 1
10
7.955058
20
25.122739
70
0
0
VERTEX
8
Layer 1
10
7.994322
20
25.135400
70
0
0
VERTEX
8
Layer 1
10
8.242369
20
25.135400
70
0
0
VERTEX
8
Layer 1
10
8.242369
20
25.135400
70
0
0
SEQEND
8
Layer 1
0
POLYLINE
8
Layer 1
62
7
70
1
10
0.000000
20
0.000000
66
1
0
VERTEX
8
Layer 1
10
21.636645
20
21.750854
70
0
0
VERTEX
8
Layer 1
10
22.176481
20
21.677244
70
0
0
VERTEX
8
Layer 1
10
22.627102
20
21.486754
70
0
0
VERTEX
8
Layer 1
10
23.264439
20
20.936944
70
0
0
VERTEX
8
Layer 1
10
23.959542
20
21.443829
70
0
0
VERTEX
8
Layer 1
10
24.913188
20
21.649307
70
0
0
VERTEX
8
Layer 1
10
24.920940
20
21.649307
70
0
0
VERTEX
8
Layer 1
10
25.033838
20
21.645947
70
0
0
VERTEX
8
Layer 1
10
25.042119
20
21.645444
70
0
0
VERTEX
8
Layer 1
10
25.900982
20
21.399521
70
0
0
VERTEX
8
Layer 1
10
26.535294
20
20.880112
70
0
0
VERTEX
8
Layer 1
10
26.594825
20
20.807245
70
0
0
VERTEX
8
Layer 1
10
26.940106
20
20.230795
70
0
0
VERTEX
8
Layer 1
10
27.145687
20
19.661310
70
0
0
VERTEX
8
Layer 1
10
27.368565
20
18.394933
70
0
0
VERTEX
8
Layer 1
10
27.438845
20
16.865885
70
0
0
VERTEX
8
Layer 1
10
27.550763
20
16.130265
70
0
0
VERTEX
8
Layer 1
10
29.151490
20
18.465792
70
0
0
VERTEX
8
Layer 1
10
29.255207
20
18.594458
70
0
0
VERTEX
8
Layer 1
10
29.276638
20
18.611789
70
0
0
VERTEX
8
Layer 1
10
29.383530
20
18.698863
70
0
0
VERTEX
8
Layer 1
10
30.684980
20
19.514159
70
0
0
VERTEX
8
Layer 1
10
31.413803
20
19.755924
70
0
0
VERTEX
8
Layer 1
10
32.190226
20
19.843740
70
0
0
VERTEX
8
Layer 1
10
33.085740
20
19.735152
70
0
0
VERTEX
8
Layer 1
10
34.016378
20
19.276342
70
0
0
VERTEX
8
Layer 1
10
34.130678
20
19.178922
70
0
0
VERTEX
8
Layer 1
10
34.668310
20
19.358759
70
0
0
VERTEX
8
Layer 1
10
35.071800
20
19.479409
70
0
0
VERTEX
8
Layer 1
10
35.127627
20
19.495946
70
0
0
VERTEX
8
Layer 1
10
35.185041
20
19.487955
70
0
0
VERTEX
8
Layer 1
10
35.473172
20
19.446866
70
0
0
VERTEX
8
Layer 1
10
35.477670
20
19.446336
70
0
0
VERTEX
8
Layer 1
10
36.325361
20
19.741637
70
0
0
VERTEX
8
Layer 1
10
37.230003
20
19.843740
70
0
0
VERTEX
8
Layer 1
10
37.230003
20
19.579157
70
0
0
VERTEX
8
Layer 1
10
36.346527
20
19.474895
70
0
0
VERTEX
8
Layer 1
10
35.520003
20
19.172969
70
0
0
VERTEX
8
Layer 1
10
35.435866
20
19.184875
70
0
0
VERTEX
8
Layer 1
10
35.147735
20
19.225939
70
0
0
VERTEX
8
Layer 1
10
34.731546
20
19.101399
70
0
0
VERTEX
8
Layer 1
10
34.089667
20
18.847426
70
0
0
VERTEX
8
Layer 1
10
33.851807
20
19.069358
70
0
0
VERTEX
8
Layer 1
10
33.018139
20
19.479416
70
0
0
VERTEX
8
Layer 1
10
32.190226
20
19.579157
70
0
0
VERTEX
8
Layer 1
10
31.472152
20
19.497806
70
0
0
VERTEX
8
Layer 1
10
30.791012
20
19.271788
70
0
0
VERTEX
8
Layer 1
10
29.550746
20
18.493943
70
0
0
VERTEX
8
Layer 1
10
29.443855
20
18.406869
70
0
0
VERTEX
8
Layer 1
10
29.357336
20
18.299660
70
0
0
VERTEX
8
Layer 1
10
28.268312
20
16.802689
70
0
0
VERTEX
8
Layer 1
10
27.399951
20
15.278651
70
0
0
VERTEX
8
Layer 1
10
27.174791
20
16.843660
70
0
0
VERTEX
8
Layer 1
10
27.106495
20
18.360101
70
0
0
VERTEX
8
Layer 1
10
26.891158
20
19.589502
70
0
0
VERTEX
8
Layer 1
10
26.682742
20
20.157307
70
0
0
VERTEX
8
Layer 1
10
26.333496
20
20.709059
70
0
0
VERTEX
8
Layer 1
10
25.774733
20
21.167042
70
0
0
VERTEX
8
Layer 1
10
25.026086
20
21.381364
70
0
0
VERTEX
8
Layer 1
10
24.913188
20
21.384724
70
0
0
VERTEX
8
Layer 1
10
23.917033
20
21.123144
70
0
0
VERTEX
8
Layer 1
10
23.246871
20
20.502869
70
0
0
VERTEX
8
Layer 1
10
23.096244
20
20.723531
70
0
0
VERTEX
8
Layer 1
10
22.528141
20
21.238182
70
0
0
VERTEX
8
Layer 1
10
21.636645
20
21.486271
70
0
0
VERTEX
8
Layer 1
10
21.636645
20
21.750854
70
0
0
VERTEX
8
Layer 1
10
21.636645
20
21.750854
70
0
0
SEQEND
8
Layer 1
0
POLYLINE
8
Layer 1
62
7
70
1
10
0.000000
20
0.000000
66
1
0
VERTEX
8
Layer 1
10
8.242369
20
25.135400
70
0
0
VERTEX
8
Layer 1
10
9.006137
20
24.996998
70
0
0
VERTEX
8
Layer 1
10
9.670191
20
24.595381
70
0
0
VERTEX
8
Layer 1
10
10.111797
20
24.072350
70
0
0
VERTEX
8
Layer 1
10
10.375067
20
23.537567
70
0
0
VERTEX
8
Layer 1
10
10.619250
20
22.514762
70
0
0
VERTEX
8
Layer 1
10
10.691587
20
21.378533
70
0
0
VERTEX
8
Layer 1
10
11.221521
20
17.431219
70
0
0
VERTEX
8
Layer 1
10
12.635135
20
17.947209
70
0
0
VERTEX
8
Layer 1
10
12.915990
20
17.947209
70
0
0
VERTEX
8
Layer 1
10
12.915990
20
17.682626
70
0
0
VERTEX
8
Layer 1
10
12.681887
20
17.682626
70
0
0
VERTEX
8
Layer 1
10
11.003187
20
17.069481
70
0
0
VERTEX
8
Layer 1
10
10.427507
20
21.358107
70
0
0
VERTEX
8
Layer 1
10
10.358289
20
22.471243
70
0
0
VERTEX
8
Layer 1
10
10.127523
20
23.444032
70
0
0
VERTEX
8
Layer 1
10
9.887966
20
23.931330
70
0
0
VERTEX
8
Layer 1
10
9.495275
20
24.396944
70
0
0
VERTEX
8
Layer 1
10
8.912597
20
24.749530
70
0
0
VERTEX
8
Layer 1
10
8.242369
20
24.870817
70
0
0
VERTEX
8
Layer 1
10
8.242369
20
25.135400
70
0
0
VERTEX
8
Layer 1
10
8.242369
20
25.135400
70
0
0
SEQEND
8
Layer 1
0
POLYLINE
8
Layer 1
62
7
70
1
10
0.000000
20
0.000000
66
1
0
VERTEX
8
Layer 1
10
21.636645
20
21.750854
70
0
0
VERTEX
8
Layer 1
10
21.636645
20
21.486271
70
0
0
VERTEX
8
Layer 1
10
21.520626
20
21.486271
70
0
0
VERTEX
8
Layer 1
10
21.406670
20
21.466110
70
0
0
VERTEX
8
Layer 1
10
20.765314
20
21.287639
70
0
0
VERTEX
8
Layer 1
10
20.130268
20
20.909560
70
0
0
VERTEX
8
Layer 1
10
19.666745
20
20.330282
70
0
0
VERTEX
8
Layer 1
10
19.571390
20
20.367482
70
0
0
VERTEX
8
Layer 1
10
18.527068
20
20.555650
70
0
0
VERTEX
8
Layer 1
10
17.523511
20
20.394962
70
0
0
VERTEX
8
Layer 1
10
16.575863
20
19.960278
70
0
0
VERTEX
8
Layer 1
10
15.699270
20
19.326454
70
0
0
VERTEX
8
Layer 1
10
14.923883
20
19.013823
70
0
0
VERTEX
8
Layer 1
10
14.399272
20
18.537371
70
0
0
VERTEX
8
Layer 1
10
14.063989
20
17.956522
70
0
0
VERTEX
8
Layer 1
10
14.032450
20
17.874343
70
0
0
VERTEX
8
Layer 1
10
13.981042
20
17.733796
70
0
0
VERTEX
8
Layer 1
10
13.890872
20
17.418308
70
0
0
VERTEX
8
Layer 1
10
12.915990
20
17.682626
70
0
0
VERTEX
8
Layer 1
10
12.915990
20
17.947209
70
0
0
VERTEX
8
Layer 1
10
13.723179
20
17.795021
70
0
0
VERTEX
8
Layer 1
10
13.726540
20
17.806398
70
0
0
VERTEX
8
Layer 1
10
13.729371
20
17.815711
70
0
0
VERTEX
8
Layer 1
10
13.732466
20
17.824734
70
0
0
VERTEX
8
Layer 1
10
13.783901
20
17.965307
70
0
0
VERTEX
8
Layer 1
10
13.784668
20
17.967106
70
0
0
VERTEX
8
Layer 1
10
13.785436
20
17.969169
70
0
0
VERTEX
8
Layer 1
10
13.816974
20
18.051349
70
0
0
VERTEX
8
Layer 1
10
13.817741
20
18.053677
70
0
0
VERTEX
8
Layer 1
10
13.818773
20
18.055741
70
0
0
VERTEX
8
Layer 1
10
14.191726
20
18.701496
70
0
0
VERTEX
8
Layer 1
10
14.780480
20
19.236284
70
0
0
VERTEX
8
Layer 1
10
15.578621
20
19.570373
70
0
0
VERTEX
8
Layer 1
10
16.457755
20
20.197302
70
0
0
VERTEX
8
Layer 1
10
17.424147
20
20.640697
70
0
0
VERTEX
8
Layer 1
10
18.460994
20
20.819843
70
0
0
VERTEX
8
Layer 1
10
19.551493
20
20.654025
70
0
0
VERTEX
8
Layer 1
10
19.958448
20
21.110854
70
0
0
VERTEX
8
Layer 1
10
20.666601
20
21.533089
70
0
0
VERTEX
8
Layer 1
10
21.360685
20
21.726566
70
0
0
VERTEX
8
Layer 1
10
21.474641
20
21.746727
70
0
0
VERTEX
8
Layer 1
10
21.497369
20
21.750854
70
0
0
VERTEX
8
Layer 1
10
21.636645
20
21.750854
70
0
0
VERTEX
8
Layer 1
10
21.636645
20
21.750854
70
0
0
SEQEND
8
Layer 1
0
POLYLINE
8
Layer 1
62
7
70
1
10
0.000000
20
0.000000
66
1
0
VERTEX
8
Layer 1
10
29.015230
20
10.153652
70
0
0
VERTEX
8
Layer 1
10
29.269230
20
10.153652
70
0
0
VERTEX
8
Layer 1
10
30.697978
20
13.976228
70
0
0
VERTEX
8
Layer 1
10
31.174227
20
15.944766
70
0
0
VERTEX
8
Layer 1
10
31.072628
20
15.944766
70
0
0
VERTEX
8
Layer 1
10
30.397941
20
15.038304
70
0
0
VERTEX
8
Layer 1
10
29.847079
20
13.969918
70
0
0
VERTEX
8
Layer 1
10
29.420042
20
12.739607
70
0
0
VERTEX
8
Layer 1
10
29.116830
20
11.347371
70
0
0
VERTEX
8
Layer 1
10
29.015230
20
10.636305
70
0
0
VERTEX
8
Layer 1
10
29.015230
20
10.153652
70
0
0
VERTEX
8
Layer 1
10
29.015230
20
10.153652
70
0
0
SEQEND
8
Layer 1
0
POLYLINE
8
Layer 1
62
7
70
1
10
0.000000
20
0.000000
66
1
0
VERTEX
8
Layer 1
10
10.223381
20
13.718035
70
0
0
VERTEX
8
Layer 1
10
10.225207
20
13.680305
70
0
0
VERTEX
8
Layer 1
10
11.899779
20
8.155574
70
0
0
VERTEX
8
Layer 1
10
11.899779
20
8.104669
70
0
0
VERTEX
8
Layer 1
10
11.702962
20
7.660143
70
0
0
VERTEX
8
Layer 1
10
11.112486
20
7.291817
70
0
0
VERTEX
8
Layer 1
10
11.067004
20
7.293616
70
0
0
VERTEX
8
Layer 1
10
10.747669
20
7.422908
70
0
0
VERTEX
8
Layer 1
10
10.487901
20
7.757804
70
0
0
VERTEX
8
Layer 1
10
10.147181
20
9.044414
70
0
0
VERTEX
8
Layer 1
10
8.724783
20
13.235621
70
0
0
VERTEX
8
Layer 1
10
8.623236
20
13.235621
70
0
0
VERTEX
8
Layer 1
10
6.127861
20
12.600632
70
0
0
VERTEX
8
Layer 1
10
5.503907
20
12.321218
70
0
0
VERTEX
8
Layer 1
10
5.295787
20
12.067222
70
0
0
VERTEX
8
Layer 1
10
3.689265
20
9.095347
70
0
0
VERTEX
8
Layer 1
10
3.052693
20
8.352343
70
0
0
VERTEX
8
Layer 1
10
2.527233
20
8.104669
70
0
0
VERTEX
8
Layer 1
10
2.462379
20
8.107526
70
0
0
VERTEX
8
Layer 1
10
2.082509
20
8.298287
70
0
0
VERTEX
8
Layer 1
10
1.892388
20
8.790415
70
0
0
VERTEX
8
Layer 1
10
2.228922
20
9.692167
70
0
0
VERTEX
8
Layer 1
10
3.238549
20
11.178118
70
0
0
VERTEX
8
Layer 1
10
3.645001
20
12.067222
70
0
0
VERTEX
8
Layer 1
10
3.009896
20
12.067222
70
0
0
VERTEX
8
Layer 1
10
2.527233
20
11.965411
70
0
0
VERTEX
8
Layer 1
10
1.822426
20
12.321076
70
0
0
VERTEX
8
Layer 1
10
1.587498
20
12.930742
70
0
0
VERTEX
8
Layer 1
10
2.057361
20
13.597501
70
0
0
VERTEX
8
Layer 1
10
2.704991
20
13.819820
70
0
0
VERTEX
8
Layer 1
10
3.340096
20
13.565847
70
0
0
VERTEX
8
Layer 1
10
3.962395
20
13.630914
70
0
0
VERTEX
8
Layer 1
10
4.406894
20
13.826130
70
0
0
VERTEX
8
Layer 1
10
4.673594
20
14.151522
70
0
0
VERTEX
8
Layer 1
10
4.762494
20
14.607113
70
0
0
VERTEX
8
Layer 1
10
6.121392
20
18.315562
70
0
0
VERTEX
8
Layer 1
10
7.607290
20
23.344813
70
0
0
VERTEX
8
Layer 1
10
8.242369
20
23.547902
70
0
0
VERTEX
8
Layer 1
10
8.620159
20
23.404988
70
0
0
VERTEX
8
Layer 1
10
8.890009
20
22.976367
70
0
0
VERTEX
8
Layer 1
10
9.105889
20
21.262011
70
0
0
VERTEX
8
Layer 1
10
9.893182
20
15.394406
70
0
0
VERTEX
8
Layer 1
10
9.994993
20
15.292859
70
0
0
VERTEX
8
Layer 1
10
12.915990
20
16.359711
70
0
0
VERTEX
8
Layer 1
10
13.366730
20
16.137382
70
0
0
VERTEX
8
Layer 1
10
13.550830
20
15.470633
70
0
0
VERTEX
8
Layer 1
10
13.349161
20
15.122979
70
0
0
VERTEX
8
Layer 1
10
12.744341
20
14.740387
70
0
0
VERTEX
8
Layer 1
10
10.325193
20
13.870461
70
0
0
VERTEX
8
Layer 1
10
10.223381
20
13.819820
70
0
0
VERTEX
8
Layer 1
10
10.223381
20
13.718035
70
0
0
VERTEX
8
Layer 1
10
10.223381
20
13.718035
70
0
0
SEQEND
8
Layer 1
0
POLYLINE
8
Layer 1
62
7
70
1
10
0.000000
20
0.000000
66
1
0
VERTEX
8
Layer 1
10
24.542666
20
17.623465
70
0
0
VERTEX
8
Layer 1
10
24.378869
20
15.990403
70
0
0
VERTEX
8
Layer 1
10
23.889199
20
14.350812
70
0
0
VERTEX
8
Layer 1
10
23.822815
20
14.183886
70
0
0
VERTEX
8
Layer 1
10
23.475021
20
14.183886
70
0
0
VERTEX
8
Layer 1
10
23.459252
20
14.185685
70
0
0
VERTEX
8
Layer 1
10
23.446340
20
14.187247
70
0
0
VERTEX
8
Layer 1
10
23.427740
20
14.189575
70
0
0
VERTEX
8
Layer 1
10
23.409642
20
14.194470
70
0
0
VERTEX
8
Layer 1
10
23.223614
20
14.316707
70
0
0
VERTEX
8
Layer 1
10
23.129555
20
14.457518
70
0
0
VERTEX
8
Layer 1
10
22.970408
20
14.841216
70
0
0
VERTEX
8
Layer 1
10
22.598325
20
16.190219
70
0
0
VERTEX
8
Layer 1
10
22.593695
20
16.209587
70
0
0
VERTEX
8
Layer 1
10
22.592134
20
16.229483
70
0
0
VERTEX
8
Layer 1
10
22.133241
20
19.106585
70
0
0
VERTEX
8
Layer 1
10
21.836114
20
19.757962
70
0
0
VERTEX
8
Layer 1
10
21.654214
20
19.897477
70
0
0
VERTEX
8
Layer 1
10
21.160449
20
19.701632
70
0
0
VERTEX
8
Layer 1
10
21.057341
20
19.555397
70
0
0
VERTEX
8
Layer 1
10
21.093774
20
19.531109
70
0
0
VERTEX
8
Layer 1
10
21.110839
20
19.414322
70
0
0
VERTEX
8
Layer 1
10
21.625133
20
16.436966
70
0
0
VERTEX
8
Layer 1
10
22.168378
20
14.312553
70
0
0
VERTEX
8
Layer 1
10
22.721065
20
13.064568
70
0
0
VERTEX
8
Layer 1
10
23.139900
20
12.707487
70
0
0
VERTEX
8
Layer 1
10
23.161860
20
12.706719
70
0
0
VERTEX
8
Layer 1
10
23.724364
20
12.895341
70
0
0
VERTEX
8
Layer 1
10
24.586587
20
13.529916
70
0
0
VERTEX
8
Layer 1
10
24.912394
20
13.814925
70
0
0
VERTEX
8
Layer 1
10
25.017302
20
13.394794
70
0
0
VERTEX
8
Layer 1
10
25.228412
20
10.056762
70
0
0
VERTEX
8
Layer 1
10
25.228412
20
10.050809
70
0
0
VERTEX
8
Layer 1
10
25.228148
20
10.045120
70
0
0
VERTEX
8
Layer 1
10
25.177507
20
8.571843
70
0
0
VERTEX
8
Layer 1
10
25.177242
20
8.559937
70
0
0
VERTEX
8
Layer 1
10
25.175681
20
8.548321
70
0
0
VERTEX
8
Layer 1
10
24.795829
20
6.192630
70
0
0
VERTEX
8
Layer 1
10
24.315548
20
4.485252
70
0
0
VERTEX
8
Layer 1
10
23.703938
20
3.402394
70
0
0
VERTEX
8
Layer 1
10
23.313834
20
3.094819
70
0
0
VERTEX
8
Layer 1
10
22.855685
20
2.982527
70
0
0
VERTEX
8
Layer 1
10
22.415922
20
2.982527
70
0
0
VERTEX
8
Layer 1
10
22.338399
20
3.060023
70
0
0
VERTEX
8
Layer 1
10
21.394049
20
4.315188
70
0
0
VERTEX
8
Layer 1
10
21.150015
20
4.957486
70
0
0
VERTEX
8
Layer 1
10
21.067157
20
5.609228
70
0
0
VERTEX
8
Layer 1
10
21.067157
20
5.615419
70
0
0
VERTEX
8
Layer 1
10
21.067421
20
5.621875
70
0
0
VERTEX
8
Layer 1
10
21.136160
20
7.069091
70
0
0
VERTEX
8
Layer 1
10
20.701027
20
7.347617
70
0
0
VERTEX
8
Layer 1
10
20.496928
20
7.283535
70
0
0
VERTEX
8
Layer 1
10
20.298993
20
7.067265
70
0
0
VERTEX
8
Layer 1
10
20.097725
20
5.939427
70
0
0
VERTEX
8
Layer 1
10
20.097725
20
5.884394
70
0
0
VERTEX
8
Layer 1
10
20.317858
20
4.416540
70
0
0
VERTEX
8
Layer 1
10
20.908109
20
3.322218
70
0
0
VERTEX
8
Layer 1
10
21.505386
20
2.546626
70
0
0
VERTEX
8
Layer 1
10
22.100992
20
2.082333
70
0
0
VERTEX
8
Layer 1
10
22.678679
20
1.913850
70
0
0
VERTEX
8
Layer 1
10
22.733977
20
1.912051
70
0
0
VERTEX
8
Layer 1
10
23.215359
20
1.999627
70
0
0
VERTEX
8
Layer 1
10
24.486083
20
3.118573
70
0
0
VERTEX
8
Layer 1
10
25.403613
20
4.670259
70
0
0
VERTEX
8
Layer 1
10
25.959977
20
6.665328
70
0
0
VERTEX
8
Layer 1
10
26.147203
20
9.114423
70
0
0
VERTEX
8
Layer 1
10
26.147203
20
10.308169
70
0
0
VERTEX
8
Layer 1
10
26.008439
20
13.377629
70
0
0
VERTEX
8
Layer 1
10
25.591685
20
16.692001
70
0
0
VERTEX
8
Layer 1
10
25.588325
20
16.713194
70
0
0
VERTEX
8
Layer 1
10
25.588325
20
16.734361
70
0
0
VERTEX
8
Layer 1
10
25.530715
20
18.165282
70
0
0
VERTEX
8
Layer 1
10
25.363270
20
19.157994
70
0
0
VERTEX
8
Layer 1
10
25.122473
20
19.682768
70
0
0
VERTEX
8
Layer 1
10
24.937980
20
19.795930
70
0
0
VERTEX
8
Layer 1
10
24.913188
20
19.797226
70
0
0
VERTEX
8
Layer 1
10
24.649187
20
19.701672
70
0
0
VERTEX
8
Layer 1
10
24.394870
20
19.332671
70
0
0
VERTEX
8
Layer 1
10
24.541634
20
17.646458
70
0
0
VERTEX
8
Layer 1
10
24.542666
20
17.634842
70
0
0
VERTEX
8
Layer 1
10
24.542666
20
17.623465
70
0
0
VERTEX
8
Layer 1
10
24.542666
20
17.623465
70
0
0
SEQEND
8
Layer 1
 0 
ENDSEC
 0 
EOF